<?xml version="1.0" standalone="no"?>
<!DOCTYPE svg PUBLIC "-//W3C//DTD SVG 1.1//EN" "http://www.w3.org/Graphics/SVG/1.1/DTD/svg11.dtd" >
<svg xmlns="http://www.w3.org/2000/svg">
<metadata></metadata>
<defs>
<font id="geoslab703_xbdit_btXBdIt" horiz-adv-x="1237" >
<font-face units-per-em="2048" ascent="1556" descent="-492" />
<missing-glyph horiz-adv-x="567" />
<glyph horiz-adv-x="2048" />
<glyph horiz-adv-x="2048" />
<glyph unicode="&#xd;" horiz-adv-x="567" />
<glyph unicode=" "  horiz-adv-x="567" />
<glyph unicode="&#x09;" horiz-adv-x="567" />
<glyph unicode="&#xa0;" horiz-adv-x="567" />
<glyph unicode="!" horiz-adv-x="674" d="M45 176q0 88 58.5 146.5t146.5 58.5t147.5 -59t59.5 -146t-59.5 -146t-147.5 -59q-87 0 -146 59t-59 146zM119 492q41 204 74.5 433.5t68.5 549.5h420q-75 -296 -128.5 -544t-84.5 -439h-350z" />
<glyph unicode="&#x22;" horiz-adv-x="713" d="M76 877v561h219v-561h-219zM416 877v561h223v-561h-223z" />
<glyph unicode="#" horiz-adv-x="1575" d="M23 381l86 231h270l82 230h-283l86 231h279l141 393h250l-139 -393h235l141 393h250l-139 -393h270l-86 -231h-268l-80 -230h277l-84 -231h-275l-141 -393h-250l139 393h-235l-141 -393h-250l139 393h-274zM625 610h245l82 232h-245z" />
<glyph unicode="$" horiz-adv-x="1133" d="M-27 27l64 446h207q23 -64 62.5 -107t101.5 -71l49 303q-200 90 -285.5 189.5t-85.5 238.5q0 176 131.5 293t335.5 117h37l18 108h133l-20 -117q40 -7 77 -20t72 -31l11 49h243l-69 -399h-217q-21 67 -57 106.5t-97 61.5l-47 -301q220 -99 316 -203.5t96 -243.5 q0 -195 -140 -320.5t-360 -125.5q-23 0 -34.5 0.5t-20.5 1.5l-29 -172h-131l33 199q-34 11 -67 29.5t-67 43.5l-20 -75h-240zM379 1077q0 -40 33.5 -73.5t99.5 -59.5l43 248q-80 0 -128 -32t-48 -83zM537 266q8 -1 15.5 -1.5t22.5 -0.5q71 0 113.5 35.5t42.5 93.5 q0 47 -33 81t-116 69z" />
<glyph unicode="%" horiz-adv-x="1849" d="M41 1057q0 157 111.5 268t269.5 111q159 0 270 -110t111 -269q0 -160 -110.5 -269.5t-270.5 -109.5q-159 0 -270 110t-111 269zM301 1057q0 -51 35.5 -87t85.5 -36t86.5 36t36.5 87q0 52 -35.5 87.5t-87.5 35.5q-51 0 -86 -35.5t-35 -87.5zM379 -29l911 1493h180 l-911 -1493h-180zM1047 379q0 159 110.5 270t267.5 111q159 0 270 -111t111 -270q0 -160 -110.5 -269.5t-270.5 -109.5q-158 0 -268 110t-110 269zM1305 379q0 -50 36.5 -86.5t85.5 -36.5q50 0 85.5 35.5t35.5 87.5q0 53 -34.5 88t-86.5 35q-51 0 -86.5 -35.5t-35.5 -87.5z " />
<glyph unicode="&#x26;" horiz-adv-x="1653" d="M0 440q0 139 84.5 249t263.5 206q-53 79 -75.5 137.5t-22.5 116.5q0 153 113.5 253.5t285.5 100.5q169 0 272 -91t103 -238q0 -95 -48.5 -176.5t-146.5 -149.5l222 -273q36 33 62.5 71.5t45.5 84.5h-108l45 258h536l-51 -287h-82q-39 -102 -99.5 -193.5t-148.5 -176.5 l47 -41h211l-51 -291h-377l-92 109q-112 -72 -221 -105t-233 -33q-248 0 -391.5 126.5t-143.5 342.5zM385 434q0 -63 49.5 -106t124.5 -43q56 0 118.5 21t115.5 59l-240 290q-80 -49 -124 -107t-44 -114zM547 1182q0 -28 19.5 -66t58.5 -86q70 29 105.5 69t35.5 91 q0 46 -29 74t-75 28q-54 0 -84.5 -29t-30.5 -81z" />
<glyph unicode="'" horiz-adv-x="371" d="M76 877v561h219v-561h-219z" />
<glyph unicode="(" horiz-adv-x="793" d="M90 334q0 343 130 645t374 524l231 -229q-175 -186 -270.5 -437.5t-95.5 -525.5q0 -139 19.5 -274.5t60.5 -276.5l-306 -116q-72 171 -107.5 341.5t-35.5 348.5z" />
<glyph unicode=")" horiz-adv-x="793" d="M-25 -129q175 186 271 437t96 526q0 139 -19.5 276t-60.5 276l305 117q74 -174 110 -345t36 -347q0 -343 -130.5 -645t-373.5 -524z" />
<glyph unicode="*" horiz-adv-x="1139" d="M195 1112l77 207l279 -145l-33 301h223l-39 -301l275 145l76 -207l-314 -84l236 -207l-168 -141l-184 250l-181 -254l-168 147l234 205z" />
<glyph unicode="+" horiz-adv-x="1706" d="M254 496v231h481v494h238v-494h479v-231h-479v-496h-238v496h-481z" />
<glyph unicode="," horiz-adv-x="563" d="M-53 -129l151 504h330l-156 -504h-325z" />
<glyph unicode="-" horiz-adv-x="678" d="M-10 311l61 351h547l-61 -351h-547z" />
<glyph unicode="." horiz-adv-x="563" d="M12 180q0 85 57.5 144t137.5 59q94 0 152.5 -56t58.5 -147q0 -85 -58 -141.5t-143 -56.5q-87 0 -146 56.5t-59 141.5z" />
<glyph unicode="/" horiz-adv-x="711" d="M20 -190l502 1693h168l-504 -1693h-166z" />
<glyph unicode="0" horiz-adv-x="1133" d="M37 354q0 33 5 78.5t15 104.5l64 364q26 152 44 219.5t40 112.5q55 114 164.5 173.5t263.5 59.5q221 0 342 -100t121 -283q0 -32 -5.5 -78t-15.5 -104l-63 -364q-27 -153 -44.5 -220t-39.5 -112q-56 -115 -164.5 -174.5t-263.5 -59.5q-221 0 -342 100t-121 283zM391 403 q0 -40 30.5 -68t76.5 -28q67 0 99.5 34t55.5 161l78 431q5 26 7.5 50.5t2.5 48.5q0 43 -32 70.5t-84 27.5q-63 0 -94.5 -36.5t-53.5 -159.5l-76 -433q-5 -25 -7.5 -49.5t-2.5 -48.5z" />
<glyph unicode="1" horiz-adv-x="1133" d="M111 0l47 266h157l160 905h-172l47 265h524l-206 -1170h174l-47 -266h-684z" />
<glyph unicode="2" horiz-adv-x="1133" d="M0 0l35 291l547 592q68 74 91 111.5t23 68.5q0 40 -30 65t-78 25q-63 0 -94 -43t-31 -131h-338q10 229 138 357t347 128q203 0 334 -110.5t131 -280.5q0 -103 -54 -201.5t-181 -222.5l-367 -358h256l14 84h293l-67 -375h-969z" />
<glyph unicode="3" horiz-adv-x="1133" d="M18 383q0 18 2 38.5t5 39.5h337q4 -85 36.5 -124.5t99.5 -39.5q70 0 113.5 48t43.5 126q0 62 -50.5 102.5t-129.5 40.5h-20l39 271q8 -1 18 -1.5t31 -0.5q97 0 155 44.5t58 116.5q0 53 -39 90t-94 37q-57 0 -92.5 -34.5t-49.5 -102.5h-327q35 203 172 316.5t348 113.5 q203 0 325.5 -99.5t122.5 -264.5q0 -131 -84 -222t-243 -130q119 -58 175 -137.5t56 -190.5q0 -193 -148.5 -318t-381.5 -125q-217 0 -347.5 112t-130.5 294z" />
<glyph unicode="4" horiz-adv-x="1133" d="M-20 356l45 258l608 822h461l-150 -838h146l-43 -242h-144l-22 -114h145l-43 -242h-690l41 242h196l21 114h-571zM332 598h268l96 500l-364 -482v-18z" />
<glyph unicode="5" horiz-adv-x="1133" d="M74 365q0 34 7 107q1 8 1 11h342q-4 -26 -6 -48t-2 -36q0 -56 25.5 -87t70.5 -31q62 0 101.5 73t39.5 187q0 85 -45 116t-180 31h-291l152 748h786l-55 -308h-481l-27 -157q44 6 82.5 9t75.5 3q170 0 261 -81t91 -232q0 -135 -34.5 -287t-78.5 -225q-57 -96 -151 -139.5 t-248 -43.5q-220 0 -328 96.5t-108 293.5z" />
<glyph unicode="6" horiz-adv-x="1133" d="M39 393q0 31 4.5 73t15.5 113l43 263q37 215 68.5 310t79.5 155q64 81 160.5 119t236.5 38q225 0 341 -93.5t116 -274.5q0 -21 -0.5 -36t-1.5 -29l-350 -1q0 9 2 24.5t2 18.5q0 58 -27.5 84.5t-87.5 26.5q-73 0 -110.5 -62t-65.5 -241q63 21 118.5 32t104.5 11 q158 0 244 -89t86 -253q0 -307 -121.5 -459t-366.5 -152q-236 0 -363.5 109.5t-127.5 312.5zM381 393q0 -66 30 -101.5t87 -35.5q50 0 82.5 27.5t54.5 89.5q17 50 29 113.5t12 105.5q0 65 -29.5 96t-91.5 31q-81 0 -127.5 -87t-46.5 -239z" />
<glyph unicode="7" horiz-adv-x="1133" d="M109 940l73 496h979l-55 -355l-535 -1081h-385l562 1145h-283l-31 -205h-325z" />
<glyph unicode="8" horiz-adv-x="1133" d="M-12 426q0 128 71.5 222.5t221.5 162.5q-79 67 -117.5 138.5t-38.5 148.5q0 162 139 264t365 102t361.5 -107.5t135.5 -287.5q0 -105 -58 -187t-173 -139q88 -72 126 -146.5t38 -174.5q0 -205 -144.5 -327t-388.5 -122q-252 0 -395 121t-143 332zM352 467 q0 -83 51 -132.5t136 -49.5q86 0 138 59t52 160q0 70 -51 118t-127 48q-87 0 -143 -57.5t-56 -145.5zM463 1030q0 -68 45.5 -112t116.5 -44q70 0 115.5 47t45.5 119q0 76 -40.5 120t-110.5 44q-77 0 -124.5 -48.5t-47.5 -125.5z" />
<glyph unicode="9" horiz-adv-x="1133" d="M29 344q0 11 2 41q1 14 2 23h348q-1 -10 -2.5 -24.5t-1.5 -18.5q0 -58 28 -84.5t89 -26.5q73 0 110.5 61.5t65.5 241.5q-64 -22 -119.5 -32.5t-104.5 -10.5q-157 0 -243 89t-86 253q0 307 121.5 458.5t365.5 151.5q237 0 363.5 -108.5t126.5 -310.5q0 -36 -5 -83.5 t-14 -105.5l-45 -260q-38 -226 -68.5 -318t-76.5 -149q-65 -81 -161.5 -119.5t-236.5 -38.5q-224 0 -341 95t-117 276zM459 846q0 -67 28.5 -98t90.5 -31q81 0 127.5 87.5t46.5 239.5q0 67 -29.5 102.5t-85.5 35.5q-51 0 -84 -28t-55 -89q-17 -48 -28 -111.5t-11 -107.5z " />
<glyph unicode=":" horiz-adv-x="678" d="M12 180q0 85 57.5 144t137.5 59q94 0 152.5 -56t58.5 -147q0 -85 -58 -141.5t-143 -56.5q-87 0 -146 56.5t-59 141.5zM104 770q0 85 58 144t137 59q94 0 152.5 -56t58.5 -147q0 -85 -57.5 -142t-143.5 -57q-87 0 -146 57t-59 142z" />
<glyph unicode=";" horiz-adv-x="678" d="M-51 -129l153 504h328l-156 -504h-325zM131 770q0 85 57.5 144t137.5 59q93 0 152 -56t59 -147q0 -85 -58 -142t-143 -57q-87 0 -146 57t-59 142z" />
<glyph unicode="&#x3c;" horiz-adv-x="1706" d="M264 494v233l1178 487v-253l-854 -351l854 -348v-254z" />
<glyph unicode="=" horiz-adv-x="1706" d="M254 272v230h1198v-230h-1198zM254 719v231h1198v-231h-1198z" />
<glyph unicode="&#x3e;" horiz-adv-x="1706" d="M264 8v254l854 348l-854 351v253l1178 -487v-233z" />
<glyph unicode="?" horiz-adv-x="1124" d="M76 1059q20 212 157 328t369 116q222 0 361 -125t139 -325q0 -164 -94 -278.5t-267 -160.5l-26 -118h-363l64 344h14q143 0 217 55t74 162q0 68 -36 105.5t-101 37.5q-60 0 -94 -36.5t-38 -104.5h-376zM289 176q0 87 59.5 146t147.5 59t147 -59t59 -146t-59 -146 t-147 -59t-147.5 59.5t-59.5 145.5z" />
<glyph unicode="@" horiz-adv-x="2048" d="M82 520q0 169 53 320.5t156 277.5q148 183 359.5 278t467.5 95q170 0 320 -46t260 -132q136 -107 203 -243t67 -306q0 -167 -65.5 -307t-190.5 -240q-69 -56 -154 -85.5t-176 -29.5q-106 0 -161 40t-60 120q-56 -82 -126.5 -120t-168.5 -38q-163 0 -247 87.5t-84 257.5 q0 241 141.5 404t349.5 163q77 0 134 -30.5t95 -92.5l52 92h206l-153 -610q0 -2 -1 -6q-3 -18 -3 -27q0 -30 16 -44.5t47 -14.5q137 0 240.5 143.5t103.5 335.5q0 239 -179.5 390t-467.5 151q-148 0 -274 -36.5t-230 -109.5q-155 -110 -239 -274.5t-84 -356.5 q0 -302 203 -481.5t544 -179.5q164 0 316 47.5t280 138.5l97 -135q-156 -117 -329 -175t-364 -58q-192 0 -354.5 49t-288.5 145q-157 122 -234 281.5t-77 361.5zM778 444q0 -83 35 -128.5t98 -45.5q84 0 148 59t88 158l51 209q-9 76 -50 116t-110 40q-103 0 -181.5 -121.5 t-78.5 -286.5z" />
<glyph unicode="A" horiz-adv-x="1579" d="M-92 0l51 289h147l414 897h-149l49 289h1012l-48 -289h-151l125 -897h110l-55 -289h-659l47 289h176l-23 209h-368l-90 -209h139l-53 -289h-674zM688 750h242l-49 460z" />
<glyph unicode="B" horiz-adv-x="1366" d="M-80 0l51 289h148l157 897h-147l51 289h654q257 0 393.5 -96.5t136.5 -278.5q0 -150 -95 -241.5t-286 -127.5q152 -53 224.5 -132.5t72.5 -192.5q0 -192 -133 -299t-373 -107h-854zM506 289h117q128 0 189.5 46t61.5 142q0 81 -52.5 124.5t-149.5 43.5h-103zM610 883h92 q124 0 182 42t58 132q0 66 -44 97.5t-136 31.5h-98z" />
<glyph unicode="C" horiz-adv-x="1518" d="M47 690q0 150 46.5 288.5t133.5 248.5q109 140 243 208t300 68q110 0 206 -34t187 -105l23 111h373l-99 -553h-373q-28 101 -96 154.5t-168 53.5q-156 0 -257 -124.5t-101 -323.5q0 -152 70.5 -231.5t205.5 -79.5q100 0 174.5 46t128.5 140l390 -170 q-101 -205 -276.5 -310.5t-416.5 -105.5q-307 0 -500.5 201.5t-193.5 517.5z" />
<glyph unicode="D" horiz-adv-x="1632" d="M-80 0l51 289h148l157 897h-147l51 289h660q185 0 301.5 -25.5t201.5 -81.5q119 -80 181.5 -215t62.5 -313q0 -186 -58.5 -348.5t-166.5 -278.5q-107 -115 -257 -164t-431 -49h-754zM506 289h127q281 0 417 133.5t136 408.5q0 179 -93.5 267t-283.5 88h-145z" />
<glyph unicode="E" horiz-adv-x="1346" d="M-92 0l51 289h150l149 897h-141l51 289h1229l-76 -549h-274l-23 260h-365l-49 -281h271l-54 -293h-268l-57 -323h407l113 295h274l-129 -584h-1259z" />
<glyph unicode="F" horiz-adv-x="1294" d="M-66 0l52 289h149l150 897h-142l52 289h1169l-66 -549h-276l-25 260h-311l-49 -281h250l-51 -293h-252l-56 -323h154l-51 -289h-697z" />
<glyph unicode="G" horiz-adv-x="1735" d="M45 686q0 354 214.5 583.5t551.5 229.5q113 0 207.5 -31.5t191.5 -101.5l25 109h387l-90 -519h-358q-43 98 -116.5 145.5t-183.5 47.5q-187 0 -298 -126t-111 -341q0 -159 83 -244.5t238 -85.5q105 0 184.5 41t159.5 137h-182l49 285h727l-49 -285h-108l-94 -530h-297 l26 154q-87 -92 -203.5 -137.5t-265.5 -45.5q-306 0 -497 198.5t-191 516.5z" />
<glyph unicode="H" horiz-adv-x="1608" d="M-80 0l51 289h148l157 897h-147l51 289h672l-51 -289h-139l-48 -273h443l47 273h-139l53 289h672l-52 -289h-149l-158 -897h148l-52 -289h-669l51 289h137l58 334h-441l-59 -334h139l-51 -289h-672z" />
<glyph unicode="I" horiz-adv-x="772" d="M-80 0l51 289h148l157 897h-147l51 289h672l-51 -289h-139l-158 -897h139l-51 -289h-672z" />
<glyph unicode="J" horiz-adv-x="793" d="M-121 -369l62 340q16 -3 27.5 -4.5t19.5 -1.5q53 0 81 43t50 170l176 1008h-141l51 289h663l-51 -289h-135l-188 -1077q-52 -294 -144 -396t-274 -102q-49 0 -98 5t-99 15z" />
<glyph unicode="K" horiz-adv-x="1532" d="M-80 0l51 289h148l157 897h-147l51 289h645l-49 -289h-114l-70 -398l436 398h-125l51 289h656l-51 -289h-103l-493 -461l311 -436h127l-51 -289h-623l51 289h99l-297 436l-76 -436h114l-51 -289h-647z" />
<glyph unicode="L" horiz-adv-x="1241" d="M-80 0l51 289h148l157 897h-147l51 289h672l-51 -289h-139l-158 -897h336l116 295h269l-127 -584h-1178z" />
<glyph unicode="M" horiz-adv-x="1925" d="M-80 0l51 289h148l157 897h-147l51 289h643l103 -723l372 723h689l-52 -289h-147l-158 -897h148l-52 -289h-645l52 289h112l176 870l-442 -860h-229l-115 817l-131 -827h121l-52 -289h-653z" />
<glyph unicode="N" horiz-adv-x="1583" d="M-80 0l51 289h148l157 897h-147l51 289h510l322 -861l90 572h-129l51 289h647l-49 -289h-147l-209 -1186h-322l-350 938l-102 -649h129l-52 -289h-649z" />
<glyph unicode="O" horiz-adv-x="1661" d="M49 666q0 365 234.5 603t590.5 238q331 0 534.5 -194t203.5 -504q0 -363 -234 -602.5t-583 -239.5q-335 0 -540.5 194t-205.5 505zM451 682q0 -166 95 -264.5t255 -98.5q176 0 293.5 137t117.5 339q0 167 -93.5 263.5t-254.5 96.5q-176 0 -294.5 -135.5t-118.5 -337.5z " />
<glyph unicode="P" horiz-adv-x="1356" d="M-80 0l51 289h148l157 897h-147l51 289h629q264 0 403.5 -108.5t139.5 -311.5q0 -244 -163.5 -374t-467.5 -130h-170l-47 -262h139l-51 -289h-672zM602 838h117q104 0 170.5 53t66.5 133q0 71 -56.5 116.5t-145.5 45.5h-90z" />
<glyph unicode="Q" horiz-adv-x="1661" d="M49 666q0 365 234.5 603t590.5 238q331 0 534.5 -194t203.5 -504q0 -239 -104.5 -428t-295.5 -295h277v-295h-533l-51 182h-6q-76 -4 -111 -4q-331 0 -535 193.5t-204 503.5zM451 682q0 -158 84.5 -253t236.5 -107l-57 192l276 88l58 -192q79 65 121 166t42 225 q0 164 -93.5 259t-254.5 95q-176 0 -294.5 -135.5t-118.5 -337.5z" />
<glyph unicode="R" horiz-adv-x="1460" d="M-80 0l51 289h148l157 897h-147l51 289h744q252 0 380 -86.5t128 -258.5q0 -145 -87 -238t-258 -130q96 -37 130 -76t34 -111q0 -12 -3 -35t-9 -59l-33 -192h131l-51 -289h-524l70 396l3 18q13 78 13 110q0 53 -39 75t-154 22h-92l-57 -332h137l-51 -289h-672zM610 879 h133q132 0 200.5 43.5t68.5 126.5q0 71 -52 104t-165 33h-131z" />
<glyph unicode="S" horiz-adv-x="1366" d="M-45 0l90 514h356q25 -108 104.5 -174t186.5 -66q73 0 119.5 37t46.5 90q0 107 -292 217q-79 30 -124 48q-194 77 -280 179t-86 251q0 181 144.5 295t379.5 114q134 0 236.5 -35t181.5 -108l18 113h348l-81 -463h-353q-28 108 -107 168.5t-192 60.5q-69 0 -110 -30 t-41 -78q0 -86 191 -154q55 -19 85 -31q277 -106 388.5 -218t111.5 -271q0 -208 -154.5 -349t-388.5 -141q-118 0 -217.5 34t-198.5 108l-20 -111h-342z" />
<glyph unicode="T" horiz-adv-x="1290" d="M49 942l88 533h1235l-74 -533h-247l-15 244h-123l-157 -897h139l-51 -289h-672l51 289h148l159 897h-137l-100 -244h-244z" />
<glyph unicode="U" horiz-adv-x="1583" d="M121 1186l51 289h670l-51 -289h-136l-90 -508q-8 -50 -13 -93t-5 -67q0 -89 51 -138.5t141 -49.5q99 0 166 77.5t92 223.5l99 555h-140l52 289h671l-51 -289h-147l-113 -617q-61 -331 -215.5 -464.5t-474.5 -133.5q-242 0 -388.5 117t-146.5 307q0 43 5.5 93.5 t17.5 113.5l102 584h-147z" />
<glyph unicode="V" horiz-adv-x="1450" d="M72 1186l53 289h641l-55 -289h-136l82 -674l320 674h-146l52 289h696l-49 -289h-160l-631 -1186h-346l-194 1186h-127z" />
<glyph unicode="W" horiz-adv-x="1982" d="M70 1186l53 289h604l-51 -289h-129l53 -619l305 619h-121l52 289h520l-51 -289h-129l114 -629l242 629h-109l52 289h608l-47 -289h-133l-523 -1186h-303l-104 715l-318 -715h-313l-152 1186h-120z" />
<glyph unicode="X" horiz-adv-x="1575" d="M-45 0l51 289h96l461 493l-266 404h-131l49 289h633l-51 -289h-109l129 -215l207 215h-106l51 289h655l-49 -289h-107l-444 -451l289 -446h102l-51 -289h-608l55 289h96l-135 258l-215 -258h111l-52 -289h-661z" />
<glyph unicode="Y" horiz-adv-x="1536" d="M90 1186l51 289h672l-51 -289h-139l147 -307l246 307h-135l49 289h696l-51 -289h-158l-477 -641l-43 -256h133l-51 -289h-651l51 289h135l45 262l-321 635h-148z" />
<glyph unicode="Z" horiz-adv-x="1356" d="M-29 0l31 176l807 1010h-332l-80 -207h-270l92 496h1143l-29 -172l-790 -1014h348l123 299h250l-113 -588h-1180z" />
<glyph unicode="[" horiz-adv-x="793" d="M-31 -209l297 1684h604l-39 -226h-237l-219 -1233h239l-39 -225h-606z" />
<glyph unicode="\" horiz-adv-x="815" d="M285 1503h166l84 -1693h-166z" />
<glyph unicode="]" horiz-adv-x="793" d="M-80 -209l41 225h238l217 1233h-238l39 226h604l-297 -1684h-604z" />
<glyph unicode="^" horiz-adv-x="2048" d="M414 899l465 563h288l465 -563h-264l-344 342l-346 -342h-264z" />
<glyph unicode="_" horiz-adv-x="1024" d="M0 -244h1024v-239h-1024v239z" />
<glyph unicode="`" horiz-adv-x="1024" d="M283 1477h270l164 -371h-139z" />
<glyph unicode="a" d="M0 414q0 260 144.5 420.5t375.5 160.5q93 0 163 -32.5t126 -102.5l18 113h406l-49 -295h-90l-72 -383h104l-47 -295h-420l17 90q-82 -63 -150.5 -90t-146.5 -27q-170 0 -274.5 121t-104.5 320zM367 471q0 -86 43.5 -133t121.5 -47q83 0 136 64t53 163q0 81 -42.5 127.5 t-115.5 46.5q-90 0 -143 -59.5t-53 -161.5z" />
<glyph unicode="b" horiz-adv-x="1305" d="M-63 0l51 291h118l162 891h-118l51 293h479l-98 -553q53 36 111.5 54.5t121.5 18.5q176 0 290 -126t114 -326q0 -244 -138.5 -406t-341.5 -162q-103 0 -179 38t-128 116l-22 -129h-473zM487 469q0 -79 46.5 -127.5t121.5 -48.5q83 0 139 61.5t56 151.5q0 74 -47.5 122 t-122.5 48q-85 0 -139 -57.5t-54 -149.5z" />
<glyph unicode="c" horiz-adv-x="1100" d="M-6 479q0 222 140.5 370t354.5 148q86 0 157 -25t132 -77l17 78h280l-74 -402h-303q-21 55 -62.5 83t-100.5 28q-77 0 -126 -56t-49 -143q0 -77 47.5 -126.5t120.5 -49.5q54 0 101 26.5t80 76.5l276 -211q-94 -107 -221 -163t-272 -56q-223 0 -360.5 138t-137.5 361z" />
<glyph unicode="d" d="M-4 414q0 257 145.5 419t374.5 162q82 0 143.5 -23.5t102.5 -70.5l49 283h-119l51 291h476l-197 -1184h104l-47 -291h-420l17 90q-82 -63 -150.5 -90t-146.5 -27q-171 0 -277 121.5t-106 319.5zM362 471q0 -84 45 -131t125 -47q83 0 136 63.5t53 161.5q0 81 -42.5 127.5 t-115.5 46.5q-91 0 -146 -60t-55 -161z" />
<glyph unicode="e" horiz-adv-x="1128" d="M-2 459q0 234 158.5 385t408.5 151q224 0 350.5 -129.5t126.5 -359.5q0 -14 -0.5 -29.5t-3.5 -48.5h-669q0 -81 47 -128.5t129 -47.5q47 0 89 18t87 58l250 -160q-89 -95 -206 -144t-255 -49q-237 0 -374.5 129.5t-137.5 354.5zM379 569h326q0 5 1 11.5t1 9.5 q0 65 -41 104t-109 39q-71 0 -115.5 -40.5t-62.5 -123.5z" />
<glyph unicode="f" horiz-adv-x="711" d="M-66 0l54 291h118l70 389h-121l51 293h121q48 324 127.5 414t272.5 90q31 0 74.5 -5.5t105.5 -17.5l-47 -272q-21 0 -43 1q-5 1 -6 1q-66 0 -91 -35t-45 -176h130l-50 -293h-123l-67 -389h121l-47 -291h-605z" />
<glyph unicode="g" d="M-37 -303l88 254q89 -55 178.5 -82t182.5 -27q115 0 176 68.5t92 234.5q-73 -68 -143 -98.5t-152 -30.5q-170 0 -278.5 116t-108.5 300q0 246 147 404.5t375 158.5q93 0 163 -32.5t126 -102.5l18 113h406l-49 -295h-90l-115 -631q-46 -261 -166 -368t-356 -107 q-128 0 -250.5 31t-243.5 94zM362 471q0 -84 45.5 -132t124.5 -48q83 0 136 64t53 163q0 81 -42.5 127.5t-115.5 46.5q-91 0 -146 -60t-55 -161z" />
<glyph unicode="h" horiz-adv-x="1276" d="M-63 0l51 291h118l160 891h-119l52 293h481l-117 -639q78 71 165.5 108t178.5 37q111 0 169.5 -51.5t58.5 -149.5q0 -24 -18 -131q-5 -26 -7 -38l-57 -320h118l-51 -291h-485l108 610q1 4 1.5 9.5t0.5 15.5q0 36 -18.5 53t-60.5 17q-59 0 -97 -38.5t-51 -111.5l-45 -264 h105l-54 -291h-587z" />
<glyph unicode="i" horiz-adv-x="696" d="M-66 0l54 291h116l70 389h-119l51 293h484l-119 -682h125l-55 -291h-607zM209 1106l57 315h398l-54 -315h-401z" />
<glyph unicode="j" horiz-adv-x="674" d="M-153 -410l63 334q18 -3 29.5 -4.5t19.5 -1.5q48 0 72 30t39 118l104 614h-137l51 293h502l-160 -918q-50 -288 -143 -383.5t-295 -95.5q-39 0 -74.5 3.5t-70.5 10.5zM209 1106l57 315h398l-54 -315h-401z" />
<glyph unicode="k" horiz-adv-x="1233" d="M-53 0l53 291h94l158 893h-125l49 291h490l-168 -949l264 207h-98l41 240h505l-49 -289h-106l-221 -178l182 -215h92l-49 -291h-524l32 229h105l-170 207h-17l-75 -436h-463z" />
<glyph unicode="l" horiz-adv-x="696" d="M-66 0l54 291h116l158 891h-119l52 293h485l-209 -1184h125l-55 -291h-607z" />
<glyph unicode="m" horiz-adv-x="1774" d="M-66 0l54 291h118l70 389h-123l56 293h454l-24 -135q86 79 161.5 116t151.5 37t127 -29.5t86 -93.5q80 62 162.5 92.5t167.5 30.5q106 0 169.5 -55.5t63.5 -147.5q0 -26 -2 -51t-8 -57l-70 -389h123l-53 -291h-485l92 530q0 4 2 14q10 55 10 77q0 39 -18 58t-56 19 q-47 0 -75.5 -33.5t-40.5 -105.5l-48 -268h80l-53 -291h-422l90 499q7 35 11 65t4 48q0 44 -17.5 63t-56.5 19q-48 0 -74 -33.5t-45 -130.5l-45 -239h72l-51 -291h-558z" />
<glyph unicode="n" horiz-adv-x="1276" d="M-63 0l51 291h118l68 389h-117l52 293h454l-26 -162q88 85 180.5 127.5t189.5 42.5q111 0 169.5 -51.5t58.5 -149.5q0 -24 -18 -131q-5 -26 -7 -38l-57 -320h118l-51 -291h-485l108 610q1 4 1.5 9.5t0.5 15.5q0 36 -18.5 53t-60.5 17q-59 0 -97 -38.5t-51 -111.5 l-45 -264h105l-54 -291h-587z" />
<glyph unicode="o" horiz-adv-x="1161" d="M-6 438q0 239 164 398t409 159q227 0 368.5 -128.5t141.5 -331.5q0 -243 -162.5 -400.5t-408.5 -157.5q-227 0 -369.5 129.5t-142.5 331.5zM367 467q0 -71 42.5 -114.5t112.5 -43.5q76 0 131.5 58.5t55.5 138.5q0 69 -44.5 114.5t-113.5 45.5q-76 0 -130 -58.5 t-54 -140.5z" />
<glyph unicode="p" horiz-adv-x="1305" d="M-141 -426l51 291h119l143 815h-119l51 293h449l-18 -90q57 57 126.5 85.5t151.5 28.5q176 0 290 -128.5t114 -331.5q0 -235 -144 -398.5t-348 -163.5q-94 0 -169 39.5t-126 114.5l-47 -264h129l-51 -291h-602zM481 459q0 -79 47.5 -128.5t122.5 -49.5q83 0 138 61.5 t55 151.5q0 75 -47 123.5t-121 48.5q-86 0 -140.5 -58t-54.5 -149z" />
<glyph unicode="q" d="M-4 414q0 257 144.5 419t371.5 162q93 0 164.5 -32.5t132.5 -102.5l18 113h406l-49 -295h-92l-148 -813h105l-50 -291h-579l51 291h107l30 178q-41 -33 -100.5 -51.5t-128.5 -18.5q-171 0 -277 121t-106 320zM362 471q0 -84 45.5 -132t124.5 -48q83 0 136 64t53 163 q0 81 -42.5 127.5t-115.5 46.5q-91 0 -146 -60t-55 -161z" />
<glyph unicode="r" horiz-adv-x="1010" d="M-63 0l51 291h118l68 389h-117l52 293h464l-22 -131h18q34 77 88 116t125 39q83 0 135 -53t52 -137q0 -101 -57.5 -165t-147.5 -64q-81 0 -133.5 44.5t-65.5 125.5h-18l-74 -457h105l-54 -291h-587z" />
<glyph unicode="s" horiz-adv-x="1014" d="M-33 0l53 326l232 -1q9 -73 47.5 -111t106.5 -38q41 0 67.5 21t26.5 53q0 57 -159 137q-36 18 -56 29q-108 57 -156.5 121t-48.5 147q0 132 105 221.5t264 89.5q71 0 140.5 -20t139.5 -62l14 60h220l-50 -297h-227q-23 57 -57.5 84.5t-81.5 27.5q-38 0 -61 -16t-23 -43 q0 -46 133 -114q43 -22 67 -35q120 -66 174 -136.5t54 -160.5q0 -136 -106.5 -222t-276.5 -86q-80 0 -156 21.5t-143 62.5l-10 -59h-232z" />
<glyph unicode="t" horiz-adv-x="721" d="M51 680l51 293h123l58 307h360l-55 -307h121l-52 -293h-110l-47 -239q-2 -8 -4 -20q-11 -59 -11 -73q0 -32 22.5 -48.5t63.5 -16.5q13 0 20 0.5t13 0.5l-53 -284h-215q-143 0 -195.5 32.5t-52.5 112.5q0 40 6.5 94.5t18.5 116.5l61 324h-123z" />
<glyph unicode="u" d="M14 680l52 293h485l-109 -611q-1 -4 -1.5 -9.5t-0.5 -16.5q0 -37 19 -53.5t61 -16.5q59 0 97 38.5t51 111.5l45 264h-105l54 293h468l-118 -680h118l-51 -293h-456l28 160q-88 -85 -181.5 -127.5t-190.5 -42.5q-111 0 -169.5 51.5t-58.5 148.5q0 29 22 155l3 18l57 317 h-119z" />
<glyph unicode="v" horiz-adv-x="1143" d="M-31 680l51 293h508l-51 -293h-74l89 -358l188 358h-92l51 293h522l-53 -293h-78l-403 -680h-381l-166 680h-111z" />
<glyph unicode="w" horiz-adv-x="1655" d="M-23 680l52 293h489l-49 -293h-92l59 -285l291 578h201l71 -576l172 283h-92l47 293h543l-53 -293h-86l-447 -680h-278l-64 483l-252 -483h-272l-151 680h-89z" />
<glyph unicode="x" horiz-adv-x="1128" d="M-68 0l50 291h106l250 225l-156 164h-94l53 293h361l-29 -156l86 -96l92 92l27 160h418l-54 -293h-90l-196 -176l188 -213h78l-51 -291h-396l37 207l-86 96l-88 -92l-41 -211h-465z" />
<glyph unicode="y" d="M-10 680l49 293h545l-45 -275h-86l77 -362l220 362h-105l49 275h545l-55 -293h-80l-541 -815h146l-54 -291h-647l53 291h146l74 121l-172 694h-119z" />
<glyph unicode="z" horiz-adv-x="1124" d="M12 0l47 303l545 420h-246l-36 -107h-232l68 357h897l-58 -309l-548 -410h266l41 108h225l-72 -362h-897z" />
<glyph unicode="{" horiz-adv-x="1024" d="M152 410v241q6 0 18 -1t18 -1q118 0 168 55.5t50 188.5v254q0 136 24 193.5t82 89.5q48 25 120.5 37t180.5 12q12 0 38.5 -1t41.5 -1v-242q-7 0 -21 1t-20 1q-98 0 -132 -35.5t-34 -146.5v-240q0 -140 -46 -200t-165 -85q120 -24 165.5 -82.5t45.5 -199.5v-242 q0 -110 33.5 -145t130.5 -35q7 0 21.5 1t21.5 1v-242q-15 0 -42 -1t-40 -1q-108 0 -179.5 12t-119.5 37q-59 32 -82.5 88.5t-23.5 192.5v256q0 133 -49.5 187.5t-168.5 54.5q-4 0 -17 -1t-19 -1z" />
<glyph unicode="|" horiz-adv-x="1024" d="M393 -483v2048h240v-2048h-240z" />
<glyph unicode="}" horiz-adv-x="1024" d="M133 -172q9 0 23 -1t20 -1q97 0 130.5 34.5t33.5 145.5v242q0 140 46 199t165 83q-120 25 -165.5 84t-45.5 201v240q0 111 -33.5 146.5t-126.5 35.5q-7 0 -22.5 -1t-24.5 -1v242q15 0 41.5 1t38.5 1q108 0 180 -12t121 -37q58 -32 82.5 -89.5t24.5 -193.5v-254 q0 -134 49 -189t168 -55q6 0 18 1t18 1v-241q-6 0 -18 1t-18 1q-119 0 -168 -55t-49 -187v-256q0 -137 -24.5 -194.5t-82.5 -88.5q-45 -24 -113.5 -35.5t-177.5 -11.5q-14 0 -44 1t-46 1v242z" />
<glyph unicode="~" horiz-adv-x="1706" d="M178 401v254q112 73 207.5 108.5t179.5 35.5q63 0 126.5 -12t169.5 -46q16 -5 51 -17q159 -56 247 -56q84 0 173.5 36t197.5 115v-254q-101 -69 -194 -103t-183 -34q-45 0 -89 7.5t-83 21.5q-13 4 -38 13q-255 89 -382 89q-84 0 -175.5 -37.5t-207.5 -120.5z" />
<glyph unicode="&#xa1;" horiz-adv-x="674" d="M-8 0q75 295 128.5 543t84.5 440h350q-43 -213 -78 -449t-67 -534h-418zM215 1298q0 87 59.5 146t147.5 59q87 0 147 -59t60 -146t-59.5 -145.5t-147.5 -58.5t-147.5 58.5t-59.5 145.5z" />
<glyph unicode="&#xa2;" horiz-adv-x="1133" d="M29 485q0 227 138.5 374t352.5 147q15 0 37 -2t47 -4l68 241h139l-78 -280l80 -54l16 78h279l-72 -401h-282q-28 53 -54 79t-61 35l-114 -383q14 -3 26 -4.5t22 -1.5q44 0 87 24t92 77l258 -199q-94 -102 -206.5 -156.5t-232.5 -54.5q-16 0 -69 5q-21 2 -33 3l-74 -260 h-137l80 291q-152 47 -230.5 161t-78.5 285zM342 504q0 -54 25 -94t75 -68l111 377h-8q-94 0 -148.5 -58.5t-54.5 -156.5z" />
<glyph unicode="&#xa3;" horiz-adv-x="1133" d="M-51 -14l53 340q92 17 135.5 89.5t57.5 235.5h-150l27 183h139q23 313 151.5 472.5t358.5 159.5q185 0 297 -105t112 -280q0 -21 -0.5 -32.5t-1.5 -20.5h-325v21q0 67 -19.5 99t-60.5 32q-68 0 -102 -74.5t-52 -271.5h256l-24 -183h-254q-16 -118 -37 -193.5t-49 -115.5 q38 -22 70 -32.5t63 -10.5q53 0 84.5 30.5t36.5 86.5h344q-21 -201 -121 -320t-244 -119q-79 0 -165.5 32.5t-182.5 96.5q-66 -66 -136.5 -97.5t-152.5 -31.5q-10 0 -42.5 4.5t-53.5 4.5h-12z" />
<glyph unicode="&#xa4;" horiz-adv-x="1133" d="M-43 512l41 143l96 1q4 35 8.5 69t8.5 59h-117l43 144h102q67 267 198 402.5t322 135.5q76 0 137.5 -30.5t80.5 -79.5l10 80h272l-69 -410h-313q-6 48 -39 76t-83 28q-61 0 -99.5 -48.5t-61.5 -153.5h385l-64 -144h-354q-4 -25 -8.5 -59.5t-7.5 -69.5h321l-61 -143h-268 q-2 -9 -2.5 -19t-0.5 -28q0 -82 25.5 -120t81.5 -38q47 0 81.5 27.5t55.5 83.5h356q-50 -217 -189 -332t-351 -115q-216 0 -313 118.5t-97 379.5v43h-127z" />
<glyph unicode="&#xa5;" horiz-adv-x="1133" d="M-12 477l28 162h355l-82 168h-244l29 162h135l-100 202h-101l47 265h549l-47 -265h-115l144 -385l225 385h-119l47 265h570l-47 -265h-115l-133 -202h174l-27 -162h-256l-110 -168h335l-28 -162h-383l-31 -211h137l-47 -266h-588l48 266h131l34 211h-415z" />
<glyph unicode="&#xa6;" horiz-adv-x="1024" d="M393 -350v758h240v-758h-240zM393 674v758h240v-758h-240z" />
<glyph unicode="&#xa7;" horiz-adv-x="1128" d="M-12 -268l59 344h248l-14 -111h137q28 0 46.5 17.5t18.5 44.5q0 20 -19 60t-48 79l-279 366q-59 78 -89 151t-30 140q0 121 77 191.5t210 70.5h6q-22 46 -32.5 84t-10.5 72q0 124 84.5 179t284.5 55h418l-60 -326h-247l8 94h-80q-49 0 -70.5 -13.5t-21.5 -43.5 q0 -20 13.5 -46t41.5 -63l297 -383q58 -76 90.5 -154t32.5 -143q0 -116 -79.5 -190.5t-208.5 -79.5q16 -32 24 -64t8 -67q0 -144 -95.5 -204t-355.5 -60h-364zM307 811q0 -27 21 -72t57 -94l154 -205q47 -62 79 -87t64 -25q35 0 59.5 24t24.5 60q0 33 -16 71t-48 80 l-165 225q-44 60 -77.5 86.5t-64.5 26.5q-38 0 -63 -25.5t-25 -64.5z" />
<glyph unicode="&#xa8;" horiz-adv-x="1024" d="M258 1157l57 270h250l-57 -270h-250zM621 1157l57 270h250l-58 -270h-249z" />
<glyph unicode="&#xa9;" horiz-adv-x="1706" d="M106 737q0 148 57.5 285t164.5 246q105 106 238 161.5t286 55.5q154 0 289.5 -56t242.5 -163q106 -106 160.5 -240.5t54.5 -288.5q0 -153 -54 -287t-159 -237q-109 -108 -247 -165.5t-287 -57.5q-148 0 -283.5 57t-242.5 164t-163.5 241.5t-56.5 284.5zM242 737 q0 -119 47 -230.5t135 -199.5q87 -87 198 -133.5t232 -46.5t234 47t202 135q86 84 130 193t44 235q0 125 -45 235.5t-131 196.5q-88 89 -198.5 135t-235.5 46q-126 0 -235 -45.5t-195 -133.5q-88 -89 -135 -201t-47 -233zM446 731q0 207 111 329t299 122q157 0 257 -80 t108 -211h-213q-7 67 -47.5 104t-108.5 37q-83 0 -129.5 -77t-46.5 -216q0 -140 47.5 -212t138.5 -72q67 0 106.5 40.5t45.5 114.5h215q-6 -143 -107.5 -230t-263.5 -87q-190 0 -301 117.5t-111 320.5z" />
<glyph unicode="&#xaa;" horiz-adv-x="928" d="M0 1083q0 183 108.5 295.5t282.5 112.5q70 0 122 -23t93 -71l15 80h305l-37 -207h-68l-55 -269h80l-37 -206h-313l12 63q-61 -44 -112.5 -63t-110.5 -19q-128 0 -206.5 84.5t-78.5 222.5zM274 1124q0 -59 33.5 -93t91.5 -34q62 0 102 45.5t40 114.5q0 57 -32 90t-87 33 q-68 0 -108 -42t-40 -114z" />
<glyph unicode="&#xab;" horiz-adv-x="1116" d="M66 481l253 334h244l-260 -348l186 -309h-217zM504 481l254 334h243l-260 -348l187 -309h-217z" />
<glyph unicode="&#xac;" horiz-adv-x="1706" d="M254 639v227h1198v-501h-229v274h-969z" />
<glyph unicode="&#xad;" horiz-adv-x="678" d="M-10 311l61 351h547l-61 -351h-547z" />
<glyph unicode="&#xae;" horiz-adv-x="1706" d="M106 737q0 151 59 290t169 247q105 104 237 157.5t281 53.5q156 0 294 -57.5t245 -167.5q101 -104 154.5 -238t53.5 -285q0 -155 -56.5 -291t-164.5 -239q-109 -105 -245 -161t-281 -56q-151 0 -287 58t-243 169q-105 108 -160.5 241.5t-55.5 278.5zM244 737 q0 -121 44 -229t130 -195q87 -90 199 -138t235 -48q121 0 232.5 45.5t199.5 130.5t134 196.5t46 237.5q0 124 -44 233.5t-128 194.5q-89 91 -200.5 138t-237.5 47q-124 0 -232 -44t-194 -128q-90 -90 -137 -203t-47 -238zM537 344v819h329q174 0 264.5 -60t90.5 -177 q0 -81 -46 -139t-128 -82l182 -361h-248l-154 326h-65v-326h-225zM762 803h80q74 0 110.5 26.5t36.5 79.5q0 59 -38 86t-122 27h-67v-219z" />
<glyph unicode="&#xaf;" horiz-adv-x="1024" d="M268 1206l35 170h615l-35 -170h-615z" />
<glyph unicode="&#xb0;" horiz-adv-x="674" d="M27 1155q0 131 90.5 221t220.5 90q129 0 220 -91t91 -220q0 -128 -91.5 -219.5t-221.5 -91.5q-129 0 -219 90.5t-90 220.5zM172 1157q0 -70 48 -118t118 -48q68 0 116 49t48 117t-48 116t-116 48q-69 0 -117.5 -48t-48.5 -116z" />
<glyph unicode="&#xb1;" horiz-adv-x="1706" d="M254 -18v231h1198v-231h-1198zM254 690v232h481v319h238v-319h479v-232h-479v-319h-238v319h-481z" />
<glyph unicode="&#xb2;" horiz-adv-x="748" d="M0 575l23 175l360 356q44 42 60 65t16 41q0 26 -19.5 41t-52.5 15q-41 0 -61.5 -26t-20.5 -79h-223q6 137 91 214t230 77q134 0 221 -66.5t87 -168.5q0 -61 -36 -120t-120 -134l-244 -215h170l11 51h192l-45 -226h-639z" />
<glyph unicode="&#xb3;" horiz-adv-x="748" d="M12 805q0 7 1 17t4 30h222q2 -50 23.5 -74t65.5 -24q47 0 75.5 28t28.5 76q0 37 -33.5 61.5t-85.5 24.5h-12l25 162h32q64 0 103 26.5t39 69.5q0 31 -26.5 53.5t-61.5 22.5q-38 0 -61.5 -20.5t-33.5 -61.5h-215q23 122 113.5 190t228.5 68q136 0 216.5 -60t80.5 -159 q0 -78 -55.5 -132t-161.5 -79q79 -34 116.5 -82t37.5 -115q0 -116 -98.5 -191t-251.5 -75q-143 0 -229.5 67.5t-86.5 176.5z" />
<glyph unicode="&#xb4;" horiz-adv-x="1024" d="M365 1106l233 371h311l-391 -371h-153z" />
<glyph unicode="&#xb5;" horiz-adv-x="1315" d="M-45 -428l238 1518h358l-80 -529q-6 -41 -9 -77.5t-3 -65.5q0 -85 35.5 -127.5t107.5 -42.5q88 0 138.5 68.5t74.5 220.5l88 553h357l-175 -1090h-321l18 125q-40 -75 -89.5 -108t-119.5 -33q-59 0 -106.5 31t-77.5 89l-82 -532h-352z" />
<glyph unicode="&#xb6;" horiz-adv-x="1024" d="M29 1130q0 158 106 253.5t283 95.5h579v-123h-106v-1356h-176v1356h-150v-1356h-174v784q-164 6 -263 101t-99 245z" />
<glyph unicode="&#xb7;" horiz-adv-x="563" d="M84 750q0 85 57.5 143.5t137.5 58.5q93 0 151.5 -56t58.5 -146q0 -86 -56.5 -142.5t-141.5 -56.5q-87 0 -147 57t-60 142z" />
<glyph unicode="&#xb8;" horiz-adv-x="1024" d="M125 -438l53 133q66 -27 125 -40t109 -13q45 0 71.5 20.5t26.5 54.5q0 38 -38 53t-136 15h-27l76 215h115l-33 -92q117 -2 175 -45.5t58 -128.5q0 -111 -73 -171.5t-207 -60.5q-54 0 -127.5 15t-167.5 45z" />
<glyph unicode="&#xb9;" horiz-adv-x="748" d="M74 575l30 160h105l104 543h-112l30 160h347l-138 -703h115l-31 -160h-450z" />
<glyph unicode="&#xba;" horiz-adv-x="870" d="M-4 1102q0 166 123 277.5t307 111.5q170 0 276.5 -90t106.5 -232q0 -169 -122.5 -280t-307.5 -111q-170 0 -276.5 90.5t-106.5 233.5zM274 1122q0 -50 32 -80t85 -30q57 0 99 41t42 96q0 48 -33.5 80.5t-84.5 32.5q-57 0 -98.5 -41.5t-41.5 -98.5z" />
<glyph unicode="&#xbb;" horiz-adv-x="1116" d="M35 158l260 348l-186 309h217l209 -323l-256 -334h-244zM473 158l260 348l-186 309h219l207 -323l-256 -334h-244z" />
<glyph unicode="&#xbc;" horiz-adv-x="1769" d="M68 633l30 149h99l102 506h-109l29 150h330l-129 -656h108l-28 -149h-432zM356 0l881 1436h176l-881 -1436h-176zM1044 199l29 145l383 461h289l-94 -469h92l-27 -137h-90l-14 -64h92l-29 -135h-434l27 135h123l12 64h-359zM1266 336h170l59 278l-229 -268v-10z" />
<glyph unicode="&#xbd;" horiz-adv-x="1769" d="M68 633l30 149h99l102 506h-109l29 150h330l-129 -656h108l-28 -149h-432zM356 0l881 1436h176l-881 -1436h-176zM1057 0l22 164l344 330q42 40 57 61.5t15 40.5q0 22 -18.5 35.5t-49.5 13.5q-40 0 -59.5 -24t-19.5 -72h-213q6 127 87 198.5t220 71.5q127 0 210 -62 t83 -157q0 -58 -35.5 -114t-114.5 -121l-229 -201h160l10 45h184l-43 -209h-610z" />
<glyph unicode="&#xbe;" horiz-adv-x="1769" d="M12 848q0 17 1 26t4 17h212q2 -47 22.5 -69.5t61.5 -22.5q45 0 73 27t28 71q0 34 -32.5 57t-82.5 23h-12l24 151q6 -1 12 -1.5t19 -0.5q62 0 97.5 25.5t35.5 67.5q0 29 -24 49t-58 20q-36 0 -58.5 -19t-31.5 -57h-207q23 113 109.5 176.5t218.5 63.5q129 0 206 -55.5 t77 -147.5q0 -74 -53 -124.5t-154 -73.5q75 -31 111 -75.5t36 -107.5q0 -108 -94 -177.5t-242 -69.5q-136 0 -217.5 62.5t-81.5 164.5zM354 0l881 1436h176l-881 -1436h-176zM1042 199l29 145l383 461h289l-94 -469h92l-27 -137h-90l-14 -64h92l-29 -135h-434l27 135h123 l12 64h-359zM1264 336h170l59 278l-229 -268v-10z" />
<glyph unicode="&#xbf;" horiz-adv-x="1124" d="M29 422q0 164 94 278t266 160l27 119h362l-63 -344h-15q-143 0 -217.5 -56t-74.5 -163q0 -68 36 -105t103 -37q59 0 93.5 37.5t37.5 103.5l375 1q-20 -212 -157.5 -328.5t-369.5 -116.5q-222 0 -359.5 125.5t-137.5 325.5zM428 1298q0 87 59.5 146t147.5 59q87 0 147 -59 t60 -146t-59.5 -145.5t-147.5 -58.5t-147.5 58.5t-59.5 145.5z" />
<glyph unicode="&#xc0;" horiz-adv-x="1579" d="M-92 0l51 289h147l414 897h-149l49 289h1012l-48 -289h-151l125 -897h110l-55 -289h-659l47 289h176l-23 209h-368l-90 -209h139l-53 -289h-674zM648 1956h270l164 -371h-139zM688 750h242l-49 460z" />
<glyph unicode="&#xc1;" horiz-adv-x="1579" d="M-92 0l51 289h147l414 897h-149l49 289h1012l-48 -289h-151l125 -897h110l-55 -289h-659l47 289h176l-23 209h-368l-90 -209h139l-53 -289h-674zM688 750h242l-49 460zM730 1585l233 371h311l-391 -371h-153z" />
<glyph unicode="&#xc2;" horiz-adv-x="1579" d="M-92 0l51 289h147l414 897h-149l49 289h1012l-48 -289h-151l125 -897h110l-55 -289h-659l47 289h176l-23 209h-368l-90 -209h139l-53 -289h-674zM588 1585l262 371h254l125 -371h-141l-125 199l-221 -199h-154zM688 750h242l-49 460z" />
<glyph unicode="&#xc3;" horiz-adv-x="1579" d="M-92 0l51 289h147l414 897h-149l49 289h1012l-48 -289h-151l125 -897h110l-55 -289h-659l47 289h176l-23 209h-368l-90 -209h139l-53 -289h-674zM623 1618q31 131 90 196.5t146 65.5q18 0 40.5 -4t51.5 -13l63 -20q19 -6 33.5 -9t22.5 -3q39 0 62.5 21t39.5 73h121 q-35 -134 -92 -196t-144 -62q-23 0 -43.5 3.5t-42.5 10.5l-64 21q-23 7 -38 9.5t-27 2.5q-36 0 -63 -25.5t-37 -70.5h-119zM688 750h242l-49 460z" />
<glyph unicode="&#xc4;" horiz-adv-x="1579" d="M-92 0l51 289h147l414 897h-149l49 289h1012l-48 -289h-151l125 -897h110l-55 -289h-659l47 289h176l-23 209h-368l-90 -209h139l-53 -289h-674zM623 1636l57 270h250l-57 -270h-250zM688 750h242l-49 460zM986 1636l57 270h250l-58 -270h-249z" />
<glyph unicode="&#xc5;" horiz-adv-x="1579" d="M-92 0l51 289h147l414 897h-149l49 289h1012l-48 -289h-151l125 -897h110l-55 -289h-659l47 289h176l-23 209h-368l-90 -209h139l-53 -289h-674zM688 750h242l-49 460zM696 1751q0 92 64.5 156.5t157.5 64.5q90 0 154.5 -64.5t64.5 -156.5q0 -91 -64.5 -155t-154.5 -64 q-93 0 -157.5 63.5t-64.5 155.5zM840 1753q0 -34 22 -57t56 -23q32 0 55.5 24t23.5 56q0 31 -24 54.5t-55 23.5q-33 0 -55.5 -23t-22.5 -55z" />
<glyph unicode="&#xc6;" horiz-adv-x="2001" d="M-190 0l51 289h127l512 897h-162l51 289h1645l-76 -549h-277l-22 260h-363l-49 -281h269l-52 -293h-270l-55 -323h405l113 295h274l-129 -584h-1175l51 289h94l39 225h-322l-124 -225h84l-52 -289h-587zM614 737h236l80 449h-58z" />
<glyph unicode="&#xc7;" horiz-adv-x="1518" d="M47 690q0 150 46.5 288.5t133.5 248.5q109 140 243 208t300 68q110 0 206 -34t187 -105l23 111h373l-99 -553h-373q-28 101 -96 154.5t-168 53.5q-156 0 -257 -124.5t-101 -323.5q0 -152 70.5 -231.5t205.5 -79.5q100 0 174.5 46t128.5 140l390 -170 q-101 -205 -276.5 -310.5t-416.5 -105.5q-307 0 -500.5 201.5t-193.5 517.5zM340 -438l53 133q66 -27 125 -40t109 -13q45 0 71.5 20.5t26.5 54.5q0 38 -38 53t-136 15h-27l76 215h115l-33 -92q117 -2 175 -45.5t58 -128.5q0 -111 -73 -171.5t-207 -60.5q-54 0 -127.5 15 t-167.5 45z" />
<glyph unicode="&#xc8;" horiz-adv-x="1346" d="M-92 0l51 289h150l149 897h-141l51 289h1229l-76 -549h-274l-23 260h-365l-49 -281h271l-54 -293h-268l-57 -323h407l113 295h274l-129 -584h-1259zM553 1956h270l164 -371h-139z" />
<glyph unicode="&#xc9;" horiz-adv-x="1346" d="M-92 0l51 289h150l149 897h-141l51 289h1229l-76 -549h-274l-23 260h-365l-49 -281h271l-54 -293h-268l-57 -323h407l113 295h274l-129 -584h-1259zM635 1585l233 371h311l-391 -371h-153z" />
<glyph unicode="&#xca;" horiz-adv-x="1346" d="M-92 0l51 289h150l149 897h-141l51 289h1229l-76 -549h-274l-23 260h-365l-49 -281h271l-54 -293h-268l-57 -323h407l113 295h274l-129 -584h-1259zM493 1585l262 371h254l125 -371h-141l-125 199l-221 -199h-154z" />
<glyph unicode="&#xcb;" horiz-adv-x="1346" d="M-92 0l51 289h150l149 897h-141l51 289h1229l-76 -549h-274l-23 260h-365l-49 -281h271l-54 -293h-268l-57 -323h407l113 295h274l-129 -584h-1259zM528 1636l57 270h250l-57 -270h-250zM891 1636l57 270h250l-58 -270h-249z" />
<glyph unicode="&#xcc;" horiz-adv-x="772" d="M-80 0l51 289h148l157 897h-147l51 289h672l-51 -289h-139l-158 -897h139l-51 -289h-672zM267 1956h270l164 -371h-139z" />
<glyph unicode="&#xcd;" horiz-adv-x="772" d="M-80 0l51 289h148l157 897h-147l51 289h672l-51 -289h-139l-158 -897h139l-51 -289h-672zM349 1585l233 371h311l-391 -371h-153z" />
<glyph unicode="&#xce;" horiz-adv-x="772" d="M-80 0l51 289h148l157 897h-147l51 289h672l-51 -289h-139l-158 -897h139l-51 -289h-672zM207 1585l262 371h254l125 -371h-141l-125 199l-221 -199h-154z" />
<glyph unicode="&#xcf;" horiz-adv-x="772" d="M-80 0l51 289h148l157 897h-147l51 289h672l-51 -289h-139l-158 -897h139l-51 -289h-672zM242 1636l57 270h250l-57 -270h-250zM605 1636l57 270h250l-58 -270h-249z" />
<glyph unicode="&#xd0;" horiz-adv-x="1642" d="M-70 0l52 289h147l59 344h-200l47 266h201l51 287h-148l51 289h660q185 0 302 -25.5t202 -81.5q118 -79 179.5 -214t61.5 -314q0 -186 -58 -348.5t-167 -278.5q-108 -115 -257 -164t-429 -49h-754zM514 289h127q281 0 418 133.5t137 408.5q0 179 -93.5 267t-283.5 88 h-147l-51 -287h278l-47 -266h-279z" />
<glyph unicode="&#xd1;" horiz-adv-x="1583" d="M-80 0l51 289h148l157 897h-147l51 289h510l322 -861l90 572h-129l51 289h647l-49 -289h-147l-209 -1186h-322l-350 938l-102 -649h129l-52 -289h-649zM612 1618q31 131 90 196.5t146 65.5q18 0 40.5 -4t51.5 -13l63 -20q19 -6 33.5 -9t22.5 -3q39 0 62.5 21t39.5 73h121 q-35 -134 -92 -196t-144 -62q-23 0 -43.5 3.5t-42.5 10.5l-64 21q-23 7 -38 9.5t-27 2.5q-36 0 -63 -25.5t-37 -70.5h-119z" />
<glyph unicode="&#xd2;" horiz-adv-x="1661" d="M49 666q0 365 234.5 603t590.5 238q331 0 534.5 -194t203.5 -504q0 -363 -234 -602.5t-583 -239.5q-335 0 -540.5 194t-205.5 505zM451 682q0 -166 95 -264.5t255 -98.5q176 0 293.5 137t117.5 339q0 167 -93.5 263.5t-254.5 96.5q-176 0 -294.5 -135.5t-118.5 -337.5z M711 1956h270l164 -371h-139z" />
<glyph unicode="&#xd3;" horiz-adv-x="1661" d="M49 666q0 365 234.5 603t590.5 238q331 0 534.5 -194t203.5 -504q0 -363 -234 -602.5t-583 -239.5q-335 0 -540.5 194t-205.5 505zM451 682q0 -166 95 -264.5t255 -98.5q176 0 293.5 137t117.5 339q0 167 -93.5 263.5t-254.5 96.5q-176 0 -294.5 -135.5t-118.5 -337.5z M793 1585l233 371h311l-391 -371h-153z" />
<glyph unicode="&#xd4;" horiz-adv-x="1661" d="M49 666q0 365 234.5 603t590.5 238q331 0 534.5 -194t203.5 -504q0 -363 -234 -602.5t-583 -239.5q-335 0 -540.5 194t-205.5 505zM451 682q0 -166 95 -264.5t255 -98.5q176 0 293.5 137t117.5 339q0 167 -93.5 263.5t-254.5 96.5q-176 0 -294.5 -135.5t-118.5 -337.5z M651 1585l262 371h254l125 -371h-141l-125 199l-221 -199h-154z" />
<glyph unicode="&#xd5;" horiz-adv-x="1661" d="M49 666q0 365 234.5 603t590.5 238q331 0 534.5 -194t203.5 -504q0 -363 -234 -602.5t-583 -239.5q-335 0 -540.5 194t-205.5 505zM451 682q0 -166 95 -264.5t255 -98.5q176 0 293.5 137t117.5 339q0 167 -93.5 263.5t-254.5 96.5q-176 0 -294.5 -135.5t-118.5 -337.5z M686 1618q31 131 90 196.5t146 65.5q18 0 40.5 -4t51.5 -13l63 -20q19 -6 33.5 -9t22.5 -3q39 0 62.5 21t39.5 73h121q-35 -134 -92 -196t-144 -62q-23 0 -43.5 3.5t-42.5 10.5l-64 21q-23 7 -38 9.5t-27 2.5q-36 0 -63 -25.5t-37 -70.5h-119z" />
<glyph unicode="&#xd6;" horiz-adv-x="1661" d="M49 666q0 365 234.5 603t590.5 238q331 0 534.5 -194t203.5 -504q0 -363 -234 -602.5t-583 -239.5q-335 0 -540.5 194t-205.5 505zM451 682q0 -166 95 -264.5t255 -98.5q176 0 293.5 137t117.5 339q0 167 -93.5 263.5t-254.5 96.5q-176 0 -294.5 -135.5t-118.5 -337.5z M686 1636l57 270h250l-57 -270h-250zM1049 1636l57 270h250l-58 -270h-249z" />
<glyph unicode="&#xd7;" horiz-adv-x="1706" d="M268 170l441 440l-441 443l162 161l440 -440l441 440l162 -161l-441 -443l441 -440l-162 -162l-441 441l-440 -441z" />
<glyph unicode="&#xd8;" horiz-adv-x="1661" d="M18 -238l265 377q-117 84 -177.5 215t-60.5 299q0 372 233.5 611t595.5 239q96 0 174.5 -14t147.5 -43l111 156h260l-183 -261q114 -113 172 -247.5t58 -284.5q0 -364 -234.5 -601t-595.5 -237q-100 0 -177.5 13.5t-141.5 42.5l-186 -265h-261zM440 680q0 -68 17 -118.5 t53 -94.5l473 672q-23 12 -50.5 18t-66.5 6q-170 0 -298 -144t-128 -339zM684 342q33 -13 63.5 -19t61.5 -6q168 0 285.5 139.5t117.5 340.5q0 58 -13 114t-40 111z" />
<glyph unicode="&#xd9;" horiz-adv-x="1583" d="M121 1186l51 289h670l-51 -289h-136l-90 -508q-8 -50 -13 -93t-5 -67q0 -89 51 -138.5t141 -49.5q99 0 166 77.5t92 223.5l99 555h-140l52 289h671l-51 -289h-147l-113 -617q-61 -331 -215.5 -464.5t-474.5 -133.5q-242 0 -388.5 117t-146.5 307q0 43 5.5 93.5 t17.5 113.5l102 584h-147zM672 1956h270l164 -371h-139z" />
<glyph unicode="&#xda;" horiz-adv-x="1583" d="M121 1186l51 289h670l-51 -289h-136l-90 -508q-8 -50 -13 -93t-5 -67q0 -89 51 -138.5t141 -49.5q99 0 166 77.5t92 223.5l99 555h-140l52 289h671l-51 -289h-147l-113 -617q-61 -331 -215.5 -464.5t-474.5 -133.5q-242 0 -388.5 117t-146.5 307q0 43 5.5 93.5 t17.5 113.5l102 584h-147zM754 1585l233 371h311l-391 -371h-153z" />
<glyph unicode="&#xdb;" horiz-adv-x="1583" d="M121 1186l51 289h670l-51 -289h-136l-90 -508q-8 -50 -13 -93t-5 -67q0 -89 51 -138.5t141 -49.5q99 0 166 77.5t92 223.5l99 555h-140l52 289h671l-51 -289h-147l-113 -617q-61 -331 -215.5 -464.5t-474.5 -133.5q-242 0 -388.5 117t-146.5 307q0 43 5.5 93.5 t17.5 113.5l102 584h-147zM612 1585l262 371h254l125 -371h-141l-125 199l-221 -199h-154z" />
<glyph unicode="&#xdc;" horiz-adv-x="1583" d="M121 1186l51 289h670l-51 -289h-136l-90 -508q-8 -50 -13 -93t-5 -67q0 -89 51 -138.5t141 -49.5q99 0 166 77.5t92 223.5l99 555h-140l52 289h671l-51 -289h-147l-113 -617q-61 -331 -215.5 -464.5t-474.5 -133.5q-242 0 -388.5 117t-146.5 307q0 43 5.5 93.5 t17.5 113.5l102 584h-147zM647 1636l57 270h250l-57 -270h-250zM1010 1636l57 270h250l-58 -270h-249z" />
<glyph unicode="&#xdd;" horiz-adv-x="1536" d="M90 1186l51 289h672l-51 -289h-139l147 -307l246 307h-135l49 289h696l-51 -289h-158l-477 -641l-43 -256h133l-51 -289h-651l51 289h135l45 262l-321 635h-148zM732 1585l233 371h311l-391 -371h-153z" />
<glyph unicode="&#xde;" horiz-adv-x="1280" d="M-80 0l51 289h148l157 897h-147l51 289h684l-49 -267h-156l-12 -75h101q264 0 392 -89.5t128 -273.5q0 -219 -146.5 -322.5t-457.5 -103.5h-156l-14 -78h147l-49 -266h-672zM551 584h119q90 0 143 44.5t53 119.5q0 66 -45.5 105.5t-124.5 39.5h-92z" />
<glyph unicode="&#xdf;" horiz-adv-x="1219" d="M-78 0l53 291h93l131 729q44 247 165 360t338 113q204 0 330.5 -104t126.5 -269q0 -109 -61.5 -196.5t-177.5 -141.5q107 -57 157.5 -140t50.5 -200q0 -204 -114.5 -336.5t-292.5 -132.5q-42 0 -84.5 9t-87.5 28l47 291q7 -1 20 -3q30 -5 39 -5q58 0 91.5 49.5 t33.5 132.5q0 76 -41 113t-126 39l57 295h14q68 0 103.5 39t35.5 114q0 53 -32 85t-84 32q-67 0 -105 -59t-63 -211l-158 -922h-459z" />
<glyph unicode="&#xe0;" d="M0 414q0 260 144.5 420.5t375.5 160.5q93 0 163 -32.5t126 -102.5l18 113h406l-49 -295h-90l-72 -383h104l-47 -295h-420l17 90q-82 -63 -150.5 -90t-146.5 -27q-170 0 -274.5 121t-104.5 320zM367 471q0 -86 43.5 -133t121.5 -47q83 0 136 64t53 163q0 81 -42.5 127.5 t-115.5 46.5q-90 0 -143 -59.5t-53 -161.5zM408 1477h270l164 -371h-139z" />
<glyph unicode="&#xe1;" d="M0 414q0 260 144.5 420.5t375.5 160.5q93 0 163 -32.5t126 -102.5l18 113h406l-49 -295h-90l-72 -383h104l-47 -295h-420l17 90q-82 -63 -150.5 -90t-146.5 -27q-170 0 -274.5 121t-104.5 320zM367 471q0 -86 43.5 -133t121.5 -47q83 0 136 64t53 163q0 81 -42.5 127.5 t-115.5 46.5q-90 0 -143 -59.5t-53 -161.5zM490 1106l233 371h311l-391 -371h-153z" />
<glyph unicode="&#xe2;" d="M0 414q0 260 144.5 420.5t375.5 160.5q93 0 163 -32.5t126 -102.5l18 113h406l-49 -295h-90l-72 -383h104l-47 -295h-420l17 90q-82 -63 -150.5 -90t-146.5 -27q-170 0 -274.5 121t-104.5 320zM348 1106l262 371h254l125 -371h-141l-125 199l-221 -199h-154zM367 471 q0 -86 43.5 -133t121.5 -47q83 0 136 64t53 163q0 81 -42.5 127.5t-115.5 46.5q-90 0 -143 -59.5t-53 -161.5z" />
<glyph unicode="&#xe3;" d="M0 414q0 260 144.5 420.5t375.5 160.5q93 0 163 -32.5t126 -102.5l18 113h406l-49 -295h-90l-72 -383h104l-47 -295h-420l17 90q-82 -63 -150.5 -90t-146.5 -27q-170 0 -274.5 121t-104.5 320zM367 471q0 -86 43.5 -133t121.5 -47q83 0 136 64t53 163q0 81 -42.5 127.5 t-115.5 46.5q-90 0 -143 -59.5t-53 -161.5zM383 1139q31 131 90 196.5t146 65.5q18 0 40.5 -4t51.5 -13l63 -20q19 -6 33.5 -9t22.5 -3q39 0 62.5 21t39.5 73h121q-35 -134 -92 -196t-144 -62q-23 0 -43.5 3.5t-42.5 10.5l-64 21q-23 7 -38 9.5t-27 2.5q-36 0 -63 -25.5 t-37 -70.5h-119z" />
<glyph unicode="&#xe4;" d="M0 414q0 260 144.5 420.5t375.5 160.5q93 0 163 -32.5t126 -102.5l18 113h406l-49 -295h-90l-72 -383h104l-47 -295h-420l17 90q-82 -63 -150.5 -90t-146.5 -27q-170 0 -274.5 121t-104.5 320zM367 471q0 -86 43.5 -133t121.5 -47q83 0 136 64t53 163q0 81 -42.5 127.5 t-115.5 46.5q-90 0 -143 -59.5t-53 -161.5zM383 1157l57 270h250l-57 -270h-250zM746 1157l57 270h250l-58 -270h-249z" />
<glyph unicode="&#xe5;" d="M0 414q0 260 144.5 420.5t375.5 160.5q93 0 163 -32.5t126 -102.5l18 113h406l-49 -295h-90l-72 -383h104l-47 -295h-420l17 90q-82 -63 -150.5 -90t-146.5 -27q-170 0 -274.5 121t-104.5 320zM367 471q0 -86 43.5 -133t121.5 -47q83 0 136 64t53 163q0 81 -42.5 127.5 t-115.5 46.5q-90 0 -143 -59.5t-53 -161.5zM432 1325q0 112 79.5 191t193.5 79q112 0 191 -79t79 -191q0 -114 -78.5 -193t-191.5 -79q-115 0 -194 78.5t-79 193.5zM582 1323q0 -51 35.5 -86t87.5 -35q51 0 85.5 35t34.5 86q0 52 -35 88.5t-85 36.5q-53 0 -88 -35.5 t-35 -89.5z" />
<glyph unicode="&#xe6;" horiz-adv-x="1796" d="M10 301q0 150 109.5 243t288.5 93q63 0 129.5 -18.5t175.5 -69.5q0 2 1 7q7 42 7 56q0 79 -52.5 120.5t-152.5 41.5q-56 0 -110 -12.5t-113 -38.5l-113 213q81 30 176 44.5t203 14.5q105 0 179.5 -19t148.5 -63q96 44 173.5 63t156.5 19q212 0 346.5 -127.5t134.5 -330.5 q0 -32 -1 -57t-3 -52h-693l-1 -7t-1 -13q0 -74 45 -121t113 -47q48 0 94 20.5t101 67.5l250 -162q-88 -98 -206.5 -146.5t-271.5 -48.5q-105 0 -202.5 34.5t-171.5 98.5q-91 -66 -184 -99.5t-185 -33.5q-159 0 -265 95t-106 235zM340 324q0 -55 46 -92t114 -37 q72 0 118 35.5t46 93.5q0 52 -47.5 86t-120.5 34q-72 0 -114 -32.5t-42 -87.5zM1014 571l334 1q1 6 1.5 12.5t0.5 19.5q0 66 -40.5 106t-105.5 40q-70 0 -122.5 -49t-67.5 -130z" />
<glyph unicode="&#xe7;" horiz-adv-x="1100" d="M-6 479q0 222 140.5 370t354.5 148q86 0 157 -25t132 -77l17 78h280l-74 -402h-303q-21 55 -62.5 83t-100.5 28q-77 0 -126 -56t-49 -143q0 -77 47.5 -126.5t120.5 -49.5q54 0 101 26.5t80 76.5l276 -211q-94 -107 -221 -163t-272 -56q-223 0 -360.5 138t-137.5 361z M164 -438l53 133q66 -27 125 -40t109 -13q45 0 71.5 20.5t26.5 54.5q0 38 -38 53t-136 15h-27l76 215h115l-33 -92q117 -2 175 -45.5t58 -128.5q0 -111 -73 -171.5t-207 -60.5q-54 0 -127.5 15t-167.5 45z" />
<glyph unicode="&#xe8;" horiz-adv-x="1128" d="M-2 459q0 234 158.5 385t408.5 151q224 0 350.5 -129.5t126.5 -359.5q0 -14 -0.5 -29.5t-3.5 -48.5h-669q0 -81 47 -128.5t129 -47.5q47 0 89 18t87 58l250 -160q-89 -95 -206 -144t-255 -49q-237 0 -374.5 129.5t-137.5 354.5zM336 1477h270l164 -371h-139zM379 569h326 q0 5 1 11.5t1 9.5q0 65 -41 104t-109 39q-71 0 -115.5 -40.5t-62.5 -123.5z" />
<glyph unicode="&#xe9;" horiz-adv-x="1128" d="M-2 459q0 234 158.5 385t408.5 151q224 0 350.5 -129.5t126.5 -359.5q0 -14 -0.5 -29.5t-3.5 -48.5h-669q0 -81 47 -128.5t129 -47.5q47 0 89 18t87 58l250 -160q-89 -95 -206 -144t-255 -49q-237 0 -374.5 129.5t-137.5 354.5zM379 569h326q0 5 1 11.5t1 9.5 q0 65 -41 104t-109 39q-71 0 -115.5 -40.5t-62.5 -123.5zM418 1106l233 371h311l-391 -371h-153z" />
<glyph unicode="&#xea;" horiz-adv-x="1128" d="M-2 459q0 234 158.5 385t408.5 151q224 0 350.5 -129.5t126.5 -359.5q0 -14 -0.5 -29.5t-3.5 -48.5h-669q0 -81 47 -128.5t129 -47.5q47 0 89 18t87 58l250 -160q-89 -95 -206 -144t-255 -49q-237 0 -374.5 129.5t-137.5 354.5zM276 1106l262 371h254l125 -371h-141 l-125 199l-221 -199h-154zM379 569h326q0 5 1 11.5t1 9.5q0 65 -41 104t-109 39q-71 0 -115.5 -40.5t-62.5 -123.5z" />
<glyph unicode="&#xeb;" horiz-adv-x="1128" d="M-2 459q0 234 158.5 385t408.5 151q224 0 350.5 -129.5t126.5 -359.5q0 -14 -0.5 -29.5t-3.5 -48.5h-669q0 -81 47 -128.5t129 -47.5q47 0 89 18t87 58l250 -160q-89 -95 -206 -144t-255 -49q-237 0 -374.5 129.5t-137.5 354.5zM311 1157l57 270h250l-57 -270h-250z M379 569h326q0 5 1 11.5t1 9.5q0 65 -41 104t-109 39q-71 0 -115.5 -40.5t-62.5 -123.5zM674 1157l57 270h250l-58 -270h-249z" />
<glyph unicode="&#xec;" horiz-adv-x="696" d="M-66 0l54 291h116l70 389h-119l51 293h484l-119 -682h125l-55 -291h-607zM119 1477h270l164 -371h-139z" />
<glyph unicode="&#xed;" horiz-adv-x="696" d="M-66 0l54 291h116l70 389h-119l51 293h484l-119 -682h125l-55 -291h-607zM201 1106l233 371h311l-391 -371h-153z" />
<glyph unicode="&#xee;" horiz-adv-x="696" d="M-66 0l54 291h116l70 389h-119l51 293h484l-119 -682h125l-55 -291h-607zM59 1106l262 371h254l125 -371h-141l-125 199l-221 -199h-154z" />
<glyph unicode="&#xef;" horiz-adv-x="696" d="M-66 0l54 291h116l70 389h-119l51 293h484l-119 -682h125l-55 -291h-607zM94 1157l57 270h250l-57 -270h-250zM457 1157l57 270h250l-58 -270h-249z" />
<glyph unicode="&#xf0;" horiz-adv-x="1161" d="M-6 422q0 223 161 379.5t382 156.5q14 0 31.5 -1.5t35.5 -4.5l-98 160l-293 -61l-27 157l232 49l-129 218h321l97 -158l247 51l31 -158l-192 -39l122 -200q85 -137 122.5 -247t37.5 -218q0 -229 -162 -381t-407 -152q-227 0 -369.5 126t-142.5 323zM367 449 q0 -66 41.5 -110t103.5 -44q83 0 140 56t57 134q0 68 -44.5 112t-113.5 44q-76 0 -130 -56.5t-54 -135.5z" />
<glyph unicode="&#xf1;" horiz-adv-x="1276" d="M-63 0l51 291h118l68 389h-117l52 293h454l-26 -162q88 85 180.5 127.5t189.5 42.5q111 0 169.5 -51.5t58.5 -149.5q0 -24 -18 -131q-5 -26 -7 -38l-57 -320h118l-51 -291h-485l108 610q1 4 1.5 9.5t0.5 15.5q0 36 -18.5 53t-60.5 17q-59 0 -97 -38.5t-51 -111.5 l-45 -264h105l-54 -291h-587zM385 1139q31 131 90 196.5t146 65.5q18 0 40.5 -4t51.5 -13l63 -20q19 -6 33.5 -9t22.5 -3q39 0 62.5 21t39.5 73h121q-35 -134 -92 -196t-144 -62q-23 0 -43.5 3.5t-42.5 10.5l-64 21q-23 7 -38 9.5t-27 2.5q-36 0 -63 -25.5t-37 -70.5h-119z " />
<glyph unicode="&#xf2;" horiz-adv-x="1161" d="M-6 438q0 239 164 398t409 159q227 0 368.5 -128.5t141.5 -331.5q0 -243 -162.5 -400.5t-408.5 -157.5q-227 0 -369.5 129.5t-142.5 331.5zM338 1477h270l164 -371h-139zM367 467q0 -71 42.5 -114.5t112.5 -43.5q76 0 131.5 58.5t55.5 138.5q0 69 -44.5 114.5 t-113.5 45.5q-76 0 -130 -58.5t-54 -140.5z" />
<glyph unicode="&#xf3;" horiz-adv-x="1161" d="M-6 438q0 239 164 398t409 159q227 0 368.5 -128.5t141.5 -331.5q0 -243 -162.5 -400.5t-408.5 -157.5q-227 0 -369.5 129.5t-142.5 331.5zM367 467q0 -71 42.5 -114.5t112.5 -43.5q76 0 131.5 58.5t55.5 138.5q0 69 -44.5 114.5t-113.5 45.5q-76 0 -130 -58.5 t-54 -140.5zM420 1106l233 371h311l-391 -371h-153z" />
<glyph unicode="&#xf4;" horiz-adv-x="1161" d="M-6 438q0 239 164 398t409 159q227 0 368.5 -128.5t141.5 -331.5q0 -243 -162.5 -400.5t-408.5 -157.5q-227 0 -369.5 129.5t-142.5 331.5zM278 1106l262 371h254l125 -371h-141l-125 199l-221 -199h-154zM367 467q0 -71 42.5 -114.5t112.5 -43.5q76 0 131.5 58.5 t55.5 138.5q0 69 -44.5 114.5t-113.5 45.5q-76 0 -130 -58.5t-54 -140.5z" />
<glyph unicode="&#xf5;" horiz-adv-x="1161" d="M-6 438q0 239 164 398t409 159q227 0 368.5 -128.5t141.5 -331.5q0 -243 -162.5 -400.5t-408.5 -157.5q-227 0 -369.5 129.5t-142.5 331.5zM313 1139q31 131 90 196.5t146 65.5q18 0 40.5 -4t51.5 -13l63 -20q19 -6 33.5 -9t22.5 -3q39 0 62.5 21t39.5 73h121 q-35 -134 -92 -196t-144 -62q-23 0 -43.5 3.5t-42.5 10.5l-64 21q-23 7 -38 9.5t-27 2.5q-36 0 -63 -25.5t-37 -70.5h-119zM367 467q0 -71 42.5 -114.5t112.5 -43.5q76 0 131.5 58.5t55.5 138.5q0 69 -44.5 114.5t-113.5 45.5q-76 0 -130 -58.5t-54 -140.5z" />
<glyph unicode="&#xf6;" horiz-adv-x="1161" d="M-6 438q0 239 164 398t409 159q227 0 368.5 -128.5t141.5 -331.5q0 -243 -162.5 -400.5t-408.5 -157.5q-227 0 -369.5 129.5t-142.5 331.5zM313 1157l57 270h250l-57 -270h-250zM367 467q0 -71 42.5 -114.5t112.5 -43.5q76 0 131.5 58.5t55.5 138.5q0 69 -44.5 114.5 t-113.5 45.5q-76 0 -130 -58.5t-54 -140.5zM676 1157l57 270h250l-58 -270h-249z" />
<glyph unicode="&#xf7;" horiz-adv-x="1706" d="M254 496v231h1198v-231h-1198zM688 205q0 68 49 117t117 49t116 -48.5t48 -117.5q0 -68 -47.5 -116t-116.5 -48t-117.5 48t-48.5 116zM688 1016q0 68 49 117t117 49q67 0 115.5 -49t48.5 -117t-48.5 -116t-117.5 -48t-116.5 48t-47.5 116z" />
<glyph unicode="&#xf8;" horiz-adv-x="1161" d="M-70 -147l203 258q-68 70 -103.5 153t-35.5 174q0 238 164.5 397.5t408.5 159.5q59 0 117 -10.5t119 -32.5l141 172h199l-205 -258q69 -67 104 -151t35 -180q0 -242 -162 -400t-409 -158q-57 0 -117 11.5t-125 34.5l-135 -170h-199zM367 467q0 -71 42.5 -114.5 t112.5 -43.5q76 0 131.5 58.5t55.5 138.5q0 69 -44.5 114.5t-113.5 45.5q-76 0 -130 -58.5t-54 -140.5z" />
<glyph unicode="&#xf9;" d="M14 680l52 293h485l-109 -611q-1 -4 -1.5 -9.5t-0.5 -16.5q0 -37 19 -53.5t61 -16.5q59 0 97 38.5t51 111.5l45 264h-105l54 293h468l-118 -680h118l-51 -293h-456l28 160q-88 -85 -181.5 -127.5t-190.5 -42.5q-111 0 -169.5 51.5t-58.5 148.5q0 29 22 155l3 18l57 317 h-119zM357 1477h270l164 -371h-139z" />
<glyph unicode="&#xfa;" d="M14 680l52 293h485l-109 -611q-1 -4 -1.5 -9.5t-0.5 -16.5q0 -37 19 -53.5t61 -16.5q59 0 97 38.5t51 111.5l45 264h-105l54 293h468l-118 -680h118l-51 -293h-456l28 160q-88 -85 -181.5 -127.5t-190.5 -42.5q-111 0 -169.5 51.5t-58.5 148.5q0 29 22 155l3 18l57 317 h-119zM439 1106l233 371h311l-391 -371h-153z" />
<glyph unicode="&#xfb;" d="M14 680l52 293h485l-109 -611q-1 -4 -1.5 -9.5t-0.5 -16.5q0 -37 19 -53.5t61 -16.5q59 0 97 38.5t51 111.5l45 264h-105l54 293h468l-118 -680h118l-51 -293h-456l28 160q-88 -85 -181.5 -127.5t-190.5 -42.5q-111 0 -169.5 51.5t-58.5 148.5q0 29 22 155l3 18l57 317 h-119zM297 1106l262 371h254l125 -371h-141l-125 199l-221 -199h-154z" />
<glyph unicode="&#xfc;" d="M14 680l52 293h485l-109 -611q-1 -4 -1.5 -9.5t-0.5 -16.5q0 -37 19 -53.5t61 -16.5q59 0 97 38.5t51 111.5l45 264h-105l54 293h468l-118 -680h118l-51 -293h-456l28 160q-88 -85 -181.5 -127.5t-190.5 -42.5q-111 0 -169.5 51.5t-58.5 148.5q0 29 22 155l3 18l57 317 h-119zM332 1157l57 270h250l-57 -270h-250zM695 1157l57 270h250l-58 -270h-249z" />
<glyph unicode="&#xfd;" d="M-10 680l49 293h545l-45 -275h-86l77 -362l220 362h-105l49 275h545l-55 -293h-80l-541 -815h146l-54 -291h-647l53 291h146l74 121l-172 694h-119zM471 1106l233 371h311l-391 -371h-153z" />
<glyph unicode="&#xfe;" horiz-adv-x="1305" d="M-141 -426l51 291h119l233 1317h-119l52 293h471l-105 -570q50 45 114.5 68.5t137.5 23.5q176 0 290 -128.5t114 -331.5q0 -235 -144 -398.5t-348 -163.5q-96 0 -170.5 39t-124.5 115l-47 -264h129l-51 -291h-602zM481 459q0 -80 47.5 -129t122.5 -49q83 0 138 61.5 t55 151.5q0 75 -47 123.5t-121 48.5q-84 0 -139.5 -59t-55.5 -148z" />
<glyph unicode="&#xff;" d="M-10 680l49 293h545l-45 -275h-86l77 -362l220 362h-105l49 275h545l-55 -293h-80l-541 -815h146l-54 -291h-647l53 291h146l74 121l-172 694h-119zM364 1157l57 270h250l-57 -270h-250zM727 1157l57 270h250l-58 -270h-249z" />
<glyph unicode="&#x152;" horiz-adv-x="2095" d="M45 674q0 197 65 356t189 266q110 95 259 137t388 42h1182l-76 -549h-276l-23 260h-362l-50 -281h269l-51 -293h-271l-55 -323h405l113 295h274l-127 -584h-1085q-173 0 -273 20t-182 66q-153 86 -233 236.5t-80 351.5zM434 711q0 -156 89 -257.5t222 -101.5 q89 0 115 20.5t39 96.5l88 491q4 19 6 35t2 21q0 54 -43.5 79t-138.5 25q-163 0 -271 -117t-108 -292z" />
<glyph unicode="&#x153;" horiz-adv-x="1817" d="M-6 438q0 239 163.5 398t407.5 159q101 0 179.5 -26.5t148.5 -83.5q72 58 156.5 84t201.5 26q227 0 354.5 -128.5t127.5 -358.5q0 -14 -1 -30.5t-4 -49.5h-669q0 -81 47.5 -128.5t128.5 -47.5q48 0 90 18t86 58l250 -160q-90 -96 -209 -146.5t-256 -50.5 q-101 0 -191.5 30t-164.5 89q-59 -57 -146.5 -88t-191.5 -31q-223 0 -365.5 133t-142.5 334zM367 467q0 -71 42.5 -114.5t112.5 -43.5q76 0 131.5 58.5t55.5 138.5q0 69 -44.5 114.5t-113.5 45.5q-76 0 -130 -58.5t-54 -140.5zM1069 569h326q0 5 1 11.5t1 9.5q0 65 -41 104 t-109 39q-71 0 -115.5 -40.5t-62.5 -123.5z" />
<glyph unicode="&#x178;" horiz-adv-x="1536" d="M90 1186l51 289h672l-51 -289h-139l147 -307l246 307h-135l49 289h696l-51 -289h-158l-477 -641l-43 -256h133l-51 -289h-651l51 289h135l45 262l-321 635h-148zM625 1636l57 270h250l-57 -270h-250zM988 1636l57 270h250l-58 -270h-249z" />
<glyph unicode="&#x2c6;" horiz-adv-x="1024" d="M223 1106l262 371h254l125 -371h-141l-125 199l-221 -199h-154z" />
<glyph unicode="&#x2dc;" horiz-adv-x="1024" d="M258 1139q31 131 90 196.5t146 65.5q18 0 40.5 -4t51.5 -13l63 -20q19 -6 33.5 -9t22.5 -3q39 0 62.5 21t39.5 73h121q-35 -134 -92 -196t-144 -62q-23 0 -43.5 3.5t-42.5 10.5l-64 21q-23 7 -38 9.5t-27 2.5q-36 0 -63 -25.5t-37 -70.5h-119z" />
<glyph unicode="&#x2000;" horiz-adv-x="986" />
<glyph unicode="&#x2001;" horiz-adv-x="1972" />
<glyph unicode="&#x2002;" horiz-adv-x="986" />
<glyph unicode="&#x2003;" horiz-adv-x="1972" />
<glyph unicode="&#x2004;" horiz-adv-x="657" />
<glyph unicode="&#x2005;" horiz-adv-x="493" />
<glyph unicode="&#x2006;" horiz-adv-x="328" />
<glyph unicode="&#x2007;" horiz-adv-x="328" />
<glyph unicode="&#x2008;" horiz-adv-x="246" />
<glyph unicode="&#x2009;" horiz-adv-x="394" />
<glyph unicode="&#x200a;" horiz-adv-x="109" />
<glyph unicode="&#x2010;" horiz-adv-x="678" d="M-10 311l61 351h547l-61 -351h-547z" />
<glyph unicode="&#x2011;" horiz-adv-x="678" d="M-10 311l61 351h547l-61 -351h-547z" />
<glyph unicode="&#x2012;" horiz-adv-x="678" d="M-10 311l61 351h547l-61 -351h-547z" />
<glyph unicode="&#x2013;" horiz-adv-x="1024" d="M-43 389l43 242h1067l-43 -242h-1067z" />
<glyph unicode="&#x2014;" horiz-adv-x="2048" d="M-66 389l41 242h2048l-41 -242h-2048z" />
<glyph unicode="&#x2018;" horiz-adv-x="563" d="M115 971l151 504h330l-156 -504h-325z" />
<glyph unicode="&#x2019;" horiz-adv-x="563" d="M115 971l151 504h330l-156 -504h-325z" />
<glyph unicode="&#x201a;" horiz-adv-x="563" d="M-53 -129l151 504h330l-156 -504h-325z" />
<glyph unicode="&#x201c;" horiz-adv-x="1124" d="M115 971l151 504h330l-156 -504h-325zM674 971l151 504h330l-156 -504h-325z" />
<glyph unicode="&#x201d;" horiz-adv-x="1124" d="M115 971l151 504h330l-156 -504h-325zM674 971l151 504h330l-156 -504h-325z" />
<glyph unicode="&#x201e;" horiz-adv-x="1124" d="M-53 -129l151 504h330l-156 -504h-325zM506 -129l151 504h330l-156 -504h-325z" />
<glyph unicode="&#x2022;" horiz-adv-x="1208" d="M307 762q0 123 87 209t210 86q122 0 208.5 -86.5t86.5 -208.5t-87.5 -209.5t-209.5 -87.5q-123 0 -209 87t-86 210z" />
<glyph unicode="&#x2026;" horiz-adv-x="2048" d="M71 180q0 85 57.5 144t137.5 59q94 0 152.5 -56t58.5 -147q0 -85 -58 -141.5t-143 -56.5q-87 0 -146 56.5t-59 141.5zM753 180q0 85 57.5 144t137.5 59q94 0 152.5 -56t58.5 -147q0 -85 -58 -141.5t-143 -56.5q-87 0 -146 56.5t-59 141.5zM1437 180q0 85 57.5 144 t137.5 59q94 0 152.5 -56t58.5 -147q0 -85 -58 -141.5t-143 -56.5q-87 0 -146 56.5t-59 141.5z" />
<glyph unicode="&#x202f;" horiz-adv-x="394" />
<glyph unicode="&#x2039;" horiz-adv-x="678" d="M74 481l256 334h243l-260 -348l187 -309h-219z" />
<glyph unicode="&#x203a;" horiz-adv-x="678" d="M35 158l260 348l-186 309h217l209 -323l-256 -334h-244z" />
<glyph unicode="&#x205f;" horiz-adv-x="493" />
<glyph unicode="&#x20ac;" horiz-adv-x="1133" d="M-43 512l41 143l96 1q4 35 8.5 69t8.5 59h-117l43 144h102q67 267 198 402.5t322 135.5q76 0 137.5 -30.5t80.5 -79.5l10 80h272l-69 -410h-313q-6 48 -39 76t-83 28q-61 0 -99.5 -48.5t-61.5 -153.5h385l-64 -144h-354q-4 -25 -8.5 -59.5t-7.5 -69.5h321l-61 -143h-268 q-2 -9 -2.5 -19t-0.5 -28q0 -82 25.5 -120t81.5 -38q47 0 81.5 27.5t55.5 83.5h356q-50 -217 -189 -332t-351 -115q-216 0 -313 118.5t-97 379.5v43h-127z" />
<glyph unicode="&#x2122;" horiz-adv-x="1706" d="M188 1337v127h502v-127h-164v-424h-174v424h-164zM797 913v551h223l113 -303l114 303h221v-551h-155v390l-146 -390h-65l-150 390v-390h-155z" />
<glyph unicode="&#xe000;" horiz-adv-x="975" d="M0 0v975h975v-975h-975z" />
</font>
</defs>
</svg>
