<?xml version="1.0" standalone="no"?>
<!DOCTYPE svg PUBLIC "-//W3C//DTD SVG 1.1//EN" "http://www.w3.org/Graphics/SVG/1.1/DTD/svg11.dtd" >
<svg xmlns="http://www.w3.org/2000/svg">
<metadata></metadata>
<defs>
<font id="geoslab703_mdcn_btmedium" horiz-adv-x="797" >
<font-face units-per-em="2048" ascent="1556" descent="-492" />
<missing-glyph horiz-adv-x="397" />
<glyph horiz-adv-x="2048" />
<glyph horiz-adv-x="2048" />
<glyph unicode="&#xd;" horiz-adv-x="397" />
<glyph unicode=" "  horiz-adv-x="397" />
<glyph unicode="&#x09;" horiz-adv-x="397" />
<glyph unicode="&#xa0;" horiz-adv-x="397" />
<glyph unicode="!" horiz-adv-x="563" d="M180 74q0 42 29.5 72t71.5 30q43 0 73.5 -30t30.5 -72q0 -41 -31.5 -72t-72.5 -31q-40 0 -70.5 31.5t-30.5 71.5zM184 1395h195q-14 -238 -23 -490t-12 -524h-124q-4 272 -13 524t-23 490z" />
<glyph unicode="&#x22;" horiz-adv-x="590" d="M94 881v553h117v-553h-117zM377 881v553h119v-553h-119z" />
<glyph unicode="#" horiz-adv-x="1575" d="M104 467l43 123h320l96 272h-342l43 123h344l168 471h146l-166 -471h260l168 471h143l-164 -471h307l-43 -123h-311l-94 -272h330l-43 -123h-332l-166 -469h-145l168 469h-265l-168 -469h-143l166 469h-320zM614 590h263l96 272h-264z" />
<glyph unicode="$" d="M63 0v379l111 -1q3 -99 49 -162.5t129 -82.5v496q-147 81 -215.5 181t-68.5 232q0 147 77.5 234.5t206.5 87.5v125h66v-131q47 -15 81.5 -40t57.5 -61v101h109v-344h-109q-7 91 -43.5 147.5t-95.5 69.5v-440q172 -103 245.5 -210t73.5 -253q0 -150 -82.5 -242t-216.5 -92 h-20v-197h-66v201q-53 6 -99 36.5t-79 82.5v-117h-111zM205 1063q0 -77 35 -133.5t112 -104.5v410q-65 0 -106 -48t-41 -124zM418 125q79 5 122.5 60t43.5 151q0 74 -42 138t-124 118v-467z" />
<glyph unicode="%" horiz-adv-x="1143" d="M76 864v293q0 103 46.5 156t135.5 53t135.5 -53t46.5 -156v-293q0 -103 -46 -156t-136 -53q-89 0 -135.5 53.5t-46.5 155.5zM197 860q0 -50 15 -75t46 -25t46 25t15 75v301q0 50 -15.5 75.5t-45.5 25.5q-31 0 -46 -25t-15 -76v-301zM199 -29l653 1424h90l-651 -1424h-92z M702 209v293q0 103 46 156t135 53q90 0 137 -53.5t47 -155.5v-293q0 -103 -47 -156t-137 -53q-89 0 -135 53t-46 156zM823 205q0 -51 14.5 -76t45.5 -25t47 25.5t16 75.5v301q0 49 -16 74.5t-47 25.5t-45.5 -24.5t-14.5 -75.5v-301z" />
<glyph unicode="&#x26;" horiz-adv-x="1176" d="M66 371q0 124 57.5 228.5t181.5 203.5q-69 88 -101 167t-32 160q0 136 76.5 213.5t208.5 77.5q125 0 201.5 -72t76.5 -190q0 -108 -55 -197.5t-172 -170.5l301 -404q33 74 53.5 147t26.5 142h-111v137h355v-137h-101q-14 -114 -46.5 -215.5t-84.5 -194.5l88 -125h152 v-141h-242l-96 131q-74 -81 -157 -120.5t-183 -39.5q-175 0 -286 111.5t-111 288.5zM229 403q0 -112 77 -194t181 -82q66 0 123 28.5t111 88.5l-336 448q-78 -67 -117 -139t-39 -150zM324 1139q0 -53 25.5 -112t80.5 -132q79 71 116.5 134t37.5 126q0 57 -35 93t-90 36 q-62 0 -98.5 -39.5t-36.5 -105.5z" />
<glyph unicode="'" horiz-adv-x="305" d="M94 881v553h117v-553h-117z" />
<glyph unicode="(" horiz-adv-x="522" d="M102 614q0 205 66 406t199 401h129q-119 -210 -177.5 -410.5t-58.5 -396.5q0 -195 58.5 -397t177.5 -412h-129q-133 201 -199 402.5t-66 406.5z" />
<glyph unicode=")" horiz-adv-x="522" d="M27 -195q116 208 174.5 410.5t58.5 398.5q0 197 -58.5 398.5t-174.5 408.5h127q133 -202 199.5 -402.5t66.5 -404.5t-66.5 -405.5t-199.5 -403.5h-127z" />
<glyph unicode="*" horiz-adv-x="664" d="M63 1196l29 86l195 -68v207h90l-2 -207l196 66l29 -84l-201 -63l125 -166l-73 -54l-119 170l-121 -168l-72 54l125 166z" />
<glyph unicode="+" horiz-adv-x="1706" d="M254 553v117h541v551h118v-551h539v-117h-539v-553h-118v553h-541z" />
<glyph unicode="," horiz-adv-x="397" d="M37 -217l117 405h131l-117 -405h-131z" />
<glyph unicode="-" horiz-adv-x="592" d="M61 412v129h469v-129h-469z" />
<glyph unicode="." horiz-adv-x="397" d="M96 86q0 41 30.5 71.5t72.5 30.5q43 0 72.5 -29.5t29.5 -72.5q0 -41 -30.5 -71.5t-71.5 -30.5q-40 0 -71.5 31t-31.5 71z" />
<glyph unicode="/" horiz-adv-x="578" d="M-49 -190l577 1611h99l-576 -1611h-100z" />
<glyph unicode="0" d="M80 389v586q0 206 81 313t236 107q156 0 238 -107.5t82 -312.5v-586q0 -204 -81.5 -311t-238.5 -107q-155 0 -236 106.5t-81 311.5zM250 340q0 -116 36 -170.5t111 -54.5q76 0 113 55t37 170v686q0 115 -37 170t-113 55q-75 0 -111 -54.5t-36 -170.5v-686z" />
<glyph unicode="1" d="M205 0v123h114v1122h-114v121h284v-1243h121v-123h-405z" />
<glyph unicode="2" d="M68 0v141l284 461q91 147 132.5 258.5t41.5 206.5q0 98 -36 141t-117 43q-88 0 -122 -56.5t-34 -252.5v-12h-145v39q0 227 73 326.5t236 99.5q151 0 232 -81t81 -233q0 -107 -38.5 -216t-133.5 -261l-284 -459h319v215h143v-360h-632z" />
<glyph unicode="3" d="M70 358v43h147v-51q0 -120 41.5 -179.5t124.5 -59.5t119.5 56t36.5 191q0 176 -45.5 233.5t-169.5 57.5h-23v129q135 2 184.5 54.5t49.5 205.5q0 113 -35 166t-109 53q-84 0 -125 -59.5t-41 -183.5v-35h-141v53q0 181 76 271t229 90q145 0 223 -90t78 -256 q0 -161 -49.5 -242.5t-146.5 -81.5h-5q105 -11 157 -105.5t52 -271.5q0 -187 -82 -281t-245 -94q-146 0 -223.5 99.5t-77.5 287.5z" />
<glyph unicode="4" d="M49 391v125l371 850h160v-850h106v-125h-106v-266h106v-125h-385v125h119v266h-371zM172 516h248v559z" />
<glyph unicode="5" d="M88 322v38h154v-53q0 -98 40 -147t119 -49q82 0 115 56.5t33 203.5v98q0 145 -34.5 202.5t-117.5 57.5q-35 0 -66 -17.5t-57 -52.5h-127v707h490v-149h-346v-388q29 19 61.5 28t67.5 9q145 0 220 -111t75 -327q0 -234 -81 -345.5t-249 -111.5q-142 0 -219.5 91.5 t-77.5 259.5z" />
<glyph unicode="6" d="M86 416v540q0 226 74.5 332.5t232.5 106.5q146 0 226.5 -86t80.5 -240v-55h-143v51q0 100 -38 146t-120 46q-79 0 -117 -56t-38 -173v-297q29 43 76 66.5t104 23.5q147 0 222 -109.5t75 -324.5q0 -203 -85 -309.5t-247 -106.5q-65 0 -125.5 28t-99.5 75q-42 51 -60 116 t-18 226zM236 352q0 -121 41 -181t124 -60q73 0 112.5 57t39.5 164v133q0 103 -40 160t-112 57q-89 0 -127 -63t-38 -213v-54z" />
<glyph unicode="7" d="M84 971v395h629v-192l-371 -1174h-170l383 1212h-326v-241h-145z" />
<glyph unicode="8" d="M88 346q0 178 49.5 269t150.5 102q-96 9 -146 81t-50 203q0 205 74 300.5t231 95.5q158 0 233 -96t75 -300q0 -131 -50 -203t-147 -81q102 -11 151.5 -102t49.5 -269q0 -190 -77 -282.5t-235 -92.5q-157 0 -233 92.5t-76 282.5zM244 360q0 -128 37.5 -189.5t115.5 -61.5 q80 0 118 61.5t38 189.5v48q0 115 -40 175t-116 60q-75 0 -114 -59.5t-39 -175.5v-48zM250 1001q0 -104 37 -157t110 -53q74 0 112 53t38 157v48q0 100 -38.5 153t-111.5 53q-72 0 -109.5 -52.5t-37.5 -153.5v-48z" />
<glyph unicode="9" d="M74 979q0 203 84.5 309.5t247.5 106.5q150 0 226.5 -105t76.5 -309v-571q0 -226 -75 -332.5t-233 -106.5q-145 0 -226 86t-81 240v55h144v-51q0 -100 38 -146t119 -46q79 0 117.5 56t38.5 173v297q-31 -45 -78.5 -67.5t-110.5 -22.5q-140 0 -214 111t-74 323zM242 903 q0 -104 39.5 -161.5t111.5 -57.5q89 0 127.5 63t38.5 214v53q0 121 -41.5 181t-124.5 60q-73 0 -112 -56.5t-39 -162.5v-133z" />
<glyph unicode=":" horiz-adv-x="426" d="M111 86q0 41 30.5 71.5t71.5 30.5q43 0 72.5 -29.5t29.5 -72.5q0 -41 -30.5 -71.5t-71.5 -30.5q-40 0 -71 31t-31 71zM111 657q0 42 30.5 72.5t71.5 30.5q43 0 72.5 -30t29.5 -73q0 -41 -30.5 -71.5t-71.5 -30.5q-40 0 -71 31t-31 71z" />
<glyph unicode=";" horiz-adv-x="426" d="M37 -217l117 405h131l-117 -405h-131zM117 657q0 42 29.5 72.5t70.5 30.5q43 0 74 -30t31 -73q0 -41 -31.5 -71.5t-73.5 -30.5q-40 0 -70 31t-30 71z" />
<glyph unicode="&#x3c;" horiz-adv-x="1706" d="M264 559v103l1178 483v-127l-1000 -408l1000 -405v-129z" />
<glyph unicode="=" horiz-adv-x="1706" d="M254 360v117h1198v-117h-1198zM254 743v117h1198v-117h-1198z" />
<glyph unicode="&#x3e;" horiz-adv-x="1706" d="M264 76v129l1000 405l-1000 408v127l1178 -483v-103z" />
<glyph unicode="?" horiz-adv-x="786" d="M74 1104v43q0 129 79 203.5t216 74.5q151 0 237 -99.5t86 -274.5q0 -174 -74 -265.5t-225 -103.5v-295h-139v418h33q137 0 196.5 55t59.5 182q0 114 -49 176t-138 62q-67 0 -103 -38t-36 -109v-29h-143zM225 74q0 41 30.5 71.5t72.5 30.5q43 0 72.5 -29.5t29.5 -72.5 q0 -42 -30.5 -72.5t-71.5 -30.5q-40 0 -71.5 31.5t-31.5 71.5z" />
<glyph unicode="@" horiz-adv-x="2048" d="M113 522q0 163 50.5 309t149.5 269q146 176 349.5 267t453.5 91q165 0 311 -43.5t248 -124.5q129 -99 195.5 -230t66.5 -282q0 -169 -62.5 -308.5t-182.5 -236.5q-69 -55 -148.5 -83.5t-163.5 -28.5q-99 0 -148.5 39t-49.5 116q0 3 1 11t1 12q-51 -87 -127 -132.5 t-170 -45.5q-153 0 -233.5 85t-80.5 247q0 230 137 389t332 159q91 0 153.5 -39.5t96.5 -117.5l58 121h110l-141 -568q-6 -24 -9 -44t-3 -36q0 -44 27.5 -67t82.5 -23q45 0 100 24t103 64q89 76 139.5 196.5t50.5 254.5q0 266 -195.5 428t-518.5 162q-168 0 -312.5 -52 t-259.5 -153q-140 -122 -211 -282.5t-71 -354.5q0 -173 60.5 -304t186.5 -230q101 -81 240 -124.5t295 -43.5q172 0 334.5 48.5t296.5 139.5l45 -66q-147 -109 -313 -165t-347 -56q-191 0 -348 46.5t-276 138.5q-153 117 -228 272t-75 352zM713 446q0 -110 51 -169.5 t145 -59.5q102 0 183.5 70.5t109.5 185.5l60 242q-17 90 -72 140t-135 50q-146 0 -244 -131.5t-98 -327.5z" />
<glyph unicode="A" horiz-adv-x="1100" d="M18 0v127h107l303 1139h-133v129h524v-129h-137l305 -1139h94v-127h-407v127h141l-78 305h-379l-82 -305h140v-127h-398zM393 563h309l-151 631z" />
<glyph unicode="B" horiz-adv-x="995" d="M51 0v127h139v1139h-139v129h502q171 0 256.5 -76.5t85.5 -231.5v-57q0 -119 -53.5 -188t-161.5 -90q122 -20 180 -90.5t58 -200.5v-113q0 -175 -85 -261.5t-255 -86.5h-527zM365 133h163q114 0 162.5 52t48.5 175v121q0 109 -46.5 156t-155.5 47h-172v-551zM365 813h149 q119 0 165 46.5t46 164.5v72q0 83 -45.5 124.5t-136.5 41.5h-178v-449z" />
<glyph unicode="C" horiz-adv-x="872" d="M66 406v569q0 215 92 330.5t264 115.5q72 0 135.5 -26.5t106.5 -75.5v76h124v-406h-135l-2 33q-14 136 -61 197t-135 61q-109 0 -160 -66.5t-51 -207.5v-619q0 -142 50.5 -207t160.5 -65q103 0 157 70t54 206v49h157v-34q0 -213 -96.5 -324t-282.5 -111 q-185 0 -281.5 111t-96.5 324z" />
<glyph unicode="D" horiz-adv-x="1020" d="M51 0v127h139v1139h-139v129h357q302 0 423 -116.5t121 -408.5v-323q0 -289 -117 -418t-378 -129h-406zM365 133h47q195 0 278.5 90.5t83.5 300.5v367q0 203 -79 287t-271 84h-59v-1129z" />
<glyph unicode="E" horiz-adv-x="1014" d="M51 0v127h139v1139h-139v129h873v-373h-152v240h-407v-443h340v-145h-340v-541h413v273h156v-406h-883z" />
<glyph unicode="F" horiz-adv-x="977" d="M51 0v127h139v1139h-139v129h903v-383h-153v250h-436v-443h340v-145h-340v-547h137v-127h-451z" />
<glyph unicode="G" horiz-adv-x="877" d="M66 406v618q0 183 96 290t260 107q73 0 136 -32t106 -91v97h124v-385h-135l-2 30q-14 127 -61 183.5t-135 56.5q-109 0 -160 -66.5t-51 -207.5v-619q0 -142 50.5 -207t160.5 -65q103 0 157 70t54 206v119h-144v147h301v-657h-82l-57 82q-54 -57 -115.5 -84t-138.5 -27 q-174 0 -269 113.5t-95 321.5z" />
<glyph unicode="H" horiz-adv-x="1110" d="M51 0v127h139v1139h-139v129h451v-129h-137v-441h378v441h-137v129h451v-129h-137v-1139h137v-127h-451v127h137v551h-378v-551h137v-127h-451z" />
<glyph unicode="I" horiz-adv-x="555" d="M51 0v127h139v1139h-139v129h451v-129h-137v-1139h137v-127h-451z" />
<glyph unicode="J" horiz-adv-x="555" d="M6 -72h35q95 0 129.5 36t34.5 142v1160h-139v129h450v-129h-137v-1145q0 -170 -79.5 -254t-240.5 -84h-53v145z" />
<glyph unicode="K" horiz-adv-x="1057" d="M51 0v127h139v1139h-139v129h451v-129h-137v-527l397 527h-146v129h437v-129h-113l-395 -527l407 -612h107v-127h-436v127h137l-395 600v-600h137v-127h-451z" />
<glyph unicode="L" horiz-adv-x="977" d="M51 0v127h139v1139h-139v129h451v-129h-137v-1133h413v273h156v-406h-883z" />
<glyph unicode="M" horiz-adv-x="1327" d="M51 0v127h139v1139h-139v129h391l222 -889l231 889h381v-129h-137v-1139h137v-127h-442v127h139l8 1139l-287 -1104h-80l-278 1104v-1139h137v-127h-422z" />
<glyph unicode="N" horiz-adv-x="1139" d="M51 0v127h139v1139h-139v129h328l422 -1049v920h-137v129h421v-129h-137v-1280h-151l-461 1138v-997h137v-127h-422z" />
<glyph unicode="O" horiz-adv-x="909" d="M66 389v615q0 205 99 311t290 106t290 -106t99 -311v-615q0 -205 -99 -311.5t-290 -106.5t-290 106.5t-99 311.5zM244 387q0 -142 50.5 -207t160.5 -65q109 0 160 65.5t51 206.5v619q0 141 -51 207.5t-160 66.5t-160 -66.5t-51 -207.5v-619z" />
<glyph unicode="P" horiz-adv-x="985" d="M51 0v127h139v1139h-139v129h463q218 0 314 -77t96 -251v-131q0 -179 -81 -258.5t-263 -79.5h-215v-471h137v-127h-451zM365 729h135q145 0 198.5 46t53.5 167v131q0 105 -53 147t-189 42h-145v-533z" />
<glyph unicode="Q" horiz-adv-x="909" d="M66 389v615q0 205 99 311t290 106t290 -106t99 -311v-615q0 -161 -61 -260.5t-181 -136.5l219 -225h-200l-191 204q-181 10 -272.5 115.5t-91.5 302.5zM244 387q0 -142 50.5 -207t160.5 -65q109 0 160 65.5t51 206.5v619q0 141 -51 207.5t-160 66.5t-160 -66.5 t-51 -207.5v-619z" />
<glyph unicode="R" horiz-adv-x="1063" d="M51 0v127h139v1139h-139v129h479q218 0 304 -70t86 -242v-94q0 -125 -49 -181t-177 -79q129 -12 177.5 -57.5t48.5 -153.5v-391h137v-127h-303v514q0 86 -39.5 118t-149.5 32h-200v-537h137v-127h-451zM365 797h180q105 0 154 41.5t49 130.5v133q0 90 -43.5 125 t-161.5 35h-178v-465z" />
<glyph unicode="S" horiz-adv-x="872" d="M68 0v422h141q18 -148 85 -227.5t173 -79.5q81 0 131.5 51.5t50.5 134.5q0 61 -34 117t-109 119l-234 194q-98 83 -146 171.5t-48 187.5q0 145 86.5 238t218.5 93q76 0 142.5 -33t115.5 -96v103h127v-357h-135q-23 117 -82 178.5t-150 61.5q-71 0 -119.5 -48t-48.5 -118 q0 -53 33 -106.5t99 -108.5l251 -213q104 -88 151.5 -176.5t47.5 -194.5q0 -149 -98 -245.5t-250 -96.5q-82 0 -150 38.5t-129 119.5v-129h-120z" />
<glyph unicode="T" horiz-adv-x="973" d="M51 1012v383h869v-383h-152v250h-195v-1135h181v-127h-537v127h180v1135h-192v-250h-154z" />
<glyph unicode="U" horiz-adv-x="1110" d="M51 1266v129h451v-129h-137v-908q0 -126 45.5 -184.5t144.5 -58.5q98 0 143 58t45 185v908h-137v129h451v-129h-137v-914q0 -186 -93.5 -283.5t-271.5 -97.5t-271.5 97.5t-93.5 283.5v914h-139z" />
<glyph unicode="V" horiz-adv-x="985" d="M23 1266v129h393v-129h-123l211 -944l213 944h-121v129h379v-129h-107l-303 -1280h-129l-325 1280h-88z" />
<glyph unicode="W" horiz-adv-x="1366" d="M0 1266v129h377v-129h-117l178 -944l183 944h-132v129h385v-129h-126l178 -944l196 944h-123v129h365v-129h-88l-289 -1280h-113l-190 981l-199 -981h-114l-277 1280h-94z" />
<glyph unicode="X" horiz-adv-x="995" d="M23 0v127h92l299 555l-299 584h-86v129h395v-129h-125l209 -410l215 410h-113v129h363v-129h-82l-303 -566l297 -573h84v-127h-400v127h133l-208 399l-213 -399h122v-127h-380z" />
<glyph unicode="Y" horiz-adv-x="985" d="M25 1266v129h397v-129h-123l188 -523l224 523h-123v129h375v-129h-93l-303 -711v-428h138v-127h-451v127h137v428l-270 711h-96z" />
<glyph unicode="Z" horiz-adv-x="901" d="M53 0v133l600 1129h-434v-254h-151v387h770v-125l-602 -1137h442v307h156v-440h-781z" />
<glyph unicode="[" horiz-adv-x="522" d="M152 -166v1561h370v-105h-215v-1351h215v-105h-370z" />
<glyph unicode="\" horiz-adv-x="578" d="M-49 1421h100l578 -1611h-101z" />
<glyph unicode="]" horiz-adv-x="522" d="M0 -61h213v1351h-213v105h371v-1561h-371v105z" />
<glyph unicode="^" horiz-adv-x="2048" d="M422 901l520 557h162l520 -557h-158l-442 438l-442 -438h-160z" />
<glyph unicode="_" horiz-adv-x="1024" d="M0 -365h1024v-118h-1024v118z" />
<glyph unicode="`" horiz-adv-x="1024" d="M276 1372h181l184 -348h-109z" />
<glyph unicode="a" horiz-adv-x="815" d="M72 399v166q0 168 67 258t191 90q64 0 112 -30.5t86 -96.5v109h226v-123h-95v-653h95v-119h-234v111q-52 -68 -101.5 -97.5t-111.5 -29.5q-119 0 -177 101.5t-58 313.5zM229 340q0 -119 27.5 -169t91.5 -50q70 0 112 64.5t42 172.5v197q0 109 -36.5 164t-107.5 55 q-68 0 -98.5 -50t-30.5 -165v-219z" />
<glyph unicode="b" horiz-adv-x="811" d="M47 0v123h94v1147h-94v125h252v-588q46 53 95 79.5t102 26.5q112 0 172.5 -86t60.5 -247v-256q0 -163 -60 -251.5t-169 -88.5q-72 0 -122 30.5t-95 102.5v-117h-236zM299 354q0 -119 33.5 -173t105.5 -54q67 0 100 50.5t33 154.5v260q0 92 -31 137t-94 45q-73 0 -110 -50 t-37 -149v-221z" />
<glyph unicode="c" horiz-adv-x="674" d="M61 358v205q0 170 62.5 260t179.5 90q47 0 91.5 -20t92.5 -64v66h111v-297h-127q-8 93 -40 137.5t-91 44.5q-63 0 -91 -51t-28 -168v-207q0 -122 31.5 -179.5t97.5 -57.5q68 0 100.5 49t32.5 151h144v-18q0 -149 -71.5 -232t-199.5 -83q-145 0 -220 95t-75 279z" />
<glyph unicode="d" horiz-adv-x="811" d="M80 324v256q0 161 60.5 247t172.5 86q53 0 103.5 -26.5t95.5 -79.5v463h-94v125h250v-1272h96v-123h-236v117q-45 -72 -95 -102.5t-122 -30.5q-110 0 -170.5 89t-60.5 251zM240 348q0 -122 28.5 -171.5t96.5 -49.5q70 0 108.5 63.5t38.5 180.5v196q0 103 -37 155t-110 52 q-63 0 -94 -45t-31 -137v-244z" />
<glyph unicode="e" horiz-adv-x="692" d="M61 338v188q0 184 74 285.5t207 101.5q142 0 217.5 -96.5t75.5 -279.5v-121h-414v-58q0 -126 32.5 -183.5t102.5 -57.5q57 0 89.5 39t41.5 118h142q-13 -142 -85 -216t-198 -74q-139 0 -212 90.5t-73 263.5zM221 532h260v58q0 89 -33.5 139.5t-91.5 50.5 q-70 0 -102.5 -51.5t-32.5 -165.5v-31z" />
<glyph unicode="f" horiz-adv-x="469" d="M61 0v123h95v649h-95v123h95v258q0 125 51.5 183.5t163.5 58.5h61v-115q-68 0 -93.5 -27.5t-25.5 -103.5v-254h109v-123h-109v-649h95v-123h-347z" />
<glyph unicode="g" horiz-adv-x="811" d="M80 324v256q0 161 60.5 247t172.5 86q57 0 110.5 -31t108.5 -96v109h232v-123h-96v-723q0 -247 -73 -352t-241 -105q-130 0 -199 63t-69 181v14h137q4 -66 34.5 -95t96.5 -29q77 0 117.5 52.5t40.5 151.5v162q-39 -57 -86.5 -82.5t-114.5 -25.5q-110 0 -170.5 89 t-60.5 251zM240 348q0 -122 28.5 -171.5t96.5 -49.5q70 0 108.5 63.5t38.5 180.5v174q0 113 -37.5 171t-109.5 58q-63 0 -94 -45t-31 -137v-244z" />
<glyph unicode="h" horiz-adv-x="887" d="M47 0v123h94v1147h-94v125h252v-594q43 54 100.5 83t124.5 29q111 0 161 -59.5t50 -191.5v-539h94v-123h-346v123h95v504q0 81 -23 117t-74 36t-96 -23.5t-86 -72.5v-561h94v-123h-346z" />
<glyph unicode="i" horiz-adv-x="455" d="M61 0v123h95v649h-95v123h252v-772h95v-123h-347zM94 1067v174h219v-174h-219z" />
<glyph unicode="j" horiz-adv-x="426" d="M14 -281q75 10 101 43.5t26 161.5v848h-94v123h252v-991q0 -170 -64 -239t-221 -72v126zM80 1067v174h219v-174h-219z" />
<glyph unicode="k" horiz-adv-x="868" d="M47 0v123h94v1147h-94v125h252v-910l297 297h-143v113h403v-123h-92l-297 -291l305 -358h96v-123h-389v123h107l-287 352v-352h94v-123h-346z" />
<glyph unicode="l" horiz-adv-x="440" d="M47 0v123h94v1147h-94v125h252v-1272h94v-123h-346z" />
<glyph unicode="m" horiz-adv-x="1294" d="M61 0v123h95v649h-95v123h238v-111q51 65 110 97t128 32q65 0 110.5 -30t61.5 -84q52 58 106.5 86t116.5 28q110 0 160.5 -59.5t50.5 -191.5v-539h94v-123h-346v123h94v504q0 82 -21 117.5t-69 35.5q-47 0 -89 -24t-79 -72v-561h96v-123h-346v123h94v504q0 82 -21 117.5 t-69 35.5q-47 0 -88.5 -24t-79.5 -72v-561h95v-123h-347z" />
<glyph unicode="n" horiz-adv-x="901" d="M61 0v123h95v649h-95v123h238v-111q51 65 111 97t129 32q110 0 160.5 -59.5t50.5 -191.5v-539h94v-123h-346v123h94v504q0 81 -23 117t-73 36q-52 0 -97 -23.5t-86 -72.5v-561h95v-123h-347z" />
<glyph unicode="o" horiz-adv-x="711" d="M61 338v221q0 173 76 263.5t219 90.5t218 -90.5t75 -263.5v-221q0 -173 -75 -263.5t-218 -90.5t-219 90.5t-76 263.5zM221 358q0 -126 32.5 -183.5t102.5 -57.5q71 0 103.5 57.5t32.5 183.5v181q0 126 -32.5 183.5t-103.5 57.5q-70 0 -102.5 -57.5t-32.5 -183.5v-181z " />
<glyph unicode="p" horiz-adv-x="811" d="M47 -256h94v1028h-94v123h238v-111q54 67 110 98t121 31q103 0 158 -61.5t55 -177.5v-436q0 -121 -59 -187.5t-164 -66.5q-56 0 -109.5 27t-97.5 79v-346h94v-123h-346v123zM299 367q0 -123 38.5 -182.5t117.5 -59.5q60 0 88 42.5t28 133.5v307q0 83 -31.5 122.5 t-99.5 39.5q-67 0 -104 -52t-37 -149v-202z" />
<glyph unicode="q" horiz-adv-x="811" d="M80 315v256q0 161 61.5 251.5t169.5 90.5q71 0 121.5 -31t95.5 -104v117h236v-123h-96v-1028h96v-123h-346v123h94v346q-45 -53 -95.5 -79.5t-103.5 -26.5q-113 0 -173 85t-60 246zM240 342q0 -122 28.5 -171.5t96.5 -49.5q70 0 108.5 63t38.5 181v196q0 103 -37 155 t-110 52q-63 0 -94 -45t-31 -137v-244z" />
<glyph unicode="r" horiz-adv-x="639" d="M47 0v123h109v649h-95v123h246v-184q45 100 110 151t148 51h58v-165h-13q-151 0 -224 -80t-73 -246v-299h133v-123h-399z" />
<glyph unicode="s" horiz-adv-x="653" d="M63 0v319h125q14 -94 57.5 -147t106.5 -53q45 0 72 26t27 70q0 31 -16 56t-70 69l-181 145q-50 40 -78 95t-28 114q0 96 58.5 157.5t148.5 61.5q45 0 86 -19.5t84 -62.5v64h112v-270h-110q-25 78 -62 115.5t-88 37.5q-36 0 -60 -23t-24 -59q0 -25 16.5 -48.5t59.5 -57.5 l166 -133q68 -55 100.5 -113t32.5 -123q0 -106 -61.5 -171.5t-157.5 -65.5q-53 0 -98 21.5t-88 68.5v-74h-130z" />
<glyph unicode="t" horiz-adv-x="455" d="M47 772v123h94v324h158v-324h109v-123h-109v-561q0 -67 14 -80.5t66 -13.5h27l-1 -123q-28 -5 -56 -7.5t-54 -2.5q-87 0 -120.5 41.5t-33.5 158.5v588h-94z" />
<glyph unicode="u" horiz-adv-x="887" d="M57 772v123h250v-627q0 -84 24 -118.5t81 -34.5q46 0 91 24.5t85 71.5v561h-94v123h249v-772h97v-123h-238v111q-50 -64 -109.5 -95.5t-130.5 -31.5q-111 0 -160.5 58.5t-49.5 190.5v539h-95z" />
<glyph unicode="v" horiz-adv-x="801" d="M0 772v123h330v-123h-90l157 -526l174 526h-90v123h320v-123h-90l-277 -788h-92l-258 788h-84z" />
<glyph unicode="w" horiz-adv-x="1147" d="M0 772v123h319v-123h-81l143 -534l141 534h-82v123h277v-123h-86l147 -534l148 534h-90v123h311v-123h-82l-236 -788h-104l-158 561l-149 -561h-105l-233 788h-80z" />
<glyph unicode="x" horiz-adv-x="711" d="M0 0v123h51l217 328l-198 321h-70v123h309v-123h-65l121 -197l131 197h-62v123h268v-123h-61l-203 -305l215 -344h54v-123h-310v123h82l-137 221l-145 -221h79v-123h-276z" />
<glyph unicode="y" horiz-adv-x="801" d="M0 772v123h330v-123h-90l157 -526l174 526h-90v123h320v-123h-90l-359 -1028h103v-123h-346v123h102l108 301l-235 727h-84z" />
<glyph unicode="z" horiz-adv-x="758" d="M41 0v119l469 659h-324v-157h-127v274h631v-117l-469 -659h340v188h129v-307h-649z" />
<glyph unicode="{" horiz-adv-x="1024" d="M172 467v127q8 0 23 -1t22 -1q134 0 189 61.5t55 214.5v244q0 153 22.5 215.5t77.5 97.5q42 28 102 40t160 12h35v-127q-8 0 -23 1t-22 1q-121 0 -164 -47t-43 -197v-242q0 -166 -43.5 -235.5t-154.5 -100.5q111 -30 154.5 -99.5t43.5 -235.5v-242q0 -149 43.5 -195.5 t169.5 -46.5h39v-125h-35q-99 0 -159.5 12t-102.5 40q-55 36 -77.5 100t-22.5 213v244q0 152 -55 213t-189 61q-7 0 -22 -1t-23 -1z" />
<glyph unicode="|" horiz-adv-x="1024" d="M449 -483v2048h126v-2048h-126z" />
<glyph unicode="}" horiz-adv-x="1024" d="M166 -289q8 0 23 -1t22 -1q120 0 163.5 47.5t43.5 198.5v240q0 166 43.5 235.5t154.5 99.5q-111 31 -154.5 100.5t-43.5 235.5v242q0 149 -44 196.5t-169 47.5h-39v125h35q100 0 161 -12.5t103 -39.5q54 -35 76 -98t22 -215v-244q0 -152 55.5 -214t190.5 -62q7 0 22 1 t23 1v-127q-8 0 -23 1t-22 1q-135 0 -190.5 -62t-55.5 -214v-242q0 -153 -22 -216.5t-76 -99.5q-39 -26 -97.5 -37.5t-160.5 -11.5h-41v125z" />
<glyph unicode="~" horiz-adv-x="1706" d="M178 461v133q105 73 202 109t185 36q56 0 116.5 -12.5t174.5 -52.5q14 -5 44 -16q158 -58 245 -58q84 0 174.5 37t210.5 121v-131q-101 -72 -197.5 -108t-189.5 -36q-43 0 -90.5 9t-100.5 26q-30 10 -87 31q-202 72 -302 72q-83 0 -173.5 -37.5t-211.5 -122.5z" />
<glyph unicode="&#xa0;" />
<glyph unicode="&#xa1;" horiz-adv-x="563" d="M180 1321q0 40 30.5 70t70.5 30q42 0 73 -29.5t31 -70.5q0 -43 -30.5 -73.5t-73.5 -30.5q-41 0 -71 31t-30 73zM184 0q15 238 23.5 489t11.5 522h125q3 -271 12 -522.5t23 -488.5h-195z" />
<glyph unicode="&#xa2;" d="M109 455q0 245 55.5 345.5t185.5 100.5q54 0 94.5 -19t65.5 -57l88 248h66l-70 -188h49v-307h-115q-1 25 -5 48.5t-9 42.5l-201 -538q11 -17 31 -25t51 -8q67 0 98 47t31 150v10h151q-3 -168 -73 -252t-207 -84q-34 0 -67.5 8t-65.5 23l-86 -236h-65l102 273 q-56 47 -80 139t-24 279zM258 373q0 -82 3.5 -114t10.5 -54l199 528q-18 16 -39 24.5t-45 8.5q-75 0 -102 -63t-27 -330z" />
<glyph unicode="&#xa3;" d="M74 -25v160q72 42 108.5 120t36.5 191q0 40 -3.5 85.5t-10.5 94.5l-131 1v118h112q-26 116 -38.5 198.5t-12.5 137.5q0 148 81 229t228 81q143 0 217 -85t74 -249v-49h-147v79q0 87 -36 127.5t-114 40.5q-69 0 -106 -46.5t-37 -135.5q0 -53 11.5 -133.5t35.5 -194.5h238 v-118h-219q5 -70 7.5 -111t2.5 -70q0 -80 -18 -151t-54 -131q28 -28 65 -43t80 -15q94 0 131 51.5t37 182.5v12h137q2 -12 2.5 -25t0.5 -38q0 -168 -69 -244t-222 -76q-73 0 -132.5 22.5t-101.5 65.5q-32 -28 -70 -48t-83 -34z" />
<glyph unicode="&#xa4;" d="M0 539l16 94h95v137h-111l16 96h95v109q0 206 81 313t236 107q67 0 109 -23.5t71 -79.5v76h125v-405h-137v32q0 130 -41.5 193t-126.5 63q-76 0 -111.5 -54.5t-35.5 -170.5v-160h327l-16 -96h-311v-137h286l-16 -94h-270v-199q0 -116 35.5 -170.5t111.5 -54.5 q78 0 118 56.5t40 168.5v100h147v-51q0 -209 -76 -313.5t-229 -104.5q-156 0 -236.5 106.5t-80.5 311.5v150h-111z" />
<glyph unicode="&#xa5;" horiz-adv-x="891" d="M0 1237v129h377v-129h-123l186 -555l226 555h-123v129h348v-129h-90l-137 -322h180v-96h-223l-58 -137h281v-94h-322l-12 -29v-432h137v-127h-430v127h137v432l-10 29h-297v94h256l-51 137h-205v96h168l-119 322h-96z" />
<glyph unicode="&#xa6;" horiz-adv-x="1024" d="M449 -350v758h126v-758h-126zM449 674v758h126v-758h-126z" />
<glyph unicode="&#xa7;" horiz-adv-x="891" d="M72 711q0 96 64.5 154.5t174.5 62.5q-47 60 -70.5 117.5t-23.5 115.5q0 116 77.5 175t229.5 59h183v-314h-105v209h-80q-87 0 -130.5 -29.5t-43.5 -89.5q0 -43 36 -103.5t114 -147.5l217 -246q64 -72 91.5 -129t27.5 -119q0 -100 -62.5 -158t-175.5 -63q59 -70 87 -133.5 t28 -126.5q0 -106 -71.5 -166t-199.5 -60h-243v314h104v-209h90q95 0 143 28.5t48 84.5q0 42 -24.5 89t-84.5 113l-283 320q-58 66 -88 129.5t-30 122.5zM201 723q0 -30 14.5 -65t38.5 -62l201 -227q32 -38 62.5 -54t68.5 -16q55 0 89 32t34 85q0 31 -14.5 60t-59.5 79 l-197 223q-26 29 -53.5 43.5t-58.5 14.5q-55 0 -90 -32t-35 -81z" />
<glyph unicode="&#xa8;" horiz-adv-x="1024" d="M256 1081v211h182v-211h-182zM586 1081v211h182v-211h-182z" />
<glyph unicode="&#xa9;" horiz-adv-x="1706" d="M119 725q0 145 56.5 279.5t162.5 242.5q102 104 234 158.5t280 54.5q151 0 285 -55t239 -160q102 -102 156.5 -236t54.5 -284q0 -151 -54 -283t-157 -233q-109 -106 -244.5 -162.5t-279.5 -56.5q-146 0 -278 55.5t-238 161.5q-106 105 -161.5 238.5t-55.5 279.5zM207 725 q0 -127 49 -244t141 -211q93 -92 209.5 -141t245.5 -49t248.5 50t214.5 142q91 90 138.5 205.5t47.5 247.5q0 130 -49 249t-139 210q-92 92 -210 140t-251 48q-132 0 -247.5 -47.5t-205.5 -138.5q-93 -95 -142.5 -214t-49.5 -247zM465 721q0 208 107.5 332.5t287.5 124.5 q137 0 230 -74.5t104 -192.5h-129q-15 77 -70.5 120.5t-138.5 43.5q-117 0 -182.5 -92.5t-65.5 -259.5q0 -160 66.5 -252t181.5 -92q87 0 145.5 48.5t73.5 133.5h129q-11 -127 -109 -207t-245 -80q-176 0 -280.5 121t-104.5 326z" />
<glyph unicode="&#xaa;" horiz-adv-x="612" d="M53 1047v114q0 117 51 180.5t144 63.5q48 0 84.5 -21.5t64.5 -66.5v76h168v-86h-69v-457h69v-84h-174v78q-38 -48 -75.5 -69t-84.5 -21q-90 0 -134 71.5t-44 221.5zM172 1004q0 -83 21 -118.5t69 -35.5q53 0 84 45t31 123v137q0 76 -27.5 115t-81.5 39q-51 0 -73.5 -35.5 t-22.5 -116.5v-153z" />
<glyph unicode="&#xab;" horiz-adv-x="877" d="M61 457l246 317h162l-252 -317l252 -318h-162zM408 457l245 317h162l-252 -317l252 -318h-162z" />
<glyph unicode="&#xac;" horiz-adv-x="1706" d="M254 741v117h1198v-502h-115v385h-1083z" />
<glyph unicode="&#xad;" horiz-adv-x="592" d="M61 412v129h469v-129h-469z" />
<glyph unicode="&#xae;" horiz-adv-x="1706" d="M119 725q0 147 57 282t164 242q101 103 232 157t280 54q150 0 284 -55.5t240 -161.5q102 -102 156.5 -235.5t54.5 -282.5q0 -151 -54.5 -283t-158.5 -233q-109 -106 -243.5 -162.5t-278.5 -56.5q-145 0 -278.5 56t-239.5 163q-105 104 -160 237t-55 279zM207 725 q0 -127 49 -244t141 -211q91 -92 208 -141t245 -49q131 0 249.5 48.5t213.5 141.5q91 90 139.5 206t48.5 245q0 133 -48 251.5t-138 209.5q-94 93 -211.5 141.5t-251.5 48.5q-132 0 -247 -47t-204 -137q-94 -95 -144 -214t-50 -249zM561 317v840h311q178 0 264.5 -57 t86.5 -174q0 -89 -53 -148.5t-144 -75.5l188 -385h-157l-176 365h-179v-365h-141zM702 774h148q123 0 175 33t52 108q0 79 -54.5 114.5t-176.5 35.5h-144v-291z" />
<glyph unicode="&#xaf;" horiz-adv-x="1024" d="M270 1116v141h486v-141h-486z" />
<glyph unicode="&#xb0;" horiz-adv-x="674" d="M55 1171q0 119 82.5 201t200.5 82q117 0 200 -83t83 -200q0 -116 -83.5 -199t-201.5 -83t-199.5 82t-81.5 200zM135 1171q0 -84 59.5 -143t143.5 -59t142.5 59t58.5 143t-58.5 142.5t-142.5 58.5t-143.5 -58.5t-59.5 -142.5z" />
<glyph unicode="&#xb1;" horiz-adv-x="1706" d="M254 41v117h1198v-117h-1198zM254 719v117h541v344h118v-344h539v-117h-539v-344h-118v344h-541z" />
<glyph unicode="&#xb2;" horiz-adv-x="526" d="M45 545v84l188 276q61 91 88 157.5t27 123.5q0 58 -24 84t-78 26q-58 0 -80.5 -34t-22.5 -152v-8h-96v24q0 137 48.5 196.5t156.5 59.5q100 0 153.5 -48.5t53.5 -139.5q0 -65 -25.5 -130.5t-89.5 -156.5l-186 -274h211v129h94v-217h-418z" />
<glyph unicode="&#xb3;" horiz-adv-x="526" d="M45 760v26h98v-30q0 -72 27.5 -109t81.5 -37q56 0 80 34.5t24 115.5q0 104 -30 139t-113 35h-14v78q88 1 120.5 32t32.5 123q0 68 -23 99.5t-71 31.5q-56 0 -82 -35t-26 -110v-20h-95v30q0 110 50 163.5t151 53.5q96 0 147.5 -53t51.5 -153q0 -98 -32.5 -146.5 t-96.5 -48.5h-2q68 -6 102.5 -63t34.5 -164q0 -112 -54.5 -168t-162.5 -56q-97 0 -148 59.5t-51 172.5z" />
<glyph unicode="&#xb4;" horiz-adv-x="1024" d="M383 1024l184 348h183l-256 -348h-111z" />
<glyph unicode="&#xb5;" horiz-adv-x="1128" d="M-111 -426l316 1495h157l-126 -595q-8 -33 -11.5 -67t-3.5 -71q0 -109 57 -168t160 -59q125 0 208 101t128 308l121 551h156l-162 -754q-12 -52 -17.5 -84t-5.5 -51q0 -32 18.5 -48.5t53.5 -16.5q9 0 17.5 0.5t17.5 1.5l-27 -125q-21 -5 -44 -7.5t-48 -2.5 q-70 0 -104.5 35t-40.5 112q-41 -70 -117 -108.5t-172 -38.5q-87 0 -152.5 34t-109.5 103l-113 -545h-156z" />
<glyph unicode="&#xb6;" horiz-adv-x="1024" d="M76 1130q0 157 107.5 253t285.5 96h479v-78h-125v-1401h-94v1401h-182v-1401h-96v782q-173 8 -274 102.5t-101 245.5z" />
<glyph unicode="&#xb7;" horiz-adv-x="397" d="M96 682q0 41 30.5 71.5t72.5 30.5q43 0 72.5 -29.5t29.5 -72.5q0 -41 -30.5 -71.5t-71.5 -30.5q-40 0 -71.5 31t-31.5 71z" />
<glyph unicode="&#xb8;" horiz-adv-x="1024" d="M285 -336q83 -18 143.5 -26.5t101.5 -8.5q62 0 91.5 20.5t29.5 61.5q0 52 -32.5 75.5t-104.5 23.5q-20 0 -30.5 -0.5t-20.5 -1.5v192h72v-106h22q111 0 168 -45t57 -132q0 -89 -63 -135.5t-184 -46.5q-44 0 -104.5 10.5t-145.5 32.5v86z" />
<glyph unicode="&#xb9;" horiz-adv-x="526" d="M135 545v73h76v674h-76v72h189v-746h79v-73h-268z" />
<glyph unicode="&#xba;" horiz-adv-x="532" d="M47 1004v153q0 121 56.5 184.5t164.5 63.5q107 0 163 -63.5t56 -184.5v-153q0 -122 -56 -186t-163 -64q-108 0 -164.5 63.5t-56.5 186.5zM166 1018q0 -89 24.5 -129.5t77.5 -40.5q52 0 76.5 40.5t24.5 129.5v125q0 88 -24.5 129t-76.5 41q-53 0 -77.5 -40.5t-24.5 -129.5 v-125z" />
<glyph unicode="&#xbb;" horiz-adv-x="877" d="M61 139l252 318l-252 317h162l246 -317l-246 -318h-162zM408 139l251 318l-251 317h161l246 -317l-246 -318h-161z" />
<glyph unicode="&#xbc;" horiz-adv-x="1346" d="M129 600v70h72v626h-72v70h180v-696h76v-70h-256zM160 -29l930 1424h94l-930 -1424h-94zM874 219v70l234 477h100v-477h68v-70h-68v-149h68v-70h-242v70h74v149h-234zM952 289h156v313z" />
<glyph unicode="&#xbd;" horiz-adv-x="1346" d="M129 600v70h72v626h-72v70h180v-696h76v-70h-256zM160 -29l930 1424h94l-930 -1424h-94zM887 0v80l178 258q57 79 84 142.5t27 117.5t-23 78t-74 24q-55 0 -76.5 -31t-21.5 -141v-8h-92v23q0 126 46 181.5t148 55.5q97 0 148 -44.5t51 -129.5q0 -58 -23 -117.5 t-85 -150.5l-181 -256h201v121h90v-203h-397z" />
<glyph unicode="&#xbe;" horiz-adv-x="1346" d="M43 801v24h94v-28q0 -68 26 -101.5t79 -33.5q52 0 75 32t23 107q0 98 -28.5 131t-106.5 33h-15v71q84 0 115 29.5t31 116.5q0 63 -22 93t-68 30q-53 0 -79 -34t-26 -104v-18h-88v29q0 101 48 151.5t145 50.5q90 0 139 -50.5t49 -143.5q0 -91 -30.5 -135.5t-92.5 -44.5h-2 q65 -7 98 -60t33 -151q0 -106 -51.5 -158.5t-155.5 -52.5q-91 0 -140.5 56t-49.5 161zM160 -29l930 1424h94l-930 -1424h-94zM874 219v70l234 477h100v-477h68v-70h-68v-149h68v-70h-242v70h74v149h-234zM952 289h156v313z" />
<glyph unicode="&#xbf;" horiz-adv-x="786" d="M94 360q0 162 77 253t222 102v295h139v-418h-32q-137 0 -196.5 -55.5t-59.5 -182.5q0 -113 48.5 -175t137.5 -62q67 0 103 38t36 109v29h144v-43q0 -130 -78.5 -204.5t-214.5 -74.5q-156 0 -241 101.5t-85 287.5zM356 1323q0 41 31.5 71.5t73.5 30.5q39 0 69.5 -31 t30.5 -71q0 -42 -29.5 -72t-70.5 -30q-44 0 -74.5 29.5t-30.5 72.5z" />
<glyph unicode="&#xc0;" horiz-adv-x="1100" d="M18 0v127h107l303 1139h-133v129h524v-129h-137l305 -1139h94v-127h-407v127h141l-78 305h-379l-82 -305h140v-127h-398zM315 1882h181l184 -348h-109zM393 563h309l-151 631z" />
<glyph unicode="&#xc1;" horiz-adv-x="1100" d="M18 0v127h107l303 1139h-133v129h524v-129h-137l305 -1139h94v-127h-407v127h141l-78 305h-379l-82 -305h140v-127h-398zM393 563h309l-151 631zM422 1534l184 348h183l-256 -348h-111z" />
<glyph unicode="&#xc2;" horiz-adv-x="1100" d="M18 0v127h107l303 1139h-133v129h524v-129h-137l305 -1139h94v-127h-407v127h141l-78 305h-379l-82 -305h140v-127h-398zM287 1534l176 348h176l176 -348h-108l-156 227l-156 -227h-108zM393 563h309l-151 631z" />
<glyph unicode="&#xc3;" horiz-adv-x="1100" d="M18 0v127h107l303 1139h-133v129h524v-129h-137l305 -1139h94v-127h-407v127h141l-78 305h-379l-82 -305h140v-127h-398zM289 1579q17 99 61 152t111 53q16 0 29 -2t24 -6l88 -29q12 -4 24 -6t23 -2q33 0 53.5 17t32.5 54h78q-16 -101 -60.5 -153.5t-113.5 -52.5 q-13 0 -28 2.5t-31 7.5l-86 26q-10 4 -22.5 6.5t-22.5 2.5q-29 0 -49.5 -17.5t-32.5 -52.5h-78zM393 563h309l-151 631z" />
<glyph unicode="&#xc4;" horiz-adv-x="1100" d="M18 0v127h107l303 1139h-133v129h524v-129h-137l305 -1139h94v-127h-407v127h141l-78 305h-379l-82 -305h140v-127h-398zM295 1591v211h182v-211h-182zM393 563h309l-151 631zM625 1591v211h182v-211h-182z" />
<glyph unicode="&#xc5;" horiz-adv-x="1100" d="M18 0v127h107l303 1139h-133v129h524v-129h-137l305 -1139h94v-127h-407v127h141l-78 305h-379l-82 -305h140v-127h-398zM307 1708q0 104 72 176t176 72t176 -72t72 -176t-72 -176t-176 -72t-176 72t-72 176zM393 563h309l-151 631zM414 1708q0 -60 41 -101.5t102 -41.5 q60 0 100.5 41.5t40.5 101.5t-40.5 100.5t-100.5 40.5t-101.5 -40.5t-41.5 -100.5z" />
<glyph unicode="&#xc6;" horiz-adv-x="1536" d="M-47 0v127h94l465 1139h-135v129h1069v-373h-152v240h-399v-443h305v-145h-305v-541h403v273h158v-406h-872v127h137v395h-354l-162 -395h139v-127h-391zM420 653h301v631h-43z" />
<glyph unicode="&#xc7;" horiz-adv-x="872" d="M66 406v569q0 215 92 330.5t264 115.5q72 0 135.5 -26.5t106.5 -75.5v76h124v-406h-135l-2 33q-14 136 -61 197t-135 61q-109 0 -160 -66.5t-51 -207.5v-619q0 -142 50.5 -207t160.5 -65q103 0 157 70t54 206v49h157v-34q0 -213 -96.5 -324t-282.5 -111 q-185 0 -281.5 111t-96.5 324zM209 -336q83 -18 143.5 -26.5t101.5 -8.5q62 0 91.5 20.5t29.5 61.5q0 52 -32.5 75.5t-104.5 23.5q-20 0 -30.5 -0.5t-20.5 -1.5v192h72v-106h22q111 0 168 -45t57 -132q0 -89 -63 -135.5t-184 -46.5q-44 0 -104.5 10.5t-145.5 32.5v86z" />
<glyph unicode="&#xc8;" horiz-adv-x="1014" d="M51 0v127h139v1139h-139v129h873v-373h-152v240h-407v-443h340v-145h-340v-541h413v273h156v-406h-883zM272 1882h181l184 -348h-109z" />
<glyph unicode="&#xc9;" horiz-adv-x="1014" d="M51 0v127h139v1139h-139v129h873v-373h-152v240h-407v-443h340v-145h-340v-541h413v273h156v-406h-883zM379 1534l184 348h183l-256 -348h-111z" />
<glyph unicode="&#xca;" horiz-adv-x="1014" d="M51 0v127h139v1139h-139v129h873v-373h-152v240h-407v-443h340v-145h-340v-541h413v273h156v-406h-883zM244 1534l176 348h176l176 -348h-108l-156 227l-156 -227h-108z" />
<glyph unicode="&#xcb;" horiz-adv-x="1014" d="M51 0v127h139v1139h-139v129h873v-373h-152v240h-407v-443h340v-145h-340v-541h413v273h156v-406h-883zM252 1591v211h182v-211h-182zM582 1591v211h182v-211h-182z" />
<glyph unicode="&#xcc;" horiz-adv-x="555" d="M43 1882h181l184 -348h-109zM51 0v127h139v1139h-139v129h451v-129h-137v-1139h137v-127h-451z" />
<glyph unicode="&#xcd;" horiz-adv-x="555" d="M51 0v127h139v1139h-139v129h451v-129h-137v-1139h137v-127h-451zM150 1534l184 348h183l-256 -348h-111z" />
<glyph unicode="&#xce;" horiz-adv-x="555" d="M15 1534l176 348h176l176 -348h-108l-156 227l-156 -227h-108zM51 0v127h139v1139h-139v129h451v-129h-137v-1139h137v-127h-451z" />
<glyph unicode="&#xcf;" horiz-adv-x="555" d="M23 1591v211h182v-211h-182zM51 0v127h139v1139h-139v129h451v-129h-137v-1139h137v-127h-451zM353 1591v211h182v-211h-182z" />
<glyph unicode="&#xd0;" horiz-adv-x="1020" d="M0 705v94h190v467h-139v129h357q302 0 423 -116.5t121 -408.5v-323q0 -289 -117 -418t-378 -129h-406v127h139v578h-190zM365 133h47q195 0 278.5 90.5t83.5 300.5v367q0 203 -79 287t-271 84h-59v-463h190v-94h-190v-572z" />
<glyph unicode="&#xd1;" horiz-adv-x="1139" d="M51 0v127h139v1139h-139v129h328l422 -1049v920h-137v129h421v-129h-137v-1280h-151l-461 1138v-997h137v-127h-422zM307 1579q17 99 61 152t111 53q16 0 29 -2t24 -6l88 -29q12 -4 24 -6t23 -2q33 0 53.5 17t32.5 54h78q-16 -101 -60.5 -153.5t-113.5 -52.5 q-13 0 -28 2.5t-31 7.5l-86 26q-10 4 -22.5 6.5t-22.5 2.5q-29 0 -49.5 -17.5t-32.5 -52.5h-78z" />
<glyph unicode="&#xd2;" horiz-adv-x="909" d="M66 389v615q0 205 99 311t290 106t290 -106t99 -311v-615q0 -205 -99 -311.5t-290 -106.5t-290 106.5t-99 311.5zM219 1882h181l184 -348h-109zM244 387q0 -142 50.5 -207t160.5 -65q109 0 160 65.5t51 206.5v619q0 141 -51 207.5t-160 66.5t-160 -66.5t-51 -207.5v-619z " />
<glyph unicode="&#xd3;" horiz-adv-x="909" d="M66 389v615q0 205 99 311t290 106t290 -106t99 -311v-615q0 -205 -99 -311.5t-290 -106.5t-290 106.5t-99 311.5zM244 387q0 -142 50.5 -207t160.5 -65q109 0 160 65.5t51 206.5v619q0 141 -51 207.5t-160 66.5t-160 -66.5t-51 -207.5v-619zM326 1534l184 348h183 l-256 -348h-111z" />
<glyph unicode="&#xd4;" horiz-adv-x="909" d="M66 389v615q0 205 99 311t290 106t290 -106t99 -311v-615q0 -205 -99 -311.5t-290 -106.5t-290 106.5t-99 311.5zM191 1534l176 348h176l176 -348h-108l-156 227l-156 -227h-108zM244 387q0 -142 50.5 -207t160.5 -65q109 0 160 65.5t51 206.5v619q0 141 -51 207.5 t-160 66.5t-160 -66.5t-51 -207.5v-619z" />
<glyph unicode="&#xd5;" horiz-adv-x="909" d="M66 389v615q0 205 99 311t290 106t290 -106t99 -311v-615q0 -205 -99 -311.5t-290 -106.5t-290 106.5t-99 311.5zM193 1579q17 99 61 152t111 53q16 0 29 -2t24 -6l88 -29q12 -4 24 -6t23 -2q33 0 53.5 17t32.5 54h78q-16 -101 -60.5 -153.5t-113.5 -52.5q-13 0 -28 2.5 t-31 7.5l-86 26q-10 4 -22.5 6.5t-22.5 2.5q-29 0 -49.5 -17.5t-32.5 -52.5h-78zM244 387q0 -142 50.5 -207t160.5 -65q109 0 160 65.5t51 206.5v619q0 141 -51 207.5t-160 66.5t-160 -66.5t-51 -207.5v-619z" />
<glyph unicode="&#xd6;" horiz-adv-x="909" d="M66 389v615q0 205 99 311t290 106t290 -106t99 -311v-615q0 -205 -99 -311.5t-290 -106.5t-290 106.5t-99 311.5zM199 1591v211h182v-211h-182zM244 387q0 -142 50.5 -207t160.5 -65q109 0 160 65.5t51 206.5v619q0 141 -51 207.5t-160 66.5t-160 -66.5t-51 -207.5v-619z M529 1591v211h182v-211h-182z" />
<glyph unicode="&#xd7;" horiz-adv-x="1706" d="M301 135l475 475l-475 477l80 82l477 -477l475 477l82 -82l-475 -477l475 -475l-82 -82l-475 475l-477 -475z" />
<glyph unicode="&#xd8;" horiz-adv-x="909" d="M66 389v615q0 205 99 311t290 106q64 0 114.5 -11t92.5 -34l65 189h82l-84 -230q60 -51 89.5 -134t29.5 -197v-615q0 -205 -99 -311.5t-290 -106.5q-56 0 -107.5 11t-101.5 32l-76 -204h-80l92 249q-56 46 -86 131t-30 199zM244 362q0 -28 3 -51.5t9 -46.5l350 965 q-26 25 -65 38t-86 13q-109 0 -160 -66.5t-51 -207.5v-644zM301 168q34 -28 70 -40.5t84 -12.5q109 0 160 65.5t51 206.5v619q0 44 -3 74.5t-10 56.5z" />
<glyph unicode="&#xd9;" horiz-adv-x="1110" d="M51 1266v129h451v-129h-137v-908q0 -126 45.5 -184.5t144.5 -58.5q98 0 143 58t45 185v908h-137v129h451v-129h-137v-914q0 -186 -93.5 -283.5t-271.5 -97.5t-271.5 97.5t-93.5 283.5v914h-139zM319 1882h181l184 -348h-109z" />
<glyph unicode="&#xda;" horiz-adv-x="1110" d="M51 1266v129h451v-129h-137v-908q0 -126 45.5 -184.5t144.5 -58.5q98 0 143 58t45 185v908h-137v129h451v-129h-137v-914q0 -186 -93.5 -283.5t-271.5 -97.5t-271.5 97.5t-93.5 283.5v914h-139zM426 1534l184 348h183l-256 -348h-111z" />
<glyph unicode="&#xdb;" horiz-adv-x="1110" d="M51 1266v129h451v-129h-137v-908q0 -126 45.5 -184.5t144.5 -58.5q98 0 143 58t45 185v908h-137v129h451v-129h-137v-914q0 -186 -93.5 -283.5t-271.5 -97.5t-271.5 97.5t-93.5 283.5v914h-139zM291 1534l176 348h176l176 -348h-108l-156 227l-156 -227h-108z" />
<glyph unicode="&#xdc;" horiz-adv-x="1110" d="M51 1266v129h451v-129h-137v-908q0 -126 45.5 -184.5t144.5 -58.5q98 0 143 58t45 185v908h-137v129h451v-129h-137v-914q0 -186 -93.5 -283.5t-271.5 -97.5t-271.5 97.5t-93.5 283.5v914h-139zM299 1591v211h182v-211h-182zM629 1591v211h182v-211h-182z" />
<glyph unicode="&#xdd;" horiz-adv-x="985" d="M25 1266v129h397v-129h-123l188 -523l224 523h-123v129h375v-129h-93l-303 -711v-428h138v-127h-451v127h137v428l-270 711h-96zM365 1534l184 348h183l-256 -348h-111z" />
<glyph unicode="&#xde;" horiz-adv-x="985" d="M51 0v127h139v1139h-139v129h451v-129h-137v-156h149q218 0 314 -76.5t96 -251.5v-131q0 -178 -81 -258t-263 -80h-215v-186h137v-127h-451zM365 446h135q145 0 198.5 46t53.5 167v129q0 105 -53 147t-189 42h-145v-531z" />
<glyph unicode="&#xdf;" horiz-adv-x="891" d="M47 0v123h94v893q0 188 73 283.5t216 95.5q125 0 194.5 -79t69.5 -220v-88q0 -80 -31.5 -136t-99.5 -98q112 -26 171 -111t59 -219v-86q0 -174 -71 -274t-192 -100q-37 0 -65 6.5t-47 19.5l31 117q3 -1 11 -3q36 -9 52 -9q59 0 89 63.5t30 188.5v71q0 139 -47 204 t-148 65q-14 0 -22 -0.5t-15 -1.5v108q78 6 113 47.5t35 128.5v84q0 96 -28.5 142.5t-88.5 46.5q-65 0 -98 -47.5t-33 -139.5v-1075h-252z" />
<glyph unicode="&#xe0;" horiz-adv-x="815" d="M72 399v166q0 168 67 258t191 90q64 0 112 -30.5t86 -96.5v109h226v-123h-95v-653h95v-119h-234v111q-52 -68 -101.5 -97.5t-111.5 -29.5q-119 0 -177 101.5t-58 313.5zM172 1372h181l184 -348h-109zM229 340q0 -119 27.5 -169t91.5 -50q70 0 112 64.5t42 172.5v197 q0 109 -36.5 164t-107.5 55q-68 0 -98.5 -50t-30.5 -165v-219z" />
<glyph unicode="&#xe1;" horiz-adv-x="815" d="M72 399v166q0 168 67 258t191 90q64 0 112 -30.5t86 -96.5v109h226v-123h-95v-653h95v-119h-234v111q-52 -68 -101.5 -97.5t-111.5 -29.5q-119 0 -177 101.5t-58 313.5zM229 340q0 -119 27.5 -169t91.5 -50q70 0 112 64.5t42 172.5v197q0 109 -36.5 164t-107.5 55 q-68 0 -98.5 -50t-30.5 -165v-219zM279 1024l184 348h183l-256 -348h-111z" />
<glyph unicode="&#xe2;" horiz-adv-x="815" d="M72 399v166q0 168 67 258t191 90q64 0 112 -30.5t86 -96.5v109h226v-123h-95v-653h95v-119h-234v111q-52 -68 -101.5 -97.5t-111.5 -29.5q-119 0 -177 101.5t-58 313.5zM144 1024l176 348h176l176 -348h-108l-156 227l-156 -227h-108zM229 340q0 -119 27.5 -169t91.5 -50 q70 0 112 64.5t42 172.5v197q0 109 -36.5 164t-107.5 55q-68 0 -98.5 -50t-30.5 -165v-219z" />
<glyph unicode="&#xe3;" horiz-adv-x="815" d="M72 399v166q0 168 67 258t191 90q64 0 112 -30.5t86 -96.5v109h226v-123h-95v-653h95v-119h-234v111q-52 -68 -101.5 -97.5t-111.5 -29.5q-119 0 -177 101.5t-58 313.5zM146 1069q17 99 61 152t111 53q16 0 29 -2t24 -6l88 -29q12 -4 24 -6t23 -2q33 0 53.5 17t32.5 54 h78q-16 -101 -60.5 -153.5t-113.5 -52.5q-13 0 -28 2.5t-31 7.5l-86 26q-10 4 -22.5 6.5t-22.5 2.5q-29 0 -49.5 -17.5t-32.5 -52.5h-78zM229 340q0 -119 27.5 -169t91.5 -50q70 0 112 64.5t42 172.5v197q0 109 -36.5 164t-107.5 55q-68 0 -98.5 -50t-30.5 -165v-219z" />
<glyph unicode="&#xe4;" horiz-adv-x="815" d="M72 399v166q0 168 67 258t191 90q64 0 112 -30.5t86 -96.5v109h226v-123h-95v-653h95v-119h-234v111q-52 -68 -101.5 -97.5t-111.5 -29.5q-119 0 -177 101.5t-58 313.5zM152 1081v211h182v-211h-182zM229 340q0 -119 27.5 -169t91.5 -50q70 0 112 64.5t42 172.5v197 q0 109 -36.5 164t-107.5 55q-68 0 -98.5 -50t-30.5 -165v-219zM482 1081v211h182v-211h-182z" />
<glyph unicode="&#xe5;" horiz-adv-x="815" d="M72 399v166q0 168 67 258t191 90q64 0 112 -30.5t86 -96.5v109h226v-123h-95v-649h95v-123h-234v111q-52 -68 -101.5 -97.5t-111.5 -29.5q-119 0 -177 101.5t-58 313.5zM182 1227q0 104 72 176t176 72q105 0 176.5 -72t71.5 -176q0 -105 -71.5 -176.5t-176.5 -71.5 q-104 0 -176 71.5t-72 176.5zM229 340q0 -118 27.5 -166.5t91.5 -48.5q71 0 112.5 62.5t41.5 170.5v197q0 107 -36 161t-108 54q-69 0 -99 -49t-30 -162v-219zM289 1227q0 -61 41 -102.5t102 -41.5q60 0 100.5 42t40.5 102t-40.5 101.5t-100.5 41.5t-101.5 -41.5 t-41.5 -101.5z" />
<glyph unicode="&#xe6;" horiz-adv-x="1124" d="M61 256v57q0 119 75 197t190 78q51 0 94.5 -16t75.5 -46v109q0 68 -36.5 106.5t-101.5 38.5q-50 0 -87.5 -32t-49.5 -86h-112v233h104v-49q35 33 75.5 50t84.5 17q41 0 74 -8t65 -26q16 -9 32 -21.5t35 -33.5q39 46 86.5 67.5t108.5 21.5q142 0 217.5 -96.5t75.5 -279.5 v-121h-416v-58q0 -126 32.5 -183.5t102.5 -57.5q58 0 91 39t43 118h141q-11 -140 -83 -215t-196 -75q-78 0 -137 28t-96 84q-41 -56 -96.5 -84t-124.5 -28q-113 0 -190 79t-77 193zM221 281q0 -75 37.5 -119.5t99.5 -44.5q60 0 99 46t39 118v30q0 72 -39 118t-99 46 q-59 0 -98 -46t-39 -118v-30zM651 532h262v58q0 88 -34 139t-93 51q-70 0 -102.5 -51.5t-32.5 -165.5v-31z" />
<glyph unicode="&#xe7;" horiz-adv-x="674" d="M61 358v205q0 170 62.5 260t179.5 90q47 0 91.5 -20t92.5 -64v66h111v-297h-127q-8 93 -40 137.5t-91 44.5q-63 0 -91 -51t-28 -168v-207q0 -122 31.5 -179.5t97.5 -57.5q68 0 100.5 49t32.5 151h144v-18q0 -149 -71.5 -232t-199.5 -83q-145 0 -220 95t-75 279zM111 -336 q83 -18 143.5 -26.5t101.5 -8.5q62 0 91.5 20.5t29.5 61.5q0 52 -32.5 75.5t-104.5 23.5q-20 0 -30.5 -0.5t-20.5 -1.5v192h72v-106h22q111 0 168 -45t57 -132q0 -89 -63 -135.5t-184 -46.5q-44 0 -104.5 10.5t-145.5 32.5v86z" />
<glyph unicode="&#xe8;" horiz-adv-x="692" d="M61 338v188q0 184 74 285.5t207 101.5q142 0 217.5 -96.5t75.5 -279.5v-121h-414v-58q0 -126 32.5 -183.5t102.5 -57.5q57 0 89.5 39t41.5 118h142q-13 -142 -85 -216t-198 -74q-139 0 -212 90.5t-73 263.5zM110 1372h181l184 -348h-109zM221 532h260v58 q0 89 -33.5 139.5t-91.5 50.5q-70 0 -102.5 -51.5t-32.5 -165.5v-31z" />
<glyph unicode="&#xe9;" horiz-adv-x="692" d="M61 338v188q0 184 74 285.5t207 101.5q142 0 217.5 -96.5t75.5 -279.5v-121h-414v-58q0 -126 32.5 -183.5t102.5 -57.5q57 0 89.5 39t41.5 118h142q-13 -142 -85 -216t-198 -74q-139 0 -212 90.5t-73 263.5zM217 1024l184 348h183l-256 -348h-111zM221 532h260v58 q0 89 -33.5 139.5t-91.5 50.5q-70 0 -102.5 -51.5t-32.5 -165.5v-31z" />
<glyph unicode="&#xea;" horiz-adv-x="692" d="M61 338v188q0 184 74 285.5t207 101.5q142 0 217.5 -96.5t75.5 -279.5v-121h-414v-58q0 -126 32.5 -183.5t102.5 -57.5q57 0 89.5 39t41.5 118h142q-13 -142 -85 -216t-198 -74q-139 0 -212 90.5t-73 263.5zM82 1024l176 348h176l176 -348h-108l-156 227l-156 -227h-108z M221 532h260v58q0 89 -33.5 139.5t-91.5 50.5q-70 0 -102.5 -51.5t-32.5 -165.5v-31z" />
<glyph unicode="&#xeb;" horiz-adv-x="692" d="M61 338v188q0 184 74 285.5t207 101.5q142 0 217.5 -96.5t75.5 -279.5v-121h-414v-58q0 -126 32.5 -183.5t102.5 -57.5q57 0 89.5 39t41.5 118h142q-13 -142 -85 -216t-198 -74q-139 0 -212 90.5t-73 263.5zM90 1081v211h182v-211h-182zM221 532h260v58q0 89 -33.5 139.5 t-91.5 50.5q-70 0 -102.5 -51.5t-32.5 -165.5v-31zM420 1081v211h182v-211h-182z" />
<glyph unicode="&#xec;" horiz-adv-x="455" d="M-9 1372h181l184 -348h-109zM61 0v123h95v649h-95v123h252v-772h95v-123h-347z" />
<glyph unicode="&#xed;" horiz-adv-x="455" d="M61 0v123h95v649h-95v123h252v-772h95v-123h-347zM98 1024l184 348h183l-256 -348h-111z" />
<glyph unicode="&#xee;" horiz-adv-x="455" d="M-37 1024l176 348h176l176 -348h-108l-156 227l-156 -227h-108zM61 0v123h95v649h-95v123h252v-772h95v-123h-347z" />
<glyph unicode="&#xef;" horiz-adv-x="455" d="M-29 1081v211h182v-211h-182zM61 0v123h95v649h-95v123h252v-772h95v-123h-347zM301 1081v211h182v-211h-182z" />
<glyph unicode="&#xf0;" horiz-adv-x="711" d="M61 338v221q0 173 76 263.5t219 90.5q31 0 56.5 -6t48.5 -20l-119 241l-203 -61l-24 61l198 60l-92 207h156l80 -164l168 53l20 -63l-160 -52l78 -168q46 -96 66 -194.5t20 -247.5v-221q0 -173 -75 -263.5t-218 -90.5t-219 90.5t-76 263.5zM221 358q0 -126 32.5 -183.5 t102.5 -57.5q71 0 103.5 57.5t32.5 183.5v181q0 126 -32.5 183.5t-103.5 57.5q-70 0 -102.5 -57.5t-32.5 -183.5v-181z" />
<glyph unicode="&#xf1;" horiz-adv-x="901" d="M61 0v123h95v649h-95v123h238v-111q51 65 111 97t129 32q110 0 160.5 -59.5t50.5 -191.5v-539h94v-123h-346v123h94v504q0 81 -23 117t-73 36q-52 0 -97 -23.5t-86 -72.5v-561h95v-123h-347zM189 1069q17 99 61 152t111 53q16 0 29 -2t24 -6l88 -29q12 -4 24 -6t23 -2 q33 0 53.5 17t32.5 54h78q-16 -101 -60.5 -153.5t-113.5 -52.5q-13 0 -28 2.5t-31 7.5l-86 26q-10 4 -22.5 6.5t-22.5 2.5q-29 0 -49.5 -17.5t-32.5 -52.5h-78z" />
<glyph unicode="&#xf2;" horiz-adv-x="711" d="M61 338v221q0 173 76 263.5t219 90.5t218 -90.5t75 -263.5v-221q0 -173 -75 -263.5t-218 -90.5t-219 90.5t-76 263.5zM120 1372h181l184 -348h-109zM221 358q0 -126 32.5 -183.5t102.5 -57.5q71 0 103.5 57.5t32.5 183.5v181q0 126 -32.5 183.5t-103.5 57.5 q-70 0 -102.5 -57.5t-32.5 -183.5v-181z" />
<glyph unicode="&#xf3;" horiz-adv-x="711" d="M61 338v221q0 173 76 263.5t219 90.5t218 -90.5t75 -263.5v-221q0 -173 -75 -263.5t-218 -90.5t-219 90.5t-76 263.5zM221 358q0 -126 32.5 -183.5t102.5 -57.5q71 0 103.5 57.5t32.5 183.5v181q0 126 -32.5 183.5t-103.5 57.5q-70 0 -102.5 -57.5t-32.5 -183.5v-181z M227 1024l184 348h183l-256 -348h-111z" />
<glyph unicode="&#xf4;" horiz-adv-x="711" d="M61 338v221q0 173 76 263.5t219 90.5t218 -90.5t75 -263.5v-221q0 -173 -75 -263.5t-218 -90.5t-219 90.5t-76 263.5zM92 1024l176 348h176l176 -348h-108l-156 227l-156 -227h-108zM221 358q0 -126 32.5 -183.5t102.5 -57.5q71 0 103.5 57.5t32.5 183.5v181 q0 126 -32.5 183.5t-103.5 57.5q-70 0 -102.5 -57.5t-32.5 -183.5v-181z" />
<glyph unicode="&#xf5;" horiz-adv-x="711" d="M61 338v221q0 173 76 263.5t219 90.5t218 -90.5t75 -263.5v-221q0 -173 -75 -263.5t-218 -90.5t-219 90.5t-76 263.5zM94 1069q17 99 61 152t111 53q16 0 29 -2t24 -6l88 -29q12 -4 24 -6t23 -2q33 0 53.5 17t32.5 54h78q-16 -101 -60.5 -153.5t-113.5 -52.5 q-13 0 -28 2.5t-31 7.5l-86 26q-10 4 -22.5 6.5t-22.5 2.5q-29 0 -49.5 -17.5t-32.5 -52.5h-78zM221 358q0 -126 32.5 -183.5t102.5 -57.5q71 0 103.5 57.5t32.5 183.5v181q0 126 -32.5 183.5t-103.5 57.5q-70 0 -102.5 -57.5t-32.5 -183.5v-181z" />
<glyph unicode="&#xf6;" horiz-adv-x="711" d="M61 338v221q0 173 76 263.5t219 90.5t218 -90.5t75 -263.5v-221q0 -173 -75 -263.5t-218 -90.5t-219 90.5t-76 263.5zM100 1081v211h182v-211h-182zM221 358q0 -126 32.5 -183.5t102.5 -57.5q71 0 103.5 57.5t32.5 183.5v181q0 126 -32.5 183.5t-103.5 57.5 q-70 0 -102.5 -57.5t-32.5 -183.5v-181zM430 1081v211h182v-211h-182z" />
<glyph unicode="&#xf7;" horiz-adv-x="1706" d="M254 553v117h1198v-117h-1198zM739 250q0 48 34 81.5t81 33.5t81 -34t34 -81t-33.5 -81t-81.5 -34t-81.5 33.5t-33.5 81.5zM739 971q0 47 34 80.5t81 33.5q48 0 81.5 -33.5t33.5 -80.5q0 -48 -33.5 -81.5t-81.5 -33.5q-49 0 -82 33.5t-33 81.5z" />
<glyph unicode="&#xf8;" horiz-adv-x="711" d="M39 -166l106 229q-40 36 -62 107t-22 168v221q0 173 76 263.5t219 90.5q48 0 86 -9t72 -30l82 183h70l-103 -223q43 -45 64.5 -113.5t21.5 -161.5v-221q0 -173 -75 -263.5t-218 -90.5q-44 0 -84 9t-77 27l-86 -186h-70zM215 324q0 -35 2 -52.5t6 -33.5l228 503 q-14 22 -39 33.5t-58 11.5q-72 0 -105.5 -59t-33.5 -188v-215zM256 158q16 -24 40.5 -35.5t57.5 -11.5q73 0 108.5 60t35.5 185v183q0 37 -3.5 70t-9.5 61z" />
<glyph unicode="&#xf9;" horiz-adv-x="887" d="M57 772v123h250v-627q0 -84 24 -118.5t81 -34.5q46 0 91 24.5t85 71.5v561h-94v123h249v-772h97v-123h-238v111q-50 -64 -109.5 -95.5t-130.5 -31.5q-111 0 -160.5 58.5t-49.5 190.5v539h-95zM208 1372h181l184 -348h-109z" />
<glyph unicode="&#xfa;" horiz-adv-x="887" d="M57 772v123h250v-627q0 -84 24 -118.5t81 -34.5q46 0 91 24.5t85 71.5v561h-94v123h249v-772h97v-123h-238v111q-50 -64 -109.5 -95.5t-130.5 -31.5q-111 0 -160.5 58.5t-49.5 190.5v539h-95zM315 1024l184 348h183l-256 -348h-111z" />
<glyph unicode="&#xfb;" horiz-adv-x="887" d="M57 772v123h250v-627q0 -84 24 -118.5t81 -34.5q46 0 91 24.5t85 71.5v561h-94v123h249v-772h97v-123h-238v111q-50 -64 -109.5 -95.5t-130.5 -31.5q-111 0 -160.5 58.5t-49.5 190.5v539h-95zM180 1024l176 348h176l176 -348h-108l-156 227l-156 -227h-108z" />
<glyph unicode="&#xfc;" horiz-adv-x="887" d="M57 772v123h250v-627q0 -84 24 -118.5t81 -34.5q46 0 91 24.5t85 71.5v561h-94v123h249v-772h97v-123h-238v111q-50 -64 -109.5 -95.5t-130.5 -31.5q-111 0 -160.5 58.5t-49.5 190.5v539h-95zM188 1081v211h182v-211h-182zM518 1081v211h182v-211h-182z" />
<glyph unicode="&#xfd;" horiz-adv-x="801" d="M0 772v123h330v-123h-90l157 -526l174 526h-90v123h320v-123h-90l-359 -1028h103v-123h-346v123h102l108 301l-235 727h-84zM272 1024l184 348h183l-256 -348h-111z" />
<glyph unicode="&#xfe;" horiz-adv-x="811" d="M47 -256h94v1526h-94v125h252v-598q43 58 97 87t120 29q103 0 158 -61.5t55 -177.5v-436q0 -121 -59 -187.5t-164 -66.5q-56 0 -109.5 27t-97.5 79v-346h94v-123h-346v123zM299 367q0 -123 38.5 -182.5t117.5 -59.5q60 0 88 42.5t28 133.5v307q0 83 -31.5 122.5 t-99.5 39.5q-67 0 -104 -52t-37 -149v-202z" />
<glyph unicode="&#xff;" horiz-adv-x="801" d="M0 772v123h330v-123h-90l157 -526l174 526h-90v123h320v-123h-90l-359 -1028h103v-123h-346v123h102l108 301l-235 727h-84zM145 1081v211h182v-211h-182zM475 1081v211h182v-211h-182z" />
<glyph unicode="&#x152;" horiz-adv-x="1481" d="M66 547v299q0 288 118 418.5t379 130.5h828v-373h-152v240h-397v-443h360v-145h-360v-541h403v273h156v-406h-838q-262 0 -379.5 129.5t-117.5 417.5zM244 524q0 -199 67 -291t211 -92q84 0 114 33t30 160v727q0 126 -30 158t-114 32q-144 0 -211 -91.5t-67 -289.5v-346z " />
<glyph unicode="&#x153;" horiz-adv-x="1118" d="M61 338v221q0 173 76 263.5t219 90.5q71 0 124.5 -28.5t92.5 -87.5q34 57 87 86.5t120 29.5q133 0 208 -99t75 -277v-121h-416v-58q0 -126 32.5 -183.5t102.5 -57.5q57 0 89.5 39t41.5 118h144q-13 -142 -85 -216t-198 -74q-69 0 -121.5 27t-83.5 79q-37 -54 -89.5 -80 t-123.5 -26q-143 0 -219 90.5t-76 263.5zM221 358q0 -126 32.5 -183.5t102.5 -57.5q71 0 103.5 57.5t32.5 183.5v181q0 126 -32.5 183.5t-103.5 57.5q-70 0 -102.5 -57.5t-32.5 -183.5v-181zM647 532h260v58q0 89 -33.5 139.5t-91.5 50.5q-70 0 -102.5 -51.5t-32.5 -165.5 v-31z" />
<glyph unicode="&#x178;" horiz-adv-x="985" d="M25 1266v129h397v-129h-123l188 -523l224 523h-123v129h375v-129h-93l-303 -711v-428h138v-127h-451v127h137v428l-270 711h-96zM238 1591v211h182v-211h-182zM568 1591v211h182v-211h-182z" />
<glyph unicode="&#x2c6;" horiz-adv-x="1024" d="M248 1024l176 348h176l176 -348h-108l-156 227l-156 -227h-108z" />
<glyph unicode="&#x2dc;" horiz-adv-x="1024" d="M250 1069q17 99 61 152t111 53q16 0 29 -2t24 -6l88 -29q12 -4 24 -6t23 -2q33 0 53.5 17t32.5 54h78q-16 -101 -60.5 -153.5t-113.5 -52.5q-13 0 -28 2.5t-31 7.5l-86 26q-10 4 -22.5 6.5t-22.5 2.5q-29 0 -49.5 -17.5t-32.5 -52.5h-78z" />
<glyph unicode="&#x2000;" horiz-adv-x="978" />
<glyph unicode="&#x2001;" horiz-adv-x="1956" />
<glyph unicode="&#x2002;" horiz-adv-x="978" />
<glyph unicode="&#x2003;" horiz-adv-x="1956" />
<glyph unicode="&#x2004;" horiz-adv-x="652" />
<glyph unicode="&#x2005;" horiz-adv-x="489" />
<glyph unicode="&#x2006;" horiz-adv-x="326" />
<glyph unicode="&#x2007;" horiz-adv-x="326" />
<glyph unicode="&#x2008;" horiz-adv-x="244" />
<glyph unicode="&#x2009;" horiz-adv-x="391" />
<glyph unicode="&#x200a;" horiz-adv-x="108" />
<glyph unicode="&#x2010;" horiz-adv-x="592" d="M61 412v129h469v-129h-469z" />
<glyph unicode="&#x2011;" horiz-adv-x="592" d="M61 412v129h469v-129h-469z" />
<glyph unicode="&#x2012;" horiz-adv-x="592" d="M61 412v129h469v-129h-469z" />
<glyph unicode="&#x2013;" horiz-adv-x="1024" d="M0 426v100h1024v-100h-1024z" />
<glyph unicode="&#x2014;" horiz-adv-x="2048" d="M0 426v100h2048v-100h-2048z" />
<glyph unicode="&#x2018;" horiz-adv-x="397" d="M70 989l114 406h133l-116 -406h-131z" />
<glyph unicode="&#x2019;" horiz-adv-x="397" d="M70 989l114 406h133l-116 -406h-131z" />
<glyph unicode="&#x201a;" horiz-adv-x="397" d="M37 -217l117 405h131l-117 -405h-131z" />
<glyph unicode="&#x201c;" horiz-adv-x="702" d="M70 989l114 406h133l-116 -406h-131zM373 989l116 406h132l-115 -406h-133z" />
<glyph unicode="&#x201d;" horiz-adv-x="702" d="M70 989l114 406h133l-116 -406h-131zM373 989l116 406h132l-115 -406h-133z" />
<glyph unicode="&#x201e;" horiz-adv-x="702" d="M39 -217l117 405h131l-115 -405h-133zM344 -217l117 405h131l-117 -405h-131z" />
<glyph unicode="&#x2022;" horiz-adv-x="1208" d="M307 762q0 123 87 209t210 86q122 0 208.5 -86.5t86.5 -208.5t-87.5 -209.5t-209.5 -87.5q-123 0 -209 87t-86 210z" />
<glyph unicode="&#x2026;" horiz-adv-x="2048" d="M239 86q0 41 30.5 71.5t72.5 30.5q43 0 72.5 -29.5t29.5 -72.5q0 -41 -30.5 -71.5t-71.5 -30.5q-40 0 -71.5 31t-31.5 71zM921 86q0 41 30.5 71.5t72.5 30.5q43 0 72.5 -29.5t29.5 -72.5q0 -41 -30.5 -71.5t-71.5 -30.5q-40 0 -71.5 31t-31.5 71zM1605 86q0 41 30.5 71.5 t72.5 30.5q43 0 72.5 -29.5t29.5 -72.5q0 -41 -30.5 -71.5t-71.5 -30.5q-40 0 -71.5 31t-31.5 71z" />
<glyph unicode="&#x202f;" horiz-adv-x="391" />
<glyph unicode="&#x2039;" horiz-adv-x="530" d="M61 457l246 317h162l-252 -317l252 -318h-162z" />
<glyph unicode="&#x203a;" horiz-adv-x="530" d="M61 139l252 318l-252 317h162l246 -317l-246 -318h-162z" />
<glyph unicode="&#x205f;" horiz-adv-x="489" />
<glyph unicode="&#x20ac;" d="M0 539l16 94h95v137h-111l16 96h95v109q0 206 81 313t236 107q67 0 109 -23.5t71 -79.5v76h125v-405h-137v32q0 130 -41.5 193t-126.5 63q-76 0 -111.5 -54.5t-35.5 -170.5v-160h327l-16 -96h-311v-137h286l-16 -94h-270v-199q0 -116 35.5 -170.5t111.5 -54.5 q78 0 118 56.5t40 168.5v100h147v-51q0 -209 -76 -313.5t-229 -104.5q-156 0 -236.5 106.5t-80.5 311.5v150h-111z" />
<glyph unicode="&#x2122;" horiz-adv-x="1706" d="M254 1389v67h440v-67h-172v-467h-94v467h-174zM819 922v534h129l160 -405l149 405h132v-534h-82v458l-172 -458h-54l-180 458v-458h-82z" />
<glyph unicode="&#xe000;" horiz-adv-x="895" d="M0 0v895h895v-895h-895z" />
</font>
</defs>
</svg>
