<?xml version="1.0" standalone="no"?>
<!DOCTYPE svg PUBLIC "-//W3C//DTD SVG 1.1//EN" "http://www.w3.org/Graphics/SVG/1.1/DTD/svg11.dtd" >
<svg xmlns="http://www.w3.org/2000/svg">
<metadata></metadata>
<defs>
<font id="geoslab703_md_btbold" horiz-adv-x="1096" >
<font-face units-per-em="2048" ascent="1556" descent="-492" />
<missing-glyph horiz-adv-x="547" />
<glyph horiz-adv-x="2048" />
<glyph horiz-adv-x="2048" />
<glyph unicode="&#xd;" horiz-adv-x="547" />
<glyph unicode=" "  horiz-adv-x="547" />
<glyph unicode="&#x09;" horiz-adv-x="547" />
<glyph unicode="&#xa0;" horiz-adv-x="547" />
<glyph unicode="!" horiz-adv-x="707" d="M170 158q0 78 52 129t130 51q77 0 131 -52.5t54 -127.5q0 -76 -54 -129.5t-131 -53.5q-79 0 -130.5 52t-51.5 131zM197 1475h313l-55 -1031h-203z" />
<glyph unicode="&#x22;" horiz-adv-x="643" d="M86 879v557h164v-557h-164zM395 879v557h164v-557h-164z" />
<glyph unicode="#" horiz-adv-x="1575" d="M70 428l61 172h297l90 252h-315l61 172h316l155 436h191l-154 -436h250l156 436h190l-154 -436h291l-59 -172h-293l-90 -252h309l-61 -172h-307l-156 -434h-191l156 434h-252l-158 -434h-190l156 434h-299zM618 598h256l91 254h-256z" />
<glyph unicode="$" d="M109 2v449h155q22 -97 78 -164.5t141 -98.5v426q-179 49 -270.5 145.5t-91.5 237.5q0 163 98.5 265t263.5 110v117h127v-121q64 -6 115 -38.5t82 -86.5l-6 119h149v-391h-143q-25 89 -77.5 148t-119.5 73v-371q220 -59 325 -161.5t105 -258.5q0 -174 -121.5 -293.5 t-308.5 -125.5v-168h-127v176q-75 12 -134.5 54t-94.5 108l8 -150h-153zM344 1032q0 -61 37 -107.5t102 -66.5v338q-65 -15 -102 -58.5t-37 -105.5zM610 178q93 12 147 66t54 133q0 72 -46.5 120t-154.5 85v-404z" />
<glyph unicode="%" horiz-adv-x="1817" d="M70 1075q0 152 104.5 256.5t255.5 104.5q152 0 257.5 -104.5t105.5 -256.5q0 -151 -106.5 -256.5t-256.5 -105.5q-149 0 -254.5 105.5t-105.5 256.5zM266 1075q0 -69 48.5 -117.5t117.5 -48.5q70 0 117 48t47 118q0 71 -47.5 118.5t-116.5 47.5t-117.5 -48t-48.5 -118z M410 -29l852 1493h143l-852 -1493h-143zM1022 362q0 152 105.5 256.5t256.5 104.5q153 0 258 -104t105 -257q0 -151 -106.5 -256.5t-256.5 -105.5q-149 0 -255.5 106t-106.5 256zM1221 362q0 -69 47.5 -117t115.5 -48q70 0 117 47.5t47 117.5q0 71 -47.5 118.5t-116.5 47.5 q-68 0 -115.5 -48t-47.5 -118z" />
<glyph unicode="&#x26;" horiz-adv-x="1518" d="M123 367q0 113 59 208t211 218q-95 106 -138.5 192.5t-43.5 167.5q0 142 105 244t253 102q141 0 237.5 -95t96.5 -239q0 -101 -49.5 -190t-159.5 -182l283 -314q52 76 79.5 151t35.5 160l-113 1v180h428v-180l-129 -1q-5 -122 -45.5 -234t-122.5 -226l119 -125h178v-205 h-311l-140 160q-103 -97 -211 -143t-233 -46q-169 0 -279 112.5t-110 283.5zM354 373q0 -82 52.5 -131t140.5 -49q73 0 144 30t130 86l-297 326q-87 -71 -128.5 -135t-41.5 -127zM418 1174q0 -54 34 -115t107 -137q77 67 112.5 126t35.5 119q0 70 -41 115t-103 45 q-63 0 -104 -43t-41 -110z" />
<glyph unicode="'" horiz-adv-x="334" d="M86 879v557h164v-557h-164z" />
<glyph unicode="(" horiz-adv-x="649" d="M109 571q0 244 88 481t260 451l172 -125q-139 -177 -214 -385.5t-75 -421.5q0 -215 76 -424t217 -378l-176 -127q-171 211 -259.5 448.5t-88.5 480.5z" />
<glyph unicode=")" horiz-adv-x="649" d="M16 -231q141 169 217 378t76 424q0 213 -74.5 421.5t-214.5 385.5l173 125q171 -214 259.5 -451t88.5 -481q0 -243 -89 -480.5t-259 -448.5z" />
<glyph unicode="*" horiz-adv-x="1139" d="M141 1149l74 192l285 -149l-29 311h207l-35 -311l281 149l73 -192l-321 -92l237 -209l-153 -135l-193 256l-188 -256l-154 135l238 209z" />
<glyph unicode="+" horiz-adv-x="1706" d="M254 528v166h514v527h170v-527h514v-166h-514v-528h-170v528h-514z" />
<glyph unicode="," horiz-adv-x="547" d="M35 -217l135 457h260l-149 -457h-246z" />
<glyph unicode="-" horiz-adv-x="631" d="M61 371v211h508v-211h-508z" />
<glyph unicode="." horiz-adv-x="547" d="M90 158q0 77 52.5 128.5t131.5 51.5q77 0 130 -52.5t53 -127.5q0 -76 -53 -129.5t-130 -53.5q-79 0 -131.5 52t-52.5 131z" />
<glyph unicode="/" horiz-adv-x="682" d="M4 -190l504 1693h137l-504 -1693h-137z" />
<glyph unicode="0" d="M94 537v364q0 154 15.5 226t50.5 130q60 100 159.5 153.5t227.5 53.5q129 0 228.5 -52.5t160.5 -154.5q34 -55 48.5 -123t14.5 -192v-41v-412q0 -102 -10 -159t-33 -107q-53 -119 -161 -185.5t-248 -66.5q-127 0 -227 54.5t-160 154.5q-35 59 -50.5 130t-15.5 227z M342 557q0 -206 47 -284t158 -78t159 80.5t48 281.5v324q0 204 -48 283t-159 79q-110 0 -157.5 -80t-47.5 -284v-322z" />
<glyph unicode="1" d="M264 0v199h168v1038h-156v199h404v-1237h166v-199h-582z" />
<glyph unicode="2" d="M86 0v199l467 516q110 122 157.5 206t47.5 154q0 83 -52.5 128.5t-148.5 45.5q-120 0 -171.5 -77t-51.5 -263v-41l-236 1q-1 13 -1.5 27t-0.5 42q0 266 115 396t350 130q205 0 326 -106.5t121 -286.5q0 -110 -57 -214t-228 -277l-361 -365h424v205h236v-420h-936z" />
<glyph unicode="3" d="M80 453q0 9 1 26.5t1 26.5h243q4 -161 58.5 -236t167.5 -75q92 0 153.5 64.5t61.5 160.5q0 108 -70 169.5t-192 61.5h-23v178q7 0 17.5 -1t15.5 -1q112 0 170.5 58t58.5 168q0 90 -50.5 142t-137.5 52q-117 0 -166 -75.5t-49 -260.5v-14h-242q0 9 -1 32.5t-1 39.5 q0 236 118.5 366.5t332.5 130.5q204 0 323 -110.5t119 -298.5q0 -119 -52.5 -199.5t-150.5 -109.5q105 -25 165.5 -112t60.5 -214q0 -208 -123.5 -328.5t-337.5 -120.5q-232 0 -351.5 122t-119.5 358z" />
<glyph unicode="4" d="M86 342v186l553 908h238v-914h172v-180h-172v-160h172v-182h-607v182h203v160h-559zM301 522h344v357q0 54 6.5 127.5t18.5 156.5z" />
<glyph unicode="5" d="M84 414q0 6 1 19.5t1 21.5h238v-29q0 -113 51.5 -172t148.5 -59q110 0 173 73.5t63 202.5q0 135 -77 197.5t-245 62.5q-43 0 -107 -4.5t-144 -13.5l-1 725h705v-217h-461v-270q16 0 33 0.5t47 0.5q233 0 366.5 -130.5t133.5 -358.5q0 -222 -129.5 -357t-343.5 -135 q-209 0 -331 119.5t-122 323.5z" />
<glyph unicode="6" d="M104 520v432q0 251 117.5 381.5t341.5 130.5q202 0 314 -108.5t112 -304.5v-21h-241q-7 111 -53 164t-136 53q-114 0 -161.5 -73.5t-47.5 -278.5v-107q70 53 137 79t134 26q175 0 288 -126.5t113 -328.5q0 -209 -124.5 -338t-330.5 -129q-233 0 -348 136t-115 413z M354 432q0 -104 59 -170.5t148 -66.5q90 0 150.5 67.5t60.5 169.5q0 103 -60.5 170.5t-150.5 67.5q-88 0 -147.5 -67.5t-59.5 -170.5z" />
<glyph unicode="7" d="M109 967v469h911v-209l-528 -1227h-265l539 1221h-422v-254h-235z" />
<glyph unicode="8" d="M88 381q0 118 55.5 210t163.5 152q-97 50 -149 133t-52 189q0 176 124 288.5t317 112.5t317.5 -113t124.5 -288q0 -105 -52.5 -188.5t-150.5 -133.5q109 -61 165.5 -153t56.5 -209q0 -176 -130 -293t-331 -117t-330 116.5t-129 293.5zM330 408q0 -94 63.5 -158t155.5 -64 q91 0 154 64t63 158q0 95 -62.5 159t-154.5 64q-93 0 -156 -64t-63 -159zM348 1049q0 -87 57.5 -146t141.5 -59t143.5 59.5t59.5 145.5t-59.5 146t-143.5 60q-85 0 -142 -59.5t-57 -146.5z" />
<glyph unicode="9" d="M74 995q0 211 125 340t329 129q234 0 348.5 -136t114.5 -413v-434q0 -249 -117 -379.5t-342 -130.5q-202 0 -314 108t-112 304v20h242q6 -110 52 -162.5t137 -52.5q114 0 161 73.5t47 279.5v104q-68 -52 -135 -77t-135 -25q-176 0 -288.5 125.5t-112.5 326.5zM322 1004 q0 -103 60 -170.5t150 -67.5t150.5 67.5t60.5 170.5t-60.5 170t-150.5 67q-89 0 -149.5 -67.5t-60.5 -169.5z" />
<glyph unicode=":" horiz-adv-x="674" d="M154 158q0 78 51.5 129t130.5 51q76 0 129 -52.5t53 -127.5q0 -76 -53 -129.5t-129 -53.5q-79 0 -130.5 52t-51.5 131zM154 795q0 78 52 130t130 52q76 0 129 -53t53 -129t-53 -128.5t-129 -52.5q-80 0 -131 51t-51 130z" />
<glyph unicode=";" horiz-adv-x="674" d="M70 -217l137 457h258l-150 -457h-245zM162 795q0 78 52.5 130t131.5 52q76 0 129 -53t53 -129t-52.5 -128.5t-129.5 -52.5q-80 0 -132 51t-52 130z" />
<glyph unicode="&#x3c;" horiz-adv-x="1706" d="M264 530v160l1178 486v-185l-934 -381l934 -381v-182z" />
<glyph unicode="=" horiz-adv-x="1706" d="M254 322v165h1198v-165h-1198zM254 733v168h1198v-168h-1198z" />
<glyph unicode="&#x3e;" horiz-adv-x="1706" d="M264 47v182l934 381l-934 381v185l1178 -486v-160z" />
<glyph unicode="?" horiz-adv-x="1219" d="M172 1073q18 209 132 319.5t310 110.5q198 0 316.5 -110t118.5 -293q0 -155 -88 -259.5t-248 -138.5v-258h-238v439q15 0 29.5 -1t15.5 -1q139 0 214 59.5t75 169.5q0 84 -54.5 134t-146.5 50t-147 -59t-60 -162h-229zM403 158q0 78 52 129t131 51q76 0 129 -52.5 t53 -127.5q0 -76 -53 -129.5t-129 -53.5q-79 0 -131 52t-52 131z" />
<glyph unicode="@" horiz-adv-x="2048" d="M98 522q0 165 52 313.5t153 272.5q147 179 353.5 272t459.5 93q166 0 315 -45.5t255 -127.5q132 -102 198 -235.5t66 -300.5q0 -162 -65 -302t-185 -237q-69 -55 -150 -83.5t-168 -28.5q-106 0 -157 40.5t-51 125.5v4q-55 -87 -128 -127.5t-176 -40.5q-152 0 -232.5 86.5 t-80.5 249.5q0 233 138 395t333 162q89 0 149 -34.5t99 -107.5l55 107h154l-148 -586q-1 -5 -2 -12q-6 -28 -6 -37q0 -38 26.5 -61t69.5 -23q51 0 107.5 30.5t105.5 84.5q72 76 110 177.5t38 215.5q0 253 -187 411t-489 158q-138 0 -256 -31t-215 -94q-181 -113 -279 -291 t-98 -395q0 -312 209.5 -499t558.5 -187q166 0 323.5 49t291.5 142l67 -99q-149 -113 -318.5 -170t-355.5 -57q-192 0 -351 48t-281 142q-155 118 -231.5 275.5t-76.5 357.5zM741 444q0 -98 45.5 -151t128.5 -53q90 0 163.5 66.5t99.5 172.5l55 228q-14 84 -61.5 130 t-122.5 46q-127 0 -217.5 -128.5t-90.5 -310.5z" />
<glyph unicode="A" horiz-adv-x="1403" d="M-6 0v205h117l372 1065h-159v205h755v-205h-170l365 -1065h135v-205h-559v205h158l-90 268h-463l-90 -268h157v-205h-528zM518 678h334l-166 500z" />
<glyph unicode="B" horiz-adv-x="1255" d="M51 0v205h158v1065h-158v205h533q239 0 366 -96.5t127 -278.5q0 -118 -62 -192.5t-188 -108.5q155 -37 235.5 -131t80.5 -238q0 -216 -139.5 -323t-419.5 -107h-533zM473 205h111q158 0 226.5 57t68.5 187q0 127 -70 185t-225 58h-111v-487zM473 883h111q106 0 166.5 51 t60.5 141q0 94 -58.5 144.5t-168.5 50.5h-111v-387z" />
<glyph unicode="C" horiz-adv-x="1554" d="M66 737q0 337 212 551.5t539 214.5q131 0 234 -39t166 -112l-5 123h220v-492h-220q-44 132 -142 203t-236 71q-222 0 -358 -143t-136 -377q0 -233 136 -375.5t358 -142.5q138 0 232.5 62t162.5 198h256q-60 -233 -236 -370.5t-415 -137.5q-333 0 -550.5 218t-217.5 548z " />
<glyph unicode="D" horiz-adv-x="1534" d="M51 0v205h158v1065h-158v205h592q405 0 616 -189t211 -549q0 -359 -211 -548t-616 -189h-592zM473 205h178q269 0 408 135.5t139 396.5q0 262 -139 397.5t-408 135.5h-178v-1065z" />
<glyph unicode="E" horiz-adv-x="1280" d="M51 0v205h158v1065h-158v205h1123v-402h-230v195h-471v-369h395v-221h-395v-473h463v231h238v-436h-1123z" />
<glyph unicode="F" horiz-adv-x="1223" d="M51 0v205h158v1065h-158v205h1123v-402h-230v195h-471v-369h420v-221h-420v-473h193v-205h-615z" />
<glyph unicode="G" horiz-adv-x="1706" d="M61 737q0 335 216.5 550.5t556.5 215.5q133 0 241 -36.5t176 -104.5v113h217v-492h-217q-59 135 -163 202.5t-250 67.5q-226 0 -361 -141t-135 -375q0 -224 140 -370t352 -146q149 0 256.5 62.5t187.5 195.5h-338v213h705v-213h-154v-479h-193l-8 168 q-89 -98 -206.5 -147.5t-262.5 -49.5q-323 0 -541.5 219t-218.5 547z" />
<glyph unicode="H" horiz-adv-x="1534" d="M51 0v205h158v1065h-158v205h580v-205h-158v-371h588v371h-158v205h578v-205h-156v-1065h156v-205h-578v205h158v457h-588v-457h158v-205h-580z" />
<glyph unicode="I" horiz-adv-x="682" d="M51 0v205h158v1065h-158v205h580v-205h-158v-1065h158v-205h-580z" />
<glyph unicode="J" horiz-adv-x="682" d="M35 20q17 -1 32.5 -1.5t28.5 -0.5q62 0 91.5 33t29.5 101v1118h-178v205h600v-205h-156v-1133q0 -198 -89.5 -287.5t-289.5 -89.5q-27 0 -41.5 0.5t-27.5 2.5v257z" />
<glyph unicode="K" horiz-adv-x="1327" d="M51 0v205h158v1065h-158v205h580v-205h-158v-482l406 482h-154v205h557v-205h-104l-424 -490l422 -575h137v-205h-588v205h147l-399 545v-545h158v-205h-580z" />
<glyph unicode="L" horiz-adv-x="1118" d="M51 0v205h158v1065h-158v205h602v-207h-180v-1063h369v231h239v-436h-1030z" />
<glyph unicode="M" horiz-adv-x="1812" d="M51 0v205h158v1065h-158v205h574l290 -846l293 846h553v-205h-157v-1065h157v-205h-594v205h176v997l-364 -1005h-141l-369 1005v-997h176v-205h-594z" />
<glyph unicode="N" horiz-adv-x="1489" d="M51 0v205h158v1065h-158v205h451l526 -963v758h-158v205h566v-205h-158v-1299h-223l-594 1116v-882h155v-205h-565z" />
<glyph unicode="O" horiz-adv-x="1669" d="M61 737q0 326 220.5 546t552.5 220q153 0 282.5 -46.5t233.5 -139.5q126 -113 192 -260.5t66 -319.5q0 -149 -52.5 -283.5t-150.5 -240.5q-111 -120 -255 -181t-316 -61q-330 0 -551.5 221t-221.5 545zM342 737q0 -223 140.5 -369.5t351.5 -146.5t352 146t141 370 t-141.5 370t-351.5 146q-209 0 -350.5 -146.5t-141.5 -369.5z" />
<glyph unicode="P" horiz-adv-x="1200" d="M51 0v205h158v1065h-158v205h504q309 0 467 -119.5t158 -351.5t-158.5 -350.5t-466.5 -118.5h-82v-330h191v-205h-613zM473 737h82q182 0 270 66t88 203q0 135 -87.5 200.5t-270.5 65.5h-82v-535z" />
<glyph unicode="Q" horiz-adv-x="1669" d="M61 737q0 326 220.5 546t552.5 220q152 0 281 -46.5t235 -139.5q126 -111 192 -259.5t66 -320.5q0 -222 -111 -405.5t-299 -274.5l41 -75h203v-238h-338l-117 240q-46 -7 -84.5 -10t-68.5 -3q-151 0 -280.5 47t-234.5 140q-124 109 -191 259t-67 320zM342 737 q0 -226 139 -371t353 -145h32l-69 144l190 104l96 -188q116 60 180 180t64 276q0 227 -140 371.5t-353 144.5t-352.5 -145t-139.5 -371z" />
<glyph unicode="R" horiz-adv-x="1327" d="M51 0v205h158v1065h-158v205h608q278 0 405.5 -91.5t127.5 -287.5q0 -122 -62.5 -202.5t-189.5 -123.5q111 -15 160 -75.5t49 -180.5v-309h141v-205h-407v371q0 191 -58.5 248t-214.5 57h-137v-471h178v-205h-600zM473 881h193q138 0 200 46.5t62 147.5q0 102 -62 148.5 t-200 46.5h-193v-389z" />
<glyph unicode="S" horiz-adv-x="1282" d="M131 1081q0 180 127 301t317 121q102 0 189 -32t149 -93v97h205v-439h-205q-35 131 -109 195.5t-188 64.5q-96 0 -156.5 -52.5t-60.5 -133.5q0 -69 38.5 -109.5t135.5 -68.5l179 -51q247 -72 347.5 -175.5t100.5 -277.5q0 -207 -125.5 -332t-333.5 -125q-118 0 -216 39 t-171 115v-125h-213v500h213q42 -159 130.5 -241.5t220.5 -82.5q101 0 170 64t69 157q0 84 -59.5 137t-200.5 93l-168 47q-202 56 -293.5 153.5t-91.5 253.5z" />
<glyph unicode="T" horiz-adv-x="1223" d="M51 1057v418h1120v-418h-235v213h-193v-1065h191v-205h-645v205h190v1065h-192v-213h-236z" />
<glyph unicode="U" horiz-adv-x="1522" d="M78 1270v205h577v-205h-155v-733q0 -175 60.5 -245.5t201.5 -70.5q140 0 200 71.5t60 244.5v733h-156v205h578v-205h-156v-703q0 -160 -18 -242.5t-60 -148.5q-64 -102 -176 -153.5t-272 -51.5q-146 0 -253.5 43t-176.5 129q-53 66 -76 159.5t-23 264.5v703h-155z" />
<glyph unicode="V" horiz-adv-x="1352" d="M23 1270v205h516v-205h-133l274 -811l272 811h-139v205h500v-205h-101l-448 -1299h-178l-459 1299h-104z" />
<glyph unicode="W" horiz-adv-x="1937" d="M-8 1270v205h510v-205h-140l246 -797l234 797h-133v205h520v-205h-135l249 -803l254 803h-163v205h512v-205h-105l-422 -1299h-172l-280 920l-277 -920h-174l-422 1299h-102z" />
<glyph unicode="X" horiz-adv-x="1352" d="M39 0v205h129l371 524l-361 541h-127v205h541v-205h-113l209 -334l213 334h-121v205h512v-205h-104l-369 -514l373 -551h129v-205h-551v205h119l-215 346l-221 -346h122v-205h-536z" />
<glyph unicode="Y" horiz-adv-x="1343" d="M27 1270v205h538v-205h-116l225 -367l221 367h-133v205h536v-205h-118l-383 -590v-475h180v-205h-627v205h180v475l-387 590h-116z" />
<glyph unicode="Z" horiz-adv-x="1329" d="M121 0v188l756 1080h-486v-201h-241v403h1048v-180l-760 -1089h518v245h242v-446h-1077z" />
<glyph unicode="[" horiz-adv-x="743" d="M197 -174v1649h479v-181h-242v-1288h242v-180h-479z" />
<glyph unicode="\" horiz-adv-x="682" d="M20 1503h140l502 -1693h-138z" />
<glyph unicode="]" horiz-adv-x="743" d="M70 6h241v1288h-241v181h479v-1649h-479v180z" />
<glyph unicode="^" horiz-adv-x="2048" d="M418 899l497 561h218l495 -561h-207l-397 397l-399 -397h-207z" />
<glyph unicode="_" horiz-adv-x="1024" d="M0 -311h1024v-172h-1024v172z" />
<glyph unicode="`" horiz-adv-x="1024" d="M233 1436h222l204 -349h-131z" />
<glyph unicode="a" horiz-adv-x="1270" d="M53 477q0 212 138 356t346 144q85 0 159 -31.5t140 -95.5v102h370v-198h-133v-555h133v-199h-370v102q-60 -61 -136.5 -93t-162.5 -32q-212 0 -348 141t-136 359zM295 475q0 -126 76.5 -205.5t197.5 -79.5q118 0 196.5 80.5t78.5 204.5t-79 205.5t-196 81.5 q-121 0 -197.5 -80t-76.5 -207z" />
<glyph unicode="b" horiz-adv-x="1262" d="M55 0v199h133v1077h-133v199h369v-625q65 64 140 95.5t161 31.5q207 0 345 -144t138 -356q0 -218 -135.5 -359t-347.5 -141q-87 0 -164.5 32.5t-136.5 92.5v-102h-369zM418 475q0 -123 78.5 -204t195.5 -81q118 0 196.5 80.5t78.5 204.5t-79 205.5t-196 81.5 t-195.5 -81.5t-78.5 -205.5z" />
<glyph unicode="c" horiz-adv-x="1057" d="M51 477q0 217 135.5 359.5t337.5 142.5q76 0 140 -23t114 -69v65h187v-319h-152q-63 79 -124.5 111t-147.5 32q-115 0 -183.5 -81t-68.5 -218q0 -126 76 -210.5t190 -84.5q89 0 157 35.5t144 122.5l148 -125q-91 -118 -204 -179t-243 -61q-218 0 -362 143t-144 359z" />
<glyph unicode="d" horiz-adv-x="1255" d="M53 477q0 212 138 356t346 144q85 0 159 -31.5t140 -95.5v426h-131v199h368v-1276h133v-199h-370v102q-60 -61 -136.5 -93t-162.5 -32q-212 0 -348 141t-136 359zM295 475q0 -123 78.5 -204t195.5 -81q119 0 197 80.5t78 204.5t-79 205.5t-196 81.5q-116 0 -195 -81.5 t-79 -205.5z" />
<glyph unicode="e" horiz-adv-x="1141" d="M53 475q0 219 147.5 359.5t377.5 140.5q229 0 368 -148.5t139 -396.5v-24h-788q12 -110 87 -169t202 -59q79 0 142 27t97 76h234q-42 -146 -167 -226t-312 -80q-237 0 -382 138t-145 362zM297 573h553q-29 99 -98.5 150t-173.5 51q-108 0 -182.5 -53t-98.5 -148z" />
<glyph unicode="f" horiz-adv-x="668" d="M45 0v199h158v555h-158v198h158v129q0 251 69 322.5t279 71.5q22 0 36 -0.5t29 -2.5v-188h-53q-73 0 -99 -25.5t-26 -123.5v-66v-117h178v-198h-178v-555h166v-199h-559z" />
<glyph unicode="g" horiz-adv-x="1262" d="M53 477q0 212 138 356t346 144q85 0 159 -31.5t140 -95.5v102h370v-198h-133v-588v-78q0 -138 -13 -205t-44 -114q-61 -95 -169.5 -145t-254.5 -50q-131 0 -239.5 26t-198.5 78v230q107 -65 199 -97t169 -32q161 0 237.5 56.5t76.5 176.5v90q-60 -61 -136.5 -93 t-162.5 -32q-212 0 -348 141t-136 359zM295 475q0 -123 78.5 -204t195.5 -81q119 0 197 80.5t78 204.5t-79 205.5t-196 81.5q-116 0 -195 -81.5t-79 -205.5z" />
<glyph unicode="h" horiz-adv-x="1217" d="M47 0v199h133v1077h-133v199h371v-652q84 80 165.5 117t172.5 37q150 0 222.5 -81t72.5 -251v-446h133v-199h-504v199h133v393q0 77 -39 119.5t-110 42.5q-63 0 -124 -35.5t-122 -108.5v-411h133v-199h-504z" />
<glyph unicode="i" horiz-adv-x="598" d="M45 0v199h145v555h-143v198h381v-753h137v-199h-520zM113 1108v252h315v-252h-315z" />
<glyph unicode="j" horiz-adv-x="569" d="M35 -213q92 13 123.5 50.5t31.5 176.5v37v703h-143v198h381v-886q0 -329 -83.5 -407.5t-309.5 -82.5v211zM113 1108v252h315v-252h-315z" />
<glyph unicode="k" horiz-adv-x="1139" d="M41 0v199h145v1077h-143v199h379v-959l303 238h-113v198h488v-198h-113l-315 -258l325 -297h103v-199h-475v199h84l-287 266v-266h115v-199h-496z" />
<glyph unicode="l" horiz-adv-x="592" d="M41 0v199h145v1077h-143v199h379v-1276h139v-199h-520z" />
<glyph unicode="m" horiz-adv-x="1792" d="M57 0v199h133v555h-133v198h371v-129q66 74 145.5 114t157.5 40q98 0 165.5 -43t102.5 -127q68 87 147 128.5t179 41.5q156 0 229.5 -80.5t73.5 -251.5v-446h133v-199h-501v199h137v338q0 124 -36.5 168.5t-125.5 44.5q-60 0 -112 -26t-99 -79v-446h135v-199h-500v199 h136v338q0 127 -36.5 170t-127.5 43q-62 0 -114.5 -35t-94.5 -105v-411h137v-199h-502z" />
<glyph unicode="n" horiz-adv-x="1225" d="M57 0v199h133v555h-133v198h371v-129q85 81 165.5 117.5t170.5 36.5q151 0 224 -81.5t73 -250.5v-446h133v-199h-504v199h133v393q0 76 -38.5 117t-110.5 41q-65 0 -125.5 -34.5t-120.5 -105.5v-411h133v-199h-504z" />
<glyph unicode="o" horiz-adv-x="1157" d="M51 477q0 212 151 356t376 144t375.5 -144t150.5 -356q0 -211 -150 -354t-376 -143q-225 0 -376 143t-151 354zM297 477q0 -125 81 -209t200 -84t199.5 83.5t80.5 209.5q0 129 -80 212t-200 83t-200.5 -83.5t-80.5 -211.5z" />
<glyph unicode="p" horiz-adv-x="1264" d="M57 -227h133v981h-133v198h371v-102q66 64 139.5 95.5t159.5 31.5q207 0 345 -144t138 -356q0 -219 -135 -359.5t-348 -140.5q-81 0 -157 29t-142 84v-317h141v-199h-512v199zM420 475q0 -123 78.5 -204t195.5 -81q118 0 196.5 80.5t78.5 204.5t-79 205.5t-196 81.5 t-195.5 -81.5t-78.5 -205.5z" />
<glyph unicode="q" horiz-adv-x="1264" d="M53 477q0 212 138 356t346 144q85 0 159 -31.5t140 -95.5v102h370v-198h-133v-981h133v-199h-512v199h142v317q-67 -55 -142.5 -84t-156.5 -29q-213 0 -348.5 140.5t-135.5 359.5zM295 475q0 -124 78 -204.5t196 -80.5t196.5 81t78.5 204q0 124 -79 205.5t-196 81.5 q-116 0 -195 -81.5t-79 -205.5z" />
<glyph unicode="r" horiz-adv-x="825" d="M57 0v199h133v555h-133v198h371v-137l12 4q20 72 65 111t109 39q73 0 120.5 -48t47.5 -122t-47 -121t-123 -47q-57 0 -100.5 33.5t-69.5 97.5l-14 -6v-557h133v-199h-504z" />
<glyph unicode="s" horiz-adv-x="1053" d="M100 684q0 133 94.5 213t251.5 80q86 0 153.5 -23t113.5 -67l2 65h178v-301h-193q-25 76 -83 116t-142 40q-68 0 -108.5 -28t-40.5 -72q0 -83 184 -117q9 -1 14 -2l109 -19q170 -31 251 -103t81 -192q0 -130 -100.5 -214.5t-262.5 -84.5q-82 0 -158.5 23.5t-152.5 71.5 l-2 -70h-178v332h186q36 -88 110 -134t181 -46q64 0 103.5 31t39.5 81q0 42 -30 64.5t-136 42.5l-157 26q-157 28 -232.5 98.5t-75.5 188.5z" />
<glyph unicode="t" horiz-adv-x="692" d="M25 754v198h165v336h236v-336h174v-198h-174v-389q0 -126 20 -153.5t121 -27.5q6 0 23 3q7 1 10 1v-188q-37 -4 -76.5 -6t-83.5 -2q-152 0 -201 45t-49 209v508h-165z" />
<glyph unicode="u" horiz-adv-x="1219" d="M33 754v198h370v-592q0 -76 39 -116.5t111 -40.5q64 0 125 34t121 105v412h-133v198h370v-753h131v-199h-368v129q-85 -80 -166.5 -117t-171.5 -37q-151 0 -223 81.5t-72 250.5v447h-133z" />
<glyph unicode="v" horiz-adv-x="1104" d="M10 754v198h459v-198h-92l180 -455l193 455h-97v198h441v-198h-113l-334 -754h-192l-334 754h-111z" />
<glyph unicode="w" horiz-adv-x="1626" d="M8 754v198h445v-198h-105l174 -447l189 447h-113v198h446v-198h-114l182 -447l184 447h-125v198h449v-198h-107l-319 -754h-164l-217 522l-223 -522h-158l-311 754h-113z" />
<glyph unicode="x" horiz-adv-x="1139" d="M47 0v199h139l254 272l-280 283h-113v198h379v-164l147 -176l136 176v164h376v-198h-137l-241 -271l286 -284h92v-199h-374v188l-142 154l-127 -154v-188h-395z" />
<glyph unicode="y" horiz-adv-x="1161" d="M14 754v198h486v-198h-127l205 -490l213 490h-123v198h477v-198h-117l-467 -981h150v-199h-535v199h150l125 252l-318 729h-119z" />
<glyph unicode="z" horiz-adv-x="1008" d="M74 0v199l544 555h-311v-127h-205v325h809v-198l-542 -555h362v141h203v-340h-860z" />
<glyph unicode="{" horiz-adv-x="1024" d="M162 442v179q7 0 21.5 -1.5t21.5 -1.5q126 0 178.5 59t52.5 202v247q0 145 23 206.5t80 94.5q44 27 109 38.5t181 11.5h45v-179q-8 0 -24 1t-23 1q-109 0 -147.5 -41.5t-38.5 -173.5v-241q0 -155 -44 -220.5t-159 -93.5q114 -27 158.5 -92.5t44.5 -220.5v-240 q0 -132 39.5 -174.5t148.5 -42.5q7 0 22 1t23 1v-176h-63q-102 0 -165.5 12t-106.5 37q-57 34 -80 96t-23 203v248q0 144 -52.5 203t-178.5 59q-7 0 -21.5 -1t-21.5 -1z" />
<glyph unicode="|" horiz-adv-x="1024" d="M424 -483v2048h178v-2048h-178z" />
<glyph unicode="}" horiz-adv-x="1024" d="M152 -238q8 0 23 -1t22 -1q109 0 147.5 42t38.5 175v240q0 153 45 219t160 94q-115 28 -160 93.5t-45 220.5v241q0 132 -38 173.5t-146 41.5q-7 0 -23 -1t-24 -1v179h45q115 0 179.5 -11.5t108.5 -38.5q57 -33 80 -95t23 -206v-247q0 -144 52 -202.5t179 -58.5 q6 0 21 1.5t22 1.5v-179q-7 0 -21.5 1t-21.5 1q-126 0 -178.5 -59t-52.5 -203v-248q0 -143 -23 -204t-80 -95q-43 -26 -108 -37.5t-180 -11.5h-45v176z" />
<glyph unicode="~" horiz-adv-x="1706" d="M178 434v187q106 72 202 107.5t185 35.5q62 0 125.5 -12t168.5 -48q13 -4 42 -15q164 -58 250 -58q85 0 177 37t202 116v-184q-103 -71 -197.5 -106t-183.5 -35q-44 0 -92.5 8.5t-98.5 26.5q-25 8 -76 26q-212 74 -319 74q-82 0 -174 -38t-211 -122z" />
<glyph unicode="&#xa0;" />
<glyph unicode="&#xa1;" horiz-adv-x="707" d="M170 1317q0 79 51.5 129.5t130.5 50.5q77 0 131 -52.5t54 -127.5t-54 -127.5t-131 -52.5q-78 0 -130 51t-52 129zM197 0l55 1030h203l55 -1030h-313z" />
<glyph unicode="&#xa2;" d="M109 479q0 214 133 356t333 142q27 0 53 -3t52 -9l76 223h114l-90 -270q27 -17 49 -38t41 -48l-8 120h137v-327h-161q-20 41 -48 69t-69 47l-195 -553q17 -4 34.5 -6t35.5 -2q76 0 142.5 36.5t138.5 117.5l141 -127q-92 -112 -201 -172t-219 -60q-24 0 -58.5 5t-76.5 14 l-88 -262h-121l108 303q-124 74 -188.5 187t-64.5 257zM346 489q0 -71 21 -129t65 -108l184 522q-7 1 -14.5 1.5t-13.5 0.5q-105 0 -173.5 -80t-68.5 -207z" />
<glyph unicode="&#xa3;" d="M49 -26v253q125 8 186.5 73.5t61.5 191.5q0 32 -6.5 67t-18.5 70h-204v190h165q-21 78 -32 142.5t-11 113.5q0 182 112 286.5t306 104.5q196 0 299 -104.5t103 -304.5q0 -20 -0.5 -30.5t-1.5 -20.5h-230v30q0 114 -40.5 164.5t-131.5 50.5q-76 0 -121 -47.5t-45 -128.5 q0 -31 12.5 -88.5t43.5 -167.5h247v-190h-218q5 -33 7 -58t3 -49q0 -63 -16.5 -125.5t-51.5 -132.5q44 -29 89 -44t89 -15q89 0 130.5 45t41.5 141v6h238l4 -47q0 -5 1 -14.5t1 -13.5q0 -143 -103.5 -247t-246.5 -104q-86 0 -172.5 34.5t-169.5 100.5q-60 -69 -129.5 -102 t-155.5 -33q-1 0 -3 1q-10 3 -18 3q-5 0 -8 -0.5t-6 -0.5z" />
<glyph unicode="&#xa4;" d="M0 522l23 144h100q-1 17 -1.5 30.5t-0.5 46.5q0 13 1 26t1 24h-123l23 143h106q28 271 137 399.5t312 128.5q77 0 136.5 -35.5t92.5 -101.5v109h211v-404h-221q-21 103 -72.5 157t-128.5 54q-97 0 -148.5 -72.5t-68.5 -234.5h461l-54 -143h-415q0 -11 -1 -24t-1 -26v-46 t2 -31h389l-55 -144h-326q19 -173 70.5 -250t150.5 -77q79 0 131 52.5t60 139.5h245q-27 -203 -138 -309.5t-298 -106.5q-218 0 -329 130.5t-140 420.5h-131z" />
<glyph unicode="&#xa5;" d="M-16 1247v191h477v-191h-115l205 -385l199 385h-115v191h481v-191h-104l-158 -278h227v-154h-307l-96 -162h403v-153h-409v-310h168v-190h-584v190h168v310h-410v153h406l-92 162h-314v154h224l-158 278h-96z" />
<glyph unicode="&#xa6;" horiz-adv-x="1024" d="M424 -350v758h178v-758h-178zM424 674v758h178v-758h-178z" />
<glyph unicode="&#xa7;" horiz-adv-x="1024" d="M45 793q0 101 72 170t178 69q24 0 37 -1t24 -3q-61 54 -93 113t-32 121q0 105 81.5 159t240.5 54h293v-318h-209v131h-102q-44 0 -67.5 -16.5t-23.5 -46.5q0 -24 20.5 -57.5t59.5 -73.5l312 -320q87 -91 122 -160t35 -145q0 -112 -65 -181t-172 -69q-12 0 -23 0.5 t-22 1.5q60 -62 86 -112.5t26 -104.5q0 -116 -80 -175.5t-235 -59.5h-346v323h209v-127h114q50 0 77.5 20.5t27.5 57.5q0 27 -19.5 59.5t-60.5 75.5l-320 330q-71 74 -108 146.5t-37 138.5zM272 799q0 -26 19.5 -58.5t60.5 -76.5l178 -191q53 -54 87.5 -74t70.5 -20 q43 0 67.5 22.5t24.5 61.5q0 24 -20 57t-62 78l-178 190q-52 55 -86.5 75t-71.5 20q-42 0 -66 -22.5t-24 -61.5z" />
<glyph unicode="&#xa8;" horiz-adv-x="1024" d="M240 1135v229h204v-229h-204zM580 1135v229h204v-229h-204z" />
<glyph unicode="&#xa9;" horiz-adv-x="1706" d="M113 731q0 145 57 280.5t164 243.5q105 107 235.5 161t282.5 54t286 -55t240 -162q105 -105 160 -238.5t55 -283.5q0 -153 -54.5 -286t-158.5 -234q-108 -107 -244.5 -164t-283.5 -57q-146 0 -280 56.5t-240 162.5q-107 106 -163 240.5t-56 281.5zM223 731 q0 -126 48 -240t139 -204q90 -91 204.5 -139t239.5 -48t240 48.5t209 140.5q89 88 135.5 200.5t46.5 241.5t-47 243.5t-135 203.5q-91 90 -205 137t-244 47t-243 -46.5t-201 -135.5q-90 -92 -138.5 -208t-48.5 -241zM457 725q0 208 109.5 331.5t291.5 123.5q147 0 243 -77 t105 -200h-166q-10 74 -60 114t-130 40q-99 0 -155 -86.5t-56 -239.5q0 -152 57.5 -234.5t163.5 -82.5q80 0 129 43.5t60 124.5h165q-7 -135 -106.5 -217t-253.5 -82q-183 0 -290 119t-107 323z" />
<glyph unicode="&#xaa;" horiz-adv-x="952" d="M41 1141q0 149 103.5 249.5t258.5 100.5q63 0 119 -22t105 -66v72h278v-140h-100v-389h100v-139h-278v72q-45 -43 -102 -65.5t-122 -22.5q-158 0 -260 98.5t-102 251.5zM221 1139q0 -88 57.5 -143.5t149.5 -55.5q87 0 146 56.5t59 142.5q0 87 -59 143.5t-146 56.5 q-93 0 -150 -55t-57 -145z" />
<glyph unicode="&#xab;" horiz-adv-x="1108" d="M104 475l258 313h230l-262 -313l262 -311h-230zM537 475l258 313h231l-262 -313l262 -311h-231z" />
<glyph unicode="&#xac;" horiz-adv-x="1706" d="M254 696v166h1198v-502h-166v336h-1032z" />
<glyph unicode="&#xad;" horiz-adv-x="631" d="M61 371v211h508v-211h-508z" />
<glyph unicode="&#xae;" horiz-adv-x="1706" d="M113 731q0 147 57.5 284t165.5 245q104 104 234.5 157t281.5 53q153 0 288.5 -56t241.5 -165q103 -104 157 -236.5t54 -281.5q0 -153 -55.5 -287t-161.5 -237q-108 -105 -243 -161t-281 -56q-147 0 -282.5 57.5t-241.5 165.5q-105 106 -160 239t-55 279zM223 731 q0 -125 47 -238.5t136 -203.5q90 -91 204 -140t234 -49q130 0 246.5 47t209.5 138q89 86 137 198.5t48 237.5q0 133 -45.5 247.5t-134.5 205.5q-93 92 -207.5 140t-243.5 48t-240 -45.5t-200 -134.5q-92 -94 -141.5 -210t-49.5 -241zM551 330v829h319q173 0 262 -57t89 -168 q0 -91 -48 -150.5t-137 -78.5l185 -375h-199l-164 346h-129v-346h-178zM729 786h117q100 0 146 30.5t46 96.5q0 69 -48 101.5t-152 32.5h-109v-261z" />
<glyph unicode="&#xaf;" horiz-adv-x="1024" d="M236 1176v147h552v-147h-552z" />
<glyph unicode="&#xb0;" horiz-adv-x="674" d="M43 1163q0 125 86 211t209 86q121 0 208 -87t87 -210q0 -121 -87 -208t-210 -87t-208 85.5t-85 209.5zM152 1165q0 -76 54.5 -131t131.5 -55t130.5 54.5t53.5 131.5t-53.5 131t-130.5 54t-131.5 -54t-54.5 -131z" />
<glyph unicode="&#xb1;" horiz-adv-x="1706" d="M254 14v168h1198v-168h-1198zM254 707v165h514v334h170v-334h514v-165h-514v-334h-170v334h-514z" />
<glyph unicode="&#xb2;" horiz-adv-x="723" d="M57 575v119l308 310q73 75 104 125t31 92q0 49 -34.5 76.5t-96.5 27.5q-80 0 -114 -46t-34 -159v-24h-155q-2 9 -2.5 17.5t-0.5 25.5q0 159 76 237t232 78q136 0 215.5 -64t79.5 -171q0 -67 -38 -130t-151 -165l-237 -219h278v122h156v-252h-617z" />
<glyph unicode="&#xb3;" horiz-adv-x="723" d="M53 848v31l162 -1q2 -95 38.5 -140.5t111.5 -45.5q60 0 100.5 39t40.5 96q0 65 -46.5 102.5t-127.5 37.5h-15v106q5 0 12 -1t11 -1q74 0 113 34.5t39 100.5q0 55 -34 86t-91 31q-77 0 -109.5 -45t-32.5 -156v-8h-159q0 5 -1.5 19t-1.5 24q0 142 78.5 220.5t218.5 78.5 q136 0 214.5 -66.5t78.5 -179.5q0 -72 -35 -120.5t-100 -65.5q70 -15 110 -67.5t40 -127.5q0 -125 -81 -197.5t-222 -72.5q-153 0 -232.5 73.5t-79.5 215.5z" />
<glyph unicode="&#xb4;" horiz-adv-x="1024" d="M365 1087l204 349h222l-295 -349h-131z" />
<glyph unicode="&#xb5;" horiz-adv-x="1208" d="M-92 -430l297 1511h229l-125 -635q-6 -29 -9 -55t-3 -49q0 -96 46.5 -146.5t135.5 -50.5q122 0 193.5 88.5t111.5 292.5l109 555h225l-145 -739q-10 -49 -14.5 -81.5t-4.5 -51.5q0 -36 15.5 -51t52.5 -15q13 0 20.5 0.5t13.5 1.5l-32 -159q-32 -9 -68.5 -13t-81.5 -4 q-74 0 -111.5 31.5t-37.5 93.5v15q-41 -67 -108 -104.5t-146 -37.5q-81 0 -137.5 26t-97.5 83l-99 -506h-229z" />
<glyph unicode="&#xb6;" horiz-adv-x="1024" d="M55 1130q0 158 107 253.5t284 95.5h523v-99h-117v-1380h-129v1380h-168v-1380h-131v784q-168 6 -268.5 101t-100.5 245z" />
<glyph unicode="&#xb7;" horiz-adv-x="547" d="M90 733q0 78 52.5 129t131.5 51q77 0 130 -52t53 -128t-53 -129t-130 -53q-79 0 -131.5 52t-52.5 130z" />
<glyph unicode="&#xb8;" horiz-adv-x="1024" d="M287 -315q82 -22 146.5 -32.5t109.5 -10.5q53 0 80.5 19t27.5 56q0 42 -34 61t-109 19q-6 0 -20 -1t-21 -1v205h90v-94h16q120 0 178 -47.5t58 -145.5q0 -91 -65 -140.5t-185 -49.5q-54 0 -124 11t-148 32v119z" />
<glyph unicode="&#xb9;" horiz-adv-x="723" d="M174 575v119h111v623h-103v121h267v-744h110v-119h-385z" />
<glyph unicode="&#xba;" horiz-adv-x="868" d="M39 1141q0 148 113 249t282 101t281 -100.5t112 -249.5q0 -148 -112 -248t-281 -100t-282 100t-113 248zM223 1141q0 -89 60.5 -147t150.5 -58q89 0 149 58.5t60 146.5q0 90 -59.5 148.5t-149.5 58.5t-150.5 -59t-60.5 -148z" />
<glyph unicode="&#xbb;" horiz-adv-x="1108" d="M80 164l264 311l-264 313h231l258 -313l-258 -311h-231zM514 164l262 311l-262 313h231l259 -313l-259 -311h-231z" />
<glyph unicode="&#xbc;" horiz-adv-x="1722" d="M166 633v110h106v582h-98v113h254v-695h104v-110h-366zM348 -29l879 1493h145l-880 -1493h-144zM1085 193v102l351 510h149v-512h109v-100h-109v-91h109v-102h-383v102h127v91h-353zM1223 293h215v199q0 30 4 71.5t12 87.5z" />
<glyph unicode="&#xbd;" horiz-adv-x="1722" d="M166 633v110h106v582h-98v113h254v-695h104v-110h-366zM348 -29l879 1493h145l-880 -1493h-144zM1085 0v111l295 288q70 70 99.5 117t29.5 86q0 47 -33 72.5t-94 25.5q-74 0 -106.5 -43t-32.5 -147v-25h-149v39q0 150 72 222.5t220 72.5q129 0 205 -59.5t76 -159.5 q0 -62 -35.5 -119.5t-144.5 -156.5l-225 -203h266v115h147v-236h-590z" />
<glyph unicode="&#xbe;" horiz-adv-x="1722" d="M51 887v28h154q1 -88 35.5 -131t105.5 -43q59 0 98 37t39 90q0 60 -44.5 94.5t-121.5 34.5h-14v101q4 0 11 -1t10 -1q70 0 107.5 32.5t37.5 94.5q0 50 -32 79t-87 29q-74 0 -104.5 -42t-30.5 -146v-8h-154v41q0 132 74 205t209 73q129 0 204 -62t75 -167 q0 -68 -33 -112.5t-94 -61.5q66 -14 103.5 -62.5t37.5 -120.5q0 -116 -77.5 -183t-213.5 -67q-146 0 -220.5 68.5t-74.5 200.5zM348 -29l879 1493h145l-880 -1493h-144zM1085 193v102l351 510h149v-512h109v-100h-109v-91h109v-102h-383v102h127v91h-353zM1223 293h215v199 q0 30 4 71.5t12 87.5z" />
<glyph unicode="&#xbf;" horiz-adv-x="1219" d="M170 379q0 155 88 259.5t248 137.5v258h237v-436h-45q-139 0 -213.5 -59t-74.5 -168q0 -85 54 -135t146 -50t147 59t60 162l230 1q-19 -210 -133 -321.5t-310 -111.5q-198 0 -316 110.5t-118 293.5zM449 1321q0 76 53.5 129t130.5 53q79 0 130.5 -51.5t51.5 -130.5 q0 -78 -51.5 -129t-130.5 -51q-77 0 -130.5 52.5t-53.5 127.5z" />
<glyph unicode="&#xc0;" horiz-adv-x="1403" d="M-6 0v205h117l372 1065h-159v205h755v-205h-170l365 -1065h135v-205h-559v205h158l-90 268h-463l-90 -268h157v-205h-528zM423 1962h222l204 -349h-131zM518 678h334l-166 500z" />
<glyph unicode="&#xc1;" horiz-adv-x="1403" d="M-6 0v205h117l372 1065h-159v205h755v-205h-170l365 -1065h135v-205h-559v205h158l-90 268h-463l-90 -268h157v-205h-528zM518 678h334l-166 500zM555 1613l204 349h222l-295 -349h-131z" />
<glyph unicode="&#xc2;" horiz-adv-x="1403" d="M-6 0v205h117l372 1065h-159v205h755v-205h-170l365 -1065h135v-205h-559v205h158l-90 268h-463l-90 -268h157v-205h-528zM405 1611l188 351h218l188 -351h-131l-166 211l-168 -211h-129zM518 678h334l-166 500z" />
<glyph unicode="&#xc3;" horiz-adv-x="1403" d="M-6 0v205h117l372 1065h-159v205h755v-205h-170l365 -1065h135v-205h-559v205h158l-90 268h-463l-90 -268h157v-205h-528zM401 1648q20 111 67.5 165t124.5 54q23 0 44 -3t40 -9l88 -24q20 -5 31 -7t21 -2q31 0 54 20.5t32 55.5h100q-24 -118 -71.5 -172.5t-127.5 -54.5 q-16 0 -33.5 2.5t-35.5 7.5l-85 25q-19 5 -34.5 7.5t-28.5 2.5q-33 0 -54 -16.5t-32 -51.5h-100zM518 678h334l-166 500z" />
<glyph unicode="&#xc4;" horiz-adv-x="1403" d="M-6 0v205h117l372 1065h-159v205h755v-205h-170l365 -1065h135v-205h-559v205h158l-90 268h-463l-90 -268h157v-205h-528zM430 1661v229h204v-229h-204zM518 678h334l-166 500zM770 1661v229h204v-229h-204z" />
<glyph unicode="&#xc5;" horiz-adv-x="1403" d="M-6 0v205h117l372 1065h-159v205h755v-205h-159l354 -1065h135v-205h-559v205h158l-93 268h-460l-90 -268h157v-205h-528zM481 1751q0 92 64.5 156.5t156.5 64.5q91 0 155.5 -64.5t64.5 -156.5q0 -91 -64.5 -155t-155.5 -64q-92 0 -156.5 63.5t-64.5 155.5zM518 678h336 l-168 500zM610 1751q0 -38 27 -65t65 -27q39 0 67 27t28 65t-28 66t-67 28q-38 0 -65 -27.5t-27 -66.5z" />
<glyph unicode="&#xc6;" horiz-adv-x="2052" d="M-6 0v205h117l542 1065h-174v205h1467v-402h-230v195h-469v-369h393v-221h-393v-473h463v231h236v-436h-1121v205h156v268h-475l-133 -268h149v-205h-528zM606 674h375v612h-72z" />
<glyph unicode="&#xc7;" horiz-adv-x="1554" d="M66 737q0 337 212 551.5t539 214.5q131 0 234 -39t166 -112l-5 123h220v-492h-220q-44 132 -142 203t-236 71q-222 0 -358 -143t-136 -377q0 -233 136 -375.5t358 -142.5q138 0 232.5 62t162.5 198h256q-60 -233 -236 -370.5t-415 -137.5q-333 0 -550.5 218t-217.5 548z M592 -315q82 -22 146.5 -32.5t109.5 -10.5q53 0 80.5 19t27.5 56q0 42 -34 61t-109 19q-6 0 -20 -1t-21 -1v205h90v-94h16q120 0 178 -47.5t58 -145.5q0 -91 -65 -140.5t-185 -49.5q-54 0 -124 11t-148 32v119z" />
<glyph unicode="&#xc8;" horiz-adv-x="1280" d="M51 0v205h158v1065h-158v205h1123v-402h-230v195h-471v-369h395v-221h-395v-473h463v231h238v-436h-1123zM362 1962h222l204 -349h-131z" />
<glyph unicode="&#xc9;" horiz-adv-x="1280" d="M51 0v205h158v1065h-158v205h1123v-402h-230v195h-471v-369h395v-221h-395v-473h463v231h238v-436h-1123zM494 1613l204 349h222l-295 -349h-131z" />
<glyph unicode="&#xca;" horiz-adv-x="1280" d="M51 0v205h158v1065h-158v205h1123v-402h-230v195h-471v-369h395v-221h-395v-473h463v231h238v-436h-1123zM344 1611l188 351h218l188 -351h-131l-166 211l-168 -211h-129z" />
<glyph unicode="&#xcb;" horiz-adv-x="1280" d="M51 0v205h158v1065h-158v205h1123v-402h-230v195h-471v-369h395v-221h-395v-473h463v231h238v-436h-1123zM369 1661v229h204v-229h-204zM709 1661v229h204v-229h-204z" />
<glyph unicode="&#xcc;" horiz-adv-x="682" d="M51 0v205h158v1065h-158v205h580v-205h-158v-1065h158v-205h-580zM63 1962h222l204 -349h-131z" />
<glyph unicode="&#xcd;" horiz-adv-x="682" d="M51 0v205h158v1065h-158v205h580v-205h-158v-1065h158v-205h-580zM195 1613l204 349h222l-295 -349h-131z" />
<glyph unicode="&#xce;" horiz-adv-x="682" d="M45 1611l188 351h218l188 -351h-131l-166 211l-168 -211h-129zM51 0v205h158v1065h-158v205h580v-205h-158v-1065h158v-205h-580z" />
<glyph unicode="&#xcf;" horiz-adv-x="682" d="M51 0v205h158v1065h-158v205h580v-205h-158v-1065h158v-205h-580zM70 1661v229h204v-229h-204zM410 1661v229h204v-229h-204z" />
<glyph unicode="&#xd0;" horiz-adv-x="1542" d="M2 668v204h215v398h-156v205h592q405 0 616.5 -189t211.5 -549q0 -359 -211.5 -548t-616.5 -189h-592v205h156v463h-215zM483 205h176q269 0 408 135.5t139 396.5q0 262 -139 397.5t-408 135.5h-176v-398h359v-204h-359v-463z" />
<glyph unicode="&#xd1;" horiz-adv-x="1489" d="M51 0v205h158v1065h-158v205h451l526 -963v758h-158v205h566v-205h-158v-1299h-223l-594 1116v-882h155v-205h-565zM444 1648q20 111 67.5 165t124.5 54q23 0 44 -3t40 -9l88 -24q20 -5 31 -7t21 -2q31 0 54 20.5t32 55.5h100q-24 -118 -71.5 -172.5t-127.5 -54.5 q-16 0 -33.5 2.5t-35.5 7.5l-85 25q-19 5 -34.5 7.5t-28.5 2.5q-33 0 -54 -16.5t-32 -51.5h-100z" />
<glyph unicode="&#xd2;" horiz-adv-x="1669" d="M61 737q0 326 220.5 546t552.5 220q153 0 282.5 -46.5t233.5 -139.5q126 -113 192 -260.5t66 -319.5q0 -149 -52.5 -283.5t-150.5 -240.5q-111 -120 -255 -181t-316 -61q-330 0 -551.5 221t-221.5 545zM342 737q0 -223 140.5 -369.5t351.5 -146.5t352 146t141 370 t-141.5 370t-351.5 146q-209 0 -350.5 -146.5t-141.5 -369.5zM557 1962h222l204 -349h-131z" />
<glyph unicode="&#xd3;" horiz-adv-x="1669" d="M61 737q0 326 220.5 546t552.5 220q153 0 282.5 -46.5t233.5 -139.5q126 -113 192 -260.5t66 -319.5q0 -149 -52.5 -283.5t-150.5 -240.5q-111 -120 -255 -181t-316 -61q-330 0 -551.5 221t-221.5 545zM342 737q0 -223 140.5 -369.5t351.5 -146.5t352 146t141 370 t-141.5 370t-351.5 146q-209 0 -350.5 -146.5t-141.5 -369.5zM689 1613l204 349h222l-295 -349h-131z" />
<glyph unicode="&#xd4;" horiz-adv-x="1669" d="M61 737q0 326 220.5 546t552.5 220q153 0 282.5 -46.5t233.5 -139.5q126 -113 192 -260.5t66 -319.5q0 -149 -52.5 -283.5t-150.5 -240.5q-111 -120 -255 -181t-316 -61q-330 0 -551.5 221t-221.5 545zM342 737q0 -223 140.5 -369.5t351.5 -146.5t352 146t141 370 t-141.5 370t-351.5 146q-209 0 -350.5 -146.5t-141.5 -369.5zM539 1611l188 351h218l188 -351h-131l-166 211l-168 -211h-129z" />
<glyph unicode="&#xd5;" horiz-adv-x="1669" d="M61 737q0 326 220.5 546t552.5 220q153 0 282.5 -46.5t233.5 -139.5q126 -113 192 -260.5t66 -319.5q0 -149 -52.5 -283.5t-150.5 -240.5q-111 -120 -255 -181t-316 -61q-330 0 -551.5 221t-221.5 545zM342 737q0 -223 140.5 -369.5t351.5 -146.5t352 146t141 370 t-141.5 370t-351.5 146q-209 0 -350.5 -146.5t-141.5 -369.5zM535 1648q20 111 67.5 165t124.5 54q23 0 44 -3t40 -9l88 -24q20 -5 31 -7t21 -2q31 0 54 20.5t32 55.5h100q-24 -118 -71.5 -172.5t-127.5 -54.5q-16 0 -33.5 2.5t-35.5 7.5l-85 25q-19 5 -34.5 7.5t-28.5 2.5 q-33 0 -54 -16.5t-32 -51.5h-100z" />
<glyph unicode="&#xd6;" horiz-adv-x="1669" d="M61 737q0 326 220.5 546t552.5 220q153 0 282.5 -46.5t233.5 -139.5q126 -113 192 -260.5t66 -319.5q0 -149 -52.5 -283.5t-150.5 -240.5q-111 -120 -255 -181t-316 -61q-330 0 -551.5 221t-221.5 545zM342 737q0 -223 140.5 -369.5t351.5 -146.5t352 146t141 370 t-141.5 370t-351.5 146q-209 0 -350.5 -146.5t-141.5 -369.5zM564 1661v229h204v-229h-204zM904 1661v229h204v-229h-204z" />
<glyph unicode="&#xd7;" horiz-adv-x="1706" d="M287 152l458 458l-458 461l116 117l459 -459l461 459l117 -117l-459 -461l459 -458l-117 -119l-461 461l-459 -461z" />
<glyph unicode="&#xd8;" horiz-adv-x="1669" d="M61 737q0 326 220.5 546t552.5 220q121 0 227 -29t190 -85l138 176h198l-215 -271q117 -115 176.5 -255.5t59.5 -301.5q0 -148 -52 -282t-151 -242q-111 -120 -255 -181t-316 -61q-117 0 -223 29.5t-195 85.5l-142 -180h-196l215 274q-115 120 -173.5 259.5t-58.5 297.5z M332 737q0 -99 30.5 -187t92.5 -167l635 803q-57 34 -117 50.5t-127 16.5q-223 0 -368.5 -145t-145.5 -371zM578 289q63 -35 126 -51.5t130 -16.5q215 0 359 146.5t144 369.5q0 103 -32 192.5t-95 160.5z" />
<glyph unicode="&#xd9;" horiz-adv-x="1522" d="M78 1270v205h577v-205h-155v-733q0 -175 60.5 -245.5t201.5 -70.5q140 0 200 71.5t60 244.5v733h-156v205h578v-205h-156v-703q0 -160 -18 -242.5t-60 -148.5q-64 -102 -176 -153.5t-272 -51.5q-146 0 -253.5 43t-176.5 129q-53 66 -76 159.5t-23 264.5v703h-155z M483 1962h222l204 -349h-131z" />
<glyph unicode="&#xda;" horiz-adv-x="1522" d="M78 1270v205h577v-205h-155v-733q0 -175 60.5 -245.5t201.5 -70.5q140 0 200 71.5t60 244.5v733h-156v205h578v-205h-156v-703q0 -160 -18 -242.5t-60 -148.5q-64 -102 -176 -153.5t-272 -51.5q-146 0 -253.5 43t-176.5 129q-53 66 -76 159.5t-23 264.5v703h-155z M615 1613l204 349h222l-295 -349h-131z" />
<glyph unicode="&#xdb;" horiz-adv-x="1522" d="M78 1270v205h577v-205h-155v-733q0 -175 60.5 -245.5t201.5 -70.5q140 0 200 71.5t60 244.5v733h-156v205h578v-205h-156v-703q0 -160 -18 -242.5t-60 -148.5q-64 -102 -176 -153.5t-272 -51.5q-146 0 -253.5 43t-176.5 129q-53 66 -76 159.5t-23 264.5v703h-155z M465 1611l188 351h218l188 -351h-131l-166 211l-168 -211h-129z" />
<glyph unicode="&#xdc;" horiz-adv-x="1522" d="M78 1270v205h577v-205h-155v-733q0 -175 60.5 -245.5t201.5 -70.5q140 0 200 71.5t60 244.5v733h-156v205h578v-205h-156v-703q0 -160 -18 -242.5t-60 -148.5q-64 -102 -176 -153.5t-272 -51.5q-146 0 -253.5 43t-176.5 129q-53 66 -76 159.5t-23 264.5v703h-155z M490 1661v229h204v-229h-204zM830 1661v229h204v-229h-204z" />
<glyph unicode="&#xdd;" horiz-adv-x="1343" d="M27 1270v205h538v-205h-116l225 -367l221 367h-133v205h536v-205h-118l-383 -590v-475h180v-205h-627v205h180v475l-387 590h-116zM525 1613l204 349h222l-295 -349h-131z" />
<glyph unicode="&#xde;" horiz-adv-x="1208" d="M51 0v205h158v1065h-158v205h580v-205h-158v-101h82q308 0 466.5 -109.5t158.5 -322.5q0 -211 -159.5 -321.5t-465.5 -110.5h-82v-100h191v-205h-613zM473 494h82q183 0 270.5 59.5t87.5 183.5q0 125 -88 185.5t-270 60.5h-82v-489z" />
<glyph unicode="&#xdf;" horiz-adv-x="1208" d="M49 0v199h131v774q0 284 100.5 402t331.5 118q197 0 304.5 -94.5t107.5 -268.5q0 -96 -46.5 -164.5t-143.5 -115.5q158 -49 235.5 -157.5t77.5 -278.5q0 -198 -97 -317.5t-255 -119.5q-43 0 -83.5 8t-78.5 23l33 184q21 -3 36.5 -4.5t26.5 -1.5q85 0 129.5 62.5 t44.5 181.5q0 154 -66.5 230.5t-199.5 76.5q-16 0 -25 -0.5t-16 -0.5v177q97 11 149 66t52 147q0 81 -50.5 131t-134.5 50q-107 0 -150.5 -65.5t-43.5 -260.5v-782h112v-199h-481z" />
<glyph unicode="&#xe0;" horiz-adv-x="1270" d="M53 477q0 212 138 356t346 144q85 0 159 -31.5t140 -95.5v102h370v-198h-133v-555h133v-199h-370v102q-60 -61 -136.5 -93t-162.5 -32q-212 0 -348 141t-136 359zM295 475q0 -126 76.5 -205.5t197.5 -79.5q118 0 196.5 80.5t78.5 204.5t-79 205.5t-196 81.5 q-121 0 -197.5 -80t-76.5 -207zM395 1436h222l204 -349h-131z" />
<glyph unicode="&#xe1;" horiz-adv-x="1270" d="M53 477q0 212 138 356t346 144q85 0 159 -31.5t140 -95.5v102h370v-198h-133v-555h133v-199h-370v102q-60 -61 -136.5 -93t-162.5 -32q-212 0 -348 141t-136 359zM295 475q0 -126 76.5 -205.5t197.5 -79.5q118 0 196.5 80.5t78.5 204.5t-79 205.5t-196 81.5 q-121 0 -197.5 -80t-76.5 -207zM527 1087l204 349h222l-295 -349h-131z" />
<glyph unicode="&#xe2;" horiz-adv-x="1270" d="M53 477q0 212 138 356t346 144q85 0 159 -31.5t140 -95.5v102h370v-198h-133v-555h133v-199h-370v102q-60 -61 -136.5 -93t-162.5 -32q-212 0 -348 141t-136 359zM295 475q0 -126 76.5 -205.5t197.5 -79.5q118 0 196.5 80.5t78.5 204.5t-79 205.5t-196 81.5 q-121 0 -197.5 -80t-76.5 -207zM377 1085l188 351h218l188 -351h-131l-166 211l-168 -211h-129z" />
<glyph unicode="&#xe3;" horiz-adv-x="1270" d="M53 477q0 212 138 356t346 144q85 0 159 -31.5t140 -95.5v102h370v-198h-133v-555h133v-199h-370v102q-60 -61 -136.5 -93t-162.5 -32q-212 0 -348 141t-136 359zM295 475q0 -126 76.5 -205.5t197.5 -79.5q118 0 196.5 80.5t78.5 204.5t-79 205.5t-196 81.5 q-121 0 -197.5 -80t-76.5 -207zM373 1122q20 111 67.5 165t124.5 54q23 0 44 -3t40 -9l88 -24q20 -5 31 -7t21 -2q31 0 54 20.5t32 55.5h100q-24 -118 -71.5 -172.5t-127.5 -54.5q-16 0 -33.5 2.5t-35.5 7.5l-85 25q-19 5 -34.5 7.5t-28.5 2.5q-33 0 -54 -16.5t-32 -51.5 h-100z" />
<glyph unicode="&#xe4;" horiz-adv-x="1270" d="M53 477q0 212 138 356t346 144q85 0 159 -31.5t140 -95.5v102h370v-198h-133v-555h133v-199h-370v102q-60 -61 -136.5 -93t-162.5 -32q-212 0 -348 141t-136 359zM295 475q0 -126 76.5 -205.5t197.5 -79.5q118 0 196.5 80.5t78.5 204.5t-79 205.5t-196 81.5 q-121 0 -197.5 -80t-76.5 -207zM402 1135v229h204v-229h-204zM742 1135v229h204v-229h-204z" />
<glyph unicode="&#xe5;" horiz-adv-x="1270" d="M53 477q0 212 138 356t346 144q85 0 159 -31.5t140 -95.5v102h370v-198h-133v-555h133v-199h-370v102q-60 -61 -136.5 -93t-162.5 -32q-212 0 -348 141t-136 359zM295 475q0 -126 76.5 -205.5t197.5 -79.5q118 0 196.5 80.5t78.5 204.5t-79 205.5t-196 81.5 q-121 0 -197.5 -80t-76.5 -207zM395 1253q0 93 64 157.5t155 64.5q92 0 157 -65t65 -157q0 -90 -65.5 -154.5t-156.5 -64.5q-92 0 -155.5 63.5t-63.5 155.5zM522 1253q0 -38 27 -65t65 -27q39 0 67 27t28 65q0 39 -28 67t-67 28q-38 0 -65 -28t-27 -67z" />
<glyph unicode="&#xe6;" horiz-adv-x="1810" d="M29 291q0 143 117 233t300 90q79 0 142 -19t110 -56q0 6 1 19t1 17q0 110 -54.5 160.5t-172.5 50.5q-79 0 -148 -13t-130 -40l-80 166q78 39 167.5 58.5t190.5 19.5q127 0 223.5 -36.5t165.5 -111.5q75 77 159 111.5t191 34.5q231 0 370.5 -149t139.5 -396v-24h-790 q12 -110 87 -169t202 -59q79 0 142 27t97 76h236q-42 -146 -168 -226t-314 -80q-128 0 -225.5 39t-163.5 115q-87 -79 -183.5 -116.5t-215.5 -37.5q-179 0 -288 87.5t-109 228.5zM248 303q0 -64 59.5 -103.5t159.5 -39.5q95 0 154 39.5t59 101.5q0 61 -59.5 102t-151.5 41 q-103 0 -162 -38t-59 -103zM932 573h553q-29 99 -98.5 150t-174.5 51q-108 0 -182 -53t-98 -148z" />
<glyph unicode="&#xe7;" horiz-adv-x="1057" d="M51 477q0 217 135.5 359.5t337.5 142.5q76 0 140 -23t114 -69v65h187v-319h-152q-63 79 -124.5 111t-147.5 32q-115 0 -183.5 -81t-68.5 -218q0 -126 76 -210.5t190 -84.5q89 0 157 35.5t144 122.5l148 -125q-91 -118 -204 -179t-243 -61q-218 0 -362 143t-144 359z M320 -315q82 -22 146.5 -32.5t109.5 -10.5q53 0 80.5 19t27.5 56q0 42 -34 61t-109 19q-6 0 -20 -1t-21 -1v205h90v-94h16q120 0 178 -47.5t58 -145.5q0 -91 -65 -140.5t-185 -49.5q-54 0 -124 11t-148 32v119z" />
<glyph unicode="&#xe8;" horiz-adv-x="1141" d="M53 475q0 219 147.5 359.5t377.5 140.5q229 0 368 -148.5t139 -396.5v-24h-788q12 -110 87 -169t202 -59q79 0 142 27t97 76h234q-42 -146 -167 -226t-312 -80q-237 0 -382 138t-145 362zM297 573h553q-29 99 -98.5 150t-173.5 51q-108 0 -182.5 -53t-98.5 -148z M305 1436h222l204 -349h-131z" />
<glyph unicode="&#xe9;" horiz-adv-x="1141" d="M53 475q0 219 147.5 359.5t377.5 140.5q229 0 368 -148.5t139 -396.5v-24h-788q12 -110 87 -169t202 -59q79 0 142 27t97 76h234q-42 -146 -167 -226t-312 -80q-237 0 -382 138t-145 362zM297 573h553q-29 99 -98.5 150t-173.5 51q-108 0 -182.5 -53t-98.5 -148z M437 1087l204 349h222l-295 -349h-131z" />
<glyph unicode="&#xea;" horiz-adv-x="1141" d="M53 475q0 219 147.5 359.5t377.5 140.5q229 0 368 -148.5t139 -396.5v-24h-788q12 -110 87 -169t202 -59q79 0 142 27t97 76h234q-42 -146 -167 -226t-312 -80q-237 0 -382 138t-145 362zM287 1085l188 351h218l188 -351h-131l-166 211l-168 -211h-129zM297 573h553 q-29 99 -98.5 150t-173.5 51q-108 0 -182.5 -53t-98.5 -148z" />
<glyph unicode="&#xeb;" horiz-adv-x="1141" d="M53 475q0 219 147.5 359.5t377.5 140.5q229 0 368 -148.5t139 -396.5v-24h-788q12 -110 87 -169t202 -59q79 0 142 27t97 76h234q-42 -146 -167 -226t-312 -80q-237 0 -382 138t-145 362zM297 573h553q-29 99 -98.5 150t-173.5 51q-108 0 -182.5 -53t-98.5 -148z M312 1135v229h204v-229h-204zM652 1135v229h204v-229h-204z" />
<glyph unicode="&#xec;" horiz-adv-x="598" d="M-11 1436h222l204 -349h-131zM45 0v199h145v555h-143v198h381v-753h137v-199h-520z" />
<glyph unicode="&#xed;" horiz-adv-x="598" d="M45 0v199h145v555h-143v198h381v-753h137v-199h-520zM121 1087l204 349h222l-295 -349h-131z" />
<glyph unicode="&#xee;" horiz-adv-x="598" d="M-29 1085l188 351h218l188 -351h-131l-166 211l-168 -211h-129zM45 0v199h145v555h-143v198h381v-753h137v-199h-520z" />
<glyph unicode="&#xef;" horiz-adv-x="598" d="M-4 1135v229h204v-229h-204zM45 0v199h145v555h-143v198h381v-753h137v-199h-520zM336 1135v229h204v-229h-204z" />
<glyph unicode="&#xf0;" horiz-adv-x="1157" d="M49 469q0 205 146 350.5t350 145.5q20 0 46.5 -2.5t61.5 -7.5l-133 173l-348 -67l-37 149l281 56l-150 209h234l129 -164l297 59l37 -149l-228 -50l176 -229q117 -151 157 -250t40 -211q0 -219 -150 -361.5t-380 -142.5q-228 0 -378.5 141t-150.5 351zM297 477 q0 -126 80.5 -209.5t200.5 -83.5q119 0 199.5 83.5t80.5 209.5q0 128 -80.5 211.5t-199.5 83.5t-200 -84t-81 -211z" />
<glyph unicode="&#xf1;" horiz-adv-x="1225" d="M57 0v199h133v555h-133v198h371v-129q85 81 165.5 117.5t170.5 36.5q151 0 224 -81.5t73 -250.5v-446h133v-199h-504v199h133v393q0 76 -38.5 117t-110.5 41q-65 0 -125.5 -34.5t-120.5 -105.5v-411h133v-199h-504zM332 1122q20 111 67.5 165t124.5 54q23 0 44 -3t40 -9 l88 -24q20 -5 31 -7t21 -2q31 0 54 20.5t32 55.5h100q-24 -118 -71.5 -172.5t-127.5 -54.5q-16 0 -33.5 2.5t-35.5 7.5l-85 25q-19 5 -34.5 7.5t-28.5 2.5q-33 0 -54 -16.5t-32 -51.5h-100z" />
<glyph unicode="&#xf2;" horiz-adv-x="1157" d="M51 477q0 212 151 356t376 144t375.5 -144t150.5 -356q0 -211 -150 -354t-376 -143q-225 0 -376 143t-151 354zM297 477q0 -125 81 -209t200 -84t199.5 83.5t80.5 209.5q0 129 -80 212t-200 83t-200.5 -83.5t-80.5 -211.5zM301 1436h222l204 -349h-131z" />
<glyph unicode="&#xf3;" horiz-adv-x="1157" d="M51 477q0 212 151 356t376 144t375.5 -144t150.5 -356q0 -211 -150 -354t-376 -143q-225 0 -376 143t-151 354zM297 477q0 -125 81 -209t200 -84t199.5 83.5t80.5 209.5q0 129 -80 212t-200 83t-200.5 -83.5t-80.5 -211.5zM433 1087l204 349h222l-295 -349h-131z" />
<glyph unicode="&#xf4;" horiz-adv-x="1157" d="M51 477q0 212 151 356t376 144t375.5 -144t150.5 -356q0 -211 -150 -354t-376 -143q-225 0 -376 143t-151 354zM283 1085l188 351h218l188 -351h-131l-166 211l-168 -211h-129zM297 477q0 -125 81 -209t200 -84t199.5 83.5t80.5 209.5q0 129 -80 212t-200 83 t-200.5 -83.5t-80.5 -211.5z" />
<glyph unicode="&#xf5;" horiz-adv-x="1157" d="M51 477q0 212 151 356t376 144t375.5 -144t150.5 -356q0 -211 -150 -354t-376 -143q-225 0 -376 143t-151 354zM279 1122q20 111 67.5 165t124.5 54q23 0 44 -3t40 -9l88 -24q20 -5 31 -7t21 -2q31 0 54 20.5t32 55.5h100q-24 -118 -71.5 -172.5t-127.5 -54.5 q-16 0 -33.5 2.5t-35.5 7.5l-85 25q-19 5 -34.5 7.5t-28.5 2.5q-33 0 -54 -16.5t-32 -51.5h-100zM297 477q0 -125 81 -209t200 -84t199.5 83.5t80.5 209.5q0 129 -80 212t-200 83t-200.5 -83.5t-80.5 -211.5z" />
<glyph unicode="&#xf6;" horiz-adv-x="1157" d="M51 477q0 212 151 356t376 144t375.5 -144t150.5 -356q0 -211 -150 -354t-376 -143q-225 0 -376 143t-151 354zM297 477q0 -125 81 -209t200 -84t199.5 83.5t80.5 209.5q0 129 -80 212t-200 83t-200.5 -83.5t-80.5 -211.5zM308 1135v229h204v-229h-204zM648 1135v229h204 v-229h-204z" />
<glyph unicode="&#xf7;" horiz-adv-x="1706" d="M254 528v166h1198v-166h-1198zM717 229q0 57 40.5 97.5t96.5 40.5q57 0 97 -40.5t40 -97.5q0 -56 -39.5 -95.5t-97.5 -39.5t-97.5 39t-39.5 96zM717 989q0 57 40.5 98t96.5 41q57 0 97 -41t40 -98q0 -56 -39.5 -95.5t-97.5 -39.5t-97.5 39t-39.5 96z" />
<glyph unicode="&#xf8;" horiz-adv-x="1139" d="M6 -147l205 262q-74 72 -113 165t-39 197q0 212 146 356t364 144q76 0 142 -17t120 -51l154 193h154l-211 -266q76 -78 113.5 -167.5t37.5 -191.5q0 -212 -145.5 -354.5t-364.5 -142.5q-78 0 -147 16.5t-115 46.5l-147 -190h-154zM303 477q0 -48 13 -92.5t40 -91.5 l346 438q-20 19 -54.5 29t-78.5 10q-114 0 -190 -82.5t-76 -210.5zM434 219q37 -17 70.5 -26t64.5 -9q114 0 189.5 83t75.5 210q0 52 -13 95.5t-41 86.5z" />
<glyph unicode="&#xf9;" horiz-adv-x="1219" d="M33 754v198h370v-592q0 -76 39 -116.5t111 -40.5q64 0 125 34t121 105v412h-133v198h370v-753h131v-199h-368v129q-85 -80 -166.5 -117t-171.5 -37q-151 0 -223 81.5t-72 250.5v447h-133zM307 1436h222l204 -349h-131z" />
<glyph unicode="&#xfa;" horiz-adv-x="1219" d="M33 754v198h370v-592q0 -76 39 -116.5t111 -40.5q64 0 125 34t121 105v412h-133v198h370v-753h131v-199h-368v129q-85 -80 -166.5 -117t-171.5 -37q-151 0 -223 81.5t-72 250.5v447h-133zM439 1087l204 349h222l-295 -349h-131z" />
<glyph unicode="&#xfb;" horiz-adv-x="1219" d="M33 754v198h370v-592q0 -76 39 -116.5t111 -40.5q64 0 125 34t121 105v412h-133v198h370v-753h131v-199h-368v129q-85 -80 -166.5 -117t-171.5 -37q-151 0 -223 81.5t-72 250.5v447h-133zM289 1085l188 351h218l188 -351h-131l-166 211l-168 -211h-129z" />
<glyph unicode="&#xfc;" horiz-adv-x="1219" d="M33 754v198h370v-592q0 -76 39 -116.5t111 -40.5q64 0 125 34t121 105v412h-133v198h370v-753h131v-199h-368v129q-85 -80 -166.5 -117t-171.5 -37q-151 0 -223 81.5t-72 250.5v447h-133zM314 1135v229h204v-229h-204zM654 1135v229h204v-229h-204z" />
<glyph unicode="&#xfd;" horiz-adv-x="1161" d="M14 754v198h486v-198h-127l205 -490l213 490h-123v198h477v-198h-117l-467 -981h150v-199h-535v199h150l125 252l-318 729h-119zM435 1087l204 349h222l-295 -349h-131z" />
<glyph unicode="&#xfe;" horiz-adv-x="1266" d="M57 -227h133v1503h-133v199h371v-625q66 64 139.5 95.5t159.5 31.5q207 0 345 -144t138 -356q0 -219 -135 -359.5t-348 -140.5q-82 0 -158.5 29t-140.5 84v-317h141v-199h-512v199zM420 475q0 -123 78.5 -204t195.5 -81q118 0 196.5 80.5t78.5 204.5t-79 205.5t-196 81.5 t-195.5 -81.5t-78.5 -205.5z" />
<glyph unicode="&#xff;" horiz-adv-x="1161" d="M14 754v198h486v-198h-127l205 -490l213 490h-123v198h477v-198h-117l-467 -981h150v-199h-535v199h150l125 252l-318 729h-119zM310 1135v229h204v-229h-204zM650 1135v229h204v-229h-204z" />
<glyph unicode="&#x152;" horiz-adv-x="2095" d="M61 737q0 216 90.5 381t260.5 260q92 52 211.5 74.5t322.5 22.5h1043v-402h-230v195h-469v-369h393v-221h-393v-473h463v231h236v-436h-1041q-220 0 -333.5 22t-204.5 72q-164 90 -256.5 260.5t-92.5 382.5zM334 739q0 -244 138 -389t370 -145q108 0 145 36.5t37 161.5 v756q0 66 -38 89.5t-150 23.5q-239 0 -370.5 -140t-131.5 -393z" />
<glyph unicode="&#x153;" horiz-adv-x="1970" d="M59 477q0 211 148.5 354.5t370.5 143.5q137 0 234 -51t161 -158q69 104 168.5 156.5t228.5 52.5q230 0 369 -148.5t139 -396.5v-24h-788q12 -110 86.5 -169t201.5 -59q80 0 142.5 27t97.5 76h233q-42 -147 -166.5 -226.5t-312.5 -79.5q-124 0 -220.5 48.5t-178.5 152.5 q-77 -101 -173 -148.5t-222 -47.5q-222 0 -370.5 143t-148.5 354zM307 477q0 -127 77.5 -210t193.5 -83q115 0 191.5 83t76.5 210q0 128 -76.5 210.5t-191.5 82.5q-117 0 -194 -82.5t-77 -210.5zM1090 573h552q-29 99 -98 150t-174 51q-108 0 -182 -53t-98 -148z" />
<glyph unicode="&#x178;" horiz-adv-x="1343" d="M27 1270v205h538v-205h-116l225 -367l221 367h-133v205h536v-205h-118l-383 -590v-475h180v-205h-627v205h180v475l-387 590h-116zM400 1661v229h204v-229h-204zM740 1661v229h204v-229h-204z" />
<glyph unicode="&#x2c6;" horiz-adv-x="1024" d="M215 1085l188 351h218l188 -351h-131l-166 211l-168 -211h-129z" />
<glyph unicode="&#x2dc;" horiz-adv-x="1024" d="M211 1122q20 111 67.5 165t124.5 54q23 0 44 -3t40 -9l88 -24q20 -5 31 -7t21 -2q31 0 54 20.5t32 55.5h100q-24 -118 -71.5 -172.5t-127.5 -54.5q-16 0 -33.5 2.5t-35.5 7.5l-85 25q-19 5 -34.5 7.5t-28.5 2.5q-33 0 -54 -16.5t-32 -51.5h-100z" />
<glyph unicode="&#x2000;" horiz-adv-x="986" />
<glyph unicode="&#x2001;" horiz-adv-x="1972" />
<glyph unicode="&#x2002;" horiz-adv-x="986" />
<glyph unicode="&#x2003;" horiz-adv-x="1972" />
<glyph unicode="&#x2004;" horiz-adv-x="657" />
<glyph unicode="&#x2005;" horiz-adv-x="493" />
<glyph unicode="&#x2006;" horiz-adv-x="328" />
<glyph unicode="&#x2007;" horiz-adv-x="328" />
<glyph unicode="&#x2008;" horiz-adv-x="246" />
<glyph unicode="&#x2009;" horiz-adv-x="394" />
<glyph unicode="&#x200a;" horiz-adv-x="109" />
<glyph unicode="&#x2010;" horiz-adv-x="631" d="M61 371v211h508v-211h-508z" />
<glyph unicode="&#x2011;" horiz-adv-x="631" d="M61 371v211h508v-211h-508z" />
<glyph unicode="&#x2012;" horiz-adv-x="631" d="M61 371v211h508v-211h-508z" />
<glyph unicode="&#x2013;" horiz-adv-x="1024" d="M0 397v158h1024v-158h-1024z" />
<glyph unicode="&#x2014;" horiz-adv-x="2048" d="M0 397v158h2048v-158h-2048z" />
<glyph unicode="&#x2018;" horiz-adv-x="461" d="M35 1049l131 426h258l-143 -426h-246z" />
<glyph unicode="&#x2019;" horiz-adv-x="461" d="M35 1049l131 426h258l-143 -426h-246z" />
<glyph unicode="&#x201a;" horiz-adv-x="461" d="M35 -186l131 426h258l-143 -426h-246z" />
<glyph unicode="&#x201c;" horiz-adv-x="907" d="M33 1049l131 426h258l-143 -426h-246zM481 1049l131 426h258l-143 -426h-246z" />
<glyph unicode="&#x201d;" horiz-adv-x="907" d="M35 1049l131 426h258l-143 -426h-246zM481 1049l131 426h260l-145 -426h-246z" />
<glyph unicode="&#x201e;" horiz-adv-x="907" d="M35 -186l131 426h258l-143 -426h-246zM481 -186l131 426h260l-145 -426h-246z" />
<glyph unicode="&#x2022;" horiz-adv-x="1208" d="M307 762q0 123 87 209t210 86q122 0 208.5 -86.5t86.5 -208.5t-87.5 -209.5t-209.5 -87.5q-123 0 -209 87t-86 210z" />
<glyph unicode="&#x2026;" horiz-adv-x="2048" d="M158 158q0 77 52.5 128.5t131.5 51.5q77 0 130 -52.5t53 -127.5q0 -76 -53 -129.5t-130 -53.5q-79 0 -131.5 52t-52.5 131zM840 158q0 77 52.5 128.5t131.5 51.5q77 0 130 -52.5t53 -127.5q0 -76 -53 -129.5t-130 -53.5q-79 0 -131.5 52t-52.5 131zM1524 158 q0 77 52.5 128.5t131.5 51.5q77 0 130 -52.5t53 -127.5q0 -76 -53 -129.5t-130 -53.5q-79 0 -131.5 52t-52.5 131z" />
<glyph unicode="&#x202f;" horiz-adv-x="394" />
<glyph unicode="&#x2039;" horiz-adv-x="674" d="M104 475l258 313h230l-262 -313l262 -311h-230z" />
<glyph unicode="&#x203a;" horiz-adv-x="674" d="M80 164l264 311l-264 313h231l258 -313l-258 -311h-231z" />
<glyph unicode="&#x205f;" horiz-adv-x="493" />
<glyph unicode="&#x20ac;" d="M0 522l23 144h100q-1 17 -1.5 30.5t-0.5 46.5q0 13 1 26t1 24h-123l23 143h106q28 271 137 399.5t312 128.5q77 0 136.5 -35.5t92.5 -101.5v109h211v-404h-221q-21 103 -72.5 157t-128.5 54q-97 0 -148.5 -72.5t-68.5 -234.5h461l-54 -143h-415q0 -11 -1 -24t-1 -26v-46 t2 -31h389l-55 -144h-326q19 -173 70.5 -250t150.5 -77q79 0 131 52.5t60 139.5h245q-27 -203 -138 -309.5t-298 -106.5q-218 0 -329 130.5t-140 420.5h-131z" />
<glyph unicode="&#x2122;" horiz-adv-x="1706" d="M225 1366v94h467v-94h-168v-448h-129v448h-170zM809 918v542h170l141 -360l133 360h170v-542h-114v428l-160 -428h-59l-166 428v-428h-115z" />
<glyph unicode="&#xe000;" horiz-adv-x="950" d="M0 0v950h950v-950h-950z" />
</font>
</defs>
</svg>
