<?xml version="1.0" standalone="no"?>
<!DOCTYPE svg PUBLIC "-//W3C//DTD SVG 1.1//EN" "http://www.w3.org/Graphics/SVG/1.1/DTD/svg11.dtd" >
<svg xmlns="http://www.w3.org/2000/svg">
<metadata></metadata>
<defs>
<font id="geoslab703_md_btbold_italic" horiz-adv-x="1081" >
<font-face units-per-em="2048" ascent="1556" descent="-492" />
<missing-glyph horiz-adv-x="541" />
<glyph horiz-adv-x="2048" />
<glyph horiz-adv-x="2048" />
<glyph unicode="&#xd;" horiz-adv-x="541" />
<glyph unicode=" "  horiz-adv-x="541" />
<glyph unicode="&#x09;" horiz-adv-x="541" />
<glyph unicode="&#xa0;" horiz-adv-x="541" />
<glyph unicode="!" horiz-adv-x="557" d="M12 158q0 78 52 129t131 51q76 0 129 -52.5t53 -127.5q0 -76 -53 -129.5t-129 -53.5q-80 0 -131.5 52t-51.5 131zM123 461l68 445q2 17 9 63q41 270 62 506h313q-48 -174 -86.5 -325t-68.5 -286l-88 -403h-209z" />
<glyph unicode="&#x22;" horiz-adv-x="643" d="M86 879v557h164v-557h-164zM395 879v557h164v-557h-164z" />
<glyph unicode="#" horiz-adv-x="1575" d="M70 428l61 172h297l90 252h-315l61 172h316l155 436h191l-154 -436h250l156 436h190l-154 -436h291l-59 -172h-293l-90 -252h309l-61 -172h-307l-156 -434h-191l156 434h-252l-158 -434h-190l156 434h-299zM618 598h256l91 254h-256z" />
<glyph unicode="$" d="M14 -29l56 451h141q8 -107 43 -159.5t111 -74.5l84 447q-168 69 -245 160t-77 219q0 156 107 254t280 98q15 0 30.5 -0.5t33.5 -1.5l24 123h121l-29 -148q62 -19 96.5 -40.5t49.5 -49.5l26 109h144l-72 -412h-125q-11 90 -46 144t-103 86l-62 -353q185 -74 267.5 -175.5 t82.5 -252.5q0 -193 -120 -308.5t-322 -115.5q-8 0 -35 3q-15 1 -22 1l-31 -170h-121l33 192q-35 6 -68 23.5t-94 67.5l-18 -117h-140zM350 1022q0 -58 33.5 -96.5t108.5 -63.5l53 332h-15q-84 0 -132 -46t-48 -126zM487 176q6 0 16 -1t15 -1q102 0 155.5 58t53.5 169 q0 71 -38 119t-126 82z" />
<glyph unicode="%" horiz-adv-x="1817" d="M70 1075q0 152 104.5 256.5t255.5 104.5q152 0 257.5 -104.5t105.5 -256.5q0 -151 -106.5 -256.5t-256.5 -105.5q-149 0 -254.5 105.5t-105.5 256.5zM266 1075q0 -69 48.5 -117.5t117.5 -48.5q70 0 117 48t47 118q0 71 -47.5 118.5t-116.5 47.5t-117.5 -48t-48.5 -118z M410 -29l852 1493h143l-852 -1493h-143zM1022 362q0 152 105.5 256.5t256.5 104.5q153 0 258 -104t105 -257q0 -151 -106.5 -256.5t-256.5 -105.5q-149 0 -255.5 106t-106.5 256zM1221 362q0 -69 47.5 -117t115.5 -48q70 0 117 47.5t47 117.5q0 71 -47.5 118.5t-116.5 47.5 q-68 0 -115.5 -48t-47.5 -118z" />
<glyph unicode="&#x26;" horiz-adv-x="1554" d="M43 393q0 136 79 242t257 209q-64 89 -90.5 155t-26.5 134q0 159 105.5 264.5t265.5 105.5q149 0 245.5 -88t96.5 -227q0 -112 -59 -201.5t-197 -183.5l250 -301q58 69 98.5 137.5t67.5 142.5h-101l35 189h442l-34 -189h-121q-58 -144 -122.5 -256.5t-131.5 -185.5 l117 -139h223l-35 -201h-330l-141 168q-105 -98 -222.5 -147.5t-242.5 -49.5q-183 0 -305.5 121t-122.5 301zM287 401q0 -87 64 -147.5t161 -60.5q68 0 136.5 32.5t152.5 106.5l-291 350q-115 -69 -169 -137.5t-54 -143.5zM481 1169q0 -45 23.5 -95t75.5 -116 q100 64 145 120.5t45 117.5q0 57 -41 96t-98 39q-63 0 -106.5 -46.5t-43.5 -115.5z" />
<glyph unicode="'" horiz-adv-x="334" d="M86 879v557h164v-557h-164z" />
<glyph unicode="(" horiz-adv-x="702" d="M129 315q0 352 119.5 654t351.5 534l129 -112q-186 -208 -283.5 -509t-97.5 -669q0 -140 21.5 -270t64.5 -256l-166 -45q-70 166 -104.5 331.5t-34.5 341.5z" />
<glyph unicode=")" horiz-adv-x="702" d="M-72 -248q186 208 283.5 509.5t97.5 670.5q0 140 -21 269t-65 255l166 47q71 -165 105 -332.5t34 -343.5q0 -351 -119.5 -652t-351.5 -533z" />
<glyph unicode="*" horiz-adv-x="1024" d="M125 1120l74 193l284 -150l-28 312h207l-35 -312l278 150l74 -193l-322 -90l238 -211l-154 -135l-190 256l-189 -256l-153 135l237 211z" />
<glyph unicode="+" horiz-adv-x="1706" d="M254 528v166h514v527h170v-527h514v-166h-514v-528h-170v528h-514z" />
<glyph unicode="," horiz-adv-x="541" d="M-80 -195l207 435h256l-209 -435h-254z" />
<glyph unicode="-" horiz-adv-x="631" d="M-2 371l37 211h508l-37 -211h-508z" />
<glyph unicode="." horiz-adv-x="541" d="M33 158q0 77 52.5 128.5t131.5 51.5q77 0 129.5 -52.5t52.5 -127.5q0 -76 -53 -129.5t-129 -53.5q-79 0 -131.5 52t-52.5 131z" />
<glyph unicode="/" horiz-adv-x="682" d="M4 -190l504 1693h137l-502 -1693h-139z" />
<glyph unicode="0" d="M41 350q0 38 4.5 84t13.5 102l66 365q60 338 170.5 450.5t343.5 112.5q194 0 297.5 -97t103.5 -280q0 -33 -4.5 -76.5t-15.5 -109.5l-64 -364q-59 -339 -170 -452.5t-344 -113.5q-193 0 -297 98t-104 281zM281 354q0 -83 46 -125.5t138 -42.5q101 0 151 56.5t76 206.5 l99 540q4 23 6 46t2 46q0 84 -46 127t-135 43q-102 0 -153.5 -56.5t-77.5 -205.5l-96 -540q-5 -25 -7.5 -49t-2.5 -46z" />
<glyph unicode="1" d="M141 0l33 184h170l188 1067h-188l33 185h434l-221 -1252h176l-33 -184h-592z" />
<glyph unicode="2" d="M-37 0l53 223l502 490q159 154 208.5 228t49.5 136q0 83 -51.5 130.5t-140.5 47.5q-115 0 -175.5 -85.5t-62.5 -251.5h-233q9 273 128.5 409.5t348.5 136.5q192 0 309 -101.5t117 -266.5q0 -119 -65.5 -231t-219.5 -255l-432 -399h393l45 186h234l-80 -397h-928z" />
<glyph unicode="3" d="M35 387q0 23 1.5 48t4.5 52h233q-1 -18 -1.5 -34.5t-0.5 -30.5q0 -127 51 -185.5t160 -58.5q110 0 170 66.5t60 187.5q0 109 -61 167.5t-183 68.5l27 157q12 -1 24.5 -1.5t36.5 -0.5q112 0 180 69t68 183q0 89 -46.5 138t-131.5 49q-100 0 -157 -57.5t-73 -174.5h-227 q15 205 136.5 320.5t320.5 115.5q195 0 308.5 -101.5t113.5 -274.5q0 -135 -58 -234t-164 -145q64 -58 97.5 -133t33.5 -160q0 -205 -129.5 -326t-353.5 -121q-212 0 -326 108t-114 308z" />
<glyph unicode="4" d="M10 340l37 207l649 889h279l-162 -920h178l-30 -176h-181l-26 -156h180l-33 -184h-604l33 184h194l29 156h-543zM254 516h328l139 668z" />
<glyph unicode="5" d="M20 367q0 4 2 34t3 54l235 -1q-1 -8 -1.5 -17.5t-0.5 -26.5q0 -114 47 -170t144 -56q114 0 185 84.5t71 223.5q0 123 -74 183t-225 60q-39 0 -90 -1.5t-113 -3.5l125 706h692l-37 -211h-451l-53 -285h10q219 0 339 -116t120 -326q0 -233 -143.5 -379t-372.5 -146 q-188 0 -300 107.5t-112 286.5z" />
<glyph unicode="6" d="M70 393q0 26 2.5 54.5t7.5 60.5l80 475q40 243 162 362t329 119q171 0 272 -91t101 -245q0 -21 -0.5 -36.5t-1.5 -30.5l-231 -10q1 5 1.5 12t0.5 20q0 81 -42 126.5t-116 45.5q-106 0 -161.5 -85.5t-104.5 -364.5q49 35 101 52t112 17q168 0 277.5 -113t109.5 -288 q0 -213 -136 -357.5t-339 -144.5q-193 0 -308.5 115t-115.5 307zM317 391q0 -98 51.5 -154.5t141.5 -56.5q96 0 152.5 77t56.5 208q0 96 -50.5 150.5t-140.5 54.5q-97 0 -154 -75t-57 -204z" />
<glyph unicode="7" d="M127 979l84 457h883l-43 -265l-582 -1171h-262l612 1225h-411l-50 -246h-231z" />
<glyph unicode="8" d="M23 379q0 132 69 233t197 154q-56 84 -80.5 148.5t-24.5 123.5q0 180 127.5 302t315.5 122q180 0 297.5 -110t117.5 -279q0 -127 -58 -224.5t-171 -158.5q64 -41 97.5 -109t33.5 -155q0 -200 -132.5 -327.5t-342.5 -127.5q-203 0 -324.5 112t-121.5 296zM260 373 q0 -79 62 -136t149 -57q100 0 167 71.5t67 178.5q0 92 -57.5 149.5t-149.5 57.5q-106 0 -172 -73t-66 -191zM399 1022q0 -81 59 -137t144 -56q95 0 158 65.5t63 164.5q0 95 -55 151t-147 56q-96 0 -159 -69.5t-63 -174.5z" />
<glyph unicode="9" d="M57 313q0 26 0.5 42.5t2.5 33.5h232q0 -6 -0.5 -14.5t-0.5 -24.5q0 -80 40 -123t115 -43q102 0 157 81t116 376q-29 -36 -88.5 -57t-132.5 -21q-163 0 -271 113t-108 287q0 212 136.5 356.5t340.5 144.5q191 0 305.5 -114.5t114.5 -307.5q0 -34 -2.5 -63t-7.5 -55 l-84 -473q-44 -241 -165.5 -359.5t-326.5 -118.5q-171 0 -272 92t-101 248zM369 971q0 -95 50 -149t138 -54q98 0 156.5 76t58.5 205q0 96 -51.5 151t-140.5 55q-97 0 -154 -77.5t-57 -206.5z" />
<glyph unicode=":" horiz-adv-x="618" d="M33 158q0 77 52.5 128.5t131.5 51.5q77 0 129.5 -52.5t52.5 -127.5q0 -76 -53 -129.5t-129 -53.5q-79 0 -131.5 52t-52.5 131zM141 754q0 78 52 129t131 51q76 0 129 -52.5t53 -127.5q0 -76 -53 -129.5t-129 -53.5q-80 0 -131.5 52t-51.5 131z" />
<glyph unicode=";" horiz-adv-x="618" d="M-61 -195l204 435h258l-208 -435h-254zM141 754q0 78 52 129t131 51q76 0 129 -52.5t53 -127.5q0 -76 -53 -129.5t-129 -53.5q-80 0 -131.5 52t-51.5 131z" />
<glyph unicode="&#x3c;" horiz-adv-x="1706" d="M264 530v160l1178 486v-185l-934 -381l934 -381v-182z" />
<glyph unicode="=" horiz-adv-x="1706" d="M254 322v165h1198v-165h-1198zM254 733v168h1198v-168h-1198z" />
<glyph unicode="&#x3e;" horiz-adv-x="1706" d="M264 47v182l934 381l-934 381v185l1178 -486v-160z" />
<glyph unicode="?" horiz-adv-x="1075" d="M150 1065q7 210 120 324t312 114q182 0 298.5 -113.5t116.5 -293.5q0 -162 -100.5 -271t-257.5 -119l-45 -223h-240l82 398h64q131 0 197.5 55.5t66.5 165.5q0 88 -53 143t-140 55q-96 0 -148.5 -60t-56.5 -175h-216zM264 158q0 78 52 129t130 51q77 0 130 -52.5 t53 -127.5q0 -76 -53 -129.5t-130 -53.5q-79 0 -130.5 52t-51.5 131z" />
<glyph unicode="@" horiz-adv-x="2048" d="M98 522q0 165 52 313.5t153 272.5q147 179 353.5 272t459.5 93q166 0 315 -45.5t255 -127.5q132 -102 198 -235.5t66 -300.5q0 -162 -65 -302t-185 -237q-69 -55 -150 -83.5t-168 -28.5q-106 0 -157 40.5t-51 125.5v4q-55 -87 -128 -127.5t-176 -40.5q-152 0 -232.5 86.5 t-80.5 249.5q0 233 138 395t333 162q89 0 149 -34.5t99 -107.5l55 107h154l-148 -586q-1 -5 -2 -12q-6 -28 -6 -37q0 -38 26.5 -61t69.5 -23q51 0 107.5 30.5t105.5 84.5q72 76 110 177.5t38 215.5q0 253 -187 411t-489 158q-138 0 -256 -31t-215 -94q-181 -113 -279 -291 t-98 -395q0 -312 209.5 -499t558.5 -187q166 0 323.5 49t291.5 142l67 -99q-149 -113 -318.5 -170t-355.5 -57q-192 0 -351 48t-281 142q-155 118 -231.5 275.5t-76.5 357.5zM741 444q0 -98 45.5 -151t128.5 -53q90 0 163.5 66.5t99.5 172.5l55 228q-14 84 -61.5 130 t-122.5 46q-127 0 -217.5 -128.5t-90.5 -310.5z" />
<glyph unicode="A" horiz-adv-x="1507" d="M-90 0l37 201h119l557 1073h-164l35 201h729l-35 -201h-137l209 -1073h135l-35 -201h-547l35 201h160l-47 293h-496l-146 -293h152l-35 -201h-526zM561 686h365l-103 524z" />
<glyph unicode="B" horiz-adv-x="1184" d="M-70 0l35 201h156l190 1073h-157l36 201h508q218 0 338.5 -92.5t120.5 -258.5q0 -129 -77 -217t-216 -116q111 -42 171.5 -127t60.5 -201q0 -96 -36.5 -181t-103.5 -147q-77 -72 -186.5 -103.5t-302.5 -31.5h-537zM387 201h117q162 0 242.5 71.5t80.5 214.5 q0 106 -65.5 154.5t-210.5 48.5h-78zM508 889h121q128 0 197 58t69 165q0 86 -49.5 124t-163.5 38h-107z" />
<glyph unicode="C" horiz-adv-x="1511" d="M55 664q0 367 237.5 604t600.5 237q165 0 281.5 -47.5t189.5 -144.5l27 162h206l-90 -506h-207q-30 149 -132.5 222t-280.5 73q-239 0 -400 -166t-161 -408q0 -215 131.5 -346t347.5 -131q139 0 239.5 55t151.5 158l229 -100q-105 -176 -263.5 -265.5t-364.5 -89.5 q-331 0 -536.5 193.5t-205.5 499.5z" />
<glyph unicode="D" horiz-adv-x="1536" d="M-78 0l37 201h156l188 1073h-156l35 201h553q185 0 300.5 -24.5t197.5 -78.5q122 -78 186 -215t64 -319q0 -181 -59.5 -344t-168.5 -281q-105 -115 -255.5 -164t-430.5 -49h-647zM379 201h164q152 0 239 16t156 53q125 68 202 224t77 346q0 219 -120 326.5t-364 107.5 h-166z" />
<glyph unicode="E" horiz-adv-x="1200" d="M-76 0l37 201h156l188 1073h-158l37 201h1039l-49 -390h-220l25 189h-410l-63 -369h348l-35 -227h-356l-82 -477h448l41 225h222l-78 -426h-1090z" />
<glyph unicode="F" horiz-adv-x="1139" d="M-76 0l37 201h156l188 1073h-158l37 201h1039l-49 -390h-220l25 189h-410l-63 -369h348l-35 -227h-356l-82 -477h182l-37 -201h-602z" />
<glyph unicode="G" horiz-adv-x="1688" d="M55 664q0 366 237.5 603.5t600.5 237.5q163 0 278 -46.5t193 -143.5l27 160h206l-90 -506h-207q-30 149 -132.5 222t-280.5 73q-239 0 -400 -166t-161 -408q0 -220 134 -349.5t361 -129.5q138 0 255.5 71.5t193.5 202.5h-336l37 201h696l-35 -201h-155l-84 -485h-209 l28 158q-83 -93 -195 -139t-255 -46q-306 0 -506.5 196.5t-200.5 494.5z" />
<glyph unicode="H" horiz-adv-x="1548" d="M-78 0l37 201h156l188 1073h-156l35 201h578l-35 -201h-156l-67 -377h594l67 377h-157l36 201h578l-37 -201h-156l-188 -1073h156l-35 -201h-578l35 201h156l82 463h-594l-82 -463h158l-37 -201h-578z" />
<glyph unicode="I" horiz-adv-x="692" d="M-76 0l37 201h156l188 1073h-158l37 201h578l-35 -201h-158l-188 -1073h158l-37 -201h-578z" />
<glyph unicode="J" horiz-adv-x="733" d="M-111 -221l54 246q35 -11 52 -14t30 -3q56 0 84 35.5t49 157.5l188 1073h-158l37 201h578l-35 -201h-158l-188 -1073q-49 -281 -124.5 -360t-227.5 -79q-33 0 -78 4.5t-103 12.5z" />
<glyph unicode="K" horiz-adv-x="1350" d="M-76 0l37 201h156l188 1073h-158l37 201h578l-35 -201h-158l-86 -481l502 481h-106l34 201h498l-37 -201h-82l-536 -512l321 -561h129l-35 -201h-524l35 201h123l-326 567l-98 -567h158l-37 -201h-578z" />
<glyph unicode="L" horiz-adv-x="1143" d="M-76 0l37 201h156l188 1073h-158l37 201h578l-35 -201h-158l-188 -1073h407l43 225h222l-76 -426h-1053z" />
<glyph unicode="M" horiz-adv-x="1796" d="M-76 0l37 201h156l188 1073h-155l34 201h514l170 -883l469 883h529l-35 -201h-156l-190 -1073h157l-36 -201h-553l34 201h148l195 1024l-558 -1024h-141l-194 1024l-168 -1024h145l-35 -201h-555z" />
<glyph unicode="N" horiz-adv-x="1493" d="M-76 0l37 201h156l188 1073h-158l37 201h465l352 -986l138 785h-156l35 201h551l-37 -201h-156l-229 -1303h-219l-412 1153l-164 -923h158l-37 -201h-549z" />
<glyph unicode="O" horiz-adv-x="1667" d="M55 664q0 198 71 361t208 280q113 97 251.5 147.5t293.5 50.5q326 0 528.5 -191.5t202.5 -498.5q0 -364 -234 -603t-585 -239q-326 0 -531 194.5t-205 498.5zM326 690q0 -209 128.5 -342t325.5 -133q241 0 402 164.5t161 408.5q0 209 -131 342.5t-335 133.5 q-230 0 -390.5 -167.5t-160.5 -406.5z" />
<glyph unicode="P" horiz-adv-x="1214" d="M-76 0l37 201h156l188 1073h-158l37 201h518q229 0 369.5 -118.5t140.5 -307.5q0 -113 -54 -217.5t-150 -176.5q-79 -58 -173.5 -83t-256.5 -25h-140l-57 -346h166l-35 -201h-588zM475 750h94q179 0 278 76t99 212q0 117 -83 177.5t-242 60.5q-22 0 -33 -0.5t-20 -1.5z " />
<glyph unicode="Q" horiz-adv-x="1667" d="M55 664q0 198 71 361t208 280q113 97 251.5 147.5t293.5 50.5q326 0 528.5 -191.5t202.5 -498.5q0 -294 -149 -504t-419 -299l25 -82h256v-217h-385l-86 264q-13 -1 -28 -1.5t-44 -0.5q-320 0 -522.5 194.5t-202.5 496.5zM326 690q0 -207 120 -335t328 -142l-55 168 l182 59l64 -198q174 61 276 209.5t102 336.5q0 209 -131 342.5t-335 133.5q-230 0 -390.5 -167.5t-160.5 -406.5z" />
<glyph unicode="R" horiz-adv-x="1323" d="M-76 0l37 201h156l188 1073h-158l37 201h582q234 0 365 -91t131 -254q0 -127 -73.5 -218t-227.5 -156q71 -34 107 -80.5t36 -106.5q0 -22 -2.5 -47t-7.5 -50l-50 -271h146l-37 -201h-414l76 430q6 32 9 61t3 54q0 70 -38.5 98.5t-137.5 28.5h-190l-80 -471h133l-35 -201 h-555zM496 862h133q184 0 274 59.5t90 180.5q0 93 -62 132.5t-216 39.5h-146z" />
<glyph unicode="S" horiz-adv-x="1161" d="M-35 0l88 500h201q22 -152 113.5 -242t220.5 -90q98 0 164.5 62t66.5 153q0 74 -40.5 121t-153.5 96l-113 49q-204 88 -290.5 188t-86.5 244q0 188 122.5 305t322.5 117q104 0 186 -33.5t158 -107.5l20 113h203l-78 -441h-202q-10 120 -85 192t-190 72q-87 0 -140 -49 t-53 -129q0 -72 47 -124t158 -101l166 -74q163 -73 237 -169.5t74 -235.5q0 -190 -132 -317.5t-337 -127.5q-131 0 -227 41.5t-168 128.5l-24 -141h-228z" />
<glyph unicode="T" horiz-adv-x="1204" d="M102 1067l72 408h1110l-74 -408h-213l37 207h-209l-188 -1073h227l-35 -201h-720l36 201h226l190 1073h-209l-37 -207h-213z" />
<glyph unicode="U" horiz-adv-x="1417" d="M139 1274l35 201h580l-37 -201h-156l-131 -727q-9 -44 -13.5 -81.5t-4.5 -55.5q0 -93 57.5 -148t155.5 -55q123 0 205.5 89t109.5 251l123 727h-133l37 201h530l-35 -201h-133l-125 -723q-49 -285 -202.5 -432.5t-401.5 -147.5q-204 0 -327 117.5t-123 312.5 q0 36 3.5 74.5t10.5 77.5l131 721h-156z" />
<glyph unicode="V" horiz-adv-x="1280" d="M109 1274l34 201h512l-37 -201h-145l96 -793l414 793h-160l35 201h533l-35 -201h-119l-686 -1303h-154l-170 1303h-118z" />
<glyph unicode="W" horiz-adv-x="1972" d="M109 1274l34 201h478l-35 -201h-117l92 -785l381 785h-119l35 201h508l-35 -201h-125l94 -791l396 791h-127l35 201h475l-35 -201h-94l-656 -1303h-149l-127 990l-471 -990h-150l-170 1303h-118z" />
<glyph unicode="X" horiz-adv-x="1253" d="M-106 0l34 201h84l477 553l-251 520h-119l35 201h512l-37 -201h-121l141 -330l273 330h-134l37 201h502l-37 -201h-84l-456 -539l249 -534h142l-35 -201h-539l35 201h133l-149 346l-289 -346h131l-37 -201h-497z" />
<glyph unicode="Y" horiz-adv-x="1323" d="M113 1274l37 201h530l-37 -201h-143l209 -391l335 391h-151l35 201h499l-34 -201h-95l-491 -574l-74 -499h189l-35 -201h-645l37 201h188l84 485l-318 588h-120z" />
<glyph unicode="Z" horiz-adv-x="1067" d="M-37 0l35 201l764 1073h-393l-35 -184h-238l70 385h932l-35 -201l-768 -1073h403l39 229h242l-76 -430h-940z" />
<glyph unicode="[" horiz-adv-x="702" d="M2 -174l289 1649h473l-31 -177h-241l-230 -1298h242l-31 -174h-471z" />
<glyph unicode="\" horiz-adv-x="682" d="M84 1503h133l379 -1693h-131z" />
<glyph unicode="]" horiz-adv-x="702" d="M-74 -174l29 174h244l229 1298h-244l31 175h473l-291 -1647h-471z" />
<glyph unicode="^" horiz-adv-x="2048" d="M418 899l497 561h218l495 -561h-207l-397 397l-399 -397h-207z" />
<glyph unicode="_" horiz-adv-x="1024" d="M0 -311h1024v-172h-1024v172z" />
<glyph unicode="`" horiz-adv-x="1024" d="M279 1436h213l206 -349h-116z" />
<glyph unicode="a" horiz-adv-x="1266" d="M0 428q0 231 156.5 390t388.5 159q100 0 180.5 -36.5t132.5 -104.5l21 116h360l-35 -196h-127l-100 -559h135l-35 -197h-372l18 78q-67 -50 -140.5 -75.5t-152.5 -25.5q-188 0 -309 126.5t-121 324.5zM236 428q0 -121 69 -192.5t187 -71.5q140 0 229.5 101.5t89.5 260.5 q0 116 -73 191.5t-187 75.5q-134 0 -224.5 -104.5t-90.5 -260.5z" />
<glyph unicode="b" horiz-adv-x="1264" d="M-72 0l35 197h131l191 1081h-138l35 197h373l-111 -601q62 52 136.5 77.5t160.5 25.5q188 0 307 -125t119 -324q0 -230 -147.5 -389t-364.5 -159q-106 0 -192 41t-144 120l-30 -141h-361zM358 428q0 -115 76 -189.5t193 -74.5q129 0 217 103.5t88 252.5q0 127 -67.5 199 t-186.5 72q-142 0 -231 -101t-89 -262z" />
<glyph unicode="c" horiz-adv-x="1075" d="M6 455q0 221 148.5 371.5t363.5 150.5q98 0 174.5 -34t120.5 -97l12 106h181l-56 -344h-164q-25 82 -90.5 127t-156.5 45q-124 0 -207.5 -90.5t-83.5 -222.5q0 -131 72.5 -209t195.5 -78q72 0 139.5 30t137.5 93l118 -162q-92 -83 -195 -124.5t-218 -41.5 q-213 0 -352.5 135.5t-139.5 344.5z" />
<glyph unicode="d" horiz-adv-x="1264" d="M8 428q0 231 148 390t364 159q108 0 193.5 -41t142.5 -119l82 461h-176l33 197h409l-223 -1278h137l-35 -197h-372l18 78q-65 -49 -139.5 -73.5t-155.5 -24.5q-188 0 -307 124t-119 324zM244 434q0 -124 69 -198t183 -74q138 0 228.5 102t90.5 258q0 122 -73.5 197.5 t-192.5 75.5q-129 0 -217 -105t-88 -256z" />
<glyph unicode="e" horiz-adv-x="1147" d="M6 430q0 233 163 390t409 157q211 0 343 -117t132 -301q0 -28 -5 -61t-16 -76h-786q5 -120 76 -186t194 -66q86 0 162.5 33t134.5 96l164 -98q-80 -112 -199 -169t-274 -57q-223 0 -360.5 126.5t-137.5 328.5zM270 578h557q-5 96 -70.5 150t-176.5 54 q-113 0 -196.5 -55.5t-113.5 -148.5z" />
<glyph unicode="f" horiz-adv-x="643" d="M-74 0l35 197h143l101 559h-146l35 196h144l43 244q26 148 100 213.5t213 65.5q27 0 60.5 -2.5t72.5 -6.5l-31 -182q-10 1 -31 3.5t-30 2.5q-58 0 -84.5 -29.5t-44.5 -132.5l-31 -176h143l-34 -196h-142l-100 -559h143l-34 -197h-525z" />
<glyph unicode="g" horiz-adv-x="1253" d="M8 428q0 231 148 390t364 159q108 0 193.5 -41t142.5 -119l21 135h372l-35 -196h-135l-121 -684q-47 -273 -169 -385.5t-359 -112.5q-114 0 -217 28t-203 87l53 194q95 -56 178 -82t165 -26q149 0 228.5 74t94.5 229q-65 -49 -139.5 -73.5t-155.5 -24.5q-188 0 -307 124 t-119 324zM244 434q0 -124 69 -198t183 -74q138 0 228.5 102t90.5 258q0 122 -73.5 197.5t-192.5 75.5q-129 0 -217 -105t-88 -256z" />
<glyph unicode="h" horiz-adv-x="1237" d="M-68 0l35 197h131l191 1081h-133l34 197h369l-110 -633q87 66 179 100.5t183 34.5q120 0 188 -60.5t68 -166.5q0 -17 -3 -43t-9 -64l-80 -446h133l-35 -197h-502l35 197h133l74 424q3 16 4.5 30.5t1.5 26.5q0 46 -29.5 70t-84.5 24q-64 0 -137 -33.5t-156 -101.5 l-76 -440h133l-35 -197h-502z" />
<glyph unicode="i" horiz-adv-x="602" d="M-68 0l35 197h131l101 559h-133l34 196h369l-133 -755h133l-35 -197h-502zM184 1112l43 248h301l-43 -248h-301z" />
<glyph unicode="j" horiz-adv-x="569" d="M-168 -426l37 209h25q120 0 155 210q3 17 4 25l129 738h-135l35 196h371l-164 -939q-2 -11 -5 -29q-45 -267 -114 -332q-42 -39 -110.5 -59.5t-155.5 -20.5q-17 0 -34.5 0.5t-37.5 1.5zM166 1112l45 248h301l-45 -248h-301z" />
<glyph unicode="k" horiz-adv-x="1151" d="M-68 0l35 197h131l191 1081h-133l34 197h369l-166 -955l338 236h-115l35 196h488l-35 -196h-105l-383 -267l316 -292h92l-33 -197h-438l33 197h84l-287 270l-47 -270h133l-35 -197h-502z" />
<glyph unicode="l" horiz-adv-x="612" d="M-68 0l35 197h131l191 1081h-133l34 197h369l-223 -1278h133l-35 -197h-502z" />
<glyph unicode="m" horiz-adv-x="1792" d="M-68 0l35 197h131l101 559h-133l34 196h365l-25 -116q89 70 175 105.5t169 35.5q95 0 153.5 -42t74.5 -120q90 80 184 121t186 41q114 0 176 -59.5t62 -167.5q0 -19 -3 -46.5t-9 -60.5l-78 -446h133l-33 -197h-493l30 197h133l74 423q3 17 4.5 31t1.5 27q0 46 -26.5 70 t-77.5 24q-60 0 -129 -34.5t-139 -100.5l-76 -440h131l-31 -197h-495l32 197h131l76 423q2 12 3 24.5t1 33.5q0 46 -26.5 70t-77.5 24q-59 0 -126 -34t-140 -101l-78 -440h133l-35 -197h-498z" />
<glyph unicode="n" horiz-adv-x="1237" d="M-68 0l35 197h131l101 559h-133l34 196h369l-20 -110q87 66 179 100.5t183 34.5q120 0 188 -60.5t68 -166.5q0 -17 -3 -43t-9 -64l-80 -446h133l-35 -197h-502l35 197h133l74 424q3 16 4.5 30.5t1.5 26.5q0 46 -29.5 70t-84.5 24q-64 0 -137 -33.5t-156 -101.5l-76 -440 h133l-35 -197h-502z" />
<glyph unicode="o" horiz-adv-x="1149" d="M6 455q0 221 155.5 371.5t387.5 150.5q221 0 363.5 -130t142.5 -331q0 -232 -153.5 -385.5t-385.5 -153.5q-225 0 -367.5 133t-142.5 345zM248 451q0 -122 75.5 -199.5t194.5 -77.5q125 0 211 98t86 242q0 114 -74 191t-186 77q-129 0 -218 -96.5t-89 -234.5z" />
<glyph unicode="p" horiz-adv-x="1266" d="M-139 -426l35 197h129l174 985h-136l35 196h373l-18 -78q67 50 140.5 75.5t151.5 25.5q189 0 309 -125.5t120 -325.5q0 -230 -148 -389.5t-364 -159.5q-107 0 -193 41.5t-143 120.5l-64 -366h139l-34 -197h-506zM365 424q0 -116 75 -190t193 -74q130 0 217.5 103.5 t87.5 254.5q0 126 -67.5 198t-184.5 72q-142 0 -231.5 -101.5t-89.5 -262.5z" />
<glyph unicode="q" horiz-adv-x="1253" d="M8 428q0 231 148 390t364 159q108 0 193.5 -41t142.5 -119l21 135h372l-35 -196h-135l-174 -985h137l-34 -197h-512l34 197h140l59 307q-65 -49 -139.5 -73.5t-155.5 -24.5q-188 0 -307 124t-119 324zM244 434q0 -124 69 -198t183 -74q138 0 228.5 102t90.5 258 q0 122 -73.5 197.5t-192.5 75.5q-129 0 -217 -105t-88 -256z" />
<glyph unicode="r" horiz-adv-x="793" d="M-68 0l35 197h131l101 559h-133l34 196h369l-20 -116h18q21 67 65.5 104t104.5 37q68 0 108.5 -41t40.5 -109q0 -77 -51 -128.5t-129 -51.5q-61 0 -98 34.5t-49 102.5h-19l-104 -587h151l-34 -197h-521z" />
<glyph unicode="s" horiz-adv-x="930" d="M-37 0l55 326h168q37 -91 100.5 -140t145.5 -49q68 0 111 30t43 77q0 40 -34 70.5t-108 56.5l-182 63q-105 37 -157 99.5t-52 150.5q0 127 97 210t247 83q92 0 163.5 -31t111.5 -88l10 94h176l-49 -290h-186q-28 78 -85.5 119.5t-138.5 41.5q-62 0 -102.5 -27t-40.5 -67 t30.5 -67t116.5 -58l181 -63q107 -39 165 -108.5t58 -160.5q0 -134 -96.5 -215.5t-257.5 -81.5q-113 0 -188.5 29t-114.5 86l-5 -90h-182z" />
<glyph unicode="t" horiz-adv-x="610" d="M37 756l35 196h125l59 336h227l-61 -336h133l-35 -196h-131l-82 -464q-3 -13 -4.5 -27t-1.5 -27q0 -39 26 -51.5t122 -12.5l-33 -174q-66 0 -137 -2h-21q-118 0 -159.5 28.5t-41.5 106.5q0 15 3 38t8 51l96 534h-127z" />
<glyph unicode="u" horiz-adv-x="1217" d="M39 756l35 196h375l-115 -620q-2 -9 -3 -21t-1 -37q0 -46 28.5 -70t83.5 -24q116 0 206 64t106 162l59 350h-133l35 196h368l-133 -755h133l-34 -197h-371l20 111q-87 -67 -179.5 -101.5t-182.5 -34.5q-121 0 -188.5 60.5t-67.5 167.5q0 16 3 42.5t9 63.5l80 447h-133z " />
<glyph unicode="v" horiz-adv-x="1042" d="M-18 756l34 196h457l-37 -196h-110l90 -451l256 451h-113l35 196h446l-34 -196h-93l-477 -756h-160l-186 756h-108z" />
<glyph unicode="w" horiz-adv-x="1597" d="M-20 756l34 196h439l-35 -196h-111l88 -447l269 447h-111l35 196h438l-35 -196h-110l88 -447l270 447h-109l35 196h432l-34 -196h-103l-473 -756h-147l-95 553l-339 -553h-150l-162 756h-114z" />
<glyph unicode="x" horiz-adv-x="1073" d="M-68 0l35 197h96l322 299l-174 260h-119l35 196h350l-26 -159l90 -146l143 146l29 159h329l-32 -196h-97l-276 -252l207 -307h119l-35 -197h-385l32 197l-96 153l-157 -153l-33 -197h-357z" />
<glyph unicode="y" horiz-adv-x="1057" d="M-72 -426l33 197h133l187 305l-195 680h-111l35 196h461l-35 -196h-123l123 -439l260 439h-125l35 196h447l-35 -196h-94l-596 -985h159l-36 -197h-523z" />
<glyph unicode="z" horiz-adv-x="948" d="M-59 0l34 197l580 565h-276l-23 -133h-207l57 323h766l-34 -200l-586 -564h336l26 142h207l-57 -330h-823z" />
<glyph unicode="{" horiz-adv-x="1024" d="M162 442v179q7 0 21.5 -1.5t21.5 -1.5q126 0 178.5 59t52.5 202v247q0 145 23 206.5t80 94.5q44 27 109 38.5t181 11.5h45v-179q-8 0 -24 1t-23 1q-109 0 -147.5 -41.5t-38.5 -173.5v-241q0 -155 -44 -220.5t-159 -93.5q114 -27 158.5 -92.5t44.5 -220.5v-240 q0 -132 39.5 -174.5t148.5 -42.5q7 0 22 1t23 1v-176h-63q-102 0 -165.5 12t-106.5 37q-57 34 -80 96t-23 203v248q0 144 -52.5 203t-178.5 59q-7 0 -21.5 -1t-21.5 -1z" />
<glyph unicode="|" horiz-adv-x="1024" d="M424 -483v2048h178v-2048h-178z" />
<glyph unicode="}" horiz-adv-x="1024" d="M152 -238q8 0 23 -1t22 -1q109 0 147.5 42t38.5 175v240q0 153 45 219t160 94q-115 28 -160 93.5t-45 220.5v241q0 132 -38 173.5t-146 41.5q-7 0 -23 -1t-24 -1v179h45q115 0 179.5 -11.5t108.5 -38.5q57 -33 80 -95t23 -206v-247q0 -144 52 -202.5t179 -58.5 q6 0 21 1.5t22 1.5v-179q-7 0 -21.5 1t-21.5 1q-126 0 -178.5 -59t-52.5 -203v-248q0 -143 -23 -204t-80 -95q-43 -26 -108 -37.5t-180 -11.5h-45v176z" />
<glyph unicode="~" horiz-adv-x="1706" d="M178 434v187q106 72 202 107.5t185 35.5q62 0 125.5 -12t168.5 -48q13 -4 42 -15q164 -58 250 -58q85 0 177 37t202 116v-184q-103 -71 -197.5 -106t-183.5 -35q-44 0 -92.5 8.5t-98.5 26.5q-25 8 -76 26q-212 74 -319 74q-82 0 -174 -38t-211 -122z" />
<glyph unicode="&#xa0;" />
<glyph unicode="&#xa1;" horiz-adv-x="557" d="M12 0q45 161 83.5 314.5t70.5 299.5l90 404h207l-66 -445q-2 -14 -8 -53q-41 -274 -63 -520h-314zM209 1321q0 76 53 129t129 53q80 0 132 -51.5t52 -130.5q0 -78 -52.5 -129t-131.5 -51q-76 0 -129 52t-53 128z" />
<glyph unicode="&#xa2;" d="M68 438q0 220 144 378.5t339 158.5q36 0 67 -4t60 -13l100 250h115l-113 -286q36 -25 53.5 -40t30.5 -30l19 109h129l-41 -361h-149q-10 56 -35 92.5t-72 63.5l-228 -576q22 -6 43 -9t41 -3q65 0 131.5 28.5t128.5 84.5l107 -146q-91 -80 -188.5 -120t-202.5 -40 q-38 0 -122 7q-11 1 -17 2l-103 -265h-119l121 301q-117 60 -178 167t-61 251zM291 430q0 -67 23.5 -120.5t70.5 -92.5l223 569h-6q-130 0 -220.5 -104.5t-90.5 -251.5z" />
<glyph unicode="&#xa3;" d="M29 641l30 186h168v80q0 277 118.5 417t352.5 140q166 0 263.5 -91.5t97.5 -248.5q0 -18 -2.5 -49t-5.5 -67h-228q3 25 4.5 46.5t1.5 32.5q0 82 -38 122t-115 40q-109 0 -159 -79t-50 -252q0 -36 0.5 -55t1.5 -35l301 -1l-31 -186h-266v-45q0 -117 -25 -204.5t-77 -155.5 q66 -32 117.5 -47t93.5 -15q92 0 136 51.5t48 163.5h231q1 -14 1.5 -26.5t0.5 -24.5q0 -170 -94 -268.5t-256 -98.5q-85 0 -174.5 28.5t-177.5 84.5q-55 -51 -120 -78.5t-142 -34.5l16 252q95 17 137.5 82t42.5 193v143h-202z" />
<glyph unicode="&#xa4;" d="M-31 514l45 148h101q1 9 4 30q10 71 16 105h-123l45 147h107q72 274 193.5 397t322.5 123q77 0 132 -36t77 -101l18 109h211l-65 -404h-221q-4 111 -43 165t-115 54q-95 0 -156 -71t-104 -236h460l-75 -147l-416 -1q-8 -40 -13 -73.5t-7 -60.5h389l-78 -148h-325 q-2 -12 -2.5 -25.5t-0.5 -39.5q0 -139 39 -201t127 -62q76 0 134 55t81 146h246q-60 -205 -186 -310.5t-312 -105.5q-188 0 -282.5 117t-94.5 350q0 31 0.5 46t1.5 30h-131z" />
<glyph unicode="&#xa5;" d="M-14 512l24 147h406l-70 166h-305l25 148h210l-124 274h-95l33 189h473l-33 -189h-141l174 -409l299 409h-147l33 189h475l-33 -189h-96l-209 -274h221l-27 -148h-305l-115 -166h392l-27 -147h-393l-60 -326h185l-35 -186h-584l33 186h164l57 326h-405z" />
<glyph unicode="&#xa6;" horiz-adv-x="1024" d="M424 -350v758h178v-758h-178zM424 674v758h178v-758h-178z" />
<glyph unicode="&#xa7;" horiz-adv-x="1024" d="M57 -233l64 329h203l-23 -145h115q49 0 74.5 19.5t25.5 58.5q0 46 -89 164l-9 12l-246 330q-62 85 -88.5 148t-26.5 124q0 114 75.5 189t191.5 75q-19 46 -28 84t-9 68q0 120 82.5 186t234.5 66h361l-54 -345h-202l22 160h-121q-69 0 -92.5 -15t-23.5 -52q0 -20 11 -45 t36 -60l315 -450q55 -78 77.5 -134.5t22.5 -113.5q0 -112 -73 -181.5t-192 -72.5q23 -46 33.5 -83.5t10.5 -74.5q0 -113 -82 -177t-227 -64h-369zM274 807q0 -26 13 -56t41 -69l186 -258q37 -50 67 -71t64 -21q40 0 67 25t27 61q0 24 -13 54t-42 71l-184 258q-37 50 -67 71 t-62 21q-40 0 -68.5 -25.5t-28.5 -60.5z" />
<glyph unicode="&#xa8;" horiz-adv-x="1024" d="M287 1137l47 229h205l-47 -229h-205zM625 1137l47 229h205l-48 -229h-204z" />
<glyph unicode="&#xa9;" horiz-adv-x="1706" d="M113 731q0 145 57 280.5t164 243.5q105 107 235.5 161t282.5 54t286 -55t240 -162q105 -105 160 -238.5t55 -283.5q0 -153 -54.5 -286t-158.5 -234q-108 -107 -244.5 -164t-283.5 -57q-146 0 -280 56.5t-240 162.5q-107 106 -163 240.5t-56 281.5zM223 731 q0 -126 48 -240t139 -204q90 -91 204.5 -139t239.5 -48t240 48.5t209 140.5q89 88 135.5 200.5t46.5 241.5t-47 243.5t-135 203.5q-91 90 -205 137t-244 47t-243 -46.5t-201 -135.5q-90 -92 -138.5 -208t-48.5 -241zM457 725q0 208 109.5 331.5t291.5 123.5q147 0 243 -77 t105 -200h-166q-10 74 -60 114t-130 40q-99 0 -155 -86.5t-56 -239.5q0 -152 57.5 -234.5t163.5 -82.5q80 0 129 43.5t60 124.5h165q-7 -135 -106.5 -217t-253.5 -82q-183 0 -290 119t-107 323z" />
<glyph unicode="&#xaa;" horiz-adv-x="950" d="M0 1106q0 162 117 273.5t293 111.5q74 0 134.5 -25.5t98.5 -72.5l16 82h271l-27 -140h-94l-76 -391h101l-25 -137h-281l15 55q-50 -35 -105 -53t-114 -18q-142 0 -233 88.5t-91 226.5zM176 1106q0 -84 52.5 -134t140.5 -50q105 0 172 71t67 183q0 81 -54 133.5t-140 52.5 q-101 0 -169.5 -73.5t-68.5 -182.5z" />
<glyph unicode="&#xab;" d="M61 477l277 311h217l-283 -321l203 -303h-209zM473 477l277 311h217l-283 -321l203 -303h-209z" />
<glyph unicode="&#xac;" horiz-adv-x="1706" d="M254 696v166h1198v-502h-166v336h-1032z" />
<glyph unicode="&#xad;" horiz-adv-x="631" d="M-2 371l37 211h508l-37 -211h-508z" />
<glyph unicode="&#xae;" horiz-adv-x="1706" d="M113 731q0 147 57.5 284t165.5 245q104 104 234.5 157t281.5 53q153 0 288.5 -56t241.5 -165q103 -104 157 -236.5t54 -281.5q0 -153 -55.5 -287t-161.5 -237q-108 -105 -243 -161t-281 -56q-147 0 -282.5 57.5t-241.5 165.5q-105 106 -160 239t-55 279zM223 731 q0 -125 47 -238.5t136 -203.5q90 -91 204 -140t234 -49q130 0 246.5 47t209.5 138q89 86 137 198.5t48 237.5q0 133 -45.5 247.5t-134.5 205.5q-93 92 -207.5 140t-243.5 48t-240 -45.5t-200 -134.5q-92 -94 -141.5 -210t-49.5 -241zM551 330v829h319q173 0 262 -57t89 -168 q0 -91 -48 -150.5t-137 -78.5l185 -375h-199l-164 346h-129v-346h-178zM729 786h117q100 0 146 30.5t46 96.5q0 69 -48 101.5t-152 32.5h-109v-261z" />
<glyph unicode="&#xaf;" horiz-adv-x="1024" d="M289 1178l33 147h552l-32 -147h-553z" />
<glyph unicode="&#xb0;" horiz-adv-x="674" d="M43 1163q0 125 86 211t209 86q121 0 208 -87t87 -210q0 -121 -87 -208t-210 -87t-208 85.5t-85 209.5zM152 1165q0 -76 54.5 -131t131.5 -55t130.5 54.5t53.5 131.5t-53.5 131t-130.5 54t-131.5 -54t-54.5 -131z" />
<glyph unicode="&#xb1;" horiz-adv-x="1706" d="M254 14v168h1198v-168h-1198zM254 707v165h514v334h170v-334h514v-165h-514v-334h-170v334h-514z" />
<glyph unicode="&#xb2;" horiz-adv-x="713" d="M-25 575l35 134l332 295q103 91 136.5 136t33.5 83q0 49 -34.5 77.5t-92.5 28.5q-76 0 -116 -52t-40 -151h-155q6 164 85 246t230 82q127 0 204 -60.5t77 -160.5q0 -72 -43.5 -140t-143.5 -151l-286 -240h260l30 111h154l-53 -238h-613z" />
<glyph unicode="&#xb3;" horiz-adv-x="713" d="M23 807q0 17 3 55q0 4 1 6h153v-39q0 -76 34 -111.5t105 -35.5q72 0 112 40.5t40 113.5q0 64 -40.5 99.5t-121.5 41.5l19 94q7 -1 16 -1.5t25 -0.5q72 0 116.5 41.5t44.5 110.5q0 53 -30.5 82.5t-85.5 29.5q-66 0 -103.5 -34.5t-48.5 -104.5h-149q9 122 89.5 192 t211.5 70q128 0 203 -61.5t75 -165.5q0 -81 -38 -140.5t-107 -87.5q42 -35 64 -80t22 -96q0 -121 -86 -193.5t-234 -72.5q-140 0 -215 64.5t-75 183.5z" />
<glyph unicode="&#xb4;" horiz-adv-x="1024" d="M408 1087l219 349h213l-303 -349h-129z" />
<glyph unicode="&#xb5;" horiz-adv-x="1208" d="M-92 -430l297 1511h229l-125 -635q-6 -29 -9 -55t-3 -49q0 -96 46.5 -146.5t135.5 -50.5q122 0 193.5 88.5t111.5 292.5l109 555h225l-145 -739q-10 -49 -14.5 -81.5t-4.5 -51.5q0 -36 15.5 -51t52.5 -15q13 0 20.5 0.5t13.5 1.5l-32 -159q-32 -9 -68.5 -13t-81.5 -4 q-74 0 -111.5 31.5t-37.5 93.5v15q-41 -67 -108 -104.5t-146 -37.5q-81 0 -137.5 26t-97.5 83l-99 -506h-229z" />
<glyph unicode="&#xb6;" horiz-adv-x="1024" d="M55 1130q0 158 107 253.5t284 95.5h523v-99h-117v-1380h-129v1380h-168v-1380h-131v784q-168 6 -268.5 101t-100.5 245z" />
<glyph unicode="&#xb7;" horiz-adv-x="541" d="M86 719q0 78 52 129t130 51q77 0 131 -52.5t54 -127.5q0 -76 -54 -129t-131 -53q-79 0 -130.5 51.5t-51.5 130.5z" />
<glyph unicode="&#xb8;" horiz-adv-x="1024" d="M127 -426l43 111q66 -23 123 -35t100 -12q55 0 87 24t32 66q0 41 -36 58t-126 17h-39l68 197h90l-33 -94h8q112 0 170 -43.5t58 -126.5q0 -101 -66 -158t-184 -57q-55 0 -120.5 11.5t-174.5 41.5z" />
<glyph unicode="&#xb9;" horiz-adv-x="713" d="M94 575l21 111h112l125 641h-125l23 111h287l-148 -752h117l-23 -111h-389z" />
<glyph unicode="&#xba;" horiz-adv-x="862" d="M4 1124q0 155 117 261t291 106q166 0 272.5 -91t106.5 -233q0 -162 -115 -269t-289 -107q-169 0 -276 92.5t-107 240.5zM186 1122q0 -85 56.5 -138.5t146.5 -53.5q93 0 158 68.5t65 168.5q0 80 -55.5 133.5t-140.5 53.5q-97 0 -163.5 -67.5t-66.5 -164.5z" />
<glyph unicode="&#xbb;" d="M35 162l282 323l-202 303h209l204 -313l-276 -313h-217zM446 162l283 323l-205 303h211l205 -313l-276 -313h-218z" />
<glyph unicode="&#xbc;" horiz-adv-x="1704" d="M88 633l21 102h106l119 598h-119l21 105h274l-139 -703h110l-20 -102h-373zM340 -29l885 1493h139l-885 -1493h-139zM1030 190l23 117l409 498h176l-102 -516h113l-21 -99h-112l-17 -88h113l-21 -102h-381l21 102h123l18 88h-342zM1184 289h207l88 375z" />
<glyph unicode="&#xbd;" horiz-adv-x="1704" d="M88 633l21 102h106l119 598h-119l21 105h274l-139 -703h110l-20 -102h-373zM340 -29l885 1493h139l-885 -1493h-139zM1001 0l33 125l316 274q97 82 130 125t33 80q0 45 -32 71.5t-88 26.5q-73 0 -111.5 -47.5t-40.5 -140.5h-145q4 151 79 228t220 77q121 0 194.5 -56.5 t73.5 -148.5q0 -66 -41 -129.5t-137 -142.5l-273 -223h248l29 104h147l-51 -223h-584z" />
<glyph unicode="&#xbe;" horiz-adv-x="1704" d="M23 850q0 21 0.5 33t3.5 22h145v-37q0 -69 32.5 -102t100.5 -33q69 0 106.5 37t37.5 104q0 61 -38.5 94.5t-115.5 39.5l16 87q7 0 16 -0.5t23 -0.5q71 0 114.5 38.5t43.5 102.5q0 49 -29.5 76.5t-83.5 27.5q-62 0 -98 -32t-47 -97h-144q11 115 87.5 179.5t201.5 64.5 q123 0 195 -57t72 -154q0 -74 -37 -130t-103 -83q40 -32 61 -74t21 -90q0 -113 -82.5 -181.5t-222.5 -68.5q-133 0 -204.5 60.5t-71.5 173.5zM340 -29l885 1493h139l-885 -1493h-139zM1030 190l23 117l409 498h176l-102 -516h113l-21 -99h-112l-17 -88h113l-21 -102h-381 l21 102h123l18 88h-342zM1184 289h207l88 375z" />
<glyph unicode="&#xbf;" horiz-adv-x="1075" d="M119 383q0 161 101 270t259 119l43 223h240l-82 -397q-18 2 -62 2q-131 0 -198.5 -56.5t-67.5 -166.5q0 -88 54 -143.5t141 -55.5q97 0 149 60t56 176h217q-8 -209 -121.5 -324t-312.5 -115q-183 0 -299.5 114t-116.5 294zM487 1321q0 76 53.5 129t129.5 53 q79 0 130.5 -51.5t51.5 -130.5q0 -78 -52 -129t-130 -51q-77 0 -130 52t-53 128z" />
<glyph unicode="&#xc0;" horiz-adv-x="1507" d="M-90 0l37 201h119l557 1073h-164l35 201h729l-35 -201h-137l209 -1073h135l-35 -201h-547l35 201h160l-47 293h-496l-146 -293h152l-35 -201h-526zM561 686h365l-103 524zM609 1962h213l206 -349h-116z" />
<glyph unicode="&#xc1;" horiz-adv-x="1507" d="M-90 0l37 201h119l557 1073h-164l35 201h729l-35 -201h-137l209 -1073h135l-35 -201h-547l35 201h160l-47 293h-496l-146 -293h152l-35 -201h-526zM561 686h365l-103 524zM738 1613l219 349h213l-303 -349h-129z" />
<glyph unicode="&#xc2;" horiz-adv-x="1507" d="M-90 0l37 201h119l557 1073h-164l35 201h729l-35 -201h-137l209 -1073h135l-35 -201h-547l35 201h160l-47 293h-496l-146 -293h152l-35 -201h-526zM561 686h365l-103 524zM574 1613l254 349h213l127 -349h-117l-129 201l-219 -201h-129z" />
<glyph unicode="&#xc3;" horiz-adv-x="1507" d="M-90 0l37 201h119l557 1073h-164l35 201h729l-35 -201h-137l209 -1073h135l-35 -201h-547l35 201h160l-47 293h-496l-146 -293h152l-35 -201h-526zM561 686h365l-103 524zM611 1654q29 112 80.5 165t130.5 53q18 0 39.5 -3.5t43.5 -9.5l58 -18q15 -5 28.5 -7.5t24.5 -2.5 q33 0 55.5 19t34.5 56h109q-30 -109 -81 -161t-130 -52q-20 0 -40 3.5t-40 9.5l-57 18q-18 5 -33.5 7.5t-26.5 2.5q-32 0 -55 -20t-35 -60h-106z" />
<glyph unicode="&#xc4;" horiz-adv-x="1507" d="M-90 0l37 201h119l557 1073h-164l35 201h729l-35 -201h-137l209 -1073h135l-35 -201h-547l35 201h160l-47 293h-496l-146 -293h152l-35 -201h-526zM561 686h365l-103 524zM617 1663l47 229h205l-47 -229h-205zM955 1663l47 229h205l-48 -229h-204z" />
<glyph unicode="&#xc5;" horiz-adv-x="1507" d="M-90 0l37 201h119l557 1073h-164l35 201h729l-35 -201h-137l209 -1073h135l-35 -201h-547l35 201h160l-47 293h-496l-146 -293h152l-35 -201h-526zM561 686h365l-103 524zM649 1751q0 93 64 157t155 64q92 0 157 -64.5t65 -156.5q0 -90 -65.5 -154.5t-156.5 -64.5 q-92 0 -155.5 63.5t-63.5 155.5zM776 1751q0 -38 28 -65t66 -27q39 0 66 27t27 65q0 39 -27.5 66.5t-65.5 27.5t-66 -28t-28 -66z" />
<glyph unicode="&#xc6;" horiz-adv-x="1987" d="M-127 0l37 201h113l729 1073h-230l35 201h1452l-49 -390h-217l22 189h-407l-66 -369h348l-34 -227h-357l-80 -477h453l41 225h215l-76 -426h-1091l37 201h155l53 293h-464l-197 -293h164l-37 -201h-549zM627 686h364l111 588h-74z" />
<glyph unicode="&#xc7;" horiz-adv-x="1511" d="M55 664q0 367 237.5 604t600.5 237q165 0 281.5 -47.5t189.5 -144.5l27 162h206l-90 -506h-207q-30 149 -132.5 222t-280.5 73q-239 0 -400 -166t-161 -408q0 -215 131.5 -346t347.5 -131q139 0 239.5 55t151.5 158l229 -100q-105 -176 -263.5 -265.5t-364.5 -89.5 q-331 0 -536.5 193.5t-205.5 499.5zM477 -426l43 111q66 -23 123 -35t100 -12q55 0 87 24t32 66q0 41 -36 58t-126 17h-39l68 197h90l-33 -94h8q112 0 170 -43.5t58 -126.5q0 -101 -66 -158t-184 -57q-55 0 -120.5 11.5t-174.5 41.5z" />
<glyph unicode="&#xc8;" horiz-adv-x="1200" d="M-76 0l37 201h156l188 1073h-158l37 201h1039l-49 -390h-220l25 189h-410l-63 -369h348l-35 -227h-356l-82 -477h448l41 225h222l-78 -426h-1090zM476 1962h213l206 -349h-116z" />
<glyph unicode="&#xc9;" horiz-adv-x="1200" d="M-76 0l37 201h156l188 1073h-158l37 201h1039l-49 -390h-220l25 189h-410l-63 -369h348l-35 -227h-356l-82 -477h448l41 225h222l-78 -426h-1090zM605 1613l219 349h213l-303 -349h-129z" />
<glyph unicode="&#xca;" horiz-adv-x="1200" d="M-76 0l37 201h156l188 1073h-158l37 201h1039l-49 -390h-220l25 189h-410l-63 -369h348l-35 -227h-356l-82 -477h448l41 225h222l-78 -426h-1090zM441 1613l254 349h213l127 -349h-117l-129 201l-219 -201h-129z" />
<glyph unicode="&#xcb;" horiz-adv-x="1200" d="M-76 0l37 201h156l188 1073h-158l37 201h1039l-49 -390h-220l25 189h-410l-63 -369h348l-35 -227h-356l-82 -477h448l41 225h222l-78 -426h-1090zM484 1663l47 229h205l-47 -229h-205zM822 1663l47 229h205l-48 -229h-204z" />
<glyph unicode="&#xcc;" horiz-adv-x="692" d="M-76 0l37 201h156l188 1073h-158l37 201h578l-35 -201h-158l-188 -1073h158l-37 -201h-578zM222 1962h213l206 -349h-116z" />
<glyph unicode="&#xcd;" horiz-adv-x="692" d="M-76 0l37 201h156l188 1073h-158l37 201h578l-35 -201h-158l-188 -1073h158l-37 -201h-578zM351 1613l219 349h213l-303 -349h-129z" />
<glyph unicode="&#xce;" horiz-adv-x="692" d="M-76 0l37 201h156l188 1073h-158l37 201h578l-35 -201h-158l-188 -1073h158l-37 -201h-578zM187 1613l254 349h213l127 -349h-117l-129 201l-219 -201h-129z" />
<glyph unicode="&#xcf;" horiz-adv-x="692" d="M-76 0l37 201h156l188 1073h-158l37 201h578l-35 -201h-158l-188 -1073h158l-37 -201h-578zM230 1663l47 229h205l-47 -229h-205zM568 1663l47 229h205l-48 -229h-204z" />
<glyph unicode="&#xd0;" horiz-adv-x="1546" d="M-68 0l35 201h156l86 487h-207l35 199h207l67 387h-155l34 201h555q185 0 299.5 -24.5t196.5 -78.5q122 -78 186 -215t64 -319q0 -181 -59.5 -344t-167.5 -281q-106 -115 -256.5 -164t-429.5 -49h-646zM389 201h164q152 0 239 16t156 53q125 68 202 224t77 346 q0 219 -120.5 326.5t-365.5 107.5h-163l-70 -387h356l-35 -199h-358z" />
<glyph unicode="&#xd1;" horiz-adv-x="1493" d="M-76 0l37 201h156l188 1073h-158l37 201h465l352 -986l138 785h-156l35 201h551l-37 -201h-156l-229 -1303h-219l-412 1153l-164 -923h158l-37 -201h-549zM623 1654q29 112 80.5 165t130.5 53q18 0 39.5 -3.5t43.5 -9.5l58 -18q15 -5 28.5 -7.5t24.5 -2.5q33 0 55.5 19 t34.5 56h109q-30 -109 -81 -161t-130 -52q-20 0 -40 3.5t-40 9.5l-57 18q-18 5 -33.5 7.5t-26.5 2.5q-32 0 -55 -20t-35 -60h-106z" />
<glyph unicode="&#xd2;" horiz-adv-x="1667" d="M55 664q0 198 71 361t208 280q113 97 251.5 147.5t293.5 50.5q326 0 528.5 -191.5t202.5 -498.5q0 -364 -234 -603t-585 -239q-326 0 -531 194.5t-205 498.5zM326 690q0 -209 128.5 -342t325.5 -133q241 0 402 164.5t161 408.5q0 209 -131 342.5t-335 133.5 q-230 0 -390.5 -167.5t-160.5 -406.5zM662 1962h213l206 -349h-116z" />
<glyph unicode="&#xd3;" horiz-adv-x="1667" d="M55 664q0 198 71 361t208 280q113 97 251.5 147.5t293.5 50.5q326 0 528.5 -191.5t202.5 -498.5q0 -364 -234 -603t-585 -239q-326 0 -531 194.5t-205 498.5zM326 690q0 -209 128.5 -342t325.5 -133q241 0 402 164.5t161 408.5q0 209 -131 342.5t-335 133.5 q-230 0 -390.5 -167.5t-160.5 -406.5zM791 1613l219 349h213l-303 -349h-129z" />
<glyph unicode="&#xd4;" horiz-adv-x="1667" d="M55 664q0 198 71 361t208 280q113 97 251.5 147.5t293.5 50.5q326 0 528.5 -191.5t202.5 -498.5q0 -364 -234 -603t-585 -239q-326 0 -531 194.5t-205 498.5zM326 690q0 -209 128.5 -342t325.5 -133q241 0 402 164.5t161 408.5q0 209 -131 342.5t-335 133.5 q-230 0 -390.5 -167.5t-160.5 -406.5zM627 1613l254 349h213l127 -349h-117l-129 201l-219 -201h-129z" />
<glyph unicode="&#xd5;" horiz-adv-x="1667" d="M55 664q0 198 71 361t208 280q113 97 251.5 147.5t293.5 50.5q326 0 528.5 -191.5t202.5 -498.5q0 -364 -234 -603t-585 -239q-326 0 -531 194.5t-205 498.5zM326 690q0 -209 128.5 -342t325.5 -133q241 0 402 164.5t161 408.5q0 209 -131 342.5t-335 133.5 q-230 0 -390.5 -167.5t-160.5 -406.5zM664 1654q29 112 80.5 165t130.5 53q18 0 39.5 -3.5t43.5 -9.5l58 -18q15 -5 28.5 -7.5t24.5 -2.5q33 0 55.5 19t34.5 56h109q-30 -109 -81 -161t-130 -52q-20 0 -40 3.5t-40 9.5l-57 18q-18 5 -33.5 7.5t-26.5 2.5q-32 0 -55 -20 t-35 -60h-106z" />
<glyph unicode="&#xd6;" horiz-adv-x="1667" d="M55 664q0 198 71 361t208 280q113 97 251.5 147.5t293.5 50.5q326 0 528.5 -191.5t202.5 -498.5q0 -364 -234 -603t-585 -239q-326 0 -531 194.5t-205 498.5zM326 690q0 -209 128.5 -342t325.5 -133q241 0 402 164.5t161 408.5q0 209 -131 342.5t-335 133.5 q-230 0 -390.5 -167.5t-160.5 -406.5zM670 1663l47 229h205l-47 -229h-205zM1008 1663l47 229h205l-48 -229h-204z" />
<glyph unicode="&#xd7;" horiz-adv-x="1706" d="M287 152l458 458l-458 461l116 117l459 -459l461 459l117 -117l-459 -461l459 -458l-117 -119l-461 461l-459 -461z" />
<glyph unicode="&#xd8;" horiz-adv-x="1667" d="M55 664q0 363 236 601t590 238q112 0 211 -23.5t184 -70.5l125 156h186l-192 -242q107 -99 161 -227.5t54 -284.5q0 -365 -234 -602.5t-590 -237.5q-115 0 -215.5 25.5t-187.5 77.5l-135 -168h-187l207 254q-105 100 -159 228t-54 276zM326 686q0 -87 26.5 -165.5 t81.5 -153.5l676 837q-49 30 -107 45t-126 15q-230 0 -390.5 -168t-160.5 -410zM547 274q56 -31 116 -46t128 -15q234 0 393 166.5t159 408.5q0 100 -29 181t-89 145z" />
<glyph unicode="&#xd9;" horiz-adv-x="1417" d="M139 1274l35 201h580l-37 -201h-156l-131 -727q-9 -44 -13.5 -81.5t-4.5 -55.5q0 -93 57.5 -148t155.5 -55q123 0 205.5 89t109.5 251l123 727h-133l37 201h530l-35 -201h-133l-125 -723q-49 -285 -202.5 -432.5t-401.5 -147.5q-204 0 -327 117.5t-123 312.5 q0 36 3.5 74.5t10.5 77.5l131 721h-156zM598 1962h213l206 -349h-116z" />
<glyph unicode="&#xda;" horiz-adv-x="1417" d="M139 1274l35 201h580l-37 -201h-156l-131 -727q-9 -44 -13.5 -81.5t-4.5 -55.5q0 -93 57.5 -148t155.5 -55q123 0 205.5 89t109.5 251l123 727h-133l37 201h530l-35 -201h-133l-125 -723q-49 -285 -202.5 -432.5t-401.5 -147.5q-204 0 -327 117.5t-123 312.5 q0 36 3.5 74.5t10.5 77.5l131 721h-156zM727 1613l219 349h213l-303 -349h-129z" />
<glyph unicode="&#xdb;" horiz-adv-x="1417" d="M139 1274l35 201h580l-37 -201h-156l-131 -727q-9 -44 -13.5 -81.5t-4.5 -55.5q0 -93 57.5 -148t155.5 -55q123 0 205.5 89t109.5 251l123 727h-133l37 201h530l-35 -201h-133l-125 -723q-49 -285 -202.5 -432.5t-401.5 -147.5q-204 0 -327 117.5t-123 312.5 q0 36 3.5 74.5t10.5 77.5l131 721h-156zM563 1613l254 349h213l127 -349h-117l-129 201l-219 -201h-129z" />
<glyph unicode="&#xdc;" horiz-adv-x="1417" d="M139 1274l35 201h580l-37 -201h-156l-131 -727q-9 -44 -13.5 -81.5t-4.5 -55.5q0 -93 57.5 -148t155.5 -55q123 0 205.5 89t109.5 251l123 727h-133l37 201h530l-35 -201h-133l-125 -723q-49 -285 -202.5 -432.5t-401.5 -147.5q-204 0 -327 117.5t-123 312.5 q0 36 3.5 74.5t10.5 77.5l131 721h-156zM606 1663l47 229h205l-47 -229h-205zM944 1663l47 229h205l-48 -229h-204z" />
<glyph unicode="&#xdd;" horiz-adv-x="1323" d="M113 1274l37 201h530l-37 -201h-143l209 -391l335 391h-151l35 201h499l-34 -201h-95l-491 -574l-74 -499h189l-35 -201h-645l37 201h188l84 485l-318 588h-120zM666 1613l219 349h213l-303 -349h-129z" />
<glyph unicode="&#xde;" horiz-adv-x="1223" d="M-76 0l37 201h156l188 1073h-158l37 201h574l-37 -201h-156l-20 -121h121q228 0 368 -106.5t140 -276.5q0 -102 -54.5 -196.5t-150.5 -157.5q-77 -52 -170.5 -74.5t-257.5 -22.5h-142l-18 -118h166l-35 -201h-588zM426 500h96q182 0 282.5 68.5t100.5 191.5 q0 105 -85 160t-249 55q-23 0 -35.5 -0.5t-22.5 -1.5z" />
<glyph unicode="&#xdf;" horiz-adv-x="1180" d="M-76 0l35 197h109l151 856q40 229 153.5 334.5t319.5 105.5q171 0 275 -99t104 -261q0 -134 -76.5 -229t-203.5 -120q129 -30 197.5 -122t68.5 -234q0 -207 -109 -330t-295 -123q-36 0 -72 6.5t-73 18.5l33 197q26 -9 49 -13t43 -4q87 0 138.5 79t51.5 212 q0 107 -64.5 170.5t-172.5 63.5h-15l33 176h12h15q90 0 154.5 75t64.5 187q0 77 -45.5 119.5t-128.5 42.5q-95 0 -147 -65t-78 -218l-146 -825h105l-35 -197h-451z" />
<glyph unicode="&#xe0;" horiz-adv-x="1266" d="M0 428q0 231 156.5 390t388.5 159q100 0 180.5 -36.5t132.5 -104.5l21 116h360l-35 -196h-127l-100 -559h135l-35 -197h-372l18 78q-67 -50 -140.5 -75.5t-152.5 -25.5q-188 0 -309 126.5t-121 324.5zM236 428q0 -121 69 -192.5t187 -71.5q140 0 229.5 101.5t89.5 260.5 q0 116 -73 191.5t-187 75.5q-134 0 -224.5 -104.5t-90.5 -260.5zM447 1436h213l206 -349h-116z" />
<glyph unicode="&#xe1;" horiz-adv-x="1266" d="M0 428q0 231 156.5 390t388.5 159q100 0 180.5 -36.5t132.5 -104.5l21 116h360l-35 -196h-127l-100 -559h135l-35 -197h-372l18 78q-67 -50 -140.5 -75.5t-152.5 -25.5q-188 0 -309 126.5t-121 324.5zM236 428q0 -121 69 -192.5t187 -71.5q140 0 229.5 101.5t89.5 260.5 q0 116 -73 191.5t-187 75.5q-134 0 -224.5 -104.5t-90.5 -260.5zM576 1087l219 349h213l-303 -349h-129z" />
<glyph unicode="&#xe2;" horiz-adv-x="1266" d="M0 428q0 231 156.5 390t388.5 159q100 0 180.5 -36.5t132.5 -104.5l21 116h360l-35 -196h-127l-100 -559h135l-35 -197h-372l18 78q-67 -50 -140.5 -75.5t-152.5 -25.5q-188 0 -309 126.5t-121 324.5zM236 428q0 -121 69 -192.5t187 -71.5q140 0 229.5 101.5t89.5 260.5 q0 116 -73 191.5t-187 75.5q-134 0 -224.5 -104.5t-90.5 -260.5zM412 1087l254 349h213l127 -349h-117l-129 201l-219 -201h-129z" />
<glyph unicode="&#xe3;" horiz-adv-x="1266" d="M0 428q0 231 156.5 390t388.5 159q100 0 180.5 -36.5t132.5 -104.5l21 116h360l-35 -196h-127l-100 -559h135l-35 -197h-372l18 78q-67 -50 -140.5 -75.5t-152.5 -25.5q-188 0 -309 126.5t-121 324.5zM236 428q0 -121 69 -192.5t187 -71.5q140 0 229.5 101.5t89.5 260.5 q0 116 -73 191.5t-187 75.5q-134 0 -224.5 -104.5t-90.5 -260.5zM449 1128q29 112 80.5 165t130.5 53q18 0 39.5 -3.5t43.5 -9.5l58 -18q15 -5 28.5 -7.5t24.5 -2.5q33 0 55.5 19t34.5 56h109q-30 -109 -81 -161t-130 -52q-20 0 -40 3.5t-40 9.5l-57 18q-18 5 -33.5 7.5 t-26.5 2.5q-32 0 -55 -20t-35 -60h-106z" />
<glyph unicode="&#xe4;" horiz-adv-x="1266" d="M0 428q0 231 156.5 390t388.5 159q100 0 180.5 -36.5t132.5 -104.5l21 116h360l-35 -196h-127l-100 -559h135l-35 -197h-372l18 78q-67 -50 -140.5 -75.5t-152.5 -25.5q-188 0 -309 126.5t-121 324.5zM236 428q0 -121 69 -192.5t187 -71.5q140 0 229.5 101.5t89.5 260.5 q0 116 -73 191.5t-187 75.5q-134 0 -224.5 -104.5t-90.5 -260.5zM455 1137l47 229h205l-47 -229h-205zM793 1137l47 229h205l-48 -229h-204z" />
<glyph unicode="&#xe5;" horiz-adv-x="1266" d="M0 428q0 231 156.5 390t388.5 159q100 0 180.5 -36.5t132.5 -104.5l21 116h360l-35 -196h-127l-100 -559h135l-35 -197h-372l18 78q-67 -50 -140.5 -75.5t-152.5 -25.5q-188 0 -309 126.5t-121 324.5zM236 428q0 -121 69 -192.5t187 -71.5q140 0 229.5 101.5t89.5 260.5 q0 116 -73 191.5t-187 75.5q-134 0 -224.5 -104.5t-90.5 -260.5zM410 1253q0 93 63.5 156.5t155.5 63.5q91 0 156 -64t65 -156q0 -90 -65.5 -155.5t-155.5 -65.5q-92 0 -155.5 64.5t-63.5 156.5zM537 1253q0 -38 26.5 -65t65.5 -27q38 0 66 27t28 65t-28 65.5t-66 27.5 q-39 0 -65.5 -27t-26.5 -66z" />
<glyph unicode="&#xe6;" horiz-adv-x="1778" d="M-27 285q0 141 111.5 231t286.5 90q93 0 168.5 -24t132.5 -72q4 22 6 45t2 47q0 100 -49.5 146.5t-157.5 46.5q-59 0 -131 -12.5t-156 -37.5l-59 168q88 33 173 48.5t175 15.5q136 0 227.5 -38t137.5 -114q75 77 166.5 114.5t205.5 37.5q206 0 336.5 -118t130.5 -300 q0 -32 -4.5 -66t-13.5 -71h-788q4 -119 76 -185.5t196 -66.5q86 0 161 33t134 96l164 -98q-81 -113 -200 -169.5t-274 -56.5q-124 0 -218.5 38t-170.5 118q-62 -76 -157 -116t-215 -40q-180 0 -288 85t-108 225zM195 281q0 -61 53 -94t151 -33q101 0 166.5 41t65.5 104 q0 64 -54.5 101.5t-148.5 37.5q-104 0 -168.5 -44t-64.5 -113zM897 578h557q-5 96 -70 150t-176 54q-112 0 -196.5 -55.5t-114.5 -148.5z" />
<glyph unicode="&#xe7;" horiz-adv-x="1075" d="M6 455q0 221 148.5 371.5t363.5 150.5q98 0 174.5 -34t120.5 -97l12 106h181l-56 -344h-164q-25 82 -90.5 127t-156.5 45q-124 0 -207.5 -90.5t-83.5 -222.5q0 -131 72.5 -209t195.5 -78q72 0 139.5 30t137.5 93l118 -162q-92 -83 -195 -124.5t-218 -41.5 q-213 0 -352.5 135.5t-139.5 344.5zM193 -426l43 111q66 -23 123 -35t100 -12q55 0 87 24t32 66q0 41 -36 58t-126 17h-39l68 197h90l-33 -94h8q112 0 170 -43.5t58 -126.5q0 -101 -66 -158t-184 -57q-55 0 -120.5 11.5t-174.5 41.5z" />
<glyph unicode="&#xe8;" horiz-adv-x="1147" d="M6 430q0 233 163 390t409 157q211 0 343 -117t132 -301q0 -28 -5 -61t-16 -76h-786q5 -120 76 -186t194 -66q86 0 162.5 33t134.5 96l164 -98q-80 -112 -199 -169t-274 -57q-223 0 -360.5 126.5t-137.5 328.5zM270 578h557q-5 96 -70.5 150t-176.5 54 q-113 0 -196.5 -55.5t-113.5 -148.5zM355 1436h213l206 -349h-116z" />
<glyph unicode="&#xe9;" horiz-adv-x="1147" d="M6 430q0 233 163 390t409 157q211 0 343 -117t132 -301q0 -28 -5 -61t-16 -76h-786q5 -120 76 -186t194 -66q86 0 162.5 33t134.5 96l164 -98q-80 -112 -199 -169t-274 -57q-223 0 -360.5 126.5t-137.5 328.5zM270 578h557q-5 96 -70.5 150t-176.5 54 q-113 0 -196.5 -55.5t-113.5 -148.5zM484 1087l219 349h213l-303 -349h-129z" />
<glyph unicode="&#xea;" horiz-adv-x="1147" d="M6 430q0 233 163 390t409 157q211 0 343 -117t132 -301q0 -28 -5 -61t-16 -76h-786q5 -120 76 -186t194 -66q86 0 162.5 33t134.5 96l164 -98q-80 -112 -199 -169t-274 -57q-223 0 -360.5 126.5t-137.5 328.5zM270 578h557q-5 96 -70.5 150t-176.5 54 q-113 0 -196.5 -55.5t-113.5 -148.5zM320 1087l254 349h213l127 -349h-117l-129 201l-219 -201h-129z" />
<glyph unicode="&#xeb;" horiz-adv-x="1147" d="M6 430q0 233 163 390t409 157q211 0 343 -117t132 -301q0 -28 -5 -61t-16 -76h-786q5 -120 76 -186t194 -66q86 0 162.5 33t134.5 96l164 -98q-80 -112 -199 -169t-274 -57q-223 0 -360.5 126.5t-137.5 328.5zM270 578h557q-5 96 -70.5 150t-176.5 54 q-113 0 -196.5 -55.5t-113.5 -148.5zM363 1137l47 229h205l-47 -229h-205zM701 1137l47 229h205l-48 -229h-204z" />
<glyph unicode="&#xec;" horiz-adv-x="602" d="M-68 0l35 197h131l101 559h-133l34 196h369l-133 -755h133l-35 -197h-502zM68 1436h213l206 -349h-116z" />
<glyph unicode="&#xed;" horiz-adv-x="602" d="M-68 0l35 197h131l101 559h-133l34 196h369l-133 -755h133l-35 -197h-502zM197 1087l219 349h213l-303 -349h-129z" />
<glyph unicode="&#xee;" horiz-adv-x="602" d="M-68 0l35 197h131l101 559h-133l34 196h369l-133 -755h133l-35 -197h-502zM33 1087l254 349h213l127 -349h-117l-129 201l-219 -201h-129z" />
<glyph unicode="&#xef;" horiz-adv-x="602" d="M-68 0l35 197h131l101 559h-133l34 196h369l-133 -755h133l-35 -197h-502zM76 1137l47 229h205l-47 -229h-205zM414 1137l47 229h205l-48 -229h-204z" />
<glyph unicode="&#xf0;" horiz-adv-x="1151" d="M6 426q0 231 156 385t387 154q29 0 56.5 -3.5t53.5 -9.5l-106 178l-305 -63l-37 147l262 48l-121 213h219l109 -175l254 46l39 -142l-209 -39l168 -280q64 -108 92.5 -197.5t28.5 -181.5q0 -227 -158.5 -378t-398.5 -151q-219 0 -354.5 125.5t-135.5 323.5zM248 451 q0 -122 75 -199.5t193 -77.5q125 0 212 98t87 242q0 115 -73.5 191.5t-186.5 76.5q-130 0 -218.5 -96t-88.5 -235z" />
<glyph unicode="&#xf1;" horiz-adv-x="1237" d="M-68 0l35 197h131l101 559h-133l34 196h369l-20 -110q87 66 179 100.5t183 34.5q120 0 188 -60.5t68 -166.5q0 -17 -3 -43t-9 -64l-80 -446h133l-35 -197h-502l35 197h133l74 424q3 16 4.5 30.5t1.5 26.5q0 46 -29.5 70t-84.5 24q-64 0 -137 -33.5t-156 -101.5l-76 -440 h133l-35 -197h-502zM387 1128q29 112 80.5 165t130.5 53q18 0 39.5 -3.5t43.5 -9.5l58 -18q15 -5 28.5 -7.5t24.5 -2.5q33 0 55.5 19t34.5 56h109q-30 -109 -81 -161t-130 -52q-20 0 -40 3.5t-40 9.5l-57 18q-18 5 -33.5 7.5t-26.5 2.5q-32 0 -55 -20t-35 -60h-106z" />
<glyph unicode="&#xf2;" horiz-adv-x="1149" d="M6 455q0 221 155.5 371.5t387.5 150.5q221 0 363.5 -130t142.5 -331q0 -232 -153.5 -385.5t-385.5 -153.5q-225 0 -367.5 133t-142.5 345zM248 451q0 -122 75.5 -199.5t194.5 -77.5q125 0 211 98t86 242q0 114 -74 191t-186 77q-129 0 -218 -96.5t-89 -234.5zM347 1436 h213l206 -349h-116z" />
<glyph unicode="&#xf3;" horiz-adv-x="1149" d="M6 455q0 221 155.5 371.5t387.5 150.5q221 0 363.5 -130t142.5 -331q0 -232 -153.5 -385.5t-385.5 -153.5q-225 0 -367.5 133t-142.5 345zM248 451q0 -122 75.5 -199.5t194.5 -77.5q125 0 211 98t86 242q0 114 -74 191t-186 77q-129 0 -218 -96.5t-89 -234.5zM476 1087 l219 349h213l-303 -349h-129z" />
<glyph unicode="&#xf4;" horiz-adv-x="1149" d="M6 455q0 221 155.5 371.5t387.5 150.5q221 0 363.5 -130t142.5 -331q0 -232 -153.5 -385.5t-385.5 -153.5q-225 0 -367.5 133t-142.5 345zM248 451q0 -122 75.5 -199.5t194.5 -77.5q125 0 211 98t86 242q0 114 -74 191t-186 77q-129 0 -218 -96.5t-89 -234.5zM312 1087 l254 349h213l127 -349h-117l-129 201l-219 -201h-129z" />
<glyph unicode="&#xf5;" horiz-adv-x="1149" d="M6 455q0 221 155.5 371.5t387.5 150.5q221 0 363.5 -130t142.5 -331q0 -232 -153.5 -385.5t-385.5 -153.5q-225 0 -367.5 133t-142.5 345zM248 451q0 -122 75.5 -199.5t194.5 -77.5q125 0 211 98t86 242q0 114 -74 191t-186 77q-129 0 -218 -96.5t-89 -234.5zM349 1128 q29 112 80.5 165t130.5 53q18 0 39.5 -3.5t43.5 -9.5l58 -18q15 -5 28.5 -7.5t24.5 -2.5q33 0 55.5 19t34.5 56h109q-30 -109 -81 -161t-130 -52q-20 0 -40 3.5t-40 9.5l-57 18q-18 5 -33.5 7.5t-26.5 2.5q-32 0 -55 -20t-35 -60h-106z" />
<glyph unicode="&#xf6;" horiz-adv-x="1149" d="M6 455q0 221 155.5 371.5t387.5 150.5q221 0 363.5 -130t142.5 -331q0 -232 -153.5 -385.5t-385.5 -153.5q-225 0 -367.5 133t-142.5 345zM248 451q0 -122 75.5 -199.5t194.5 -77.5q125 0 211 98t86 242q0 114 -74 191t-186 77q-129 0 -218 -96.5t-89 -234.5zM355 1137 l47 229h205l-47 -229h-205zM693 1137l47 229h205l-48 -229h-204z" />
<glyph unicode="&#xf7;" horiz-adv-x="1706" d="M254 528v166h1198v-166h-1198zM717 229q0 57 40.5 97.5t96.5 40.5q57 0 97 -40.5t40 -97.5q0 -56 -39.5 -95.5t-97.5 -39.5t-97.5 39t-39.5 96zM717 989q0 57 40.5 98t96.5 41q57 0 97 -41t40 -98q0 -56 -39.5 -95.5t-97.5 -39.5t-97.5 39t-39.5 96z" />
<glyph unicode="&#xf8;" horiz-adv-x="1149" d="M-43 -147l199 247q-77 72 -113.5 158.5t-36.5 196.5q0 221 156 371.5t389 150.5q73 0 138.5 -15.5t121.5 -46.5l150 187h145l-199 -250q74 -69 111 -153.5t37 -184.5q0 -229 -153 -383t-382 -154q-74 0 -141 15.5t-125 46.5l-150 -186h-147zM248 451q0 -48 13 -91t40 -86 l381 476q-31 16 -61 24t-64 8q-130 0 -219.5 -97t-89.5 -234zM383 207q39 -17 71 -25t62 -8q126 0 212.5 98t86.5 242q0 42 -13.5 83.5t-39.5 82.5z" />
<glyph unicode="&#xf9;" horiz-adv-x="1217" d="M39 756l35 196h375l-115 -620q-2 -9 -3 -21t-1 -37q0 -46 28.5 -70t83.5 -24q116 0 206 64t106 162l59 350h-133l35 196h368l-133 -755h133l-34 -197h-371l20 111q-87 -67 -179.5 -101.5t-182.5 -34.5q-121 0 -188.5 60.5t-67.5 167.5q0 16 3 42.5t9 63.5l80 447h-133z M347 1436h213l206 -349h-116z" />
<glyph unicode="&#xfa;" horiz-adv-x="1217" d="M39 756l35 196h375l-115 -620q-2 -9 -3 -21t-1 -37q0 -46 28.5 -70t83.5 -24q116 0 206 64t106 162l59 350h-133l35 196h368l-133 -755h133l-34 -197h-371l20 111q-87 -67 -179.5 -101.5t-182.5 -34.5q-121 0 -188.5 60.5t-67.5 167.5q0 16 3 42.5t9 63.5l80 447h-133z M476 1087l219 349h213l-303 -349h-129z" />
<glyph unicode="&#xfb;" horiz-adv-x="1217" d="M39 756l35 196h375l-115 -620q-2 -9 -3 -21t-1 -37q0 -46 28.5 -70t83.5 -24q116 0 206 64t106 162l59 350h-133l35 196h368l-133 -755h133l-34 -197h-371l20 111q-87 -67 -179.5 -101.5t-182.5 -34.5q-121 0 -188.5 60.5t-67.5 167.5q0 16 3 42.5t9 63.5l80 447h-133z M312 1087l254 349h213l127 -349h-117l-129 201l-219 -201h-129z" />
<glyph unicode="&#xfc;" horiz-adv-x="1217" d="M39 756l35 196h375l-115 -620q-2 -9 -3 -21t-1 -37q0 -46 28.5 -70t83.5 -24q116 0 206 64t106 162l59 350h-133l35 196h368l-133 -755h133l-34 -197h-371l20 111q-87 -67 -179.5 -101.5t-182.5 -34.5q-121 0 -188.5 60.5t-67.5 167.5q0 16 3 42.5t9 63.5l80 447h-133z M355 1137l47 229h205l-47 -229h-205zM693 1137l47 229h205l-48 -229h-204z" />
<glyph unicode="&#xfd;" horiz-adv-x="1057" d="M-72 -426l33 197h133l187 305l-195 680h-111l35 196h461l-35 -196h-123l123 -439l260 439h-125l35 196h447l-35 -196h-94l-596 -985h159l-36 -197h-523zM424 1087l219 349h213l-303 -349h-129z" />
<glyph unicode="&#xfe;" horiz-adv-x="1266" d="M-139 -426l35 197h129l264 1507h-135l32 197h373l-106 -601q66 50 139 74.5t153 24.5q189 0 309 -125t120 -324q0 -230 -148 -389.5t-364 -159.5q-107 0 -193 41.5t-143 120.5l-64 -366h139l-34 -197h-506zM365 426q0 -117 75.5 -191.5t192.5 -74.5q131 0 218 104.5 t87 261.5q0 120 -68.5 191t-183.5 71q-142 0 -231.5 -101.5t-89.5 -260.5z" />
<glyph unicode="&#xff;" horiz-adv-x="1057" d="M-72 -426l33 197h133l187 305l-195 680h-111l35 196h461l-35 -196h-123l123 -439l260 439h-125l35 196h447l-35 -196h-94l-596 -985h159l-36 -197h-523zM303 1137l47 229h205l-47 -229h-205zM641 1137l47 229h205l-48 -229h-204z" />
<glyph unicode="&#x152;" horiz-adv-x="1999" d="M53 631q0 263 110 463t310 301q82 41 198.5 60.5t293.5 19.5h272h782l-49 -390h-217l23 189h-408l-63 -369h346l-33 -227h-356l-82 -477h448l41 225h219l-76 -426h-813q-342 0 -468 21t-207 71q-126 77 -198.5 221t-72.5 318zM315 651q0 -209 100.5 -327.5t274.5 -118.5 q131 0 185.5 51.5t89.5 247.5l75 423q1 6 4 19q25 132 25 191q0 83 -48 119t-159 36q-250 0 -398.5 -175t-148.5 -466z" />
<glyph unicode="&#x153;" horiz-adv-x="1935" d="M6 455q0 221 156 371.5t389 150.5q129 0 224 -46t167 -143q79 97 183 143t239 46q213 0 345 -117t132 -301q0 -28 -5 -61t-15 -76h-786q4 -119 75 -185.5t195 -66.5q86 0 162 33t135 96l163 -98q-81 -113 -200.5 -169.5t-280.5 -56.5q-132 0 -223.5 40.5t-157.5 127.5 q-83 -84 -177 -125t-208 -41q-230 0 -371 132t-141 346zM248 451q0 -122 75.5 -199.5t194.5 -77.5q121 0 209 95.5t88 230.5q0 126 -72 204t-188 78q-129 0 -218 -96.5t-89 -234.5zM1059 578h557q-5 95 -71 149.5t-177 54.5q-112 0 -196 -55.5t-113 -148.5z" />
<glyph unicode="&#x178;" horiz-adv-x="1323" d="M113 1274l37 201h530l-37 -201h-143l209 -391l335 391h-151l35 201h499l-34 -201h-95l-491 -574l-74 -499h189l-35 -201h-645l37 201h188l84 485l-318 588h-120zM545 1663l47 229h205l-47 -229h-205zM883 1663l47 229h205l-48 -229h-204z" />
<glyph unicode="&#x2c6;" horiz-adv-x="1024" d="M244 1087l254 349h213l127 -349h-117l-129 201l-219 -201h-129z" />
<glyph unicode="&#x2dc;" horiz-adv-x="1024" d="M281 1128q29 112 80.5 165t130.5 53q18 0 39.5 -3.5t43.5 -9.5l58 -18q15 -5 28.5 -7.5t24.5 -2.5q33 0 55.5 19t34.5 56h109q-30 -109 -81 -161t-130 -52q-20 0 -40 3.5t-40 9.5l-57 18q-18 5 -33.5 7.5t-26.5 2.5q-32 0 -55 -20t-35 -60h-106z" />
<glyph unicode="&#x2000;" horiz-adv-x="986" />
<glyph unicode="&#x2001;" horiz-adv-x="1972" />
<glyph unicode="&#x2002;" horiz-adv-x="986" />
<glyph unicode="&#x2003;" horiz-adv-x="1972" />
<glyph unicode="&#x2004;" horiz-adv-x="657" />
<glyph unicode="&#x2005;" horiz-adv-x="493" />
<glyph unicode="&#x2006;" horiz-adv-x="328" />
<glyph unicode="&#x2007;" horiz-adv-x="328" />
<glyph unicode="&#x2008;" horiz-adv-x="246" />
<glyph unicode="&#x2009;" horiz-adv-x="394" />
<glyph unicode="&#x200a;" horiz-adv-x="109" />
<glyph unicode="&#x2010;" horiz-adv-x="631" d="M-2 371l37 211h508l-37 -211h-508z" />
<glyph unicode="&#x2011;" horiz-adv-x="631" d="M-2 371l37 211h508l-37 -211h-508z" />
<glyph unicode="&#x2012;" horiz-adv-x="631" d="M-2 371l37 211h508l-37 -211h-508z" />
<glyph unicode="&#x2013;" horiz-adv-x="1024" d="M-45 397l29 158h995l-27 -158h-997z" />
<glyph unicode="&#x2014;" horiz-adv-x="2048" d="M-14 397l28 158h2048l-28 -158h-2048z" />
<glyph unicode="&#x2018;" horiz-adv-x="541" d="M119 1049l198 426h258l-208 -426h-248z" />
<glyph unicode="&#x2019;" horiz-adv-x="541" d="M119 1049l198 426h258l-208 -426h-248z" />
<glyph unicode="&#x201a;" horiz-adv-x="541" d="M-76 -186l199 426h256l-207 -426h-248z" />
<glyph unicode="&#x201c;" horiz-adv-x="1001" d="M119 1049l198 426h258l-208 -426h-248zM580 1049l198 426h258l-209 -426h-247z" />
<glyph unicode="&#x201d;" horiz-adv-x="1001" d="M119 1049l198 426h258l-208 -426h-248zM580 1049l198 426h258l-209 -426h-247z" />
<glyph unicode="&#x201e;" horiz-adv-x="1001" d="M-76 -186l199 426h256l-207 -426h-248zM383 -186l201 426h256l-207 -426h-250z" />
<glyph unicode="&#x2022;" horiz-adv-x="1208" d="M307 762q0 123 87 209t210 86q122 0 208.5 -86.5t86.5 -208.5t-87.5 -209.5t-209.5 -87.5q-123 0 -209 87t-86 210z" />
<glyph unicode="&#x2026;" horiz-adv-x="2048" d="M105 158q0 77 52.5 128.5t131.5 51.5q77 0 129.5 -52.5t52.5 -127.5q0 -76 -53 -129.5t-129 -53.5q-79 0 -131.5 52t-52.5 131zM787 158q0 77 52.5 128.5t131.5 51.5q77 0 129.5 -52.5t52.5 -127.5q0 -76 -53 -129.5t-129 -53.5q-79 0 -131.5 52t-52.5 131zM1471 158 q0 77 52.5 128.5t131.5 51.5q77 0 129.5 -52.5t52.5 -127.5q0 -76 -53 -129.5t-129 -53.5q-79 0 -131.5 52t-52.5 131z" />
<glyph unicode="&#x202f;" horiz-adv-x="394" />
<glyph unicode="&#x2039;" horiz-adv-x="668" d="M61 477l277 311h217l-283 -321l203 -303h-209z" />
<glyph unicode="&#x203a;" horiz-adv-x="668" d="M35 162l282 323l-202 303h209l204 -313l-276 -313h-217z" />
<glyph unicode="&#x205f;" horiz-adv-x="493" />
<glyph unicode="&#x20ac;" d="M-31 514l45 148h101q1 9 4 30q10 71 16 105h-123l45 147h107q72 274 193.5 397t322.5 123q77 0 132 -36t77 -101l18 109h211l-65 -404h-221q-4 111 -43 165t-115 54q-95 0 -156 -71t-104 -236h460l-75 -147l-416 -1q-8 -40 -13 -73.5t-7 -60.5h389l-78 -148h-325 q-2 -12 -2.5 -25.5t-0.5 -39.5q0 -139 39 -201t127 -62q76 0 134 55t81 146h246q-60 -205 -186 -310.5t-312 -105.5q-188 0 -282.5 117t-94.5 350q0 31 0.5 46t1.5 30h-131z" />
<glyph unicode="&#x2122;" horiz-adv-x="1706" d="M225 1366v94h467v-94h-168v-448h-129v448h-170zM809 918v542h170l141 -360l133 360h170v-542h-114v428l-160 -428h-59l-166 428v-428h-115z" />
<glyph unicode="&#xe000;" horiz-adv-x="950" d="M0 0v950h950v-950h-950z" />
</font>
</defs>
</svg>
