<?xml version="1.0" standalone="no"?>
<!DOCTYPE svg PUBLIC "-//W3C//DTD SVG 1.1//EN" "http://www.w3.org/Graphics/SVG/1.1/DTD/svg11.dtd" >
<svg xmlns="http://www.w3.org/2000/svg">
<metadata></metadata>
<defs>
<font id="geoslab703_mdcn_btbold" horiz-adv-x="1024" >
<font-face units-per-em="2048" ascent="1556" descent="-492" />
<missing-glyph horiz-adv-x="397" />
<glyph horiz-adv-x="2048" />
<glyph horiz-adv-x="2048" />
<glyph unicode="&#xd;" horiz-adv-x="397" />
<glyph unicode=" "  horiz-adv-x="397" />
<glyph unicode="&#x09;" horiz-adv-x="397" />
<glyph unicode="&#xa0;" horiz-adv-x="397" />
<glyph unicode="!" horiz-adv-x="582" d="M168 94q0 50 36.5 86.5t86.5 36.5q51 0 87 -35.5t36 -87.5q0 -51 -36.5 -87t-86.5 -36q-49 0 -86 37t-37 86zM168 1395h246q-16 -222 -26.5 -469t-14.5 -514h-164q-5 266 -15 512.5t-26 470.5z" />
<glyph unicode="&#x22;" horiz-adv-x="643" d="M86 879v557h164v-557h-164zM395 879v557h164v-557h-164z" />
<glyph unicode="#" horiz-adv-x="1575" d="M70 428l61 172h297l90 252h-315l61 172h316l155 436h191l-154 -436h250l156 436h190l-154 -436h291l-59 -172h-293l-90 -252h309l-61 -172h-307l-156 -434h-191l156 434h-252l-158 -434h-190l156 434h-299zM618 598h256l91 254h-256z" />
<glyph unicode="$" horiz-adv-x="797" d="M51 6v402l154 -1q3 -107 40 -167.5t107 -71.5v440q-150 89 -221.5 194t-71.5 236q0 148 79.5 236t213.5 90v135h76v-141q47 -14 80 -35.5t53 -50.5v86h131v-371l-141 1q-2 88 -32.5 140.5t-90.5 69.5v-393q171 -104 245.5 -211t74.5 -248q0 -156 -84.5 -253t-217.5 -97 h-18v-199h-76v203q-48 9 -90 36.5t-65 65.5v-96h-146zM231 1057q0 -64 30.5 -115t90.5 -88v350q-52 0 -86.5 -41.5t-34.5 -105.5zM428 162q61 5 98 50t37 114q0 74 -33 130t-102 97v-391z" />
<glyph unicode="%" horiz-adv-x="1163" d="M68 864v293q0 102 49 155.5t143 53.5q95 0 144 -53t49 -156v-293q0 -103 -49 -156t-144 -53q-94 0 -143 53.5t-49 155.5zM199 -29l657 1424h107l-658 -1424h-106zM205 870q0 -46 13.5 -69t41.5 -23t40.5 22.5t12.5 69.5v281q0 47 -13 69.5t-40 22.5q-28 0 -41.5 -23 t-13.5 -69v-281zM711 209v293q0 102 49 155.5t143 53.5q95 0 144 -53.5t49 -155.5v-293q0 -103 -49 -156t-144 -53q-94 0 -143 53.5t-49 155.5zM848 217q0 -47 13.5 -70.5t41.5 -23.5q27 0 40 23.5t13 70.5v279q0 47 -13 69.5t-40 22.5q-29 0 -42 -22t-13 -70v-279z" />
<glyph unicode="&#x26;" horiz-adv-x="1217" d="M63 383q0 116 58 219.5t176 198.5q-65 85 -96 162t-31 151q0 137 84 222t219 85q140 0 221.5 -75t81.5 -203q0 -99 -53 -186t-162 -169l277 -356q27 58 44 114.5t23 110.5h-98v172h364v-172h-86q-15 -108 -45.5 -199.5t-78.5 -172.5l77 -99h133v-186h-256l-98 121 q-71 -76 -155 -113t-185 -37q-184 0 -299 114.5t-115 297.5zM276 416q0 -100 71 -172t169 -72q53 0 101 22.5t92 67.5l-308 393q-62 -53 -93.5 -113t-31.5 -126zM354 1124q0 -44 22.5 -93t72.5 -111q69 58 103 112.5t34 108.5q0 49 -31 79.5t-82 30.5q-54 0 -86.5 -34.5 t-32.5 -92.5z" />
<glyph unicode="'" horiz-adv-x="334" d="M86 879v557h164v-557h-164z" />
<glyph unicode="(" horiz-adv-x="537" d="M96 614q0 206 64 408.5t190 398.5h162q-106 -205 -158.5 -406.5t-52.5 -400.5t53 -401.5t158 -407.5h-162q-126 197 -190 400t-64 409z" />
<glyph unicode=")" horiz-adv-x="537" d="M25 -195q105 206 158 408.5t53 400.5t-53 399.5t-158 407.5h159q128 -198 192 -400t64 -407q0 -204 -64 -407.5t-192 -401.5h-159z" />
<glyph unicode="*" horiz-adv-x="664" d="M55 1178l37 114l184 -67l-8 196h125l-6 -196l184 67l37 -116l-190 -56l121 -153l-99 -72l-110 162l-111 -162l-98 74l123 153z" />
<glyph unicode="+" horiz-adv-x="1706" d="M254 528v166h514v527h170v-527h514v-166h-514v-528h-170v528h-514z" />
<glyph unicode="," horiz-adv-x="397" d="M8 -197l129 426h174l-129 -426h-174z" />
<glyph unicode="-" horiz-adv-x="621" d="M57 385v170h504v-170h-504z" />
<glyph unicode="." horiz-adv-x="397" d="M76 106q0 50 36.5 86.5t86.5 36.5t86.5 -36t36.5 -87q0 -50 -37 -86t-86 -36t-86 36.5t-37 85.5z" />
<glyph unicode="/" horiz-adv-x="596" d="M-49 -190l577 1611h119l-577 -1611h-119z" />
<glyph unicode="0" horiz-adv-x="797" d="M70 389v586q0 205 83.5 312.5t243.5 107.5q161 0 245.5 -108t84.5 -312v-586q0 -204 -84.5 -311t-245.5 -107q-160 0 -243.5 106.5t-83.5 311.5zM289 299q0 -71 28.5 -110t79.5 -39q52 0 81.5 39.5t29.5 109.5v766q0 70 -30 111t-81 41q-50 0 -79 -40.5t-29 -111.5v-766z " />
<glyph unicode="1" horiz-adv-x="797" d="M193 0v164h104v1040h-104v162h319v-1202h106v-164h-425z" />
<glyph unicode="2" horiz-adv-x="797" d="M57 0v174l285 467q79 131 114.5 225.5t35.5 173.5q0 84 -27.5 124t-85.5 40q-66 0 -95.5 -48.5t-29.5 -156.5v-69h-191v84q0 189 84 285t248 96q145 0 228.5 -89.5t83.5 -244.5q0 -88 -36 -188.5t-114 -229.5l-283 -471h267v193h174v-365h-658z" />
<glyph unicode="3" horiz-adv-x="797" d="M63 346v64h187v-52q0 -106 32.5 -158.5t98.5 -52.5q71 0 99 47t28 183q0 156 -38 203t-144 47h-15v164h8q108 0 147.5 45.5t39.5 183.5q0 109 -28 156t-91 47q-64 0 -94.5 -50.5t-30.5 -156.5v-41h-184v53q0 184 77 275.5t232 91.5q154 0 234.5 -93.5t80.5 -271.5 q0 -151 -47.5 -228.5t-144.5 -82.5q98 -12 151.5 -103t53.5 -247q0 -199 -83 -298.5t-249 -99.5q-160 0 -240 94t-80 281z" />
<glyph unicode="4" horiz-adv-x="797" d="M41 377v174l375 815h200v-829h99v-160h-99v-215h99v-162h-408v162h109v215h-375zM188 537h232l4 510z" />
<glyph unicode="5" horiz-adv-x="797" d="M68 291v86h192v-55q0 -85 31.5 -128.5t91.5 -43.5q68 0 96.5 42.5t28.5 147.5v158q0 112 -27 158t-90 46q-32 0 -58 -16.5t-46 -50.5h-160v731h518v-186h-332v-346q26 18 58 27t73 9q140 0 208.5 -113t68.5 -343q0 -234 -78.5 -338.5t-251.5 -104.5q-153 0 -238 84.5 t-85 235.5z" />
<glyph unicode="6" horiz-adv-x="797" d="M72 414v544q0 222 79 329.5t242 107.5q150 0 233 -85.5t83 -240.5v-55h-189v57q0 75 -29 113.5t-85 38.5q-67 0 -97 -48t-30 -155v-279q26 45 71 66.5t111 21.5q132 0 201 -108.5t69 -317.5q0 -210 -83.5 -321t-241.5 -111q-171 0 -252.5 108.5t-81.5 334.5zM274 330 q0 -91 32 -139t91 -48q61 0 91 43t30 131v170q0 85 -30.5 128.5t-90.5 43.5q-63 0 -93 -49t-30 -155v-125z" />
<glyph unicode="7" horiz-adv-x="797" d="M72 969v397h653v-205l-352 -1161h-211l356 1180h-268v-211h-178z" />
<glyph unicode="8" horiz-adv-x="797" d="M74 356q0 168 52 258.5t152 100.5q-99 12 -146.5 85.5t-47.5 217.5q0 192 76.5 284.5t236.5 92.5q161 0 238.5 -92.5t77.5 -284.5q0 -144 -47.5 -217.5t-147.5 -85.5q97 -8 150 -96.5t53 -243.5q0 -207 -79 -305.5t-245 -98.5q-162 0 -242.5 96t-80.5 289zM276 332 q0 -100 29.5 -146.5t91.5 -46.5q63 0 93 47t30 146v112q0 93 -30.5 139t-92.5 46q-60 0 -90.5 -46.5t-30.5 -138.5v-112zM285 965q0 -84 27.5 -124t84.5 -40t86 41t29 123v102q0 80 -29 120t-86 40q-56 0 -84 -40t-28 -120v-102z" />
<glyph unicode="9" horiz-adv-x="797" d="M63 969q0 204 85.5 315t242.5 111q165 0 248.5 -107t83.5 -317v-563q0 -225 -79.5 -331t-246.5 -106q-148 0 -229.5 83t-81.5 235v63h188v-57q0 -75 29 -113.5t86 -38.5q68 0 97.5 46.5t29.5 156.5v279q-32 -47 -74 -68.5t-98 -21.5q-141 0 -211 108t-70 326zM276 879 q0 -85 31 -128.5t90 -43.5q65 0 94 48t29 156v125q0 93 -30.5 140t-90.5 47q-61 0 -92 -44t-31 -130v-170z" />
<glyph unicode=":" horiz-adv-x="434" d="M94 106q0 50 36.5 86.5t86.5 36.5q51 0 87 -36t36 -87q0 -50 -36.5 -86t-86.5 -36q-49 0 -86 36.5t-37 85.5zM94 670q0 49 36.5 86t86.5 37q52 0 87.5 -36t35.5 -87q0 -50 -36.5 -86.5t-86.5 -36.5q-49 0 -86 37t-37 86z" />
<glyph unicode=";" horiz-adv-x="434" d="M12 -197l129 426h174l-129 -426h-174zM104 670q0 49 36.5 86t86.5 37q52 0 87.5 -36t35.5 -87q0 -50 -36.5 -86.5t-86.5 -36.5q-49 0 -86 37t-37 86z" />
<glyph unicode="&#x3c;" horiz-adv-x="1706" d="M264 530v160l1178 486v-185l-934 -381l934 -381v-182z" />
<glyph unicode="=" horiz-adv-x="1706" d="M254 322v165h1198v-165h-1198zM254 733v168h1198v-168h-1198z" />
<glyph unicode="&#x3e;" horiz-adv-x="1706" d="M264 47v182l934 381l-934 381v185l1178 -486v-160z" />
<glyph unicode="?" horiz-adv-x="811" d="M68 1087v43q0 137 85 215t234 78q162 0 247 -95t85 -277q0 -166 -73 -259.5t-209 -103.5l-1 -266h-180v407h33q128 0 185.5 52.5t57.5 169.5q0 95 -37.5 144.5t-109.5 49.5q-62 0 -98.5 -42.5t-36.5 -115.5h-182zM225 94q0 50 36.5 86.5t86.5 36.5q52 0 87.5 -36 t35.5 -89q0 -50 -36.5 -85.5t-88.5 -35.5q-48 0 -84.5 37t-36.5 86z" />
<glyph unicode="@" horiz-adv-x="2048" d="M98 522q0 165 52 313.5t153 272.5q147 179 353.5 272t459.5 93q166 0 315 -45.5t255 -127.5q132 -102 198 -235.5t66 -300.5q0 -162 -65 -302t-185 -237q-69 -55 -150 -83.5t-168 -28.5q-106 0 -157 40.5t-51 125.5v4q-55 -87 -128 -127.5t-176 -40.5q-152 0 -232.5 86.5 t-80.5 249.5q0 233 138 395t333 162q89 0 149 -34.5t99 -107.5l55 107h154l-148 -586q-1 -5 -2 -12q-6 -28 -6 -37q0 -38 26.5 -61t69.5 -23q51 0 107.5 30.5t105.5 84.5q72 76 110 177.5t38 215.5q0 253 -187 411t-489 158q-138 0 -256 -31t-215 -94q-181 -113 -279 -291 t-98 -395q0 -312 209.5 -499t558.5 -187q166 0 323.5 49t291.5 142l67 -99q-149 -113 -318.5 -170t-355.5 -57q-192 0 -351 48t-281 142q-155 118 -231.5 275.5t-76.5 357.5zM741 444q0 -98 45.5 -151t128.5 -53q90 0 163.5 66.5t99.5 172.5l55 228q-14 84 -61.5 130 t-122.5 46q-127 0 -217.5 -128.5t-90.5 -310.5z" />
<glyph unicode="A" horiz-adv-x="1100" d="M20 0v180h89l274 1034h-121v181h586v-181h-121l270 -1034h82v-180h-440v180h123l-55 234h-332l-58 -234h119v-180h-416zM412 569h260l-127 568z" />
<glyph unicode="B" horiz-adv-x="1010" d="M51 0v180h115v1034h-115v181h498q185 0 274.5 -77.5t89.5 -236.5v-49q0 -125 -58 -195.5t-177 -91.5q133 -19 194.5 -90.5t61.5 -205.5v-91q0 -185 -86.5 -271.5t-269.5 -86.5h-527zM399 174h121q97 0 138.5 45.5t41.5 151.5v114q0 93 -42 133.5t-138 40.5h-121v-485z M399 829h109q102 0 141 38t39 132v74q0 75 -39.5 111.5t-122.5 36.5h-127v-392z" />
<glyph unicode="C" horiz-adv-x="885" d="M63 422v512q0 242 86.5 364.5t258.5 122.5q73 0 132.5 -25.5t100.5 -76.5v76h176v-420h-190l-2 37q-7 107 -45 160t-109 53q-84 0 -124 -53.5t-40 -167.5v-615q0 -114 39.5 -166.5t124.5 -52.5q82 0 123 55.5t41 165.5v70h205v-58q0 -211 -99 -321.5t-288 -110.5 q-192 0 -291 114.5t-99 336.5z" />
<glyph unicode="D" horiz-adv-x="1036" d="M51 0v180h115v1034h-115v181h381q295 0 417 -109t122 -371v-368q0 -292 -115.5 -419.5t-378.5 -127.5h-426zM408 178h45q147 0 211.5 77t64.5 253v418q0 164 -57.5 227.5t-204.5 63.5h-59v-1039z" />
<glyph unicode="E" d="M51 0v180h115v1034h-115v181h897v-394h-198v216h-342v-379h286v-201h-286v-459h342v250h198v-428h-897z" />
<glyph unicode="F" horiz-adv-x="985" d="M51 0v180h115v1034h-115v181h910v-400h-199v222h-354v-379h286v-201h-286v-457h116v-180h-473z" />
<glyph unicode="G" horiz-adv-x="887" d="M63 422v539q0 226 88 343t257 117q73 0 132 -29.5t101 -86.5v90h168v-410h-182l-2 39q-5 102 -43 151.5t-111 49.5q-84 0 -124 -53.5t-40 -167.5v-617q0 -114 39 -165.5t125 -51.5q82 0 123 54.5t41 164.5v103h-123v186h322v-678h-115l-53 76q-49 -51 -110 -78t-126 -27 q-178 0 -272.5 116t-94.5 335z" />
<glyph unicode="H" horiz-adv-x="1130" d="M51 0v180h115v1034h-115v181h465v-181h-108v-374h313v374h-109v181h465v-181h-114v-1034h114v-180h-465v180h109v459h-313v-459h108v-180h-465z" />
<glyph unicode="I" horiz-adv-x="575" d="M51 0v180h115v1034h-115v181h473v-181h-116v-1034h116v-180h-473z" />
<glyph unicode="J" horiz-adv-x="575" d="M27 -41h28q72 0 98.5 29t26.5 110v1116h-114v181h471v-181h-115v-1105q0 -182 -85.5 -269.5t-264.5 -87.5h-45v207z" />
<glyph unicode="K" horiz-adv-x="1096" d="M51 0v180h115v1034h-115v181h465v-181h-108v-477l342 477h-123v181h463v-181h-97l-340 -477l351 -557h92v-182h-467v182h110l-331 549v-549h108v-180h-465z" />
<glyph unicode="L" horiz-adv-x="983" d="M51 0v180h115v1034h-115v181h473v-181h-116v-1036h333v258h201v-436h-891z" />
<glyph unicode="M" horiz-adv-x="1348" d="M51 0v180h115v1034h-115v181h432l191 -754l200 754h422v-181h-114v-1034h114v-180h-446v180h108l15 1018l-266 -983h-97l-248 983v-1018h109v-180h-420z" />
<glyph unicode="N" horiz-adv-x="1145" d="M51 0v180h115v1034h-115v181h361l370 -955v774h-110v181h422v-181h-115v-1222h-207l-405 1036v-848h108v-180h-424z" />
<glyph unicode="O" horiz-adv-x="922" d="M63 389v615q0 205 101.5 311t296.5 106t296 -106t101 -311v-615q0 -206 -101 -312t-296 -106t-296.5 106t-101.5 312zM307 377q0 -108 37 -157.5t117 -49.5t116.5 49.5t36.5 157.5v641q0 108 -36.5 157.5t-116.5 49.5t-117 -49.5t-37 -157.5v-641z" />
<glyph unicode="P" horiz-adv-x="997" d="M51 0v180h115v1034h-115v181h492q205 0 300 -81t95 -255v-144q0 -176 -81 -259t-253 -83h-196v-393h116v-180h-473zM408 752h100q117 0 158 37.5t41 144.5v123q0 89 -43.5 124.5t-159.5 35.5h-96v-465z" />
<glyph unicode="Q" horiz-adv-x="922" d="M63 389v615q0 205 101.5 311t296.5 106t296 -106t101 -311v-615q0 -156 -58 -254.5t-173 -136.5l227 -240h-252l-194 215q-172 19 -258.5 123t-86.5 293zM307 377q0 -107 37 -157t117 -50q79 0 116 50t37 157v641q0 107 -37 157t-116 50q-80 0 -117 -50t-37 -157v-641z " />
<glyph unicode="R" horiz-adv-x="1075" d="M51 0v180h115v1034h-115v181h494q225 0 315 -71t90 -243v-92q0 -127 -53 -186.5t-182 -77.5q132 -17 183.5 -65.5t51.5 -153.5v-326h115v-180h-350v496q0 86 -38 116.5t-147 30.5h-122v-463h108v-180h-465zM408 817h137q89 0 129.5 34t40.5 110v120q0 77 -39 106.5 t-148 29.5h-120v-400z" />
<glyph unicode="S" horiz-adv-x="872" d="M76 0v436h180q10 -128 65 -199t142 -71q66 0 105.5 40t39.5 107q0 51 -26.5 97.5t-85.5 99.5l-242 215q-87 76 -130.5 167.5t-43.5 197.5q0 143 87 237t220 94q66 0 125 -28.5t111 -83.5v86h170v-379h-172q-15 100 -65.5 157.5t-121.5 57.5q-56 0 -95.5 -40t-39.5 -97 q0 -43 25 -86.5t73 -85.5l258 -232q98 -86 140.5 -172.5t42.5 -195.5q0 -154 -95.5 -251.5t-244.5 -97.5q-77 0 -140 33t-118 103v-109h-164z" />
<glyph unicode="T" horiz-adv-x="993" d="M51 987v408h891v-408h-168v234h-158v-1041h140v-180h-518v180h137v1041h-158v-234h-166z" />
<glyph unicode="U" horiz-adv-x="1130" d="M51 1214v181h465v-181h-108v-849q0 -102 37.5 -148.5t119.5 -46.5q81 0 118.5 46.5t37.5 148.5v849h-109v181h465v-181h-114v-862q0 -186 -101.5 -283.5t-296.5 -97.5t-297 97.5t-102 283.5v862h-115z" />
<glyph unicode="V" horiz-adv-x="991" d="M23 1214v181h411v-181h-94l168 -821l174 821h-100v181h393v-181h-86l-301 -1228h-170l-316 1228h-79z" />
<glyph unicode="W" horiz-adv-x="1401" d="M8 1214v181h406v-181h-101l154 -786l166 786h-105v181h361v-181h-101l162 -786l164 786h-102v181h381v-181h-80l-283 -1228h-145l-187 862l-194 -862h-137l-275 1228h-84z" />
<glyph unicode="X" horiz-adv-x="997" d="M23 0v180h77l287 500l-287 534h-71v181h420v-181h-105l170 -321l180 321h-98v181h379v-181h-64l-290 -505l284 -529h66v-180h-418v180h106l-165 314l-179 -314h99v-180h-391z" />
<glyph unicode="Y" d="M25 1214v181h424v-181h-101l164 -452l186 452h-100v181h401v-181h-81l-300 -665v-369h115v-180h-471v180h115v377l-268 657h-84z" />
<glyph unicode="Z" horiz-adv-x="901" d="M49 0v193l557 1024h-350v-220h-197v398h787v-183l-563 -1034h360v268h199v-446h-793z" />
<glyph unicode="[" horiz-adv-x="537" d="M137 -166v1561h400v-133h-201v-1297h201v-131h-400z" />
<glyph unicode="\" horiz-adv-x="596" d="M-49 1421h119l577 -1611h-119z" />
<glyph unicode="]" horiz-adv-x="537" d="M0 -35h201v1297h-201v133h399v-1561h-399v131z" />
<glyph unicode="^" horiz-adv-x="2048" d="M418 899l497 561h218l495 -561h-207l-397 397l-399 -397h-207z" />
<glyph unicode="_" d="M0 -311h1024v-172h-1024v172z" />
<glyph unicode="`" d="M260 1382h215l178 -358h-121z" />
<glyph unicode="a" horiz-adv-x="827" d="M74 336v266q0 145 63.5 227t175.5 82q71 0 120.5 -29t88.5 -94v107h254v-164h-78v-567h78v-164h-266v102q-47 -60 -97.5 -89t-109.5 -29q-111 0 -170 90.5t-59 261.5zM279 315q0 -82 23 -119.5t73 -37.5q54 0 86.5 47t32.5 129v241q0 83 -28.5 123.5t-84.5 40.5 q-53 0 -77.5 -39t-24.5 -122v-263z" />
<glyph unicode="b" horiz-adv-x="815" d="M41 0v164h78v1065h-78v166h283v-580q40 49 87.5 73.5t102.5 24.5q109 0 169 -79.5t60 -225.5v-315q0 -149 -58 -229t-167 -80q-70 0 -122.5 28.5t-96.5 89.5v-102h-258zM324 326q0 -88 27 -128t85 -40q52 0 77.5 36t25.5 111v287q0 72 -24 107.5t-73 35.5 q-57 0 -87.5 -38.5t-30.5 -110.5v-260z" />
<glyph unicode="c" horiz-adv-x="711" d="M57 375v188q0 167 68 258.5t190 91.5q46 0 91 -21t92 -65v68h147v-301h-168q-6 75 -34 112t-78 37q-54 0 -78.5 -46t-24.5 -150v-182q0 -113 25.5 -162t83.5 -49q55 0 82.5 41.5t27.5 126.5v10h185v-23q0 -153 -77 -239t-214 -86q-157 0 -237.5 98.5t-80.5 292.5z" />
<glyph unicode="d" horiz-adv-x="815" d="M70 291v317q0 147 60 226t169 79q56 0 105.5 -26t87.5 -76v418h-78v166h282v-1231h78v-164h-262v106q-43 -62 -95 -92t-118 -30q-109 0 -169 80t-60 227zM274 322q0 -87 24 -123.5t79 -36.5q56 0 85.5 45.5t29.5 132.5v242q0 78 -29 117.5t-86 39.5q-51 0 -77 -35.5 t-26 -107.5v-274z" />
<glyph unicode="e" horiz-adv-x="731" d="M57 360v162q0 182 82 286.5t221 104.5q152 0 233 -98.5t81 -284.5v-124h-412v-58q0 -100 28 -147t87 -47q48 0 75.5 31.5t34.5 94.5h185q-10 -143 -89 -219.5t-218 -76.5q-152 0 -230 95.5t-78 280.5zM262 543h219v49q0 74 -28 116t-76 42q-60 0 -87.5 -43.5 t-27.5 -139.5v-24z" />
<glyph unicode="f" horiz-adv-x="479" d="M59 0v164h78v573h-78v158h78v258q0 125 52 183.5t163 58.5h90v-158q-58 0 -79 -23.5t-21 -93.5v-225h86v-158h-86v-573h78v-164h-361z" />
<glyph unicode="g" horiz-adv-x="815" d="M70 293v315q0 144 61 223.5t170 79.5q62 0 114.5 -30t100.5 -95v109h258v-164h-78v-708q0 -220 -83.5 -325.5t-256.5 -105.5q-74 0 -136 16.5t-111 49.5v182q49 -40 101 -59t112 -19q91 0 130.5 51.5t39.5 174.5v102q-41 -56 -86 -81t-105 -25q-112 0 -171.5 79.5 t-59.5 229.5zM274 322q0 -82 25 -121t76 -39q57 0 87 45t30 133v229q0 85 -30.5 127.5t-90.5 42.5q-48 0 -72.5 -36t-24.5 -107v-274z" />
<glyph unicode="h" horiz-adv-x="887" d="M41 0v164h78v1065h-78v166h283v-596q46 55 102 83.5t119 28.5q110 0 160.5 -62t50.5 -200v-485h78v-164h-359v164h76v434q0 72 -21.5 103.5t-68.5 31.5q-49 0 -87 -28t-50 -74v-467h77v-164h-360z" />
<glyph unicode="i" horiz-adv-x="461" d="M59 0v164h78v567h-78v164h283v-731h78v-164h-361zM98 1055v217h244v-217h-244z" />
<glyph unicode="j" horiz-adv-x="428" d="M18 -229q60 7 80.5 34t20.5 129v797h-78v164h283v-977q0 -178 -68.5 -250t-237.5 -75v178zM80 1055v217h244v-217h-244z" />
<glyph unicode="k" horiz-adv-x="868" d="M41 0v164h78v1065h-78v166h283v-914l258 264h-127v150h399v-164h-72l-241 -248l262 -319h65v-164h-387v164h84l-241 309v-309h77v-164h-360z" />
<glyph unicode="l" horiz-adv-x="442" d="M41 0v164h78v1065h-78v166h283v-1231h77v-164h-360z" />
<glyph unicode="m" horiz-adv-x="1294" d="M59 0v164h78v567h-78v164h258v-117q53 68 112 100.5t128 32.5q66 0 111 -30t65 -88q49 59 105 88.5t120 29.5q107 0 156 -62.5t49 -199.5v-485h78v-164h-356v164h78v434q0 73 -19.5 104t-64.5 31q-47 0 -83 -28.5t-46 -73.5v-467h79v-164h-356v164h78v434q0 73 -19.5 104 t-64.5 31q-47 0 -82.5 -28.5t-46.5 -73.5v-467h78v-164h-357z" />
<glyph unicode="n" horiz-adv-x="909" d="M61 0v164h80v567h-80v164h265v-117q51 69 110 102t129 33q110 0 160.5 -63t50.5 -201v-485h78v-164h-360v164h79v434q0 72 -19.5 103.5t-64.5 31.5q-48 0 -85 -21.5t-60 -62.5v-485h78v-164h-361z" />
<glyph unicode="o" horiz-adv-x="735" d="M55 338v221q0 174 79.5 264t232.5 90q152 0 232.5 -90.5t80.5 -263.5v-221q0 -173 -80.5 -263.5t-232.5 -90.5q-153 0 -232.5 90t-79.5 264zM260 338q0 -94 26 -139t81 -45q54 0 81 45.5t27 138.5v221q0 93 -27 138.5t-81 45.5q-55 0 -81 -45t-26 -139v-221z" />
<glyph unicode="p" horiz-adv-x="793" d="M45 -215h78v948h-78v162h260v-109q47 64 101.5 95.5t117.5 31.5q104 0 159.5 -65.5t55.5 -185.5v-418q0 -125 -57 -192.5t-162 -67.5q-52 0 -102.5 25t-91.5 73v-297h77v-164h-358v164zM326 332q0 -88 29 -132t87 -44q49 0 71 31t22 102v313q0 67 -24.5 99t-74.5 32 q-53 0 -81.5 -39.5t-28.5 -111.5v-250z" />
<glyph unicode="q" horiz-adv-x="815" d="M70 289v315q0 147 62 227t175 80q65 0 115 -31t92 -98v113h260v-164h-78v-946h78v-164h-360v164h78v297q-43 -49 -91.5 -73.5t-101.5 -24.5q-110 0 -169.5 79t-59.5 226zM274 311q0 -83 24.5 -120t78.5 -37q55 0 85 45.5t30 130.5v248q0 74 -31.5 113.5t-89.5 39.5 q-48 0 -72.5 -36.5t-24.5 -106.5v-277z" />
<glyph unicode="r" horiz-adv-x="653" d="M51 0v164h86v567h-78v164h269v-160q45 89 108.5 133.5t145.5 44.5h57v-233q-27 6 -53 9t-49 3q-98 0 -146.5 -61.5t-48.5 -184.5v-282h100v-164h-391z" />
<glyph unicode="s" horiz-adv-x="659" d="M57 0v311h150q12 -79 47.5 -122.5t89.5 -43.5q39 0 61.5 21t22.5 57q0 27 -16 50.5t-58 56.5l-180 139q-52 41 -80 97t-28 118q0 100 60 164.5t153 64.5q45 0 87.5 -20t84.5 -62v64h135v-266h-142q-17 67 -47 98t-75 31q-32 0 -52 -19.5t-20 -50.5q0 -21 13.5 -40 t51.5 -48l160 -125q71 -55 104 -115.5t33 -134.5q0 -106 -62 -173.5t-159 -67.5q-53 0 -98 21.5t-88 68.5v-74h-148z" />
<glyph unicode="t" horiz-adv-x="461" d="M41 737v158h78v324h205v-324h86v-158h-86v-493q0 -57 11 -69.5t56 -12.5h21v-172q-25 -2 -49.5 -3t-63.5 -1q-104 0 -142 42t-38 169v540h-78z" />
<glyph unicode="u" horiz-adv-x="887" d="M53 731v164h283v-596q0 -75 20.5 -106t67.5 -31q51 0 89 28.5t50 75.5v465h-78v164h283v-731h78v-164h-264v117q-51 -68 -110 -100.5t-130 -32.5q-110 0 -160.5 62t-50.5 200v485h-78z" />
<glyph unicode="v" horiz-adv-x="825" d="M10 731v164h344v-164h-73l133 -457l147 457h-82v164h336v-164h-74l-266 -743h-143l-252 743h-70z" />
<glyph unicode="w" horiz-adv-x="1169" d="M10 731v164h332v-164h-70l119 -463l129 463h-67v164h286v-164h-73l127 -463l125 463h-72v164h313v-164h-63l-228 -743h-145l-141 516l-144 -516h-137l-227 743h-64z" />
<glyph unicode="x" horiz-adv-x="731" d="M10 0v164h53l195 282l-180 285h-62v164h263v-125l100 -158l104 158v125h224v-164h-60l-174 -258l195 -309h53v-164h-260v135l-111 172l-114 -172v-135h-226z" />
<glyph unicode="y" horiz-adv-x="825" d="M10 731v164h344v-164h-73l133 -457l147 457h-82v164h336v-164h-74l-352 -946h96v-164h-366v164h90l100 270l-229 676h-70z" />
<glyph unicode="z" horiz-adv-x="758" d="M37 0v168l446 575h-264v-131h-164v283h650v-170l-443 -573h289v151h154v-303h-668z" />
<glyph unicode="{" d="M162 442v179q7 0 21.5 -1.5t21.5 -1.5q126 0 178.5 59t52.5 202v247q0 145 23 206.5t80 94.5q44 27 109 38.5t181 11.5h45v-179q-8 0 -24 1t-23 1q-109 0 -147.5 -41.5t-38.5 -173.5v-241q0 -155 -44 -220.5t-159 -93.5q114 -27 158.5 -92.5t44.5 -220.5v-240 q0 -132 39.5 -174.5t148.5 -42.5q7 0 22 1t23 1v-176h-63q-102 0 -165.5 12t-106.5 37q-57 34 -80 96t-23 203v248q0 144 -52.5 203t-178.5 59q-7 0 -21.5 -1t-21.5 -1z" />
<glyph unicode="|" d="M424 -483v2048h178v-2048h-178z" />
<glyph unicode="}" d="M152 -238q8 0 23 -1t22 -1q109 0 147.5 42t38.5 175v240q0 153 45 219t160 94q-115 28 -160 93.5t-45 220.5v241q0 132 -38 173.5t-146 41.5q-7 0 -23 -1t-24 -1v179h45q115 0 179.5 -11.5t108.5 -38.5q57 -33 80 -95t23 -206v-247q0 -144 52 -202.5t179 -58.5 q6 0 21 1.5t22 1.5v-179q-7 0 -21.5 1t-21.5 1q-126 0 -178.5 -59t-52.5 -203v-248q0 -143 -23 -204t-80 -95q-43 -26 -108 -37.5t-180 -11.5h-45v176z" />
<glyph unicode="~" horiz-adv-x="1706" d="M178 434v187q106 72 202 107.5t185 35.5q62 0 125.5 -12t168.5 -48q13 -4 42 -15q164 -58 250 -58q85 0 177 37t202 116v-184q-103 -71 -197.5 -106t-183.5 -35q-44 0 -92.5 8.5t-98.5 26.5q-25 8 -76 26q-212 74 -319 74q-82 0 -174 -38t-211 -122z" />
<glyph unicode="&#xa1;" horiz-adv-x="582" d="M168 0q16 224 26 470.5t15 512.5h164q4 -268 14.5 -514.5t26.5 -468.5h-246zM168 1298q0 52 36.5 87.5t86.5 35.5q49 0 86 -36.5t37 -86.5q0 -49 -36.5 -84.5t-86.5 -35.5q-52 0 -87.5 34.5t-35.5 85.5z" />
<glyph unicode="&#xa2;" horiz-adv-x="797" d="M80 465q0 237 63 342.5t203 105.5q54 0 97.5 -19t74.5 -56l88 266h74l-70 -207h74v-309h-180l-154 -428q13 -5 27.5 -7.5t32.5 -2.5q62 0 91 42t29 134v10h175v-19q0 -163 -75 -249t-216 -86q-33 0 -61.5 5t-55.5 15l-84 -248h-72l97 277q-83 48 -120.5 150.5 t-37.5 283.5zM274 420q0 -87 5.5 -129.5t17.5 -71.5l176 492q-19 17 -40 25.5t-44 8.5q-65 0 -90 -53.5t-25 -271.5z" />
<glyph unicode="&#xa3;" horiz-adv-x="797" d="M72 -27v181q66 43 99.5 123.5t33.5 195.5q0 36 -2 70.5t-6 68.5h-125v152h100q-25 101 -37 178t-12 133q0 149 80.5 233.5t222.5 84.5q157 0 232 -82.5t75 -255.5v-58h-182v72q0 85 -29 123.5t-92 38.5q-53 0 -83 -40.5t-30 -113.5q0 -50 12.5 -128.5t37.5 -184.5h221 v-152h-203q0 -4 1 -13q3 -59 3 -83q0 -108 -18.5 -191t-55.5 -137q24 -22 57.5 -33.5t73.5 -11.5q70 0 102 49t32 154v21l170 -1q1 -12 1.5 -25.5t0.5 -41.5q0 -172 -65.5 -251t-207.5 -79q-72 0 -134.5 22t-108.5 64q-36 -29 -76.5 -49t-87.5 -33z" />
<glyph unicode="&#xa4;" horiz-adv-x="797" d="M0 528l16 105h84v129h-100l16 104h84v109q0 210 77 315t233 105q59 0 107.5 -26t64.5 -69v68h153v-410h-188v80q0 91 -28.5 135t-88.5 44q-55 0 -83 -40t-28 -120v-191h308l-19 -104h-289v-129h261l-17 -105h-244v-219q0 -80 28 -119.5t83 -39.5q57 0 87 40.5t30 118.5 v125h192v-63q0 -206 -75.5 -303t-235.5 -97t-244 106.5t-84 311.5v139h-100z" />
<glyph unicode="&#xa5;" horiz-adv-x="891" d="M0 1186v180h381v-180h-98l159 -471l191 471h-96v180h354v-180h-80l-121 -266h154v-105h-201l-57 -129h258v-102h-307l-11 -33v-371h115v-180h-418v180h115v371l-12 33h-279v102h234l-52 129h-182v105h139l-102 266h-84z" />
<glyph unicode="&#xa6;" d="M424 -350v758h178v-758h-178zM424 674v758h178v-758h-178z" />
<glyph unicode="&#xa7;" horiz-adv-x="891" d="M66 698q0 95 61 157.5t162 70.5q-46 57 -69 113.5t-23 113.5q0 121 82 181.5t245 60.5h201v-320h-137v185h-66q-80 0 -121 -26.5t-41 -78.5q0 -37 29.5 -85t108.5 -136l219 -250q68 -77 94.5 -134t26.5 -118q0 -99 -58.5 -157.5t-164.5 -67.5q55 -63 81.5 -122.5 t26.5 -119.5q0 -112 -81 -179t-218 -67h-252v318h137v-182h74q86 0 128 26t42 80q0 35 -21 74t-75 100l-269 305q-60 69 -91 134t-31 124zM227 709q0 -27 12.5 -56.5t34.5 -54.5l189 -215q29 -33 55 -46t57 -13q45 0 74 26.5t29 67.5q0 54 -66 127l-1 1l-187 214 q-22 25 -44.5 37t-47.5 12q-47 0 -76 -27.5t-29 -72.5z" />
<glyph unicode="&#xa8;" d="M240 1081v230h206v-230h-206zM578 1081v230h206v-230h-206z" />
<glyph unicode="&#xa9;" horiz-adv-x="1706" d="M113 731q0 145 57 280.5t164 243.5q105 107 235.5 161t282.5 54t286 -55t240 -162q105 -105 160 -238.5t55 -283.5q0 -153 -54.5 -286t-158.5 -234q-108 -107 -244.5 -164t-283.5 -57q-146 0 -280 56.5t-240 162.5q-107 106 -163 240.5t-56 281.5zM223 731 q0 -126 48 -240t139 -204q90 -91 204.5 -139t239.5 -48t240 48.5t209 140.5q89 88 135.5 200.5t46.5 241.5t-47 243.5t-135 203.5q-91 90 -205 137t-244 47t-243 -46.5t-201 -135.5q-90 -92 -138.5 -208t-48.5 -241zM457 725q0 208 109.5 331.5t291.5 123.5q147 0 243 -77 t105 -200h-166q-10 74 -60 114t-130 40q-99 0 -155 -86.5t-56 -239.5q0 -152 57.5 -234.5t163.5 -82.5q80 0 129 43.5t60 124.5h165q-7 -135 -106.5 -217t-253.5 -82q-183 0 -290 119t-107 323z" />
<glyph unicode="&#xaa;" horiz-adv-x="621" d="M55 1001v187q0 102 48.5 159.5t132.5 57.5q53 0 90 -20.5t65 -65.5v74h191v-115h-58v-397h58v-115h-199v72q-37 -43 -75 -63.5t-81 -20.5q-82 0 -127 64t-45 183zM209 987q0 -57 17.5 -83.5t54.5 -26.5q41 0 65.5 33t24.5 89v170q0 57 -21.5 86t-62.5 29t-59.5 -27.5 t-18.5 -87.5v-182z" />
<glyph unicode="&#xab;" horiz-adv-x="936" d="M57 457l244 317h195l-242 -317l242 -318h-195zM440 457l244 317h195l-242 -317l242 -318h-195z" />
<glyph unicode="&#xac;" horiz-adv-x="1706" d="M254 696v166h1198v-502h-166v336h-1032z" />
<glyph unicode="&#xad;" horiz-adv-x="621" d="M57 385v170h504v-170h-504z" />
<glyph unicode="&#xae;" horiz-adv-x="1706" d="M113 731q0 147 57.5 284t165.5 245q104 104 234.5 157t281.5 53q153 0 288.5 -56t241.5 -165q103 -104 157 -236.5t54 -281.5q0 -153 -55.5 -287t-161.5 -237q-108 -105 -243 -161t-281 -56q-147 0 -282.5 57.5t-241.5 165.5q-105 106 -160 239t-55 279zM223 731 q0 -125 47 -238.5t136 -203.5q90 -91 204 -140t234 -49q130 0 246.5 47t209.5 138q89 86 137 198.5t48 237.5q0 133 -45.5 247.5t-134.5 205.5q-93 92 -207.5 140t-243.5 48t-240 -45.5t-200 -134.5q-92 -94 -141.5 -210t-49.5 -241zM551 330v829h319q173 0 262 -57t89 -168 q0 -91 -48 -150.5t-137 -78.5l185 -375h-199l-164 346h-129v-346h-178zM729 786h117q100 0 146 30.5t46 96.5q0 69 -48 101.5t-152 32.5h-109v-261z" />
<glyph unicode="&#xaf;" d="M256 1120v152h514v-152h-514z" />
<glyph unicode="&#xb0;" horiz-adv-x="674" d="M43 1163q0 125 86 211t209 86q121 0 208 -87t87 -210q0 -121 -87 -208t-210 -87t-208 85.5t-85 209.5zM152 1165q0 -76 54.5 -131t131.5 -55t130.5 54.5t53.5 131.5t-53.5 131t-130.5 54t-131.5 -54t-54.5 -131z" />
<glyph unicode="&#xb1;" horiz-adv-x="1706" d="M254 14v168h1198v-168h-1198zM254 707v165h514v334h170v-334h514v-165h-514v-334h-170v334h-514z" />
<glyph unicode="&#xb2;" horiz-adv-x="526" d="M37 545v104l188 281q53 80 76 136t23 103q0 51 -18.5 75t-55.5 24q-43 0 -62.5 -29t-19.5 -94v-43h-127v51q0 113 55.5 171t163.5 58q95 0 151 -54t56 -146q0 -53 -23.5 -114t-74.5 -138l-189 -283h176v117h115v-219h-434z" />
<glyph unicode="&#xb3;" horiz-adv-x="526" d="M41 752v39h125v-31q0 -65 21 -96t65 -31q47 0 65.5 28t18.5 109q0 93 -25.5 122.5t-95.5 29.5h-10v98h6q71 0 97 27.5t26 109.5q0 65 -18 93t-60 28q-43 0 -63.5 -30t-20.5 -93v-25h-121v31q0 111 51 166t154 55q101 0 154 -56t53 -163q0 -92 -31.5 -138t-95.5 -48 q64 -8 99.5 -63t35.5 -148q0 -119 -54.5 -178.5t-164.5 -59.5q-105 0 -158 56t-53 168z" />
<glyph unicode="&#xb4;" d="M371 1024l180 358h215l-272 -358h-123z" />
<glyph unicode="&#xb5;" horiz-adv-x="1208" d="M-92 -430l297 1511h229l-125 -635q-6 -29 -9 -55t-3 -49q0 -96 46.5 -146.5t135.5 -50.5q122 0 193.5 88.5t111.5 292.5l109 555h225l-145 -739q-10 -49 -14.5 -81.5t-4.5 -51.5q0 -36 15.5 -51t52.5 -15q13 0 20.5 0.5t13.5 1.5l-32 -159q-32 -9 -68.5 -13t-81.5 -4 q-74 0 -111.5 31.5t-37.5 93.5v15q-41 -67 -108 -104.5t-146 -37.5q-81 0 -137.5 26t-97.5 83l-99 -506h-229z" />
<glyph unicode="&#xb6;" d="M55 1130q0 158 107 253.5t284 95.5h523v-99h-117v-1380h-129v1380h-168v-1380h-131v784q-168 6 -268.5 101t-100.5 245z" />
<glyph unicode="&#xb7;" horiz-adv-x="397" d="M76 684q0 50 36.5 86.5t86.5 36.5q51 0 87 -36t36 -87t-36.5 -87t-86.5 -36q-49 0 -86 37t-37 86z" />
<glyph unicode="&#xb8;" d="M268 -319q85 -21 148.5 -31t105.5 -10q55 0 82 18.5t27 56.5q0 46 -31 66t-102 20q-19 0 -29.5 -0.5t-19.5 -1.5v201h90v-96h20q110 0 168.5 -47t58.5 -136q0 -97 -64.5 -145.5t-195.5 -48.5q-50 0 -115.5 11t-142.5 32v111z" />
<glyph unicode="&#xb9;" horiz-adv-x="526" d="M127 545v98h70v625h-70v96h211v-721h72v-98h-283z" />
<glyph unicode="&#xba;" horiz-adv-x="551" d="M41 1004v153q0 121 59.5 184.5t173.5 63.5q116 0 176 -63.5t60 -184.5v-153q0 -123 -60 -186.5t-176 -63.5q-115 0 -174 63.5t-59 186.5zM195 1004q0 -66 19.5 -98t59.5 -32q42 0 62 32.5t20 97.5v153q0 65 -20 97t-62 32q-40 0 -59.5 -31.5t-19.5 -97.5v-153z" />
<glyph unicode="&#xbb;" horiz-adv-x="936" d="M57 139l244 318l-244 317h197l242 -317l-242 -318h-197zM440 139l244 318l-244 317h197l242 -317l-242 -318h-197z" />
<glyph unicode="&#xbc;" horiz-adv-x="1346" d="M121 600v92h65v582h-65v92h201v-674h67v-92h-268zM160 -29l913 1424h111l-914 -1424h-110zM870 211v98l236 457h127v-465h61v-90h-61v-121h61v-90h-256v90h68v121h-236zM963 301h145l2 285z" />
<glyph unicode="&#xbd;" horiz-adv-x="1346" d="M121 600v92h65v582h-65v92h201v-674h67v-92h-268zM160 -29l913 1424h111l-914 -1424h-110zM881 0v98l178 260q50 73 72 126t22 98q0 47 -17 69.5t-53 22.5q-41 0 -60 -27.5t-19 -87.5v-39h-119v47q0 106 52 159.5t157 53.5q91 0 142.5 -49.5t51.5 -136.5 q0 -49 -22.5 -105.5t-71.5 -128.5l-178 -264h168v109h110v-205h-413z" />
<glyph unicode="&#xbe;" horiz-adv-x="1346" d="M41 795v34h117v-28q0 -60 20 -89.5t62 -29.5q45 0 62 25.5t17 103.5q0 87 -23.5 113t-90.5 26h-8v92h4q68 0 93 26.5t25 102.5q0 61 -17.5 87t-57.5 26t-59 -28t-19 -87v-22h-117v29q0 103 48.5 153.5t146.5 50.5q97 0 147.5 -51.5t50.5 -150.5q0 -86 -30 -129.5 t-90 -44.5q61 -7 95 -58.5t34 -138.5q0 -111 -52.5 -167t-156.5 -56q-101 0 -151 52t-50 159zM160 -29l913 1424h111l-914 -1424h-110zM870 211v98l236 457h127v-465h61v-90h-61v-121h61v-90h-256v90h68v121h-236zM963 301h145l2 285z" />
<glyph unicode="&#xbf;" horiz-adv-x="811" d="M92 344q0 165 73 258t210 103v266h180v-406h-31q-130 0 -187.5 -52.5t-57.5 -170.5q0 -94 38 -143t111 -49q64 0 99.5 41t35.5 114h180v-43q0 -136 -85 -213.5t-234 -77.5q-162 0 -247 95.5t-85 277.5zM340 1303q0 49 37.5 83.5t89.5 34.5q48 0 83.5 -36.5t35.5 -86.5 q0 -49 -36.5 -84.5t-86.5 -35.5q-53 0 -88 35.5t-35 89.5z" />
<glyph unicode="&#xc0;" horiz-adv-x="1100" d="M20 0v180h89l274 1034h-121v181h586v-181h-121l270 -1034h82v-180h-440v180h123l-55 234h-332l-58 -234h119v-180h-416zM299 1892h215l178 -358h-121zM412 569h260l-127 568z" />
<glyph unicode="&#xc1;" horiz-adv-x="1100" d="M20 0v180h89l274 1034h-121v181h586v-181h-121l270 -1034h82v-180h-440v180h123l-55 234h-332l-58 -234h119v-180h-416zM410 1534l180 358h215l-272 -358h-123zM412 569h260l-127 568z" />
<glyph unicode="&#xc2;" horiz-adv-x="1100" d="M20 0v180h89l274 1034h-121v181h586v-181h-121l270 -1034h82v-180h-440v180h123l-55 234h-332l-58 -234h119v-180h-416zM277 1534l174 358h200l174 -358h-120l-154 215l-154 -215h-120zM412 569h260l-127 568z" />
<glyph unicode="&#xc3;" horiz-adv-x="1100" d="M20 0v180h89l274 1034h-121v181h586v-181h-121l270 -1034h82v-180h-440v180h123l-55 234h-332l-58 -234h119v-180h-416zM272 1579q20 110 66.5 166.5t116.5 56.5q15 0 32 -3t33 -9l87 -27q14 -5 26 -7.5t22 -2.5q31 0 50 18.5t32 61.5h93q-22 -116 -67.5 -172.5 t-117.5 -56.5q-14 0 -29 2.5t-34 7.5l-85 29q-11 4 -22.5 6t-25.5 2q-34 0 -53 -16.5t-31 -55.5h-93zM412 569h260l-127 568z" />
<glyph unicode="&#xc4;" horiz-adv-x="1100" d="M20 0v180h89l274 1034h-121v181h586v-181h-121l270 -1034h82v-180h-440v180h123l-55 234h-332l-58 -234h119v-180h-416zM279 1591v230h206v-230h-206zM412 569h260l-127 568zM617 1591v230h206v-230h-206z" />
<glyph unicode="&#xc5;" horiz-adv-x="1100" d="M20 0v180h89l274 1034h-121v181h586v-181h-121l270 -1034h82v-180h-440v180h123l-55 234h-332l-58 -234h119v-180h-416zM289 1718q0 110 73.5 184t182.5 74t184.5 -75t75.5 -183t-75.5 -183t-184.5 -75t-182.5 74.5t-73.5 183.5zM412 569h260l-127 568zM416 1718 q0 -55 38 -93t93 -38t92 38t37 93q0 56 -37 93.5t-92 37.5t-93 -37.5t-38 -93.5z" />
<glyph unicode="&#xc6;" horiz-adv-x="1569" d="M-47 0v180h86l428 1034h-133v181h1153v-394h-197v216h-332v-379h267v-201h-267v-459h334v250h201v-428h-891v180h115v314h-336l-127 -314h121v-180h-422zM444 647h273v582h-39z" />
<glyph unicode="&#xc7;" horiz-adv-x="885" d="M63 422v512q0 242 86.5 364.5t258.5 122.5q73 0 132.5 -25.5t100.5 -76.5v76h176v-420h-190l-2 37q-7 107 -45 160t-109 53q-84 0 -124 -53.5t-40 -167.5v-615q0 -114 39.5 -166.5t124.5 -52.5q82 0 123 55.5t41 165.5v70h205v-58q0 -211 -99 -321.5t-288 -110.5 q-192 0 -291 114.5t-99 336.5zM198 -319q85 -21 148.5 -31t105.5 -10q55 0 82 18.5t27 56.5q0 46 -31 66t-102 20q-19 0 -29.5 -0.5t-19.5 -1.5v201h90v-96h20q110 0 168.5 -47t58.5 -136q0 -97 -64.5 -145.5t-195.5 -48.5q-50 0 -115.5 11t-142.5 32v111z" />
<glyph unicode="&#xc8;" d="M51 0v180h115v1034h-115v181h897v-394h-198v216h-342v-379h286v-201h-286v-459h342v250h198v-428h-897zM260 1892h215l178 -358h-121z" />
<glyph unicode="&#xc9;" d="M51 0v180h115v1034h-115v181h897v-394h-198v216h-342v-379h286v-201h-286v-459h342v250h198v-428h-897zM371 1534l180 358h215l-272 -358h-123z" />
<glyph unicode="&#xca;" d="M51 0v180h115v1034h-115v181h897v-394h-198v216h-342v-379h286v-201h-286v-459h342v250h198v-428h-897zM238 1534l174 358h200l174 -358h-120l-154 215l-154 -215h-120z" />
<glyph unicode="&#xcb;" d="M51 0v180h115v1034h-115v181h897v-394h-198v216h-342v-379h286v-201h-286v-459h342v250h198v-428h-897zM240 1591v230h206v-230h-206zM578 1591v230h206v-230h-206z" />
<glyph unicode="&#xcc;" horiz-adv-x="575" d="M37 1892h215l178 -358h-121zM51 0v180h115v1034h-115v181h473v-181h-116v-1034h116v-180h-473z" />
<glyph unicode="&#xcd;" horiz-adv-x="575" d="M51 0v180h115v1034h-115v181h473v-181h-116v-1034h116v-180h-473zM148 1534l180 358h215l-272 -358h-123z" />
<glyph unicode="&#xce;" horiz-adv-x="575" d="M15 1534l174 358h200l174 -358h-120l-154 215l-154 -215h-120zM51 0v180h115v1034h-115v181h473v-181h-116v-1034h116v-180h-473z" />
<glyph unicode="&#xcf;" horiz-adv-x="575" d="M17 1591v230h206v-230h-206zM51 0v180h115v1034h-115v181h473v-181h-116v-1034h116v-180h-473zM355 1591v230h206v-230h-206z" />
<glyph unicode="&#xd0;" horiz-adv-x="1036" d="M0 678v123h166v413h-115v181h381q295 0 417 -109t122 -371v-368q0 -292 -115.5 -419.5t-378.5 -127.5h-426v180h115v498h-166zM408 178h45q147 0 211.5 77t64.5 253v450q0 141 -60 200t-202 59h-59v-416h155v-123h-155v-500z" />
<glyph unicode="&#xd1;" horiz-adv-x="1145" d="M51 0v180h115v1034h-115v181h361l370 -955v774h-110v181h422v-181h-115v-1222h-207l-405 1036v-848h108v-180h-424zM294 1579q20 110 66.5 166.5t116.5 56.5q15 0 32 -3t33 -9l87 -27q14 -5 26 -7.5t22 -2.5q31 0 50 18.5t32 61.5h93q-22 -116 -67.5 -172.5t-117.5 -56.5 q-14 0 -29 2.5t-34 7.5l-85 29q-11 4 -22.5 6t-25.5 2q-34 0 -53 -16.5t-31 -55.5h-93z" />
<glyph unicode="&#xd2;" horiz-adv-x="922" d="M63 389v615q0 205 101.5 311t296.5 106t296 -106t101 -311v-615q0 -206 -101 -312t-296 -106t-296.5 106t-101.5 312zM209 1892h215l178 -358h-121zM307 377q0 -108 37 -157.5t117 -49.5t116.5 49.5t36.5 157.5v641q0 108 -36.5 157.5t-116.5 49.5t-117 -49.5t-37 -157.5 v-641z" />
<glyph unicode="&#xd3;" horiz-adv-x="922" d="M63 389v615q0 205 101.5 311t296.5 106t296 -106t101 -311v-615q0 -206 -101 -312t-296 -106t-296.5 106t-101.5 312zM307 377q0 -108 37 -157.5t117 -49.5t116.5 49.5t36.5 157.5v641q0 108 -36.5 157.5t-116.5 49.5t-117 -49.5t-37 -157.5v-641zM320 1534l180 358h215 l-272 -358h-123z" />
<glyph unicode="&#xd4;" horiz-adv-x="922" d="M63 389v615q0 205 101.5 311t296.5 106t296 -106t101 -311v-615q0 -206 -101 -312t-296 -106t-296.5 106t-101.5 312zM187 1534l174 358h200l174 -358h-120l-154 215l-154 -215h-120zM307 377q0 -108 37 -157.5t117 -49.5t116.5 49.5t36.5 157.5v641q0 108 -36.5 157.5 t-116.5 49.5t-117 -49.5t-37 -157.5v-641z" />
<glyph unicode="&#xd5;" horiz-adv-x="922" d="M63 389v615q0 205 101.5 311t296.5 106t296 -106t101 -311v-615q0 -206 -101 -312t-296 -106t-296.5 106t-101.5 312zM182 1579q20 110 66.5 166.5t116.5 56.5q15 0 32 -3t33 -9l87 -27q14 -5 26 -7.5t22 -2.5q31 0 50 18.5t32 61.5h93q-22 -116 -67.5 -172.5 t-117.5 -56.5q-14 0 -29 2.5t-34 7.5l-85 29q-11 4 -22.5 6t-25.5 2q-34 0 -53 -16.5t-31 -55.5h-93zM307 377q0 -108 37 -157.5t117 -49.5t116.5 49.5t36.5 157.5v641q0 108 -36.5 157.5t-116.5 49.5t-117 -49.5t-37 -157.5v-641z" />
<glyph unicode="&#xd6;" horiz-adv-x="922" d="M63 389v615q0 205 101.5 311t296.5 106t296 -106t101 -311v-615q0 -206 -101 -312t-296 -106t-296.5 106t-101.5 312zM189 1591v230h206v-230h-206zM307 377q0 -108 37 -157.5t117 -49.5t116.5 49.5t36.5 157.5v641q0 108 -36.5 157.5t-116.5 49.5t-117 -49.5t-37 -157.5 v-641zM527 1591v230h206v-230h-206z" />
<glyph unicode="&#xd7;" horiz-adv-x="1706" d="M287 152l458 458l-458 461l116 117l459 -459l461 459l117 -117l-459 -461l459 -458l-117 -119l-461 461l-459 -461z" />
<glyph unicode="&#xd8;" horiz-adv-x="922" d="M47 -190l113 278q-49 51 -73 124.5t-24 176.5v615q0 205 101.5 311t296.5 106q60 0 111 -10t96 -31l71 185h123l-100 -252q49 -57 72.5 -132t23.5 -177v-615q0 -206 -101 -312t-296 -106q-64 0 -114.5 10.5t-94.5 32.5l-82 -204h-123zM307 424l281 735q-19 33 -51 49.5 t-76 16.5q-80 0 -117 -49.5t-37 -157.5v-594zM330 238q20 -34 52.5 -51t78.5 -17q80 0 116.5 49.5t36.5 157.5v612z" />
<glyph unicode="&#xd9;" horiz-adv-x="1130" d="M51 1214v181h465v-181h-108v-849q0 -102 37.5 -148.5t119.5 -46.5q81 0 118.5 46.5t37.5 148.5v849h-109v181h465v-181h-114v-862q0 -186 -101.5 -283.5t-296.5 -97.5t-297 97.5t-102 283.5v862h-115zM313 1892h215l178 -358h-121z" />
<glyph unicode="&#xda;" horiz-adv-x="1130" d="M51 1214v181h465v-181h-108v-849q0 -102 37.5 -148.5t119.5 -46.5q81 0 118.5 46.5t37.5 148.5v849h-109v181h465v-181h-114v-862q0 -186 -101.5 -283.5t-296.5 -97.5t-297 97.5t-102 283.5v862h-115zM424 1534l180 358h215l-272 -358h-123z" />
<glyph unicode="&#xdb;" horiz-adv-x="1130" d="M51 1214v181h465v-181h-108v-849q0 -102 37.5 -148.5t119.5 -46.5q81 0 118.5 46.5t37.5 148.5v849h-109v181h465v-181h-114v-862q0 -186 -101.5 -283.5t-296.5 -97.5t-297 97.5t-102 283.5v862h-115zM291 1534l174 358h200l174 -358h-120l-154 215l-154 -215h-120z" />
<glyph unicode="&#xdc;" horiz-adv-x="1130" d="M51 1214v181h465v-181h-108v-849q0 -102 37.5 -148.5t119.5 -46.5q81 0 118.5 46.5t37.5 148.5v849h-109v181h465v-181h-114v-862q0 -186 -101.5 -283.5t-296.5 -97.5t-297 97.5t-102 283.5v862h-115zM293 1591v230h206v-230h-206zM631 1591v230h206v-230h-206z" />
<glyph unicode="&#xdd;" d="M25 1214v181h424v-181h-101l164 -452l186 452h-100v181h401v-181h-81l-300 -665v-369h115v-180h-471v180h115v377l-268 657h-84zM371 1534l180 358h215l-272 -358h-123z" />
<glyph unicode="&#xde;" horiz-adv-x="997" d="M51 0v180h115v1034h-115v181h473v-181h-116v-114h135q205 0 300 -81t95 -255v-98q0 -177 -81 -260.5t-253 -83.5h-196v-142h116v-180h-473zM408 494h100q117 0 158 37.5t41 144.5v94q0 90 -44 125t-159 35h-96v-436z" />
<glyph unicode="&#xdf;" horiz-adv-x="901" d="M41 0v164h78v854q0 189 81 283t244 94q137 0 215 -80t78 -219v-88q0 -82 -35.5 -139.5t-109.5 -94.5q111 -28 169 -112t58 -218v-86q0 -176 -71.5 -275t-198.5 -99q-37 0 -66 6.5t-51 19.5l25 145q16 -4 30.5 -6t30.5 -2q50 0 72 49t22 160v103q0 121 -38.5 175 t-124.5 54q-6 0 -16 -1t-15 -1v145q68 5 97.5 40t29.5 114v90q0 77 -26.5 113.5t-82.5 36.5q-55 0 -83.5 -39.5t-28.5 -116.5v-1069h-283z" />
<glyph unicode="&#xe0;" horiz-adv-x="827" d="M74 336v266q0 145 63.5 227t175.5 82q71 0 120.5 -29t88.5 -94v107h254v-164h-78v-567h78v-164h-266v102q-47 -60 -97.5 -89t-109.5 -29q-111 0 -170 90.5t-59 261.5zM162 1382h215l178 -358h-121zM279 315q0 -82 23 -119.5t73 -37.5q54 0 86.5 47t32.5 129v241 q0 83 -28.5 123.5t-84.5 40.5q-53 0 -77.5 -39t-24.5 -122v-263z" />
<glyph unicode="&#xe1;" horiz-adv-x="827" d="M74 336v266q0 145 63.5 227t175.5 82q71 0 120.5 -29t88.5 -94v107h254v-164h-78v-567h78v-164h-266v102q-47 -60 -97.5 -89t-109.5 -29q-111 0 -170 90.5t-59 261.5zM273 1024l180 358h215l-272 -358h-123zM279 315q0 -82 23 -119.5t73 -37.5q54 0 86.5 47t32.5 129v241 q0 83 -28.5 123.5t-84.5 40.5q-53 0 -77.5 -39t-24.5 -122v-263z" />
<glyph unicode="&#xe2;" horiz-adv-x="827" d="M74 336v266q0 145 63.5 227t175.5 82q71 0 120.5 -29t88.5 -94v107h254v-164h-78v-567h78v-164h-266v102q-47 -60 -97.5 -89t-109.5 -29q-111 0 -170 90.5t-59 261.5zM140 1024l174 358h200l174 -358h-120l-154 215l-154 -215h-120zM279 315q0 -82 23 -119.5t73 -37.5 q54 0 86.5 47t32.5 129v241q0 83 -28.5 123.5t-84.5 40.5q-53 0 -77.5 -39t-24.5 -122v-263z" />
<glyph unicode="&#xe3;" horiz-adv-x="827" d="M74 336v266q0 145 63.5 227t175.5 82q71 0 120.5 -29t88.5 -94v107h254v-164h-78v-567h78v-164h-266v102q-47 -60 -97.5 -89t-109.5 -29q-111 0 -170 90.5t-59 261.5zM135 1069q20 110 66.5 166.5t116.5 56.5q15 0 32 -3t33 -9l87 -27q14 -5 26 -7.5t22 -2.5 q31 0 50 18.5t32 61.5h93q-22 -116 -67.5 -172.5t-117.5 -56.5q-14 0 -29 2.5t-34 7.5l-85 29q-11 4 -22.5 6t-25.5 2q-34 0 -53 -16.5t-31 -55.5h-93zM279 315q0 -82 23 -119.5t73 -37.5q54 0 86.5 47t32.5 129v241q0 83 -28.5 123.5t-84.5 40.5q-53 0 -77.5 -39 t-24.5 -122v-263z" />
<glyph unicode="&#xe4;" horiz-adv-x="827" d="M74 336v266q0 145 63.5 227t175.5 82q71 0 120.5 -29t88.5 -94v107h254v-164h-78v-567h78v-164h-266v102q-47 -60 -97.5 -89t-109.5 -29q-111 0 -170 90.5t-59 261.5zM142 1081v230h206v-230h-206zM279 315q0 -82 23 -119.5t73 -37.5q54 0 86.5 47t32.5 129v241 q0 83 -28.5 123.5t-84.5 40.5q-53 0 -77.5 -39t-24.5 -122v-263zM480 1081v230h206v-230h-206z" />
<glyph unicode="&#xe5;" horiz-adv-x="827" d="M74 336v266q0 145 63.5 227t175.5 82q71 0 120.5 -29t88.5 -94v107h254v-164h-78v-567h78v-164h-266v102q-47 -60 -97.5 -89t-109.5 -29q-111 0 -170 90.5t-59 261.5zM197 1237q0 109 74.5 183.5t183.5 74.5t183.5 -74.5t74.5 -183.5t-74.5 -183.5t-183.5 -74.5 t-183.5 74.5t-74.5 183.5zM279 315q0 -82 23 -119.5t73 -37.5q54 0 86.5 47t32.5 129v241q0 83 -28.5 123.5t-84.5 40.5q-53 0 -77.5 -39t-24.5 -122v-263zM324 1237q0 -55 37.5 -93t93.5 -38q54 0 91.5 38t37.5 93q0 54 -38 92.5t-91 38.5q-56 0 -93.5 -38t-37.5 -93z" />
<glyph unicode="&#xe6;" horiz-adv-x="1155" d="M53 256v57q0 117 72 193t184 76q52 0 94 -16t78 -50v96q0 65 -32 101.5t-91 36.5q-45 0 -77.5 -24t-44.5 -67h-136v236h129v-49q35 33 75.5 50t84.5 17q65 0 116 -22t91 -68q42 46 91 68t106 22q144 0 224.5 -100.5t80.5 -282.5v-124h-412v-58q0 -104 28 -154.5t85 -50.5 q46 0 74 35.5t36 102.5l185 -1q-10 -142 -89 -219t-214 -77q-79 0 -139 28.5t-97 83.5q-44 -56 -101 -84t-128 -28q-120 0 -196.5 76.5t-76.5 195.5zM256 276q0 -60 31 -96.5t82 -36.5q49 0 80.5 37t31.5 96v25q0 60 -31.5 97.5t-80.5 37.5t-81 -38t-32 -97v-25zM686 543 h217v49q0 74 -27.5 116t-76.5 42q-60 0 -86.5 -43t-26.5 -140v-24z" />
<glyph unicode="&#xe7;" horiz-adv-x="711" d="M57 375v188q0 167 68 258.5t190 91.5q46 0 91 -21t92 -65v68h147v-301h-168q-6 75 -34 112t-78 37q-54 0 -78.5 -46t-24.5 -150v-182q0 -113 25.5 -162t83.5 -49q55 0 82.5 41.5t27.5 126.5v10h185v-23q0 -153 -77 -239t-214 -86q-157 0 -237.5 98.5t-80.5 292.5z M112 -319q85 -21 148.5 -31t105.5 -10q55 0 82 18.5t27 56.5q0 46 -31 66t-102 20q-19 0 -29.5 -0.5t-19.5 -1.5v201h90v-96h20q110 0 168.5 -47t58.5 -136q0 -97 -64.5 -145.5t-195.5 -48.5q-50 0 -115.5 11t-142.5 32v111z" />
<glyph unicode="&#xe8;" horiz-adv-x="731" d="M57 360v162q0 182 82 286.5t221 104.5q152 0 233 -98.5t81 -284.5v-124h-412v-58q0 -100 28 -147t87 -47q48 0 75.5 31.5t34.5 94.5h185q-10 -143 -89 -219.5t-218 -76.5q-152 0 -230 95.5t-78 280.5zM115 1382h215l178 -358h-121zM262 543h219v49q0 74 -28 116t-76 42 q-60 0 -87.5 -43.5t-27.5 -139.5v-24z" />
<glyph unicode="&#xe9;" horiz-adv-x="731" d="M57 360v162q0 182 82 286.5t221 104.5q152 0 233 -98.5t81 -284.5v-124h-412v-58q0 -100 28 -147t87 -47q48 0 75.5 31.5t34.5 94.5h185q-10 -143 -89 -219.5t-218 -76.5q-152 0 -230 95.5t-78 280.5zM226 1024l180 358h215l-272 -358h-123zM262 543h219v49q0 74 -28 116 t-76 42q-60 0 -87.5 -43.5t-27.5 -139.5v-24z" />
<glyph unicode="&#xea;" horiz-adv-x="731" d="M57 360v162q0 182 82 286.5t221 104.5q152 0 233 -98.5t81 -284.5v-124h-412v-58q0 -100 28 -147t87 -47q48 0 75.5 31.5t34.5 94.5h185q-10 -143 -89 -219.5t-218 -76.5q-152 0 -230 95.5t-78 280.5zM93 1024l174 358h200l174 -358h-120l-154 215l-154 -215h-120z M262 543h219v49q0 74 -28 116t-76 42q-60 0 -87.5 -43.5t-27.5 -139.5v-24z" />
<glyph unicode="&#xeb;" horiz-adv-x="731" d="M57 360v162q0 182 82 286.5t221 104.5q152 0 233 -98.5t81 -284.5v-124h-412v-58q0 -100 28 -147t87 -47q48 0 75.5 31.5t34.5 94.5h185q-10 -143 -89 -219.5t-218 -76.5q-152 0 -230 95.5t-78 280.5zM95 1081v230h206v-230h-206zM262 543h219v49q0 74 -28 116t-76 42 q-60 0 -87.5 -43.5t-27.5 -139.5v-24zM433 1081v230h206v-230h-206z" />
<glyph unicode="&#xec;" horiz-adv-x="461" d="M-21 1382h215l178 -358h-121zM59 0v164h78v567h-78v164h283v-731h78v-164h-361z" />
<glyph unicode="&#xed;" horiz-adv-x="461" d="M59 0v164h78v567h-78v164h283v-731h78v-164h-361zM90 1024l180 358h215l-272 -358h-123z" />
<glyph unicode="&#xee;" horiz-adv-x="461" d="M-43 1024l174 358h200l174 -358h-120l-154 215l-154 -215h-120zM59 0v164h78v567h-78v164h283v-731h78v-164h-361z" />
<glyph unicode="&#xef;" horiz-adv-x="461" d="M-41 1081v230h206v-230h-206zM59 0v164h78v567h-78v164h283v-731h78v-164h-361zM297 1081v230h206v-230h-206z" />
<glyph unicode="&#xf0;" horiz-adv-x="739" d="M57 338v221q0 170 78.5 261t222.5 91q28 0 51.5 -6t45.5 -18l-111 227l-203 -59l-26 73l194 58l-94 209h191l77 -156l164 53l25 -75l-154 -50l80 -166q45 -90 64.5 -190t19.5 -252v-221q0 -174 -79 -264t-232 -90t-233.5 90.5t-80.5 263.5zM262 338q0 -93 27 -138.5 t82 -45.5q54 0 80 45t26 139v221q0 94 -26 139t-80 45q-55 0 -82 -45.5t-27 -138.5v-221z" />
<glyph unicode="&#xf1;" horiz-adv-x="909" d="M61 0v164h80v567h-80v164h265v-117q51 69 110 102t129 33q110 0 160.5 -63t50.5 -201v-485h78v-164h-360v164h79v434q0 72 -19.5 103.5t-64.5 31.5q-48 0 -85 -21.5t-60 -62.5v-485h78v-164h-361zM176 1069q20 110 66.5 166.5t116.5 56.5q15 0 32 -3t33 -9l87 -27 q14 -5 26 -7.5t22 -2.5q31 0 50 18.5t32 61.5h93q-22 -116 -67.5 -172.5t-117.5 -56.5q-14 0 -29 2.5t-34 7.5l-85 29q-11 4 -22.5 6t-25.5 2q-34 0 -53 -16.5t-31 -55.5h-93z" />
<glyph unicode="&#xf2;" horiz-adv-x="735" d="M55 338v221q0 174 79.5 264t232.5 90q152 0 232.5 -90.5t80.5 -263.5v-221q0 -173 -80.5 -263.5t-232.5 -90.5q-153 0 -232.5 90t-79.5 264zM117 1382h215l178 -358h-121zM260 338q0 -94 26 -139t81 -45q54 0 81 45.5t27 138.5v221q0 93 -27 138.5t-81 45.5 q-55 0 -81 -45t-26 -139v-221z" />
<glyph unicode="&#xf3;" horiz-adv-x="735" d="M55 338v221q0 174 79.5 264t232.5 90q152 0 232.5 -90.5t80.5 -263.5v-221q0 -173 -80.5 -263.5t-232.5 -90.5q-153 0 -232.5 90t-79.5 264zM228 1024l180 358h215l-272 -358h-123zM260 338q0 -94 26 -139t81 -45q54 0 81 45.5t27 138.5v221q0 93 -27 138.5t-81 45.5 q-55 0 -81 -45t-26 -139v-221z" />
<glyph unicode="&#xf4;" horiz-adv-x="735" d="M55 338v221q0 174 79.5 264t232.5 90q152 0 232.5 -90.5t80.5 -263.5v-221q0 -173 -80.5 -263.5t-232.5 -90.5q-153 0 -232.5 90t-79.5 264zM95 1024l174 358h200l174 -358h-120l-154 215l-154 -215h-120zM260 338q0 -94 26 -139t81 -45q54 0 81 45.5t27 138.5v221 q0 93 -27 138.5t-81 45.5q-55 0 -81 -45t-26 -139v-221z" />
<glyph unicode="&#xf5;" horiz-adv-x="735" d="M55 338v221q0 174 79.5 264t232.5 90q152 0 232.5 -90.5t80.5 -263.5v-221q0 -173 -80.5 -263.5t-232.5 -90.5q-153 0 -232.5 90t-79.5 264zM90 1069q20 110 66.5 166.5t116.5 56.5q15 0 32 -3t33 -9l87 -27q14 -5 26 -7.5t22 -2.5q31 0 50 18.5t32 61.5h93 q-22 -116 -67.5 -172.5t-117.5 -56.5q-14 0 -29 2.5t-34 7.5l-85 29q-11 4 -22.5 6t-25.5 2q-34 0 -53 -16.5t-31 -55.5h-93zM260 338q0 -94 26 -139t81 -45q54 0 81 45.5t27 138.5v221q0 93 -27 138.5t-81 45.5q-55 0 -81 -45t-26 -139v-221z" />
<glyph unicode="&#xf6;" horiz-adv-x="735" d="M55 338v221q0 174 79.5 264t232.5 90q152 0 232.5 -90.5t80.5 -263.5v-221q0 -173 -80.5 -263.5t-232.5 -90.5q-153 0 -232.5 90t-79.5 264zM97 1081v230h206v-230h-206zM260 338q0 -94 26 -139t81 -45q54 0 81 45.5t27 138.5v221q0 93 -27 138.5t-81 45.5q-55 0 -81 -45 t-26 -139v-221zM435 1081v230h206v-230h-206z" />
<glyph unicode="&#xf7;" horiz-adv-x="1706" d="M254 528v166h1198v-166h-1198zM717 229q0 57 40.5 97.5t96.5 40.5q57 0 97 -40.5t40 -97.5q0 -56 -39.5 -95.5t-97.5 -39.5t-97.5 39t-39.5 96zM717 989q0 57 40.5 98t96.5 41q57 0 97 -41t40 -98q0 -56 -39.5 -95.5t-97.5 -39.5t-97.5 39t-39.5 96z" />
<glyph unicode="&#xf8;" horiz-adv-x="739" d="M41 -166l106 229q-45 40 -68.5 109t-23.5 166v221q0 174 79.5 264t232.5 90q43 0 81 -7.5t72 -22.5l78 174h94l-102 -223q45 -46 67.5 -114.5t22.5 -160.5v-221q0 -173 -80.5 -263.5t-232.5 -90.5q-45 0 -82 7.5t-68 22.5l-82 -180h-94zM258 334q0 -24 0.5 -33t1.5 -16 l191 417q-11 23 -33.5 36.5t-50.5 13.5q-55 0 -82 -47.5t-27 -143.5v-227zM281 193q16 -25 37 -36.5t49 -11.5q56 0 83 46.5t27 142.5v227q0 24 -0.5 36t-1.5 21z" />
<glyph unicode="&#xf9;" horiz-adv-x="887" d="M53 731v164h283v-596q0 -75 20.5 -106t67.5 -31q51 0 89 28.5t50 75.5v465h-78v164h283v-731h78v-164h-264v117q-51 -68 -110 -100.5t-130 -32.5q-110 0 -160.5 62t-50.5 200v485h-78zM192 1382h215l178 -358h-121z" />
<glyph unicode="&#xfa;" horiz-adv-x="887" d="M53 731v164h283v-596q0 -75 20.5 -106t67.5 -31q51 0 89 28.5t50 75.5v465h-78v164h283v-731h78v-164h-264v117q-51 -68 -110 -100.5t-130 -32.5q-110 0 -160.5 62t-50.5 200v485h-78zM303 1024l180 358h215l-272 -358h-123z" />
<glyph unicode="&#xfb;" horiz-adv-x="887" d="M53 731v164h283v-596q0 -75 20.5 -106t67.5 -31q51 0 89 28.5t50 75.5v465h-78v164h283v-731h78v-164h-264v117q-51 -68 -110 -100.5t-130 -32.5q-110 0 -160.5 62t-50.5 200v485h-78zM170 1024l174 358h200l174 -358h-120l-154 215l-154 -215h-120z" />
<glyph unicode="&#xfc;" horiz-adv-x="887" d="M53 731v164h283v-596q0 -75 20.5 -106t67.5 -31q51 0 89 28.5t50 75.5v465h-78v164h283v-731h78v-164h-264v117q-51 -68 -110 -100.5t-130 -32.5q-110 0 -160.5 62t-50.5 200v485h-78zM172 1081v230h206v-230h-206zM510 1081v230h206v-230h-206z" />
<glyph unicode="&#xfd;" horiz-adv-x="825" d="M10 731v164h344v-164h-73l133 -457l147 457h-82v164h336v-164h-74l-352 -946h96v-164h-366v164h90l100 270l-229 676h-70zM273 1024l180 358h215l-272 -358h-123z" />
<glyph unicode="&#xfe;" horiz-adv-x="815" d="M41 -215h78v1444h-78v166h283v-586q36 50 88 76t114 26q104 0 160.5 -65t56.5 -184v-418q0 -122 -56.5 -191t-156.5 -69q-61 0 -111.5 24t-94.5 74v-297h77v-164h-360v164zM324 332q0 -89 30.5 -132.5t94.5 -43.5q46 0 68 32t22 101v313q0 65 -25 97t-74 32 q-55 0 -85.5 -39t-30.5 -110v-250z" />
<glyph unicode="&#xff;" horiz-adv-x="825" d="M10 731v164h344v-164h-73l133 -457l147 457h-82v164h336v-164h-74l-352 -946h96v-164h-366v164h90l100 270l-229 676h-70zM142 1081v230h206v-230h-206zM480 1081v230h206v-230h-206z" />
<glyph unicode="&#x152;" horiz-adv-x="1483" d="M63 492v411q0 250 116 371t356 121h866v-394h-197v216h-334v-379h299v-201h-299v-459h336v250h201v-428h-872q-240 0 -356 120.5t-116 371.5zM307 459q0 -141 50 -208t155 -67q70 0 94.5 27.5t24.5 116.5v739q0 89 -24.5 116t-94.5 27q-105 0 -155 -66.5t-50 -207.5v-477 z" />
<glyph unicode="&#x153;" horiz-adv-x="1149" d="M57 338v221q0 173 80.5 263.5t233.5 90.5q69 0 122 -24t95 -76q34 49 87 74.5t118 25.5q140 0 219.5 -100.5t79.5 -282.5v-124h-410v-58q0 -101 27 -147.5t86 -46.5q48 0 75 31t35 95l184 1q-9 -143 -88.5 -220t-218.5 -77q-68 0 -119.5 23t-82.5 69q-36 -46 -88 -69 t-121 -23q-153 0 -233.5 90.5t-80.5 263.5zM262 338q0 -93 27 -138.5t82 -45.5q54 0 80 45t26 139v221q0 94 -26 139t-80 45q-55 0 -82 -45.5t-27 -138.5v-221zM682 543h217v49q0 73 -27 112t-77 39q-61 0 -87 -40.5t-26 -135.5v-24z" />
<glyph unicode="&#x178;" d="M25 1214v181h424v-181h-101l164 -452l186 452h-100v181h401v-181h-81l-300 -665v-369h115v-180h-471v180h115v377l-268 657h-84zM240 1591v230h206v-230h-206zM578 1591v230h206v-230h-206z" />
<glyph unicode="&#x2c6;" d="M238 1024l174 358h200l174 -358h-120l-154 215l-154 -215h-120z" />
<glyph unicode="&#x2dc;" d="M233 1069q20 110 66.5 166.5t116.5 56.5q15 0 32 -3t33 -9l87 -27q14 -5 26 -7.5t22 -2.5q31 0 50 18.5t32 61.5h93q-22 -116 -67.5 -172.5t-117.5 -56.5q-14 0 -29 2.5t-34 7.5l-85 29q-11 4 -22.5 6t-25.5 2q-34 0 -53 -16.5t-31 -55.5h-93z" />
<glyph unicode="&#x2000;" horiz-adv-x="988" />
<glyph unicode="&#x2001;" horiz-adv-x="1976" />
<glyph unicode="&#x2002;" horiz-adv-x="988" />
<glyph unicode="&#x2003;" horiz-adv-x="1976" />
<glyph unicode="&#x2004;" horiz-adv-x="658" />
<glyph unicode="&#x2005;" horiz-adv-x="494" />
<glyph unicode="&#x2006;" horiz-adv-x="329" />
<glyph unicode="&#x2007;" horiz-adv-x="329" />
<glyph unicode="&#x2008;" horiz-adv-x="247" />
<glyph unicode="&#x2009;" horiz-adv-x="395" />
<glyph unicode="&#x200a;" horiz-adv-x="109" />
<glyph unicode="&#x2010;" horiz-adv-x="621" d="M57 385v170h504v-170h-504z" />
<glyph unicode="&#x2011;" horiz-adv-x="621" d="M57 385v170h504v-170h-504z" />
<glyph unicode="&#x2012;" horiz-adv-x="621" d="M57 385v170h504v-170h-504z" />
<glyph unicode="&#x2013;" d="M0 406v129h1024v-129h-1024z" />
<glyph unicode="&#x2014;" horiz-adv-x="2048" d="M0 406v129h2048v-129h-2048z" />
<glyph unicode="&#x2018;" horiz-adv-x="397" d="M41 967l129 428h174l-129 -428h-174z" />
<glyph unicode="&#x2019;" horiz-adv-x="397" d="M41 967l129 428h174l-129 -428h-174z" />
<glyph unicode="&#x201a;" horiz-adv-x="397" d="M8 -197l129 426h174l-129 -426h-174z" />
<glyph unicode="&#x201c;" horiz-adv-x="731" d="M41 967l129 428h174l-129 -428h-174zM375 967l127 428h176l-129 -428h-174z" />
<glyph unicode="&#x201d;" horiz-adv-x="731" d="M41 967l129 428h174l-129 -428h-174zM375 967l127 428h176l-129 -428h-174z" />
<glyph unicode="&#x201e;" horiz-adv-x="731" d="M12 -197l129 426h174l-129 -426h-174zM346 -197l127 426h174l-127 -426h-174z" />
<glyph unicode="&#x2022;" horiz-adv-x="1208" d="M307 762q0 123 87 209t210 86q122 0 208.5 -86.5t86.5 -208.5t-87.5 -209.5t-209.5 -87.5q-123 0 -209 87t-86 210z" />
<glyph unicode="&#x2026;" horiz-adv-x="2048" d="M219 106q0 50 36.5 86.5t86.5 36.5t86.5 -36t36.5 -87q0 -50 -37 -86t-86 -36t-86 36.5t-37 85.5zM901 106q0 50 36.5 86.5t86.5 36.5t86.5 -36t36.5 -87q0 -50 -37 -86t-86 -36t-86 36.5t-37 85.5zM1585 106q0 50 36.5 86.5t86.5 36.5t86.5 -36t36.5 -87q0 -50 -37 -86 t-86 -36t-86 36.5t-37 85.5z" />
<glyph unicode="&#x202f;" horiz-adv-x="395" />
<glyph unicode="&#x2039;" horiz-adv-x="553" d="M57 457l244 317h195l-242 -317l242 -318h-195z" />
<glyph unicode="&#x203a;" horiz-adv-x="553" d="M57 139l244 318l-244 317h197l242 -317l-242 -318h-197z" />
<glyph unicode="&#x205f;" horiz-adv-x="494" />
<glyph unicode="&#x20ac;" horiz-adv-x="797" d="M0 528l16 105h84v129h-100l16 104h84v109q0 210 77 315t233 105q59 0 107.5 -26t64.5 -69v68h153v-410h-188v80q0 91 -28.5 135t-88.5 44q-55 0 -83 -40t-28 -120v-191h308l-19 -104h-289v-129h261l-17 -105h-244v-219q0 -80 28 -119.5t83 -39.5q57 0 87 40.5t30 118.5 v125h192v-63q0 -206 -75.5 -303t-235.5 -97t-244 106.5t-84 311.5v139h-100z" />
<glyph unicode="&#x2122;" horiz-adv-x="1706" d="M225 1366v94h467v-94h-168v-448h-129v448h-170zM809 918v542h170l141 -360l133 360h170v-542h-114v428l-160 -428h-59l-166 428v-428h-115z" />
<glyph unicode="&#xe000;" horiz-adv-x="895" d="M0 0v895h895v-895h-895z" />
</font>
</defs>
</svg>
